<?xml version="1.0" encoding="utf-8" standalone="no"?>
<!DOCTYPE svg PUBLIC "-//W3C//DTD SVG 1.1//EN"
  "http://www.w3.org/Graphics/SVG/1.1/DTD/svg11.dtd">
<!-- Created with matplotlib (http://matplotlib.org/) -->
<svg height="345pt" version="1.1" viewBox="0 0 460 345" width="460pt" xmlns="http://www.w3.org/2000/svg" xmlns:xlink="http://www.w3.org/1999/xlink">
 <defs>
  <style type="text/css">
*{stroke-linecap:butt;stroke-linejoin:round;}
  </style>
 </defs>
 <g id="figure_1">
  <g id="patch_1">
   <path d="M 0 345.6 
L 460.8 345.6 
L 460.8 0 
L 0 0 
z
" style="fill:#ffffff;"/>
  </g>
  <g id="axes_1">
   <g id="patch_2">
    <path d="M 57.6 307.584 
L 414.72 307.584 
L 414.72 41.472 
L 57.6 41.472 
z
" style="fill:#ffffff;"/>
   </g>
   <g id="matplotlib.axis_1">
    <g id="xtick_1">
     <g id="line2d_1">
      <defs>
       <path d="M 0 0 
L 0 3.5 
" id="m7cc6b0e48e" style="stroke:#000000;stroke-width:0.8;"/>
      </defs>
      <g>
       <use style="stroke:#000000;stroke-width:0.8;" x="73.832727" xlink:href="#m7cc6b0e48e" y="307.584"/>
      </g>
     </g>
     <g id="text_1">
      <!-- 0 -->
      <defs>
       <path d="M 31.78125 66.40625 
Q 24.171875 66.40625 20.328125 58.90625 
Q 16.5 51.421875 16.5 36.375 
Q 16.5 21.390625 20.328125 13.890625 
Q 24.171875 6.390625 31.78125 6.390625 
Q 39.453125 6.390625 43.28125 13.890625 
Q 47.125 21.390625 47.125 36.375 
Q 47.125 51.421875 43.28125 58.90625 
Q 39.453125 66.40625 31.78125 66.40625 
z
M 31.78125 74.21875 
Q 44.046875 74.21875 50.515625 64.515625 
Q 56.984375 54.828125 56.984375 36.375 
Q 56.984375 17.96875 50.515625 8.265625 
Q 44.046875 -1.421875 31.78125 -1.421875 
Q 19.53125 -1.421875 13.0625 8.265625 
Q 6.59375 17.96875 6.59375 36.375 
Q 6.59375 54.828125 13.0625 64.515625 
Q 19.53125 74.21875 31.78125 74.21875 
z
" id="DejaVuSans-30"/>
      </defs>
      <g transform="translate(70.651477 322.182437)scale(0.1 -0.1)">
       <use xlink:href="#DejaVuSans-30"/>
      </g>
     </g>
    </g>
    <g id="xtick_2">
     <g id="line2d_2">
      <g>
       <use style="stroke:#000000;stroke-width:0.8;" x="114.434847" xlink:href="#m7cc6b0e48e" y="307.584"/>
      </g>
     </g>
     <g id="text_2">
      <!-- 250 -->
      <defs>
       <path d="M 19.1875 8.296875 
L 53.609375 8.296875 
L 53.609375 0 
L 7.328125 0 
L 7.328125 8.296875 
Q 12.9375 14.109375 22.625 23.890625 
Q 32.328125 33.6875 34.8125 36.53125 
Q 39.546875 41.84375 41.421875 45.53125 
Q 43.3125 49.21875 43.3125 52.78125 
Q 43.3125 58.59375 39.234375 62.25 
Q 35.15625 65.921875 28.609375 65.921875 
Q 23.96875 65.921875 18.8125 64.3125 
Q 13.671875 62.703125 7.8125 59.421875 
L 7.8125 69.390625 
Q 13.765625 71.78125 18.9375 73 
Q 24.125 74.21875 28.421875 74.21875 
Q 39.75 74.21875 46.484375 68.546875 
Q 53.21875 62.890625 53.21875 53.421875 
Q 53.21875 48.921875 51.53125 44.890625 
Q 49.859375 40.875 45.40625 35.40625 
Q 44.1875 33.984375 37.640625 27.21875 
Q 31.109375 20.453125 19.1875 8.296875 
z
" id="DejaVuSans-32"/>
       <path d="M 10.796875 72.90625 
L 49.515625 72.90625 
L 49.515625 64.59375 
L 19.828125 64.59375 
L 19.828125 46.734375 
Q 21.96875 47.46875 24.109375 47.828125 
Q 26.265625 48.1875 28.421875 48.1875 
Q 40.625 48.1875 47.75 41.5 
Q 54.890625 34.8125 54.890625 23.390625 
Q 54.890625 11.625 47.5625 5.09375 
Q 40.234375 -1.421875 26.90625 -1.421875 
Q 22.3125 -1.421875 17.546875 -0.640625 
Q 12.796875 0.140625 7.71875 1.703125 
L 7.71875 11.625 
Q 12.109375 9.234375 16.796875 8.0625 
Q 21.484375 6.890625 26.703125 6.890625 
Q 35.15625 6.890625 40.078125 11.328125 
Q 45.015625 15.765625 45.015625 23.390625 
Q 45.015625 31 40.078125 35.4375 
Q 35.15625 39.890625 26.703125 39.890625 
Q 22.75 39.890625 18.8125 39.015625 
Q 14.890625 38.140625 10.796875 36.28125 
z
" id="DejaVuSans-35"/>
      </defs>
      <g transform="translate(104.891097 322.182437)scale(0.1 -0.1)">
       <use xlink:href="#DejaVuSans-32"/>
       <use x="63.623047" xlink:href="#DejaVuSans-35"/>
       <use x="127.246094" xlink:href="#DejaVuSans-30"/>
      </g>
     </g>
    </g>
    <g id="xtick_3">
     <g id="line2d_3">
      <g>
       <use style="stroke:#000000;stroke-width:0.8;" x="155.036966" xlink:href="#m7cc6b0e48e" y="307.584"/>
      </g>
     </g>
     <g id="text_3">
      <!-- 500 -->
      <g transform="translate(145.493216 322.182437)scale(0.1 -0.1)">
       <use xlink:href="#DejaVuSans-35"/>
       <use x="63.623047" xlink:href="#DejaVuSans-30"/>
       <use x="127.246094" xlink:href="#DejaVuSans-30"/>
      </g>
     </g>
    </g>
    <g id="xtick_4">
     <g id="line2d_4">
      <g>
       <use style="stroke:#000000;stroke-width:0.8;" x="195.639085" xlink:href="#m7cc6b0e48e" y="307.584"/>
      </g>
     </g>
     <g id="text_4">
      <!-- 750 -->
      <defs>
       <path d="M 8.203125 72.90625 
L 55.078125 72.90625 
L 55.078125 68.703125 
L 28.609375 0 
L 18.3125 0 
L 43.21875 64.59375 
L 8.203125 64.59375 
z
" id="DejaVuSans-37"/>
      </defs>
      <g transform="translate(186.095335 322.182437)scale(0.1 -0.1)">
       <use xlink:href="#DejaVuSans-37"/>
       <use x="63.623047" xlink:href="#DejaVuSans-35"/>
       <use x="127.246094" xlink:href="#DejaVuSans-30"/>
      </g>
     </g>
    </g>
    <g id="xtick_5">
     <g id="line2d_5">
      <g>
       <use style="stroke:#000000;stroke-width:0.8;" x="236.241204" xlink:href="#m7cc6b0e48e" y="307.584"/>
      </g>
     </g>
     <g id="text_5">
      <!-- 1000 -->
      <defs>
       <path d="M 12.40625 8.296875 
L 28.515625 8.296875 
L 28.515625 63.921875 
L 10.984375 60.40625 
L 10.984375 69.390625 
L 28.421875 72.90625 
L 38.28125 72.90625 
L 38.28125 8.296875 
L 54.390625 8.296875 
L 54.390625 0 
L 12.40625 0 
z
" id="DejaVuSans-31"/>
      </defs>
      <g transform="translate(223.516204 322.182437)scale(0.1 -0.1)">
       <use xlink:href="#DejaVuSans-31"/>
       <use x="63.623047" xlink:href="#DejaVuSans-30"/>
       <use x="127.246094" xlink:href="#DejaVuSans-30"/>
       <use x="190.869141" xlink:href="#DejaVuSans-30"/>
      </g>
     </g>
    </g>
    <g id="xtick_6">
     <g id="line2d_6">
      <g>
       <use style="stroke:#000000;stroke-width:0.8;" x="276.843323" xlink:href="#m7cc6b0e48e" y="307.584"/>
      </g>
     </g>
     <g id="text_6">
      <!-- 1250 -->
      <g transform="translate(264.118323 322.182437)scale(0.1 -0.1)">
       <use xlink:href="#DejaVuSans-31"/>
       <use x="63.623047" xlink:href="#DejaVuSans-32"/>
       <use x="127.246094" xlink:href="#DejaVuSans-35"/>
       <use x="190.869141" xlink:href="#DejaVuSans-30"/>
      </g>
     </g>
    </g>
    <g id="xtick_7">
     <g id="line2d_7">
      <g>
       <use style="stroke:#000000;stroke-width:0.8;" x="317.445443" xlink:href="#m7cc6b0e48e" y="307.584"/>
      </g>
     </g>
     <g id="text_7">
      <!-- 1500 -->
      <g transform="translate(304.720443 322.182437)scale(0.1 -0.1)">
       <use xlink:href="#DejaVuSans-31"/>
       <use x="63.623047" xlink:href="#DejaVuSans-35"/>
       <use x="127.246094" xlink:href="#DejaVuSans-30"/>
       <use x="190.869141" xlink:href="#DejaVuSans-30"/>
      </g>
     </g>
    </g>
    <g id="xtick_8">
     <g id="line2d_8">
      <g>
       <use style="stroke:#000000;stroke-width:0.8;" x="358.047562" xlink:href="#m7cc6b0e48e" y="307.584"/>
      </g>
     </g>
     <g id="text_8">
      <!-- 1750 -->
      <g transform="translate(345.322562 322.182437)scale(0.1 -0.1)">
       <use xlink:href="#DejaVuSans-31"/>
       <use x="63.623047" xlink:href="#DejaVuSans-37"/>
       <use x="127.246094" xlink:href="#DejaVuSans-35"/>
       <use x="190.869141" xlink:href="#DejaVuSans-30"/>
      </g>
     </g>
    </g>
    <g id="xtick_9">
     <g id="line2d_9">
      <g>
       <use style="stroke:#000000;stroke-width:0.8;" x="398.649681" xlink:href="#m7cc6b0e48e" y="307.584"/>
      </g>
     </g>
     <g id="text_9">
      <!-- 2000 -->
      <g transform="translate(385.924681 322.182437)scale(0.1 -0.1)">
       <use xlink:href="#DejaVuSans-32"/>
       <use x="63.623047" xlink:href="#DejaVuSans-30"/>
       <use x="127.246094" xlink:href="#DejaVuSans-30"/>
       <use x="190.869141" xlink:href="#DejaVuSans-30"/>
      </g>
     </g>
    </g>
    <g id="text_10">
     <!-- episodes -->
     <defs>
      <path d="M 56.203125 29.59375 
L 56.203125 25.203125 
L 14.890625 25.203125 
Q 15.484375 15.921875 20.484375 11.0625 
Q 25.484375 6.203125 34.421875 6.203125 
Q 39.59375 6.203125 44.453125 7.46875 
Q 49.3125 8.734375 54.109375 11.28125 
L 54.109375 2.78125 
Q 49.265625 0.734375 44.1875 -0.34375 
Q 39.109375 -1.421875 33.890625 -1.421875 
Q 20.796875 -1.421875 13.15625 6.1875 
Q 5.515625 13.8125 5.515625 26.8125 
Q 5.515625 40.234375 12.765625 48.109375 
Q 20.015625 56 32.328125 56 
Q 43.359375 56 49.78125 48.890625 
Q 56.203125 41.796875 56.203125 29.59375 
z
M 47.21875 32.234375 
Q 47.125 39.59375 43.09375 43.984375 
Q 39.0625 48.390625 32.421875 48.390625 
Q 24.90625 48.390625 20.390625 44.140625 
Q 15.875 39.890625 15.1875 32.171875 
z
" id="DejaVuSans-65"/>
      <path d="M 18.109375 8.203125 
L 18.109375 -20.796875 
L 9.078125 -20.796875 
L 9.078125 54.6875 
L 18.109375 54.6875 
L 18.109375 46.390625 
Q 20.953125 51.265625 25.265625 53.625 
Q 29.59375 56 35.59375 56 
Q 45.5625 56 51.78125 48.09375 
Q 58.015625 40.1875 58.015625 27.296875 
Q 58.015625 14.40625 51.78125 6.484375 
Q 45.5625 -1.421875 35.59375 -1.421875 
Q 29.59375 -1.421875 25.265625 0.953125 
Q 20.953125 3.328125 18.109375 8.203125 
z
M 48.6875 27.296875 
Q 48.6875 37.203125 44.609375 42.84375 
Q 40.53125 48.484375 33.40625 48.484375 
Q 26.265625 48.484375 22.1875 42.84375 
Q 18.109375 37.203125 18.109375 27.296875 
Q 18.109375 17.390625 22.1875 11.75 
Q 26.265625 6.109375 33.40625 6.109375 
Q 40.53125 6.109375 44.609375 11.75 
Q 48.6875 17.390625 48.6875 27.296875 
z
" id="DejaVuSans-70"/>
      <path d="M 9.421875 54.6875 
L 18.40625 54.6875 
L 18.40625 0 
L 9.421875 0 
z
M 9.421875 75.984375 
L 18.40625 75.984375 
L 18.40625 64.59375 
L 9.421875 64.59375 
z
" id="DejaVuSans-69"/>
      <path d="M 44.28125 53.078125 
L 44.28125 44.578125 
Q 40.484375 46.53125 36.375 47.5 
Q 32.28125 48.484375 27.875 48.484375 
Q 21.1875 48.484375 17.84375 46.4375 
Q 14.5 44.390625 14.5 40.28125 
Q 14.5 37.15625 16.890625 35.375 
Q 19.28125 33.59375 26.515625 31.984375 
L 29.59375 31.296875 
Q 39.15625 29.25 43.1875 25.515625 
Q 47.21875 21.78125 47.21875 15.09375 
Q 47.21875 7.46875 41.1875 3.015625 
Q 35.15625 -1.421875 24.609375 -1.421875 
Q 20.21875 -1.421875 15.453125 -0.5625 
Q 10.6875 0.296875 5.421875 2 
L 5.421875 11.28125 
Q 10.40625 8.6875 15.234375 7.390625 
Q 20.0625 6.109375 24.8125 6.109375 
Q 31.15625 6.109375 34.5625 8.28125 
Q 37.984375 10.453125 37.984375 14.40625 
Q 37.984375 18.0625 35.515625 20.015625 
Q 33.0625 21.96875 24.703125 23.78125 
L 21.578125 24.515625 
Q 13.234375 26.265625 9.515625 29.90625 
Q 5.8125 33.546875 5.8125 39.890625 
Q 5.8125 47.609375 11.28125 51.796875 
Q 16.75 56 26.8125 56 
Q 31.78125 56 36.171875 55.265625 
Q 40.578125 54.546875 44.28125 53.078125 
z
" id="DejaVuSans-73"/>
      <path d="M 30.609375 48.390625 
Q 23.390625 48.390625 19.1875 42.75 
Q 14.984375 37.109375 14.984375 27.296875 
Q 14.984375 17.484375 19.15625 11.84375 
Q 23.34375 6.203125 30.609375 6.203125 
Q 37.796875 6.203125 41.984375 11.859375 
Q 46.1875 17.53125 46.1875 27.296875 
Q 46.1875 37.015625 41.984375 42.703125 
Q 37.796875 48.390625 30.609375 48.390625 
z
M 30.609375 56 
Q 42.328125 56 49.015625 48.375 
Q 55.71875 40.765625 55.71875 27.296875 
Q 55.71875 13.875 49.015625 6.21875 
Q 42.328125 -1.421875 30.609375 -1.421875 
Q 18.84375 -1.421875 12.171875 6.21875 
Q 5.515625 13.875 5.515625 27.296875 
Q 5.515625 40.765625 12.171875 48.375 
Q 18.84375 56 30.609375 56 
z
" id="DejaVuSans-6f"/>
      <path d="M 45.40625 46.390625 
L 45.40625 75.984375 
L 54.390625 75.984375 
L 54.390625 0 
L 45.40625 0 
L 45.40625 8.203125 
Q 42.578125 3.328125 38.25 0.953125 
Q 33.9375 -1.421875 27.875 -1.421875 
Q 17.96875 -1.421875 11.734375 6.484375 
Q 5.515625 14.40625 5.515625 27.296875 
Q 5.515625 40.1875 11.734375 48.09375 
Q 17.96875 56 27.875 56 
Q 33.9375 56 38.25 53.625 
Q 42.578125 51.265625 45.40625 46.390625 
z
M 14.796875 27.296875 
Q 14.796875 17.390625 18.875 11.75 
Q 22.953125 6.109375 30.078125 6.109375 
Q 37.203125 6.109375 41.296875 11.75 
Q 45.40625 17.390625 45.40625 27.296875 
Q 45.40625 37.203125 41.296875 42.84375 
Q 37.203125 48.484375 30.078125 48.484375 
Q 22.953125 48.484375 18.875 42.84375 
Q 14.796875 37.203125 14.796875 27.296875 
z
" id="DejaVuSans-64"/>
     </defs>
     <g transform="translate(214.000625 335.860562)scale(0.1 -0.1)">
      <use xlink:href="#DejaVuSans-65"/>
      <use x="61.523438" xlink:href="#DejaVuSans-70"/>
      <use x="125" xlink:href="#DejaVuSans-69"/>
      <use x="152.783203" xlink:href="#DejaVuSans-73"/>
      <use x="204.882812" xlink:href="#DejaVuSans-6f"/>
      <use x="266.064453" xlink:href="#DejaVuSans-64"/>
      <use x="329.541016" xlink:href="#DejaVuSans-65"/>
      <use x="391.064453" xlink:href="#DejaVuSans-73"/>
     </g>
    </g>
   </g>
   <g id="matplotlib.axis_2">
    <g id="ytick_1">
     <g id="line2d_10">
      <defs>
       <path d="M 0 0 
L -3.5 0 
" id="m6f151790de" style="stroke:#000000;stroke-width:0.8;"/>
      </defs>
      <g>
       <use style="stroke:#000000;stroke-width:0.8;" x="57.6" xlink:href="#m6f151790de" y="305.557181"/>
      </g>
     </g>
     <g id="text_11">
      <!-- −90 -->
      <defs>
       <path d="M 10.59375 35.5 
L 73.1875 35.5 
L 73.1875 27.203125 
L 10.59375 27.203125 
z
" id="DejaVuSans-2212"/>
       <path d="M 10.984375 1.515625 
L 10.984375 10.5 
Q 14.703125 8.734375 18.5 7.8125 
Q 22.3125 6.890625 25.984375 6.890625 
Q 35.75 6.890625 40.890625 13.453125 
Q 46.046875 20.015625 46.78125 33.40625 
Q 43.953125 29.203125 39.59375 26.953125 
Q 35.25 24.703125 29.984375 24.703125 
Q 19.046875 24.703125 12.671875 31.3125 
Q 6.296875 37.9375 6.296875 49.421875 
Q 6.296875 60.640625 12.9375 67.421875 
Q 19.578125 74.21875 30.609375 74.21875 
Q 43.265625 74.21875 49.921875 64.515625 
Q 56.59375 54.828125 56.59375 36.375 
Q 56.59375 19.140625 48.40625 8.859375 
Q 40.234375 -1.421875 26.421875 -1.421875 
Q 22.703125 -1.421875 18.890625 -0.6875 
Q 15.09375 0.046875 10.984375 1.515625 
z
M 30.609375 32.421875 
Q 37.25 32.421875 41.125 36.953125 
Q 45.015625 41.5 45.015625 49.421875 
Q 45.015625 57.28125 41.125 61.84375 
Q 37.25 66.40625 30.609375 66.40625 
Q 23.96875 66.40625 20.09375 61.84375 
Q 16.21875 57.28125 16.21875 49.421875 
Q 16.21875 41.5 20.09375 36.953125 
Q 23.96875 32.421875 30.609375 32.421875 
z
" id="DejaVuSans-39"/>
      </defs>
      <g transform="translate(29.495313 309.3564)scale(0.1 -0.1)">
       <use xlink:href="#DejaVuSans-2212"/>
       <use x="83.789062" xlink:href="#DejaVuSans-39"/>
       <use x="147.412109" xlink:href="#DejaVuSans-30"/>
      </g>
     </g>
    </g>
    <g id="ytick_2">
     <g id="line2d_11">
      <g>
       <use style="stroke:#000000;stroke-width:0.8;" x="57.6" xlink:href="#m6f151790de" y="272.176708"/>
      </g>
     </g>
     <g id="text_12">
      <!-- −80 -->
      <defs>
       <path d="M 31.78125 34.625 
Q 24.75 34.625 20.71875 30.859375 
Q 16.703125 27.09375 16.703125 20.515625 
Q 16.703125 13.921875 20.71875 10.15625 
Q 24.75 6.390625 31.78125 6.390625 
Q 38.8125 6.390625 42.859375 10.171875 
Q 46.921875 13.96875 46.921875 20.515625 
Q 46.921875 27.09375 42.890625 30.859375 
Q 38.875 34.625 31.78125 34.625 
z
M 21.921875 38.8125 
Q 15.578125 40.375 12.03125 44.71875 
Q 8.5 49.078125 8.5 55.328125 
Q 8.5 64.0625 14.71875 69.140625 
Q 20.953125 74.21875 31.78125 74.21875 
Q 42.671875 74.21875 48.875 69.140625 
Q 55.078125 64.0625 55.078125 55.328125 
Q 55.078125 49.078125 51.53125 44.71875 
Q 48 40.375 41.703125 38.8125 
Q 48.828125 37.15625 52.796875 32.3125 
Q 56.78125 27.484375 56.78125 20.515625 
Q 56.78125 9.90625 50.3125 4.234375 
Q 43.84375 -1.421875 31.78125 -1.421875 
Q 19.734375 -1.421875 13.25 4.234375 
Q 6.78125 9.90625 6.78125 20.515625 
Q 6.78125 27.484375 10.78125 32.3125 
Q 14.796875 37.15625 21.921875 38.8125 
z
M 18.3125 54.390625 
Q 18.3125 48.734375 21.84375 45.5625 
Q 25.390625 42.390625 31.78125 42.390625 
Q 38.140625 42.390625 41.71875 45.5625 
Q 45.3125 48.734375 45.3125 54.390625 
Q 45.3125 60.0625 41.71875 63.234375 
Q 38.140625 66.40625 31.78125 66.40625 
Q 25.390625 66.40625 21.84375 63.234375 
Q 18.3125 60.0625 18.3125 54.390625 
z
" id="DejaVuSans-38"/>
      </defs>
      <g transform="translate(29.495313 275.975927)scale(0.1 -0.1)">
       <use xlink:href="#DejaVuSans-2212"/>
       <use x="83.789062" xlink:href="#DejaVuSans-38"/>
       <use x="147.412109" xlink:href="#DejaVuSans-30"/>
      </g>
     </g>
    </g>
    <g id="ytick_3">
     <g id="line2d_12">
      <g>
       <use style="stroke:#000000;stroke-width:0.8;" x="57.6" xlink:href="#m6f151790de" y="238.796236"/>
      </g>
     </g>
     <g id="text_13">
      <!-- −70 -->
      <g transform="translate(29.495313 242.595454)scale(0.1 -0.1)">
       <use xlink:href="#DejaVuSans-2212"/>
       <use x="83.789062" xlink:href="#DejaVuSans-37"/>
       <use x="147.412109" xlink:href="#DejaVuSans-30"/>
      </g>
     </g>
    </g>
    <g id="ytick_4">
     <g id="line2d_13">
      <g>
       <use style="stroke:#000000;stroke-width:0.8;" x="57.6" xlink:href="#m6f151790de" y="205.415763"/>
      </g>
     </g>
     <g id="text_14">
      <!-- −60 -->
      <defs>
       <path d="M 33.015625 40.375 
Q 26.375 40.375 22.484375 35.828125 
Q 18.609375 31.296875 18.609375 23.390625 
Q 18.609375 15.53125 22.484375 10.953125 
Q 26.375 6.390625 33.015625 6.390625 
Q 39.65625 6.390625 43.53125 10.953125 
Q 47.40625 15.53125 47.40625 23.390625 
Q 47.40625 31.296875 43.53125 35.828125 
Q 39.65625 40.375 33.015625 40.375 
z
M 52.59375 71.296875 
L 52.59375 62.3125 
Q 48.875 64.0625 45.09375 64.984375 
Q 41.3125 65.921875 37.59375 65.921875 
Q 27.828125 65.921875 22.671875 59.328125 
Q 17.53125 52.734375 16.796875 39.40625 
Q 19.671875 43.65625 24.015625 45.921875 
Q 28.375 48.1875 33.59375 48.1875 
Q 44.578125 48.1875 50.953125 41.515625 
Q 57.328125 34.859375 57.328125 23.390625 
Q 57.328125 12.15625 50.6875 5.359375 
Q 44.046875 -1.421875 33.015625 -1.421875 
Q 20.359375 -1.421875 13.671875 8.265625 
Q 6.984375 17.96875 6.984375 36.375 
Q 6.984375 53.65625 15.1875 63.9375 
Q 23.390625 74.21875 37.203125 74.21875 
Q 40.921875 74.21875 44.703125 73.484375 
Q 48.484375 72.75 52.59375 71.296875 
z
" id="DejaVuSans-36"/>
      </defs>
      <g transform="translate(29.495313 209.214982)scale(0.1 -0.1)">
       <use xlink:href="#DejaVuSans-2212"/>
       <use x="83.789062" xlink:href="#DejaVuSans-36"/>
       <use x="147.412109" xlink:href="#DejaVuSans-30"/>
      </g>
     </g>
    </g>
    <g id="ytick_5">
     <g id="line2d_14">
      <g>
       <use style="stroke:#000000;stroke-width:0.8;" x="57.6" xlink:href="#m6f151790de" y="172.03529"/>
      </g>
     </g>
     <g id="text_15">
      <!-- −50 -->
      <g transform="translate(29.495313 175.834509)scale(0.1 -0.1)">
       <use xlink:href="#DejaVuSans-2212"/>
       <use x="83.789062" xlink:href="#DejaVuSans-35"/>
       <use x="147.412109" xlink:href="#DejaVuSans-30"/>
      </g>
     </g>
    </g>
    <g id="ytick_6">
     <g id="line2d_15">
      <g>
       <use style="stroke:#000000;stroke-width:0.8;" x="57.6" xlink:href="#m6f151790de" y="138.654817"/>
      </g>
     </g>
     <g id="text_16">
      <!-- −40 -->
      <defs>
       <path d="M 37.796875 64.3125 
L 12.890625 25.390625 
L 37.796875 25.390625 
z
M 35.203125 72.90625 
L 47.609375 72.90625 
L 47.609375 25.390625 
L 58.015625 25.390625 
L 58.015625 17.1875 
L 47.609375 17.1875 
L 47.609375 0 
L 37.796875 0 
L 37.796875 17.1875 
L 4.890625 17.1875 
L 4.890625 26.703125 
z
" id="DejaVuSans-34"/>
      </defs>
      <g transform="translate(29.495313 142.454036)scale(0.1 -0.1)">
       <use xlink:href="#DejaVuSans-2212"/>
       <use x="83.789062" xlink:href="#DejaVuSans-34"/>
       <use x="147.412109" xlink:href="#DejaVuSans-30"/>
      </g>
     </g>
    </g>
    <g id="ytick_7">
     <g id="line2d_16">
      <g>
       <use style="stroke:#000000;stroke-width:0.8;" x="57.6" xlink:href="#m6f151790de" y="105.274345"/>
      </g>
     </g>
     <g id="text_17">
      <!-- −30 -->
      <defs>
       <path d="M 40.578125 39.3125 
Q 47.65625 37.796875 51.625 33 
Q 55.609375 28.21875 55.609375 21.1875 
Q 55.609375 10.40625 48.1875 4.484375 
Q 40.765625 -1.421875 27.09375 -1.421875 
Q 22.515625 -1.421875 17.65625 -0.515625 
Q 12.796875 0.390625 7.625 2.203125 
L 7.625 11.71875 
Q 11.71875 9.328125 16.59375 8.109375 
Q 21.484375 6.890625 26.8125 6.890625 
Q 36.078125 6.890625 40.9375 10.546875 
Q 45.796875 14.203125 45.796875 21.1875 
Q 45.796875 27.640625 41.28125 31.265625 
Q 36.765625 34.90625 28.71875 34.90625 
L 20.21875 34.90625 
L 20.21875 43.015625 
L 29.109375 43.015625 
Q 36.375 43.015625 40.234375 45.921875 
Q 44.09375 48.828125 44.09375 54.296875 
Q 44.09375 59.90625 40.109375 62.90625 
Q 36.140625 65.921875 28.71875 65.921875 
Q 24.65625 65.921875 20.015625 65.03125 
Q 15.375 64.15625 9.8125 62.3125 
L 9.8125 71.09375 
Q 15.4375 72.65625 20.34375 73.4375 
Q 25.25 74.21875 29.59375 74.21875 
Q 40.828125 74.21875 47.359375 69.109375 
Q 53.90625 64.015625 53.90625 55.328125 
Q 53.90625 49.265625 50.4375 45.09375 
Q 46.96875 40.921875 40.578125 39.3125 
z
" id="DejaVuSans-33"/>
      </defs>
      <g transform="translate(29.495313 109.073563)scale(0.1 -0.1)">
       <use xlink:href="#DejaVuSans-2212"/>
       <use x="83.789062" xlink:href="#DejaVuSans-33"/>
       <use x="147.412109" xlink:href="#DejaVuSans-30"/>
      </g>
     </g>
    </g>
    <g id="ytick_8">
     <g id="line2d_17">
      <g>
       <use style="stroke:#000000;stroke-width:0.8;" x="57.6" xlink:href="#m6f151790de" y="71.893872"/>
      </g>
     </g>
     <g id="text_18">
      <!-- −20 -->
      <g transform="translate(29.495313 75.693091)scale(0.1 -0.1)">
       <use xlink:href="#DejaVuSans-2212"/>
       <use x="83.789062" xlink:href="#DejaVuSans-32"/>
       <use x="147.412109" xlink:href="#DejaVuSans-30"/>
      </g>
     </g>
    </g>
    <g id="text_19">
     <!-- mean rewards -->
     <defs>
      <path d="M 52 44.1875 
Q 55.375 50.25 60.0625 53.125 
Q 64.75 56 71.09375 56 
Q 79.640625 56 84.28125 50.015625 
Q 88.921875 44.046875 88.921875 33.015625 
L 88.921875 0 
L 79.890625 0 
L 79.890625 32.71875 
Q 79.890625 40.578125 77.09375 44.375 
Q 74.3125 48.1875 68.609375 48.1875 
Q 61.625 48.1875 57.5625 43.546875 
Q 53.515625 38.921875 53.515625 30.90625 
L 53.515625 0 
L 44.484375 0 
L 44.484375 32.71875 
Q 44.484375 40.625 41.703125 44.40625 
Q 38.921875 48.1875 33.109375 48.1875 
Q 26.21875 48.1875 22.15625 43.53125 
Q 18.109375 38.875 18.109375 30.90625 
L 18.109375 0 
L 9.078125 0 
L 9.078125 54.6875 
L 18.109375 54.6875 
L 18.109375 46.1875 
Q 21.1875 51.21875 25.484375 53.609375 
Q 29.78125 56 35.6875 56 
Q 41.65625 56 45.828125 52.96875 
Q 50 49.953125 52 44.1875 
z
" id="DejaVuSans-6d"/>
      <path d="M 34.28125 27.484375 
Q 23.390625 27.484375 19.1875 25 
Q 14.984375 22.515625 14.984375 16.5 
Q 14.984375 11.71875 18.140625 8.90625 
Q 21.296875 6.109375 26.703125 6.109375 
Q 34.1875 6.109375 38.703125 11.40625 
Q 43.21875 16.703125 43.21875 25.484375 
L 43.21875 27.484375 
z
M 52.203125 31.203125 
L 52.203125 0 
L 43.21875 0 
L 43.21875 8.296875 
Q 40.140625 3.328125 35.546875 0.953125 
Q 30.953125 -1.421875 24.3125 -1.421875 
Q 15.921875 -1.421875 10.953125 3.296875 
Q 6 8.015625 6 15.921875 
Q 6 25.140625 12.171875 29.828125 
Q 18.359375 34.515625 30.609375 34.515625 
L 43.21875 34.515625 
L 43.21875 35.40625 
Q 43.21875 41.609375 39.140625 45 
Q 35.0625 48.390625 27.6875 48.390625 
Q 23 48.390625 18.546875 47.265625 
Q 14.109375 46.140625 10.015625 43.890625 
L 10.015625 52.203125 
Q 14.9375 54.109375 19.578125 55.046875 
Q 24.21875 56 28.609375 56 
Q 40.484375 56 46.34375 49.84375 
Q 52.203125 43.703125 52.203125 31.203125 
z
" id="DejaVuSans-61"/>
      <path d="M 54.890625 33.015625 
L 54.890625 0 
L 45.90625 0 
L 45.90625 32.71875 
Q 45.90625 40.484375 42.875 44.328125 
Q 39.84375 48.1875 33.796875 48.1875 
Q 26.515625 48.1875 22.3125 43.546875 
Q 18.109375 38.921875 18.109375 30.90625 
L 18.109375 0 
L 9.078125 0 
L 9.078125 54.6875 
L 18.109375 54.6875 
L 18.109375 46.1875 
Q 21.34375 51.125 25.703125 53.5625 
Q 30.078125 56 35.796875 56 
Q 45.21875 56 50.046875 50.171875 
Q 54.890625 44.34375 54.890625 33.015625 
z
" id="DejaVuSans-6e"/>
      <path id="DejaVuSans-20"/>
      <path d="M 41.109375 46.296875 
Q 39.59375 47.171875 37.8125 47.578125 
Q 36.03125 48 33.890625 48 
Q 26.265625 48 22.1875 43.046875 
Q 18.109375 38.09375 18.109375 28.8125 
L 18.109375 0 
L 9.078125 0 
L 9.078125 54.6875 
L 18.109375 54.6875 
L 18.109375 46.1875 
Q 20.953125 51.171875 25.484375 53.578125 
Q 30.03125 56 36.53125 56 
Q 37.453125 56 38.578125 55.875 
Q 39.703125 55.765625 41.0625 55.515625 
z
" id="DejaVuSans-72"/>
      <path d="M 4.203125 54.6875 
L 13.1875 54.6875 
L 24.421875 12.015625 
L 35.59375 54.6875 
L 46.1875 54.6875 
L 57.421875 12.015625 
L 68.609375 54.6875 
L 77.59375 54.6875 
L 63.28125 0 
L 52.6875 0 
L 40.921875 44.828125 
L 29.109375 0 
L 18.5 0 
z
" id="DejaVuSans-77"/>
     </defs>
     <g transform="translate(23.415625 210.413938)rotate(-90)scale(0.1 -0.1)">
      <use xlink:href="#DejaVuSans-6d"/>
      <use x="97.412109" xlink:href="#DejaVuSans-65"/>
      <use x="158.935547" xlink:href="#DejaVuSans-61"/>
      <use x="220.214844" xlink:href="#DejaVuSans-6e"/>
      <use x="283.59375" xlink:href="#DejaVuSans-20"/>
      <use x="315.380859" xlink:href="#DejaVuSans-72"/>
      <use x="356.462891" xlink:href="#DejaVuSans-65"/>
      <use x="417.986328" xlink:href="#DejaVuSans-77"/>
      <use x="499.773438" xlink:href="#DejaVuSans-61"/>
      <use x="561.052734" xlink:href="#DejaVuSans-72"/>
      <use x="602.150391" xlink:href="#DejaVuSans-64"/>
      <use x="665.626953" xlink:href="#DejaVuSans-73"/>
     </g>
    </g>
   </g>
   <g id="line2d_18">
    <path clip-path="url(#pded529a517)" d="M 73.832727 239.38779 
L 73.995136 278.09086 
L 74.157544 287.81762 
L 74.319953 281.124235 
L 74.64477 229.0824 
L 74.807178 237.211813 
L 75.131995 215.812629 
L 75.294404 221.489615 
L 75.456812 233.786543 
L 75.944037 200.39949 
L 76.918488 278.582574 
L 77.080897 250.198783 
L 77.243305 267.889586 
L 77.405714 265.962129 
L 77.730531 266.941293 
L 77.892939 265.123899 
L 78.380165 218.517021 
L 78.542573 213.562565 
L 78.704982 221.120151 
L 79.029799 184.996707 
L 79.354615 164.56753 
L 79.679432 127.659107 
L 79.841841 133.855781 
L 80.004249 125.308308 
L 80.166658 109.746419 
L 80.491475 124.483005 
L 80.816292 154.001557 
L 80.9787 150.675573 
L 81.303517 178.662751 
L 81.465926 168.782265 
L 81.628334 166.586917 
L 81.953151 193.867092 
L 82.277968 168.993838 
L 82.440377 173.721134 
L 82.765194 167.727784 
L 82.927602 166.437866 
L 83.09001 170.832402 
L 83.252419 171.445679 
L 83.414827 170.074552 
L 83.577236 155.846402 
L 83.739644 178.368272 
L 83.902053 179.620875 
L 84.064461 174.596146 
L 84.22687 184.239508 
L 84.389278 170.603629 
L 84.551687 172.494368 
L 84.876504 183.801885 
L 85.038912 171.16663 
L 85.201321 149.324507 
L 85.363729 143.762264 
L 85.526138 156.86175 
L 85.688546 187.291824 
L 85.850955 173.241815 
L 86.013363 211.710294 
L 86.175772 209.666355 
L 86.33818 216.463895 
L 86.987814 295.488 
L 87.312631 251.936539 
L 87.475039 268.183475 
L 87.962265 220.722036 
L 88.287082 209.210444 
L 88.611899 155.264901 
L 88.774307 155.278987 
L 88.936716 134.596152 
L 89.099124 139.737049 
L 89.261533 135.804521 
L 89.423941 137.029164 
L 89.748758 124.639937 
L 89.911166 102.123915 
L 90.073575 122.009742 
L 90.235983 123.036832 
L 90.723209 175.62072 
L 90.885617 159.954675 
L 91.048026 181.135124 
L 91.210434 181.419772 
L 91.372843 183.304485 
L 91.535251 209.043239 
L 91.69766 213.508717 
L 91.860068 221.306397 
L 92.022477 199.044923 
L 92.184885 196.360344 
L 92.347294 162.882379 
L 92.834519 215.67375 
L 92.996928 214.649094 
L 93.159336 209.561302 
L 93.321745 211.721517 
L 93.484153 218.464452 
L 93.646561 234.450314 
L 94.133787 248.125504 
L 94.296195 230.292039 
L 94.458604 233.974136 
L 94.621012 227.434024 
L 94.783421 247.410055 
L 94.945829 248.523403 
L 95.270646 242.35016 
L 95.433055 235.329296 
L 95.595463 234.747741 
L 95.757872 209.348868 
L 95.92028 216.265186 
L 96.082689 204.848435 
L 96.245097 209.791407 
L 96.569914 150.100872 
L 96.894731 158.018718 
L 97.057139 160.463524 
L 97.381956 194.369255 
L 97.869182 167.183589 
L 98.03159 178.106747 
L 98.193999 180.968472 
L 98.681224 128.873326 
L 98.843633 123.131955 
L 99.006041 110.591291 
L 99.330858 113.720001 
L 99.493267 121.636869 
L 99.655675 104.772919 
L 99.818084 117.252797 
L 99.980492 117.819827 
L 100.142901 112.457513 
L 100.305309 135.834366 
L 100.467717 127.411212 
L 100.630126 141.442001 
L 100.954943 135.020631 
L 101.117351 138.17192 
L 101.27976 155.259117 
L 101.442168 139.701874 
L 101.766985 172.408873 
L 101.929394 160.86646 
L 102.091802 174.50401 
L 102.416619 158.945171 
L 102.579028 171.122536 
L 102.903845 139.055903 
L 103.066253 140.291113 
L 103.39107 126.073925 
L 103.553479 122.076079 
L 103.715887 122.44496 
L 103.878296 140.049791 
L 104.203112 129.711695 
L 104.852746 165.01097 
L 105.015155 167.706317 
L 105.177563 183.863106 
L 105.50238 144.97201 
L 105.827197 154.289715 
L 105.989606 143.43259 
L 106.152014 142.205937 
L 106.314423 155.259879 
L 106.476831 149.267762 
L 106.63924 152.132727 
L 106.801648 152.1027 
L 106.964057 168.762665 
L 107.126465 166.39977 
L 107.451282 189.412422 
L 107.61369 194.363702 
L 107.938507 159.693677 
L 108.100916 174.151805 
L 108.263324 173.185538 
L 108.588141 138.230214 
L 108.75055 151.013678 
L 109.237775 126.279689 
L 109.400184 123.015412 
L 109.562592 141.827994 
L 109.725001 135.102844 
L 109.887409 119.375469 
L 110.212226 146.357322 
L 110.374635 144.029196 
L 110.699452 121.501034 
L 111.024268 163.832423 
L 111.186677 146.75363 
L 111.511494 159.857908 
L 111.998719 117.319112 
L 112.161128 121.910807 
L 112.323536 122.54489 
L 112.485945 110.972907 
L 112.648353 110.593504 
L 112.810762 131.432253 
L 112.97317 132.344182 
L 113.297987 155.766739 
L 113.460396 157.67462 
L 113.622804 156.061242 
L 113.785213 146.166971 
L 113.947621 172.702039 
L 114.11003 179.159844 
L 114.272438 180.314347 
L 114.759663 151.001475 
L 114.922072 156.923105 
L 115.08448 172.543224 
L 115.409297 175.940995 
L 115.571706 163.769797 
L 115.734114 165.390772 
L 115.896523 144.392578 
L 116.058931 147.16686 
L 116.22134 142.745376 
L 116.383748 144.157597 
L 116.546157 133.928654 
L 116.708565 111.415263 
L 116.870974 111.811363 
L 117.033382 127.241846 
L 117.195791 126.279357 
L 117.358199 122.259778 
L 117.683016 128.663461 
L 117.845425 145.641821 
L 118.007833 145.281511 
L 118.33265 193.77485 
L 118.495058 198.992533 
L 118.819875 185.112566 
L 118.982284 168.83158 
L 119.144692 167.73704 
L 119.307101 165.102391 
L 119.631918 181.884338 
L 119.956735 136.911582 
L 120.119143 135.638741 
L 120.44396 115.644323 
L 120.768777 160.967776 
L 121.256003 103.384341 
L 121.418411 112.485371 
L 121.743228 111.024468 
L 122.068045 163.826482 
L 122.230453 159.03604 
L 122.392862 139.264747 
L 122.55527 138.623293 
L 122.880087 154.738657 
L 123.042496 149.01529 
L 123.367313 172.517699 
L 123.529721 145.12956 
L 123.69213 140.383943 
L 123.854538 121.327854 
L 124.179355 161.283066 
L 124.341764 163.01604 
L 124.504172 174.923056 
L 124.666581 162.787287 
L 124.828989 173.531084 
L 124.991398 156.5996 
L 125.153806 159.252981 
L 125.316214 138.262834 
L 125.478623 149.711286 
L 125.641031 135.895155 
L 125.80344 136.464677 
L 125.965848 118.290969 
L 126.128257 115.994355 
L 126.290665 116.934137 
L 126.453074 96.316182 
L 126.615482 118.426317 
L 126.777891 118.192005 
L 126.940299 118.588665 
L 127.102708 126.599912 
L 127.427525 109.258537 
L 127.589933 117.241505 
L 127.752342 114.068365 
L 128.077159 137.250756 
L 128.239567 132.541196 
L 128.401976 132.079834 
L 128.564384 150.713629 
L 128.726792 148.530295 
L 128.889201 167.825877 
L 129.051609 159.181226 
L 129.214018 159.671649 
L 129.376426 156.829614 
L 129.538835 156.832278 
L 129.701243 164.516992 
L 129.863652 162.396796 
L 130.02606 174.925316 
L 130.188469 170.173058 
L 130.350877 171.765216 
L 130.513286 154.177474 
L 130.675694 169.973144 
L 131.325328 115.130551 
L 131.650145 87.425327 
L 131.812554 89.917177 
L 131.974962 85.477373 
L 132.137371 95.670979 
L 132.299779 78.263988 
L 132.624596 108.326038 
L 132.787004 107.386348 
L 132.949413 107.60116 
L 133.111821 120.162697 
L 133.27423 122.261954 
L 133.436638 109.914016 
L 133.599047 108.145698 
L 133.761455 98.850959 
L 133.923864 98.667946 
L 134.248681 80.583633 
L 134.411089 81.11267 
L 134.573498 107.035466 
L 134.898315 114.209795 
L 135.060723 118.886914 
L 135.223132 105.330998 
L 135.547949 145.319963 
L 135.710357 132.540918 
L 135.872765 133.410506 
L 136.035174 156.636726 
L 136.359991 113.968568 
L 136.522399 117.732543 
L 136.684808 108.357466 
L 136.847216 109.381247 
L 137.009625 99.679451 
L 137.172033 81.430758 
L 137.334442 100.636987 
L 137.49685 103.742941 
L 137.659259 81.685061 
L 137.821667 93.85981 
L 137.984076 95.583662 
L 138.146484 84.573675 
L 138.796118 132.512441 
L 138.958527 114.5422 
L 139.120935 120.431909 
L 139.445752 146.994733 
L 139.60816 151.19865 
L 139.770569 150.844001 
L 139.932977 147.497239 
L 140.095386 140.288762 
L 140.420203 120.657081 
L 140.582611 136.98961 
L 140.74502 140.682735 
L 140.907428 124.38281 
L 141.069837 125.486978 
L 141.232245 120.282032 
L 141.557062 120.533549 
L 141.719471 132.810428 
L 142.206696 111.358003 
L 142.531513 126.414174 
L 142.693922 103.966804 
L 143.018738 117.167691 
L 143.343555 103.542866 
L 143.505964 107.33198 
L 143.668372 106.939982 
L 143.830781 113.113972 
L 144.155598 85.193984 
L 144.480415 97.503389 
L 144.642823 92.347014 
L 144.805232 105.542574 
L 144.96764 103.738189 
L 145.292457 110.306146 
L 145.454866 90.935425 
L 145.617274 92.466033 
L 145.779683 110.357385 
L 145.942091 100.621011 
L 146.1045 106.978655 
L 146.266908 117.707562 
L 146.429316 117.688951 
L 146.916542 104.994904 
L 147.07895 107.451127 
L 147.241359 104.655181 
L 147.403767 99.615381 
L 147.566176 100.006092 
L 147.728584 100.840192 
L 148.21581 114.461448 
L 148.378218 123.880687 
L 148.540627 123.589853 
L 148.703035 135.968361 
L 148.865444 136.564211 
L 149.027852 125.637925 
L 149.190261 137.063687 
L 149.515078 110.062454 
L 149.677486 106.916975 
L 150.164711 130.276756 
L 150.32712 114.378326 
L 150.651937 141.188828 
L 150.814345 147.020024 
L 151.139162 176.978488 
L 151.301571 174.310904 
L 151.463979 156.662034 
L 151.626388 168.243221 
L 151.788796 166.326836 
L 151.951205 168.166114 
L 152.276022 151.724753 
L 152.43843 135.204446 
L 152.763247 131.407635 
L 152.925656 133.673166 
L 153.088064 148.646644 
L 153.412881 122.473552 
L 154.062515 177.395418 
L 154.387332 156.042549 
L 154.54974 162.981542 
L 154.712149 163.044687 
L 154.874557 168.269244 
L 155.036966 177.25225 
L 155.361783 180.757838 
L 155.6866 151.16519 
L 155.849008 156.041008 
L 156.011417 153.385892 
L 156.985867 86.25419 
L 157.148276 79.803566 
L 157.310684 80.154444 
L 157.635501 63.859988 
L 157.79791 55.11297 
L 157.960318 56.529764 
L 158.122727 53.568 
L 158.285135 54.816731 
L 158.447544 63.509845 
L 158.609952 59.97475 
L 158.934769 93.51774 
L 159.259586 128.340019 
L 159.421995 128.074649 
L 159.584403 149.669828 
L 159.746812 150.627131 
L 159.90922 159.045428 
L 160.234037 178.847113 
L 160.396445 156.657447 
L 160.558854 155.761799 
L 160.721262 158.205968 
L 160.883671 139.696807 
L 161.046079 158.674212 
L 161.208488 135.42048 
L 161.370896 153.337747 
L 161.533305 150.967501 
L 161.858122 116.147768 
L 162.182939 140.799046 
L 162.345347 122.649622 
L 162.507756 139.224418 
L 162.670164 121.195133 
L 162.832573 121.547486 
L 162.994981 103.089455 
L 163.15739 100.548365 
L 163.319798 111.463094 
L 163.482207 133.595951 
L 163.644615 123.86267 
L 163.807024 106.952958 
L 163.969432 107.575784 
L 164.13184 93.427289 
L 164.294249 94.44557 
L 164.456657 99.645346 
L 164.619066 124.182721 
L 164.781474 123.449867 
L 164.943883 124.143047 
L 165.106291 104.702791 
L 165.2687 99.990142 
L 165.755925 142.248416 
L 165.918334 140.410341 
L 166.080742 151.060093 
L 166.243151 126.04893 
L 166.405559 129.69422 
L 166.567968 116.485017 
L 166.730376 117.012512 
L 166.892785 133.065679 
L 167.055193 127.936978 
L 167.217602 118.874421 
L 167.38001 103.403174 
L 167.542418 117.856829 
L 167.704827 105.313516 
L 167.867235 121.404217 
L 168.029644 116.498824 
L 168.192052 122.410823 
L 168.354461 120.013449 
L 168.679278 99.862136 
L 169.004095 94.7256 
L 169.166503 79.127128 
L 169.328912 78.022745 
L 169.49132 69.958969 
L 169.653729 77.316753 
L 169.816137 79.036107 
L 169.978546 79.377283 
L 170.140954 93.375755 
L 170.303363 85.782372 
L 170.465771 88.842686 
L 170.62818 88.48578 
L 170.790588 89.483224 
L 170.952996 87.548419 
L 171.115405 90.742437 
L 171.440222 60.476581 
L 171.60263 76.425063 
L 171.765039 76.174164 
L 171.927447 79.588818 
L 172.089856 80.592871 
L 172.414673 86.823511 
L 172.577081 87.167724 
L 172.901898 106.951037 
L 173.064307 108.283921 
L 173.226715 106.485579 
L 173.389124 99.255528 
L 173.551532 98.998078 
L 173.876349 93.180782 
L 174.038758 94.407147 
L 174.201166 97.053872 
L 174.363575 79.10407 
L 174.525983 82.966643 
L 174.688391 93.654765 
L 174.8508 79.053563 
L 175.013208 88.693152 
L 175.662842 147.109581 
L 175.825251 146.012842 
L 175.987659 145.726154 
L 176.312476 127.100905 
L 176.474885 146.546181 
L 176.637293 133.597649 
L 176.96211 142.458499 
L 177.286927 125.607699 
L 177.449336 124.867621 
L 177.936561 131.867731 
L 178.098969 120.485864 
L 178.261378 131.071989 
L 178.586195 102.126904 
L 178.911012 92.122081 
L 179.07342 92.139498 
L 179.235829 90.303057 
L 179.398237 92.017515 
L 179.560646 91.988321 
L 179.723054 94.071911 
L 179.885463 79.093072 
L 180.21028 69.016832 
L 180.372688 77.3719 
L 180.535097 75.143213 
L 181.022322 97.838532 
L 181.347139 79.657958 
L 181.509548 86.374523 
L 181.834364 111.201473 
L 181.996773 99.521315 
L 182.32159 118.704098 
L 182.646407 106.127044 
L 182.808815 107.512786 
L 182.971224 121.32184 
L 183.296041 107.281667 
L 183.458449 98.880564 
L 183.620858 96.681226 
L 183.945675 78.540976 
L 184.270492 76.650964 
L 184.4329 91.703783 
L 184.595309 76.97866 
L 184.757717 75.292138 
L 184.920126 86.799035 
L 185.082534 85.880988 
L 185.244942 97.926715 
L 185.407351 98.702357 
L 185.569759 95.222775 
L 185.732168 100.16935 
L 185.894576 95.001865 
L 186.056985 83.324993 
L 186.219393 81.299438 
L 186.381802 94.988874 
L 186.54421 78.716493 
L 186.706619 90.346084 
L 187.031436 78.365885 
L 187.193844 76.816752 
L 187.356253 89.790862 
L 187.518661 89.567927 
L 187.68107 82.958951 
L 187.843478 95.804183 
L 188.005887 94.644709 
L 188.168295 108.211401 
L 188.330704 96.424478 
L 188.65552 100.61072 
L 188.817929 100.311523 
L 188.980337 83.635643 
L 189.142746 81.605795 
L 189.305154 94.722733 
L 189.629971 76.236809 
L 189.954788 82.822563 
L 190.117197 73.553172 
L 190.279605 72.218398 
L 190.442014 71.909275 
L 190.604422 81.673513 
L 190.766831 106.454034 
L 190.929239 96.784053 
L 191.091648 94.748965 
L 191.254056 91.208459 
L 191.416465 71.049616 
L 191.578873 69.226672 
L 191.741282 69.276229 
L 191.90369 71.093028 
L 192.066099 89.53451 
L 192.390915 69.580891 
L 192.715732 87.102603 
L 192.878141 87.737944 
L 193.040549 99.32411 
L 193.202958 98.288388 
L 193.527775 126.492173 
L 193.690183 112.828571 
L 193.852592 112.892225 
L 194.015 114.78473 
L 194.177409 139.352845 
L 194.339817 132.51093 
L 194.502226 134.639763 
L 194.664634 128.439423 
L 194.989451 125.672097 
L 195.15186 129.509796 
L 195.476677 145.764425 
L 195.639085 146.289274 
L 195.801493 109.066828 
L 195.963902 117.168706 
L 196.12631 116.506085 
L 196.288719 111.725024 
L 196.613536 126.78238 
L 196.775944 121.636905 
L 196.938353 103.708242 
L 197.100761 101.298352 
L 197.26317 102.235005 
L 197.587987 136.618202 
L 197.912804 138.116744 
L 198.400029 102.77049 
L 198.562438 111.096489 
L 198.724846 107.393036 
L 198.887255 97.527427 
L 199.212071 66.632622 
L 199.536888 80.036853 
L 199.699297 79.519987 
L 199.861705 81.669802 
L 200.024114 87.285061 
L 200.348931 88.655349 
L 200.673748 111.677999 
L 200.836156 105.094545 
L 200.998565 106.391527 
L 201.160973 102.852761 
L 201.323382 119.650174 
L 201.48579 120.593367 
L 201.648199 119.698521 
L 201.810607 110.607848 
L 201.973016 126.329975 
L 202.135424 117.774802 
L 202.297833 117.650412 
L 202.460241 118.230975 
L 202.62265 111.538262 
L 202.785058 116.61721 
L 203.109875 108.303568 
L 203.272283 107.206082 
L 203.434692 109.80737 
L 203.759509 100.502265 
L 203.921917 92.557614 
L 204.084326 91.766848 
L 204.409143 80.218677 
L 204.73396 102.073816 
L 205.058777 98.89532 
L 205.221185 98.622408 
L 205.383594 94.181457 
L 205.546002 92.875382 
L 205.708411 90.3853 
L 205.870819 90.931378 
L 206.033228 94.108477 
L 206.195636 67.520234 
L 206.358044 68.356664 
L 206.520453 71.757015 
L 206.682861 79.153746 
L 206.84527 68.763281 
L 207.007678 69.300243 
L 207.170087 68.457759 
L 207.494904 89.682904 
L 207.657312 85.58013 
L 207.982129 101.027374 
L 208.144538 98.488611 
L 208.306946 99.053397 
L 208.631763 124.259926 
L 208.794172 123.607815 
L 208.95658 111.321334 
L 209.118989 110.350129 
L 209.281397 108.232824 
L 209.443806 110.353309 
L 209.606214 110.051286 
L 209.768622 108.94184 
L 209.931031 109.309973 
L 210.255848 94.764808 
L 210.418256 102.090753 
L 210.580665 102.707431 
L 210.743073 98.530127 
L 211.06789 104.371326 
L 211.392707 97.164406 
L 211.555116 96.613224 
L 211.879933 103.195446 
L 212.042341 96.558011 
L 212.20475 111.872589 
L 212.367158 108.89022 
L 212.529567 113.352604 
L 212.691975 103.695412 
L 213.016792 117.173499 
L 213.179201 112.302047 
L 213.504017 121.471395 
L 213.666426 118.86695 
L 213.828834 104.865228 
L 213.991243 112.686913 
L 214.153651 112.42122 
L 214.31606 123.354778 
L 214.478468 121.777704 
L 214.803285 114.954501 
L 214.965694 115.936637 
L 215.128102 112.237564 
L 215.452919 128.737709 
L 215.777736 132.269322 
L 215.940145 127.887762 
L 216.102553 113.522859 
L 216.264962 113.717015 
L 216.42737 127.241299 
L 216.589779 114.384072 
L 216.752187 116.214221 
L 216.914595 129.427756 
L 217.077004 130.418388 
L 217.401821 125.683273 
L 217.564229 127.112916 
L 217.726638 132.223111 
L 217.889046 131.215861 
L 218.051455 132.081202 
L 218.213863 136.46577 
L 218.376272 135.76723 
L 218.701089 114.808954 
L 218.863497 105.196352 
L 219.025906 106.593068 
L 219.188314 96.818375 
L 219.350723 95.258099 
L 219.67554 86.934572 
L 219.837948 89.027668 
L 220.000357 88.362588 
L 220.325173 96.451647 
L 220.487582 95.248511 
L 220.64999 95.619283 
L 220.812399 110.1925 
L 221.137216 113.614363 
L 221.299624 118.276723 
L 221.462033 115.306677 
L 221.624441 115.554932 
L 221.78685 106.369243 
L 222.111667 118.929307 
L 222.274075 119.940772 
L 222.598892 107.847621 
L 222.761301 114.047386 
L 223.086118 95.86997 
L 223.248526 92.254726 
L 223.573343 99.361118 
L 223.735752 94.58365 
L 224.222977 101.880476 
L 224.385385 101.683483 
L 224.547794 95.425384 
L 224.872611 105.610479 
L 225.035019 116.606718 
L 225.197428 111.596046 
L 225.359836 110.657281 
L 225.684653 120.262531 
L 225.847062 119.750528 
L 226.334287 136.678245 
L 226.496696 137.890921 
L 226.821513 116.649786 
L 226.983921 121.686324 
L 227.308738 101.351024 
L 227.471146 100.036922 
L 227.633555 84.207282 
L 227.795963 90.778486 
L 228.12078 86.277705 
L 228.283189 87.486645 
L 228.445597 99.801474 
L 228.608006 99.879639 
L 228.770414 96.735256 
L 228.932823 98.736668 
L 229.095231 105.841704 
L 229.25764 122.123273 
L 229.420048 116.119298 
L 229.582457 122.327574 
L 230.069682 105.510656 
L 230.232091 111.669543 
L 230.394499 110.660823 
L 230.556908 111.691281 
L 230.719316 118.056694 
L 230.881724 102.528776 
L 231.36895 139.155022 
L 231.693767 147.729133 
L 231.856175 136.281169 
L 232.018584 142.811674 
L 232.180992 154.831633 
L 232.343401 151.217529 
L 232.505809 159.33923 
L 232.668218 150.0222 
L 232.993035 119.378919 
L 233.155443 118.409946 
L 233.317852 110.890684 
L 233.48026 119.10064 
L 233.642669 120.667776 
L 233.805077 118.462906 
L 234.129894 103.694895 
L 234.454711 103.698585 
L 234.617119 97.73837 
L 234.779528 97.436254 
L 234.941936 105.455055 
L 235.266753 90.629495 
L 235.429162 93.315732 
L 235.59157 100.208876 
L 235.753979 100.726114 
L 235.916387 97.338349 
L 236.078796 108.529012 
L 236.241204 102.471161 
L 236.890838 122.919697 
L 237.215655 109.626075 
L 237.702881 114.730983 
L 237.865289 123.795155 
L 238.027697 117.772126 
L 238.190106 117.985882 
L 238.514923 131.992787 
L 238.677331 132.941914 
L 238.83974 138.522018 
L 239.002148 139.429483 
L 239.164557 139.049495 
L 239.489374 118.764863 
L 239.651782 124.511167 
L 239.814191 122.888839 
L 240.139008 107.987987 
L 240.301416 102.773324 
L 240.463825 105.697216 
L 240.626233 102.072985 
L 240.788642 102.114891 
L 240.95105 121.036784 
L 241.113459 119.262631 
L 241.275867 123.541844 
L 241.600684 149.878645 
L 242.250318 181.17207 
L 242.412726 182.345212 
L 242.575135 174.112514 
L 242.737543 187.238553 
L 242.899952 186.946739 
L 243.06236 159.073282 
L 243.224769 157.174303 
L 243.874403 111.549785 
L 244.036811 109.532995 
L 244.524037 88.836618 
L 244.686445 95.355857 
L 244.848854 92.316315 
L 245.011262 93.007122 
L 245.336079 113.898761 
L 245.498487 110.23 
L 245.823304 123.687379 
L 245.985713 132.035398 
L 246.148121 131.193812 
L 246.31053 121.464063 
L 246.472938 123.691905 
L 246.635347 128.922256 
L 246.797755 118.374616 
L 246.960164 119.285602 
L 247.122572 136.827049 
L 247.284981 133.429598 
L 247.447389 137.727016 
L 247.609798 136.36535 
L 247.772206 128.603445 
L 247.934615 130.49691 
L 248.097023 134.067472 
L 248.259432 123.341491 
L 248.42184 135.583155 
L 248.746657 106.7674 
L 248.909065 118.552819 
L 249.071474 118.551864 
L 249.396291 112.209037 
L 249.558699 119.841926 
L 249.883516 160.073293 
L 250.045925 161.170428 
L 250.370742 169.456936 
L 250.695559 146.535612 
L 250.857967 146.6094 
L 251.020376 155.165544 
L 251.182784 155.507839 
L 251.345193 128.82642 
L 251.507601 124.631715 
L 251.832418 100.067531 
L 251.994827 110.325478 
L 252.157235 100.992007 
L 252.319643 103.247297 
L 252.482052 107.553947 
L 252.806869 92.293205 
L 252.969277 91.767453 
L 253.131686 92.090395 
L 253.294094 92.717383 
L 253.456503 96.556745 
L 253.618911 86.361508 
L 254.430954 129.47584 
L 254.593362 133.21737 
L 254.755771 126.09045 
L 254.918179 135.132908 
L 255.080588 134.133249 
L 255.242996 139.401461 
L 255.405405 131.125925 
L 255.567813 138.369554 
L 256.055038 106.56788 
L 256.217447 102.905172 
L 256.379855 101.894675 
L 256.542264 94.291882 
L 256.704672 103.820525 
L 256.867081 96.440362 
L 257.029489 97.436508 
L 257.354306 87.143749 
L 257.516715 83.828194 
L 257.679123 89.500089 
L 257.841532 82.585593 
L 258.166349 102.51541 
L 258.328757 100.977193 
L 258.491166 105.212749 
L 258.653574 104.319522 
L 258.815983 105.228485 
L 258.978391 112.776265 
L 259.140799 128.678515 
L 259.303208 131.35753 
L 259.465616 138.466543 
L 259.790433 125.214942 
L 259.952842 126.564817 
L 260.11525 126.109422 
L 260.277659 130.937401 
L 260.440067 130.411654 
L 260.602476 135.468812 
L 260.764884 117.48786 
L 260.927293 125.153577 
L 261.089701 123.551991 
L 261.25211 136.073505 
L 261.414518 127.574907 
L 261.576927 127.788685 
L 261.739335 140.963336 
L 261.901744 168.228568 
L 262.064152 169.501741 
L 262.226561 168.457273 
L 262.551378 196.494611 
L 262.713786 200.097283 
L 263.038603 216.053669 
L 263.525828 167.933606 
L 263.688237 175.807596 
L 263.850645 173.384019 
L 264.175462 142.660677 
L 264.337871 150.148312 
L 264.500279 142.29546 
L 264.825096 168.718002 
L 264.987505 154.904988 
L 265.149913 169.283601 
L 265.312322 151.570094 
L 265.47473 157.068348 
L 265.637139 174.123503 
L 265.799547 177.901949 
L 265.961956 176.416378 
L 266.286772 155.326557 
L 266.449181 163.775675 
L 266.611589 183.538277 
L 266.773998 171.759832 
L 266.936406 192.479385 
L 267.098815 177.783603 
L 267.261223 190.348969 
L 267.423632 184.786143 
L 267.58604 170.387295 
L 267.748449 175.863452 
L 267.910857 173.999522 
L 268.073266 157.30925 
L 268.235674 156.660688 
L 268.398083 168.64685 
L 268.560491 168.715611 
L 268.7229 181.362769 
L 268.885308 163.235344 
L 269.047717 161.858729 
L 269.210125 168.542085 
L 269.372534 188.851427 
L 269.534942 193.922875 
L 270.022167 216.513469 
L 270.509393 187.994602 
L 270.671801 212.333975 
L 270.83421 218.987337 
L 271.159027 187.406813 
L 271.321435 181.915465 
L 271.646252 148.034239 
L 271.808661 157.234082 
L 271.971069 158.544975 
L 272.133478 172.695592 
L 272.458295 143.444074 
L 272.620703 149.176636 
L 272.783112 174.84485 
L 272.94552 169.936825 
L 273.107929 178.129981 
L 273.270337 178.257206 
L 273.432745 180.528126 
L 273.595154 185.410814 
L 273.919971 169.497329 
L 274.082379 182.522689 
L 274.244788 180.647739 
L 274.407196 156.820882 
L 274.569605 157.848721 
L 275.219239 108.780596 
L 275.381647 121.803354 
L 275.544056 120.288229 
L 275.706464 112.17417 
L 275.868873 116.261823 
L 276.031281 129.745523 
L 276.19369 122.902138 
L 276.518507 160.569564 
L 276.680915 169.145467 
L 276.843323 169.463317 
L 277.005732 158.639177 
L 277.16814 164.626633 
L 277.330549 165.141559 
L 277.492957 173.864199 
L 277.655366 160.950927 
L 277.817774 165.254934 
L 278.305 124.125519 
L 278.629817 159.884644 
L 278.792225 173.137152 
L 279.117042 168.091627 
L 279.279451 178.665604 
L 279.441859 196.728053 
L 279.604268 193.946516 
L 279.929085 207.513659 
L 280.41631 167.802055 
L 280.578718 183.439859 
L 281.065944 161.878171 
L 281.390761 178.232976 
L 281.553169 173.087814 
L 281.715578 175.385312 
L 281.877986 180.130996 
L 282.040395 171.280439 
L 282.365212 138.132675 
L 282.52762 145.01086 
L 283.014846 111.727813 
L 283.177254 108.800854 
L 283.502071 100.887153 
L 283.66448 99.370546 
L 283.826888 107.41591 
L 283.989296 121.515732 
L 284.151705 117.766825 
L 284.314113 124.78239 
L 284.476522 142.640712 
L 284.63893 139.409684 
L 284.801339 145.935737 
L 284.963747 146.728024 
L 285.126156 173.193648 
L 285.450973 181.732884 
L 286.100607 133.784128 
L 286.263015 139.798419 
L 286.425424 153.652297 
L 286.587832 157.179699 
L 286.750241 141.110878 
L 286.912649 136.619493 
L 287.562283 183.576401 
L 287.724691 197.73876 
L 288.049508 165.839028 
L 288.211917 166.086683 
L 288.374325 149.198097 
L 288.536734 144.131997 
L 288.699142 122.55067 
L 288.861551 122.387676 
L 289.023959 117.346368 
L 289.348776 95.164408 
L 289.511185 106.57007 
L 289.673593 102.000514 
L 289.99841 118.633776 
L 290.160819 115.848025 
L 290.648044 123.709477 
L 290.810452 115.729769 
L 290.972861 114.978998 
L 291.135269 112.276909 
L 291.297678 125.892999 
L 291.622495 112.667045 
L 291.784903 128.801417 
L 291.947312 130.064599 
L 292.10972 149.265683 
L 292.434537 155.542952 
L 292.596946 172.668207 
L 292.759354 175.753873 
L 293.084171 156.942559 
L 293.408988 173.136536 
L 293.571397 174.531891 
L 293.733805 150.998666 
L 293.896214 153.889087 
L 294.058622 152.674009 
L 294.221031 165.240542 
L 294.383439 165.791292 
L 294.708256 180.533904 
L 294.870664 208.804952 
L 295.195481 193.332757 
L 295.35789 192.783158 
L 295.520298 213.855077 
L 295.682707 214.356737 
L 295.845115 177.88128 
L 296.169932 168.817572 
L 296.332341 172.594549 
L 296.494749 133.059622 
L 296.657158 126.678069 
L 296.819566 139.720489 
L 296.981975 140.207265 
L 297.144383 118.24113 
L 297.306792 126.815876 
L 297.631609 163.235242 
L 297.956425 147.743319 
L 298.118834 164.657882 
L 298.281242 168.461792 
L 298.443651 154.470694 
L 298.606059 152.911102 
L 299.255693 103.618887 
L 299.418102 107.339159 
L 299.742919 91.071572 
L 299.905327 81.989356 
L 300.067736 95.736991 
L 300.230144 86.420547 
L 300.392553 89.12304 
L 300.554961 120.198789 
L 300.71737 126.271545 
L 301.204595 160.707953 
L 301.367004 149.438594 
L 301.69182 145.788744 
L 301.854229 149.951738 
L 302.016637 157.5738 
L 302.179046 126.703689 
L 302.503863 114.783181 
L 302.666271 111.024218 
L 302.82868 104.402717 
L 302.991088 115.586829 
L 303.153497 135.507117 
L 303.315905 138.954265 
L 303.640722 129.411509 
L 303.803131 131.499445 
L 303.965539 131.727104 
L 304.290356 119.223835 
L 304.452765 122.433158 
L 304.615173 119.816001 
L 304.93999 98.934238 
L 305.102398 109.734195 
L 305.264807 111.328407 
L 305.589624 105.266373 
L 305.752032 94.671216 
L 305.914441 98.795136 
L 306.076849 97.97331 
L 306.239258 98.291854 
L 306.401666 95.706056 
L 306.564075 87.74886 
L 306.726483 106.14506 
L 306.888892 101.527968 
L 307.0513 105.263233 
L 307.213709 137.069964 
L 307.376117 138.495661 
L 307.538526 136.543229 
L 307.863343 144.017275 
L 308.025751 140.337889 
L 308.18816 146.81489 
L 308.350568 122.274218 
L 308.512976 128.289575 
L 308.675385 142.938669 
L 308.837793 147.401284 
L 309.000202 182.034905 
L 309.16261 182.072261 
L 309.325019 174.743718 
L 309.487427 182.026846 
L 309.649836 194.62128 
L 309.812244 191.260392 
L 309.974653 199.096219 
L 310.137061 191.351915 
L 310.29947 177.893802 
L 310.461878 174.575751 
L 310.624287 151.443784 
L 311.436329 137.244049 
L 311.598738 124.900531 
L 311.761146 137.93254 
L 311.923555 139.429199 
L 312.248371 110.26558 
L 312.41078 124.882129 
L 312.573188 128.214913 
L 312.735597 118.735692 
L 312.898005 118.639566 
L 313.060414 127.503386 
L 313.222822 129.599659 
L 313.385231 113.46384 
L 313.547639 123.087845 
L 313.710048 124.365343 
L 313.872456 129.133139 
L 314.197273 144.211396 
L 314.359682 139.550554 
L 314.52209 146.651135 
L 314.684499 141.302357 
L 315.009316 160.20235 
L 315.821358 100.374875 
L 315.983766 104.010438 
L 316.146175 96.67333 
L 316.308583 106.40913 
L 316.470992 103.270993 
L 316.6334 116.491443 
L 316.795809 112.052422 
L 317.283034 127.469604 
L 317.445443 138.193495 
L 317.77026 128.134857 
L 317.932668 148.058866 
L 318.257485 130.050149 
L 318.419894 128.246861 
L 318.582302 135.323767 
L 318.744711 137.396499 
L 319.231936 194.155707 
L 319.394344 189.696913 
L 319.556753 170.081761 
L 319.719161 179.905841 
L 319.88157 178.370536 
L 320.043978 187.808116 
L 320.368795 174.858388 
L 320.693612 139.618089 
L 320.856021 139.979386 
L 321.018429 151.057931 
L 321.180838 142.65312 
L 321.343246 143.168561 
L 321.505655 141.988433 
L 321.668063 145.674772 
L 321.830472 143.933577 
L 322.155289 191.840152 
L 322.317697 170.733691 
L 322.804922 151.938693 
L 322.967331 152.348096 
L 323.292148 147.772648 
L 323.454556 139.629426 
L 323.779373 109.451108 
L 323.941782 117.256523 
L 324.10419 105.273561 
L 324.266599 104.760084 
L 324.429007 113.80601 
L 324.591416 114.003096 
L 324.753824 117.639425 
L 325.078641 137.696699 
L 325.24105 131.864654 
L 325.403458 146.722493 
L 325.565867 138.916237 
L 325.728275 145.430545 
L 325.890684 143.068826 
L 326.053092 146.810686 
L 326.2155 145.586453 
L 326.377909 140.947975 
L 326.540317 129.5586 
L 326.702726 129.414065 
L 326.865134 127.70823 
L 327.027543 116.579978 
L 327.35236 146.225219 
L 327.514768 154.829991 
L 327.839585 146.808198 
L 328.001994 154.469352 
L 328.164402 152.316975 
L 328.489219 175.837476 
L 328.814036 157.632766 
L 328.976445 157.321121 
L 329.138853 152.656986 
L 329.301262 158.974657 
L 329.46367 157.11182 
L 329.626078 164.068449 
L 329.788487 162.543848 
L 329.950895 166.909113 
L 330.113304 181.319993 
L 330.275712 183.979775 
L 330.600529 164.040617 
L 330.762938 172.793238 
L 330.925346 173.759596 
L 331.087755 180.577346 
L 331.250163 171.95755 
L 331.412572 174.918757 
L 331.57498 182.225208 
L 331.899797 152.903611 
L 332.224614 204.411893 
L 332.549431 194.337299 
L 332.71184 197.628386 
L 332.874248 219.635802 
L 333.199065 202.984164 
L 333.361473 201.13914 
L 333.523882 212.596331 
L 333.848699 174.077279 
L 334.011107 195.550323 
L 334.173516 193.555495 
L 334.335924 195.189025 
L 334.498333 167.297195 
L 334.660741 177.83675 
L 334.985558 162.085378 
L 335.147967 153.388473 
L 335.310375 138.641385 
L 335.472784 146.716666 
L 335.635192 126.638289 
L 335.797601 125.504446 
L 335.960009 122.758231 
L 336.122418 126.811741 
L 336.284826 118.948404 
L 336.609643 119.782386 
L 336.772051 136.000041 
L 336.93446 139.183621 
L 337.096868 145.269358 
L 337.259277 160.584548 
L 337.421685 161.505837 
L 337.746502 165.230848 
L 337.908911 172.445509 
L 338.071319 160.52936 
L 338.233728 168.187971 
L 338.396136 153.907372 
L 338.558545 170.695198 
L 339.04577 154.774106 
L 339.370587 136.170914 
L 339.532996 137.298594 
L 339.695404 164.571009 
L 339.857813 160.693477 
L 340.020221 172.906953 
L 340.182629 173.056268 
L 340.345038 180.796994 
L 340.507446 166.926163 
L 340.669855 174.966225 
L 340.994672 204.814548 
L 341.15708 199.524266 
L 341.319489 182.662002 
L 341.481897 184.988738 
L 341.644306 177.44534 
L 341.969123 145.865282 
L 342.131531 155.652911 
L 342.29394 155.582404 
L 342.456348 151.197043 
L 342.618757 151.137993 
L 342.781165 149.631792 
L 342.943574 146.675282 
L 343.105982 140.95484 
L 343.430799 146.121774 
L 343.593208 149.585629 
L 343.918024 167.724943 
L 344.080433 162.682445 
L 344.242841 165.521894 
L 344.40525 170.689607 
L 344.730067 163.005034 
L 344.892475 157.740254 
L 345.054884 171.539382 
L 345.542109 145.67827 
L 345.704518 147.008038 
L 345.866926 143.730054 
L 346.029335 135.236939 
L 346.191743 149.127174 
L 346.354152 152.222696 
L 346.51656 158.328977 
L 346.678969 142.521842 
L 346.841377 143.351566 
L 347.003786 126.058217 
L 347.166194 126.679191 
L 347.328602 145.823897 
L 347.491011 149.962317 
L 347.653419 157.782917 
L 347.815828 142.813126 
L 347.978236 140.588974 
L 348.140645 131.525489 
L 348.303053 137.347279 
L 348.465462 138.661642 
L 348.62787 142.300373 
L 348.790279 136.546493 
L 348.952687 116.944455 
L 349.115096 112.147597 
L 349.76473 151.193368 
L 349.927138 146.34045 
L 350.089547 151.696296 
L 350.414364 172.6927 
L 350.576772 164.794136 
L 350.73918 165.518524 
L 350.901589 154.907003 
L 351.063997 152.332385 
L 351.388814 136.261433 
L 351.551223 142.345701 
L 351.713631 137.389382 
L 351.87604 124.390526 
L 352.038448 126.952997 
L 352.200857 133.537113 
L 352.363265 125.624306 
L 352.850491 137.917011 
L 353.175308 145.819747 
L 353.337716 144.712118 
L 353.500125 152.112119 
L 353.662533 148.913368 
L 353.98735 154.186885 
L 354.149759 152.338018 
L 354.312167 148.160819 
L 354.474575 153.899064 
L 354.799392 150.276864 
L 354.961801 142.474627 
L 355.124209 145.373548 
L 355.286618 166.426742 
L 355.773843 140.204213 
L 355.936252 136.288071 
L 356.09866 136.187631 
L 356.261069 133.183844 
L 356.423477 126.262499 
L 356.585886 125.849896 
L 356.748294 116.192113 
L 356.910703 99.330003 
L 357.073111 102.729275 
L 357.23552 119.818901 
L 357.397928 124.408298 
L 357.560337 123.439984 
L 357.722745 118.489455 
L 357.885153 126.416784 
L 358.047562 144.445961 
L 358.20997 142.197691 
L 358.534787 148.178208 
L 358.697196 145.570623 
L 359.022013 115.324637 
L 359.184421 118.056038 
L 359.34683 106.808864 
L 359.509238 108.449743 
L 359.671647 99.924047 
L 359.834055 101.565676 
L 359.996464 110.77597 
L 360.158872 100.096889 
L 360.321281 107.167985 
L 360.646098 136.861566 
L 360.808506 137.11432 
L 360.970915 144.789284 
L 361.295732 128.984702 
L 361.45814 137.717595 
L 361.782957 135.120971 
L 362.107774 110.662035 
L 362.270182 115.72313 
L 362.432591 115.611533 
L 362.594999 134.480835 
L 362.757408 138.387563 
L 362.919816 137.759785 
L 363.244633 127.536538 
L 363.407042 131.325348 
L 363.731859 157.532893 
L 363.894267 155.174641 
L 364.056676 173.856096 
L 364.219084 161.175632 
L 364.381493 161.514342 
L 364.70631 183.617603 
L 364.868718 183.159686 
L 365.031126 194.617459 
L 365.355943 174.227615 
L 365.518352 174.86972 
L 365.68076 153.452531 
L 365.843169 150.449276 
L 366.005577 156.66776 
L 366.330394 150.170749 
L 366.492803 139.455787 
L 366.655211 143.595637 
L 366.980028 135.306648 
L 367.142437 134.4009 
L 367.467254 150.804321 
L 367.629662 149.248355 
L 367.792071 145.833878 
L 368.116888 168.397261 
L 368.279296 156.53766 
L 368.441704 153.030661 
L 368.766521 156.396722 
L 369.091338 128.816971 
L 369.253747 125.996969 
L 369.416155 126.445949 
L 369.578564 127.350093 
L 369.740972 124.570352 
L 370.065789 130.915049 
L 370.390606 127.265883 
L 370.715423 144.577615 
L 370.877832 137.457095 
L 371.04024 156.475032 
L 371.202649 141.260267 
L 371.365057 149.287371 
L 371.527466 143.828022 
L 371.689874 153.129929 
L 371.852283 151.884891 
L 372.014691 145.028534 
L 372.339508 161.052925 
L 372.501916 173.781473 
L 372.664325 172.225797 
L 372.989142 157.005015 
L 373.15155 158.241276 
L 373.313959 162.708234 
L 373.476367 163.611188 
L 373.638776 174.2543 
L 373.963593 160.960394 
L 374.126001 163.804802 
L 374.28841 147.312685 
L 374.450818 156.436092 
L 374.613227 152.217151 
L 374.775635 159.581565 
L 374.938044 149.047164 
L 375.100452 159.240128 
L 375.262861 162.167258 
L 375.425269 160.747261 
L 375.587677 148.74596 
L 375.750086 157.170078 
L 375.912494 157.606745 
L 376.074903 147.818613 
L 376.237311 145.257703 
L 376.39972 137.55541 
L 376.562128 138.608608 
L 376.724537 140.795795 
L 377.049354 137.55298 
L 377.211762 158.429029 
L 377.374171 131.309945 
L 377.536579 134.07467 
L 377.698988 167.911835 
L 378.023805 182.37009 
L 378.186213 185.130026 
L 378.348622 181.261301 
L 378.51103 189.317475 
L 378.673439 183.872224 
L 378.835847 172.494803 
L 378.998255 180.475094 
L 379.810298 119.994517 
L 379.972706 118.575596 
L 380.135115 109.149164 
L 380.297523 108.208563 
L 380.459932 105.729107 
L 380.62234 114.048833 
L 381.109566 149.999314 
L 381.271974 156.063232 
L 381.434383 175.51556 
L 381.7592 181.685126 
L 382.246425 207.228198 
L 382.571242 175.28652 
L 382.73365 176.73122 
L 383.058467 163.545308 
L 383.383284 150.243804 
L 383.545693 138.724684 
L 383.708101 137.146172 
L 383.87051 121.730176 
L 384.195327 134.484329 
L 384.357735 120.75951 
L 384.520144 122.184881 
L 384.844961 107.83255 
L 385.007369 108.620959 
L 385.169778 108.371608 
L 385.332186 91.569807 
L 385.494595 91.028008 
L 385.657003 99.892132 
L 385.819412 99.305024 
L 386.144228 118.732317 
L 386.306637 115.296853 
L 386.469045 115.234383 
L 386.631454 129.953766 
L 386.793862 131.628473 
L 386.956271 154.046143 
L 387.443496 167.579407 
L 387.768313 142.955581 
L 387.930722 141.27157 
L 388.09313 141.3871 
L 388.255539 124.472382 
L 388.417947 124.77068 
L 388.580356 104.476633 
L 388.742764 103.981748 
L 389.067581 84.861493 
L 389.392398 102.363874 
L 389.717215 124.096868 
L 389.879623 127.071627 
L 390.042032 134.036028 
L 390.20444 154.391674 
L 390.366849 152.002225 
L 390.529257 147.126331 
L 390.854074 166.412865 
L 391.016483 172.113238 
L 391.178891 189.220338 
L 391.3413 188.434884 
L 391.503708 194.331555 
L 391.666117 204.529439 
L 391.828525 180.627725 
L 392.153342 170.721024 
L 392.315751 159.929692 
L 392.478159 159.729942 
L 392.640568 147.756534 
L 392.802976 124.23649 
L 392.965385 131.014456 
L 393.290201 113.733514 
L 393.615018 115.908075 
L 393.777427 120.002095 
L 393.939835 114.006401 
L 394.102244 100.03206 
L 394.264652 113.334552 
L 394.427061 108.731467 
L 394.589469 98.534701 
L 395.239103 124.870071 
L 395.56392 114.688997 
L 395.726329 117.829314 
L 395.888737 104.520067 
L 396.051146 107.514814 
L 396.213554 104.002939 
L 396.375963 103.412877 
L 396.538371 99.974571 
L 396.700779 110.038432 
L 396.863188 105.985239 
L 397.025596 115.940414 
L 397.350413 113.796016 
L 397.512822 145.042878 
L 397.67523 141.531255 
L 397.837639 159.208058 
L 398.162456 167.977162 
L 398.324864 158.834 
L 398.487273 162.616501 
L 398.487273 162.616501 
" style="fill:none;stroke:#1f77b4;stroke-linecap:square;stroke-width:1.5;"/>
   </g>
   <g id="patch_3">
    <path d="M 57.6 307.584 
L 57.6 41.472 
" style="fill:none;stroke:#000000;stroke-linecap:square;stroke-linejoin:miter;stroke-width:0.8;"/>
   </g>
   <g id="patch_4">
    <path d="M 414.72 307.584 
L 414.72 41.472 
" style="fill:none;stroke:#000000;stroke-linecap:square;stroke-linejoin:miter;stroke-width:0.8;"/>
   </g>
   <g id="patch_5">
    <path d="M 57.6 307.584 
L 414.72 307.584 
" style="fill:none;stroke:#000000;stroke-linecap:square;stroke-linejoin:miter;stroke-width:0.8;"/>
   </g>
   <g id="patch_6">
    <path d="M 57.6 41.472 
L 414.72 41.472 
" style="fill:none;stroke:#000000;stroke-linecap:square;stroke-linejoin:miter;stroke-width:0.8;"/>
   </g>
   <g id="legend_1">
    <g id="patch_7">
     <path d="M 338.493438 302.584 
L 407.72 302.584 
Q 409.72 302.584 409.72 300.584 
L 409.72 286.905875 
Q 409.72 284.905875 407.72 284.905875 
L 338.493438 284.905875 
Q 336.493438 284.905875 336.493438 286.905875 
L 336.493438 300.584 
Q 336.493438 302.584 338.493438 302.584 
z
" style="fill:#ffffff;opacity:0.8;stroke:#cccccc;stroke-linejoin:miter;"/>
    </g>
    <g id="line2d_19">
     <path d="M 340.493438 293.004312 
L 360.493438 293.004312 
" style="fill:none;stroke:#1f77b4;stroke-linecap:square;stroke-width:1.5;"/>
    </g>
    <g id="line2d_20"/>
    <g id="text_20">
     <!-- 10 DOF -->
     <defs>
      <path d="M 19.671875 64.796875 
L 19.671875 8.109375 
L 31.59375 8.109375 
Q 46.6875 8.109375 53.6875 14.9375 
Q 60.6875 21.78125 60.6875 36.53125 
Q 60.6875 51.171875 53.6875 57.984375 
Q 46.6875 64.796875 31.59375 64.796875 
z
M 9.8125 72.90625 
L 30.078125 72.90625 
Q 51.265625 72.90625 61.171875 64.09375 
Q 71.09375 55.28125 71.09375 36.53125 
Q 71.09375 17.671875 61.125 8.828125 
Q 51.171875 0 30.078125 0 
L 9.8125 0 
z
" id="DejaVuSans-44"/>
      <path d="M 39.40625 66.21875 
Q 28.65625 66.21875 22.328125 58.203125 
Q 16.015625 50.203125 16.015625 36.375 
Q 16.015625 22.609375 22.328125 14.59375 
Q 28.65625 6.59375 39.40625 6.59375 
Q 50.140625 6.59375 56.421875 14.59375 
Q 62.703125 22.609375 62.703125 36.375 
Q 62.703125 50.203125 56.421875 58.203125 
Q 50.140625 66.21875 39.40625 66.21875 
z
M 39.40625 74.21875 
Q 54.734375 74.21875 63.90625 63.9375 
Q 73.09375 53.65625 73.09375 36.375 
Q 73.09375 19.140625 63.90625 8.859375 
Q 54.734375 -1.421875 39.40625 -1.421875 
Q 24.03125 -1.421875 14.8125 8.828125 
Q 5.609375 19.09375 5.609375 36.375 
Q 5.609375 53.65625 14.8125 63.9375 
Q 24.03125 74.21875 39.40625 74.21875 
z
" id="DejaVuSans-4f"/>
      <path d="M 9.8125 72.90625 
L 51.703125 72.90625 
L 51.703125 64.59375 
L 19.671875 64.59375 
L 19.671875 43.109375 
L 48.578125 43.109375 
L 48.578125 34.8125 
L 19.671875 34.8125 
L 19.671875 0 
L 9.8125 0 
z
" id="DejaVuSans-46"/>
     </defs>
     <g transform="translate(368.493438 296.504312)scale(0.1 -0.1)">
      <use xlink:href="#DejaVuSans-31"/>
      <use x="63.623047" xlink:href="#DejaVuSans-30"/>
      <use x="127.246094" xlink:href="#DejaVuSans-20"/>
      <use x="159.033203" xlink:href="#DejaVuSans-44"/>
      <use x="236.035156" xlink:href="#DejaVuSans-4f"/>
      <use x="314.746094" xlink:href="#DejaVuSans-46"/>
     </g>
    </g>
   </g>
  </g>
 </g>
 <defs>
  <clipPath id="pded529a517">
   <rect height="266.112" width="357.12" x="57.6" y="41.472"/>
  </clipPath>
 </defs>
</svg>
