<?xml version="1.0" encoding="utf-8" standalone="no"?>
<!DOCTYPE svg PUBLIC "-//W3C//DTD SVG 1.1//EN"
  "http://www.w3.org/Graphics/SVG/1.1/DTD/svg11.dtd">
<!-- Created with matplotlib (http://matplotlib.org/) -->
<svg height="345pt" version="1.1" viewBox="0 0 460 345" width="460pt" xmlns="http://www.w3.org/2000/svg" xmlns:xlink="http://www.w3.org/1999/xlink">
 <defs>
  <style type="text/css">
*{stroke-linecap:butt;stroke-linejoin:round;}
  </style>
 </defs>
 <g id="figure_1">
  <g id="patch_1">
   <path d="M 0 345.6 
L 460.8 345.6 
L 460.8 0 
L 0 0 
z
" style="fill:#ffffff;"/>
  </g>
  <g id="axes_1">
   <g id="patch_2">
    <path d="M 57.6 307.584 
L 414.72 307.584 
L 414.72 41.472 
L 57.6 41.472 
z
" style="fill:#ffffff;"/>
   </g>
   <g id="matplotlib.axis_1">
    <g id="xtick_1">
     <g id="line2d_1">
      <defs>
       <path d="M 0 0 
L 0 3.5 
" id="m9e7baf313d" style="stroke:#000000;stroke-width:0.8;"/>
      </defs>
      <g>
       <use style="stroke:#000000;stroke-width:0.8;" x="73.832727" xlink:href="#m9e7baf313d" y="307.584"/>
      </g>
     </g>
     <g id="text_1">
      <!-- 0 -->
      <defs>
       <path d="M 31.78125 66.40625 
Q 24.171875 66.40625 20.328125 58.90625 
Q 16.5 51.421875 16.5 36.375 
Q 16.5 21.390625 20.328125 13.890625 
Q 24.171875 6.390625 31.78125 6.390625 
Q 39.453125 6.390625 43.28125 13.890625 
Q 47.125 21.390625 47.125 36.375 
Q 47.125 51.421875 43.28125 58.90625 
Q 39.453125 66.40625 31.78125 66.40625 
z
M 31.78125 74.21875 
Q 44.046875 74.21875 50.515625 64.515625 
Q 56.984375 54.828125 56.984375 36.375 
Q 56.984375 17.96875 50.515625 8.265625 
Q 44.046875 -1.421875 31.78125 -1.421875 
Q 19.53125 -1.421875 13.0625 8.265625 
Q 6.59375 17.96875 6.59375 36.375 
Q 6.59375 54.828125 13.0625 64.515625 
Q 19.53125 74.21875 31.78125 74.21875 
z
" id="DejaVuSans-30"/>
      </defs>
      <g transform="translate(70.651477 322.182437)scale(0.1 -0.1)">
       <use xlink:href="#DejaVuSans-30"/>
      </g>
     </g>
    </g>
    <g id="xtick_2">
     <g id="line2d_2">
      <g>
       <use style="stroke:#000000;stroke-width:0.8;" x="138.893758" xlink:href="#m9e7baf313d" y="307.584"/>
      </g>
     </g>
     <g id="text_2">
      <!-- 100 -->
      <defs>
       <path d="M 12.40625 8.296875 
L 28.515625 8.296875 
L 28.515625 63.921875 
L 10.984375 60.40625 
L 10.984375 69.390625 
L 28.421875 72.90625 
L 38.28125 72.90625 
L 38.28125 8.296875 
L 54.390625 8.296875 
L 54.390625 0 
L 12.40625 0 
z
" id="DejaVuSans-31"/>
      </defs>
      <g transform="translate(129.350008 322.182437)scale(0.1 -0.1)">
       <use xlink:href="#DejaVuSans-31"/>
       <use x="63.623047" xlink:href="#DejaVuSans-30"/>
       <use x="127.246094" xlink:href="#DejaVuSans-30"/>
      </g>
     </g>
    </g>
    <g id="xtick_3">
     <g id="line2d_3">
      <g>
       <use style="stroke:#000000;stroke-width:0.8;" x="203.95479" xlink:href="#m9e7baf313d" y="307.584"/>
      </g>
     </g>
     <g id="text_3">
      <!-- 200 -->
      <defs>
       <path d="M 19.1875 8.296875 
L 53.609375 8.296875 
L 53.609375 0 
L 7.328125 0 
L 7.328125 8.296875 
Q 12.9375 14.109375 22.625 23.890625 
Q 32.328125 33.6875 34.8125 36.53125 
Q 39.546875 41.84375 41.421875 45.53125 
Q 43.3125 49.21875 43.3125 52.78125 
Q 43.3125 58.59375 39.234375 62.25 
Q 35.15625 65.921875 28.609375 65.921875 
Q 23.96875 65.921875 18.8125 64.3125 
Q 13.671875 62.703125 7.8125 59.421875 
L 7.8125 69.390625 
Q 13.765625 71.78125 18.9375 73 
Q 24.125 74.21875 28.421875 74.21875 
Q 39.75 74.21875 46.484375 68.546875 
Q 53.21875 62.890625 53.21875 53.421875 
Q 53.21875 48.921875 51.53125 44.890625 
Q 49.859375 40.875 45.40625 35.40625 
Q 44.1875 33.984375 37.640625 27.21875 
Q 31.109375 20.453125 19.1875 8.296875 
z
" id="DejaVuSans-32"/>
      </defs>
      <g transform="translate(194.41104 322.182437)scale(0.1 -0.1)">
       <use xlink:href="#DejaVuSans-32"/>
       <use x="63.623047" xlink:href="#DejaVuSans-30"/>
       <use x="127.246094" xlink:href="#DejaVuSans-30"/>
      </g>
     </g>
    </g>
    <g id="xtick_4">
     <g id="line2d_4">
      <g>
       <use style="stroke:#000000;stroke-width:0.8;" x="269.015821" xlink:href="#m9e7baf313d" y="307.584"/>
      </g>
     </g>
     <g id="text_4">
      <!-- 300 -->
      <defs>
       <path d="M 40.578125 39.3125 
Q 47.65625 37.796875 51.625 33 
Q 55.609375 28.21875 55.609375 21.1875 
Q 55.609375 10.40625 48.1875 4.484375 
Q 40.765625 -1.421875 27.09375 -1.421875 
Q 22.515625 -1.421875 17.65625 -0.515625 
Q 12.796875 0.390625 7.625 2.203125 
L 7.625 11.71875 
Q 11.71875 9.328125 16.59375 8.109375 
Q 21.484375 6.890625 26.8125 6.890625 
Q 36.078125 6.890625 40.9375 10.546875 
Q 45.796875 14.203125 45.796875 21.1875 
Q 45.796875 27.640625 41.28125 31.265625 
Q 36.765625 34.90625 28.71875 34.90625 
L 20.21875 34.90625 
L 20.21875 43.015625 
L 29.109375 43.015625 
Q 36.375 43.015625 40.234375 45.921875 
Q 44.09375 48.828125 44.09375 54.296875 
Q 44.09375 59.90625 40.109375 62.90625 
Q 36.140625 65.921875 28.71875 65.921875 
Q 24.65625 65.921875 20.015625 65.03125 
Q 15.375 64.15625 9.8125 62.3125 
L 9.8125 71.09375 
Q 15.4375 72.65625 20.34375 73.4375 
Q 25.25 74.21875 29.59375 74.21875 
Q 40.828125 74.21875 47.359375 69.109375 
Q 53.90625 64.015625 53.90625 55.328125 
Q 53.90625 49.265625 50.4375 45.09375 
Q 46.96875 40.921875 40.578125 39.3125 
z
" id="DejaVuSans-33"/>
      </defs>
      <g transform="translate(259.472071 322.182437)scale(0.1 -0.1)">
       <use xlink:href="#DejaVuSans-33"/>
       <use x="63.623047" xlink:href="#DejaVuSans-30"/>
       <use x="127.246094" xlink:href="#DejaVuSans-30"/>
      </g>
     </g>
    </g>
    <g id="xtick_5">
     <g id="line2d_5">
      <g>
       <use style="stroke:#000000;stroke-width:0.8;" x="334.076852" xlink:href="#m9e7baf313d" y="307.584"/>
      </g>
     </g>
     <g id="text_5">
      <!-- 400 -->
      <defs>
       <path d="M 37.796875 64.3125 
L 12.890625 25.390625 
L 37.796875 25.390625 
z
M 35.203125 72.90625 
L 47.609375 72.90625 
L 47.609375 25.390625 
L 58.015625 25.390625 
L 58.015625 17.1875 
L 47.609375 17.1875 
L 47.609375 0 
L 37.796875 0 
L 37.796875 17.1875 
L 4.890625 17.1875 
L 4.890625 26.703125 
z
" id="DejaVuSans-34"/>
      </defs>
      <g transform="translate(324.533102 322.182437)scale(0.1 -0.1)">
       <use xlink:href="#DejaVuSans-34"/>
       <use x="63.623047" xlink:href="#DejaVuSans-30"/>
       <use x="127.246094" xlink:href="#DejaVuSans-30"/>
      </g>
     </g>
    </g>
    <g id="xtick_6">
     <g id="line2d_6">
      <g>
       <use style="stroke:#000000;stroke-width:0.8;" x="399.137883" xlink:href="#m9e7baf313d" y="307.584"/>
      </g>
     </g>
     <g id="text_6">
      <!-- 500 -->
      <defs>
       <path d="M 10.796875 72.90625 
L 49.515625 72.90625 
L 49.515625 64.59375 
L 19.828125 64.59375 
L 19.828125 46.734375 
Q 21.96875 47.46875 24.109375 47.828125 
Q 26.265625 48.1875 28.421875 48.1875 
Q 40.625 48.1875 47.75 41.5 
Q 54.890625 34.8125 54.890625 23.390625 
Q 54.890625 11.625 47.5625 5.09375 
Q 40.234375 -1.421875 26.90625 -1.421875 
Q 22.3125 -1.421875 17.546875 -0.640625 
Q 12.796875 0.140625 7.71875 1.703125 
L 7.71875 11.625 
Q 12.109375 9.234375 16.796875 8.0625 
Q 21.484375 6.890625 26.703125 6.890625 
Q 35.15625 6.890625 40.078125 11.328125 
Q 45.015625 15.765625 45.015625 23.390625 
Q 45.015625 31 40.078125 35.4375 
Q 35.15625 39.890625 26.703125 39.890625 
Q 22.75 39.890625 18.8125 39.015625 
Q 14.890625 38.140625 10.796875 36.28125 
z
" id="DejaVuSans-35"/>
      </defs>
      <g transform="translate(389.594133 322.182437)scale(0.1 -0.1)">
       <use xlink:href="#DejaVuSans-35"/>
       <use x="63.623047" xlink:href="#DejaVuSans-30"/>
       <use x="127.246094" xlink:href="#DejaVuSans-30"/>
      </g>
     </g>
    </g>
    <g id="text_7">
     <!-- episodes -->
     <defs>
      <path d="M 56.203125 29.59375 
L 56.203125 25.203125 
L 14.890625 25.203125 
Q 15.484375 15.921875 20.484375 11.0625 
Q 25.484375 6.203125 34.421875 6.203125 
Q 39.59375 6.203125 44.453125 7.46875 
Q 49.3125 8.734375 54.109375 11.28125 
L 54.109375 2.78125 
Q 49.265625 0.734375 44.1875 -0.34375 
Q 39.109375 -1.421875 33.890625 -1.421875 
Q 20.796875 -1.421875 13.15625 6.1875 
Q 5.515625 13.8125 5.515625 26.8125 
Q 5.515625 40.234375 12.765625 48.109375 
Q 20.015625 56 32.328125 56 
Q 43.359375 56 49.78125 48.890625 
Q 56.203125 41.796875 56.203125 29.59375 
z
M 47.21875 32.234375 
Q 47.125 39.59375 43.09375 43.984375 
Q 39.0625 48.390625 32.421875 48.390625 
Q 24.90625 48.390625 20.390625 44.140625 
Q 15.875 39.890625 15.1875 32.171875 
z
" id="DejaVuSans-65"/>
      <path d="M 18.109375 8.203125 
L 18.109375 -20.796875 
L 9.078125 -20.796875 
L 9.078125 54.6875 
L 18.109375 54.6875 
L 18.109375 46.390625 
Q 20.953125 51.265625 25.265625 53.625 
Q 29.59375 56 35.59375 56 
Q 45.5625 56 51.78125 48.09375 
Q 58.015625 40.1875 58.015625 27.296875 
Q 58.015625 14.40625 51.78125 6.484375 
Q 45.5625 -1.421875 35.59375 -1.421875 
Q 29.59375 -1.421875 25.265625 0.953125 
Q 20.953125 3.328125 18.109375 8.203125 
z
M 48.6875 27.296875 
Q 48.6875 37.203125 44.609375 42.84375 
Q 40.53125 48.484375 33.40625 48.484375 
Q 26.265625 48.484375 22.1875 42.84375 
Q 18.109375 37.203125 18.109375 27.296875 
Q 18.109375 17.390625 22.1875 11.75 
Q 26.265625 6.109375 33.40625 6.109375 
Q 40.53125 6.109375 44.609375 11.75 
Q 48.6875 17.390625 48.6875 27.296875 
z
" id="DejaVuSans-70"/>
      <path d="M 9.421875 54.6875 
L 18.40625 54.6875 
L 18.40625 0 
L 9.421875 0 
z
M 9.421875 75.984375 
L 18.40625 75.984375 
L 18.40625 64.59375 
L 9.421875 64.59375 
z
" id="DejaVuSans-69"/>
      <path d="M 44.28125 53.078125 
L 44.28125 44.578125 
Q 40.484375 46.53125 36.375 47.5 
Q 32.28125 48.484375 27.875 48.484375 
Q 21.1875 48.484375 17.84375 46.4375 
Q 14.5 44.390625 14.5 40.28125 
Q 14.5 37.15625 16.890625 35.375 
Q 19.28125 33.59375 26.515625 31.984375 
L 29.59375 31.296875 
Q 39.15625 29.25 43.1875 25.515625 
Q 47.21875 21.78125 47.21875 15.09375 
Q 47.21875 7.46875 41.1875 3.015625 
Q 35.15625 -1.421875 24.609375 -1.421875 
Q 20.21875 -1.421875 15.453125 -0.5625 
Q 10.6875 0.296875 5.421875 2 
L 5.421875 11.28125 
Q 10.40625 8.6875 15.234375 7.390625 
Q 20.0625 6.109375 24.8125 6.109375 
Q 31.15625 6.109375 34.5625 8.28125 
Q 37.984375 10.453125 37.984375 14.40625 
Q 37.984375 18.0625 35.515625 20.015625 
Q 33.0625 21.96875 24.703125 23.78125 
L 21.578125 24.515625 
Q 13.234375 26.265625 9.515625 29.90625 
Q 5.8125 33.546875 5.8125 39.890625 
Q 5.8125 47.609375 11.28125 51.796875 
Q 16.75 56 26.8125 56 
Q 31.78125 56 36.171875 55.265625 
Q 40.578125 54.546875 44.28125 53.078125 
z
" id="DejaVuSans-73"/>
      <path d="M 30.609375 48.390625 
Q 23.390625 48.390625 19.1875 42.75 
Q 14.984375 37.109375 14.984375 27.296875 
Q 14.984375 17.484375 19.15625 11.84375 
Q 23.34375 6.203125 30.609375 6.203125 
Q 37.796875 6.203125 41.984375 11.859375 
Q 46.1875 17.53125 46.1875 27.296875 
Q 46.1875 37.015625 41.984375 42.703125 
Q 37.796875 48.390625 30.609375 48.390625 
z
M 30.609375 56 
Q 42.328125 56 49.015625 48.375 
Q 55.71875 40.765625 55.71875 27.296875 
Q 55.71875 13.875 49.015625 6.21875 
Q 42.328125 -1.421875 30.609375 -1.421875 
Q 18.84375 -1.421875 12.171875 6.21875 
Q 5.515625 13.875 5.515625 27.296875 
Q 5.515625 40.765625 12.171875 48.375 
Q 18.84375 56 30.609375 56 
z
" id="DejaVuSans-6f"/>
      <path d="M 45.40625 46.390625 
L 45.40625 75.984375 
L 54.390625 75.984375 
L 54.390625 0 
L 45.40625 0 
L 45.40625 8.203125 
Q 42.578125 3.328125 38.25 0.953125 
Q 33.9375 -1.421875 27.875 -1.421875 
Q 17.96875 -1.421875 11.734375 6.484375 
Q 5.515625 14.40625 5.515625 27.296875 
Q 5.515625 40.1875 11.734375 48.09375 
Q 17.96875 56 27.875 56 
Q 33.9375 56 38.25 53.625 
Q 42.578125 51.265625 45.40625 46.390625 
z
M 14.796875 27.296875 
Q 14.796875 17.390625 18.875 11.75 
Q 22.953125 6.109375 30.078125 6.109375 
Q 37.203125 6.109375 41.296875 11.75 
Q 45.40625 17.390625 45.40625 27.296875 
Q 45.40625 37.203125 41.296875 42.84375 
Q 37.203125 48.484375 30.078125 48.484375 
Q 22.953125 48.484375 18.875 42.84375 
Q 14.796875 37.203125 14.796875 27.296875 
z
" id="DejaVuSans-64"/>
     </defs>
     <g transform="translate(214.000625 335.860562)scale(0.1 -0.1)">
      <use xlink:href="#DejaVuSans-65"/>
      <use x="61.523438" xlink:href="#DejaVuSans-70"/>
      <use x="125" xlink:href="#DejaVuSans-69"/>
      <use x="152.783203" xlink:href="#DejaVuSans-73"/>
      <use x="204.882812" xlink:href="#DejaVuSans-6f"/>
      <use x="266.064453" xlink:href="#DejaVuSans-64"/>
      <use x="329.541016" xlink:href="#DejaVuSans-65"/>
      <use x="391.064453" xlink:href="#DejaVuSans-73"/>
     </g>
    </g>
   </g>
   <g id="matplotlib.axis_2">
    <g id="ytick_1">
     <g id="line2d_7">
      <defs>
       <path d="M 0 0 
L -3.5 0 
" id="m68d94caf45" style="stroke:#000000;stroke-width:0.8;"/>
      </defs>
      <g>
       <use style="stroke:#000000;stroke-width:0.8;" x="57.6" xlink:href="#m68d94caf45" y="262.119724"/>
      </g>
     </g>
     <g id="text_8">
      <!-- 20 -->
      <g transform="translate(37.875 265.918943)scale(0.1 -0.1)">
       <use xlink:href="#DejaVuSans-32"/>
       <use x="63.623047" xlink:href="#DejaVuSans-30"/>
      </g>
     </g>
    </g>
    <g id="ytick_2">
     <g id="line2d_8">
      <g>
       <use style="stroke:#000000;stroke-width:0.8;" x="57.6" xlink:href="#m68d94caf45" y="209.981793"/>
      </g>
     </g>
     <g id="text_9">
      <!-- 40 -->
      <g transform="translate(37.875 213.781012)scale(0.1 -0.1)">
       <use xlink:href="#DejaVuSans-34"/>
       <use x="63.623047" xlink:href="#DejaVuSans-30"/>
      </g>
     </g>
    </g>
    <g id="ytick_3">
     <g id="line2d_9">
      <g>
       <use style="stroke:#000000;stroke-width:0.8;" x="57.6" xlink:href="#m68d94caf45" y="157.843862"/>
      </g>
     </g>
     <g id="text_10">
      <!-- 60 -->
      <defs>
       <path d="M 33.015625 40.375 
Q 26.375 40.375 22.484375 35.828125 
Q 18.609375 31.296875 18.609375 23.390625 
Q 18.609375 15.53125 22.484375 10.953125 
Q 26.375 6.390625 33.015625 6.390625 
Q 39.65625 6.390625 43.53125 10.953125 
Q 47.40625 15.53125 47.40625 23.390625 
Q 47.40625 31.296875 43.53125 35.828125 
Q 39.65625 40.375 33.015625 40.375 
z
M 52.59375 71.296875 
L 52.59375 62.3125 
Q 48.875 64.0625 45.09375 64.984375 
Q 41.3125 65.921875 37.59375 65.921875 
Q 27.828125 65.921875 22.671875 59.328125 
Q 17.53125 52.734375 16.796875 39.40625 
Q 19.671875 43.65625 24.015625 45.921875 
Q 28.375 48.1875 33.59375 48.1875 
Q 44.578125 48.1875 50.953125 41.515625 
Q 57.328125 34.859375 57.328125 23.390625 
Q 57.328125 12.15625 50.6875 5.359375 
Q 44.046875 -1.421875 33.015625 -1.421875 
Q 20.359375 -1.421875 13.671875 8.265625 
Q 6.984375 17.96875 6.984375 36.375 
Q 6.984375 53.65625 15.1875 63.9375 
Q 23.390625 74.21875 37.203125 74.21875 
Q 40.921875 74.21875 44.703125 73.484375 
Q 48.484375 72.75 52.59375 71.296875 
z
" id="DejaVuSans-36"/>
      </defs>
      <g transform="translate(37.875 161.643081)scale(0.1 -0.1)">
       <use xlink:href="#DejaVuSans-36"/>
       <use x="63.623047" xlink:href="#DejaVuSans-30"/>
      </g>
     </g>
    </g>
    <g id="ytick_4">
     <g id="line2d_10">
      <g>
       <use style="stroke:#000000;stroke-width:0.8;" x="57.6" xlink:href="#m68d94caf45" y="105.705931"/>
      </g>
     </g>
     <g id="text_11">
      <!-- 80 -->
      <defs>
       <path d="M 31.78125 34.625 
Q 24.75 34.625 20.71875 30.859375 
Q 16.703125 27.09375 16.703125 20.515625 
Q 16.703125 13.921875 20.71875 10.15625 
Q 24.75 6.390625 31.78125 6.390625 
Q 38.8125 6.390625 42.859375 10.171875 
Q 46.921875 13.96875 46.921875 20.515625 
Q 46.921875 27.09375 42.890625 30.859375 
Q 38.875 34.625 31.78125 34.625 
z
M 21.921875 38.8125 
Q 15.578125 40.375 12.03125 44.71875 
Q 8.5 49.078125 8.5 55.328125 
Q 8.5 64.0625 14.71875 69.140625 
Q 20.953125 74.21875 31.78125 74.21875 
Q 42.671875 74.21875 48.875 69.140625 
Q 55.078125 64.0625 55.078125 55.328125 
Q 55.078125 49.078125 51.53125 44.71875 
Q 48 40.375 41.703125 38.8125 
Q 48.828125 37.15625 52.796875 32.3125 
Q 56.78125 27.484375 56.78125 20.515625 
Q 56.78125 9.90625 50.3125 4.234375 
Q 43.84375 -1.421875 31.78125 -1.421875 
Q 19.734375 -1.421875 13.25 4.234375 
Q 6.78125 9.90625 6.78125 20.515625 
Q 6.78125 27.484375 10.78125 32.3125 
Q 14.796875 37.15625 21.921875 38.8125 
z
M 18.3125 54.390625 
Q 18.3125 48.734375 21.84375 45.5625 
Q 25.390625 42.390625 31.78125 42.390625 
Q 38.140625 42.390625 41.71875 45.5625 
Q 45.3125 48.734375 45.3125 54.390625 
Q 45.3125 60.0625 41.71875 63.234375 
Q 38.140625 66.40625 31.78125 66.40625 
Q 25.390625 66.40625 21.84375 63.234375 
Q 18.3125 60.0625 18.3125 54.390625 
z
" id="DejaVuSans-38"/>
      </defs>
      <g transform="translate(37.875 109.50515)scale(0.1 -0.1)">
       <use xlink:href="#DejaVuSans-38"/>
       <use x="63.623047" xlink:href="#DejaVuSans-30"/>
      </g>
     </g>
    </g>
    <g id="ytick_5">
     <g id="line2d_11">
      <g>
       <use style="stroke:#000000;stroke-width:0.8;" x="57.6" xlink:href="#m68d94caf45" y="53.568"/>
      </g>
     </g>
     <g id="text_12">
      <!-- 100 -->
      <g transform="translate(31.5125 57.367219)scale(0.1 -0.1)">
       <use xlink:href="#DejaVuSans-31"/>
       <use x="63.623047" xlink:href="#DejaVuSans-30"/>
       <use x="127.246094" xlink:href="#DejaVuSans-30"/>
      </g>
     </g>
    </g>
    <g id="text_13">
     <!-- path length -->
     <defs>
      <path d="M 34.28125 27.484375 
Q 23.390625 27.484375 19.1875 25 
Q 14.984375 22.515625 14.984375 16.5 
Q 14.984375 11.71875 18.140625 8.90625 
Q 21.296875 6.109375 26.703125 6.109375 
Q 34.1875 6.109375 38.703125 11.40625 
Q 43.21875 16.703125 43.21875 25.484375 
L 43.21875 27.484375 
z
M 52.203125 31.203125 
L 52.203125 0 
L 43.21875 0 
L 43.21875 8.296875 
Q 40.140625 3.328125 35.546875 0.953125 
Q 30.953125 -1.421875 24.3125 -1.421875 
Q 15.921875 -1.421875 10.953125 3.296875 
Q 6 8.015625 6 15.921875 
Q 6 25.140625 12.171875 29.828125 
Q 18.359375 34.515625 30.609375 34.515625 
L 43.21875 34.515625 
L 43.21875 35.40625 
Q 43.21875 41.609375 39.140625 45 
Q 35.0625 48.390625 27.6875 48.390625 
Q 23 48.390625 18.546875 47.265625 
Q 14.109375 46.140625 10.015625 43.890625 
L 10.015625 52.203125 
Q 14.9375 54.109375 19.578125 55.046875 
Q 24.21875 56 28.609375 56 
Q 40.484375 56 46.34375 49.84375 
Q 52.203125 43.703125 52.203125 31.203125 
z
" id="DejaVuSans-61"/>
      <path d="M 18.3125 70.21875 
L 18.3125 54.6875 
L 36.8125 54.6875 
L 36.8125 47.703125 
L 18.3125 47.703125 
L 18.3125 18.015625 
Q 18.3125 11.328125 20.140625 9.421875 
Q 21.96875 7.515625 27.59375 7.515625 
L 36.8125 7.515625 
L 36.8125 0 
L 27.59375 0 
Q 17.1875 0 13.234375 3.875 
Q 9.28125 7.765625 9.28125 18.015625 
L 9.28125 47.703125 
L 2.6875 47.703125 
L 2.6875 54.6875 
L 9.28125 54.6875 
L 9.28125 70.21875 
z
" id="DejaVuSans-74"/>
      <path d="M 54.890625 33.015625 
L 54.890625 0 
L 45.90625 0 
L 45.90625 32.71875 
Q 45.90625 40.484375 42.875 44.328125 
Q 39.84375 48.1875 33.796875 48.1875 
Q 26.515625 48.1875 22.3125 43.546875 
Q 18.109375 38.921875 18.109375 30.90625 
L 18.109375 0 
L 9.078125 0 
L 9.078125 75.984375 
L 18.109375 75.984375 
L 18.109375 46.1875 
Q 21.34375 51.125 25.703125 53.5625 
Q 30.078125 56 35.796875 56 
Q 45.21875 56 50.046875 50.171875 
Q 54.890625 44.34375 54.890625 33.015625 
z
" id="DejaVuSans-68"/>
      <path id="DejaVuSans-20"/>
      <path d="M 9.421875 75.984375 
L 18.40625 75.984375 
L 18.40625 0 
L 9.421875 0 
z
" id="DejaVuSans-6c"/>
      <path d="M 54.890625 33.015625 
L 54.890625 0 
L 45.90625 0 
L 45.90625 32.71875 
Q 45.90625 40.484375 42.875 44.328125 
Q 39.84375 48.1875 33.796875 48.1875 
Q 26.515625 48.1875 22.3125 43.546875 
Q 18.109375 38.921875 18.109375 30.90625 
L 18.109375 0 
L 9.078125 0 
L 9.078125 54.6875 
L 18.109375 54.6875 
L 18.109375 46.1875 
Q 21.34375 51.125 25.703125 53.5625 
Q 30.078125 56 35.796875 56 
Q 45.21875 56 50.046875 50.171875 
Q 54.890625 44.34375 54.890625 33.015625 
z
" id="DejaVuSans-6e"/>
      <path d="M 45.40625 27.984375 
Q 45.40625 37.75 41.375 43.109375 
Q 37.359375 48.484375 30.078125 48.484375 
Q 22.859375 48.484375 18.828125 43.109375 
Q 14.796875 37.75 14.796875 27.984375 
Q 14.796875 18.265625 18.828125 12.890625 
Q 22.859375 7.515625 30.078125 7.515625 
Q 37.359375 7.515625 41.375 12.890625 
Q 45.40625 18.265625 45.40625 27.984375 
z
M 54.390625 6.78125 
Q 54.390625 -7.171875 48.1875 -13.984375 
Q 42 -20.796875 29.203125 -20.796875 
Q 24.46875 -20.796875 20.265625 -20.09375 
Q 16.0625 -19.390625 12.109375 -17.921875 
L 12.109375 -9.1875 
Q 16.0625 -11.328125 19.921875 -12.34375 
Q 23.78125 -13.375 27.78125 -13.375 
Q 36.625 -13.375 41.015625 -8.765625 
Q 45.40625 -4.15625 45.40625 5.171875 
L 45.40625 9.625 
Q 42.625 4.78125 38.28125 2.390625 
Q 33.9375 0 27.875 0 
Q 17.828125 0 11.671875 7.65625 
Q 5.515625 15.328125 5.515625 27.984375 
Q 5.515625 40.671875 11.671875 48.328125 
Q 17.828125 56 27.875 56 
Q 33.9375 56 38.28125 53.609375 
Q 42.625 51.21875 45.40625 46.390625 
L 45.40625 54.6875 
L 54.390625 54.6875 
z
" id="DejaVuSans-67"/>
     </defs>
     <g transform="translate(25.432812 203.42175)rotate(-90)scale(0.1 -0.1)">
      <use xlink:href="#DejaVuSans-70"/>
      <use x="63.476562" xlink:href="#DejaVuSans-61"/>
      <use x="124.755859" xlink:href="#DejaVuSans-74"/>
      <use x="163.964844" xlink:href="#DejaVuSans-68"/>
      <use x="227.34375" xlink:href="#DejaVuSans-20"/>
      <use x="259.130859" xlink:href="#DejaVuSans-6c"/>
      <use x="286.914062" xlink:href="#DejaVuSans-65"/>
      <use x="348.4375" xlink:href="#DejaVuSans-6e"/>
      <use x="411.816406" xlink:href="#DejaVuSans-67"/>
      <use x="475.292969" xlink:href="#DejaVuSans-74"/>
      <use x="514.501953" xlink:href="#DejaVuSans-68"/>
     </g>
    </g>
   </g>
   <g id="line2d_12">
    <path clip-path="url(#p393cd93f1e)" d="M 73.832727 53.568 
L 78.386999 53.568 
L 79.03761 55.885241 
L 79.68822 67.384552 
L 83.591882 67.384552 
L 84.242492 81.201103 
L 84.893103 81.201103 
L 85.543713 96.060414 
L 86.194323 88.239724 
L 87.495544 121.608 
L 88.146154 121.608 
L 88.796764 129.42869 
L 89.447375 145.330759 
L 90.097985 156.801103 
L 90.748595 160.190069 
L 91.399206 160.190069 
L 92.049816 149.241103 
L 92.700426 166.70731 
L 93.351037 170.096276 
L 94.001647 170.878345 
L 94.652257 184.173517 
L 95.302868 190.430069 
L 95.953478 174.528 
L 96.604088 179.741793 
L 97.254698 162.536276 
L 97.905309 180.263172 
L 98.555919 192.776276 
L 99.206529 185.998345 
L 99.85714 184.434207 
L 100.50775 184.173517 
L 101.15836 188.865931 
L 101.808971 187.301793 
L 102.459581 203.203862 
L 103.110191 201.379034 
L 103.760802 221.452138 
L 104.411412 225.362483 
L 105.062022 226.144552 
L 105.712633 232.401103 
L 106.363243 235.529379 
L 107.013853 228.751448 
L 107.664463 230.836966 
L 108.315074 218.323862 
L 108.965684 222.755586 
L 109.616294 207.896276 
L 110.266905 208.417655 
L 110.917515 203.985931 
L 111.568125 205.550069 
L 112.869346 206.592828 
L 113.519956 195.643862 
L 114.170567 197.208 
L 114.821177 218.323862 
L 115.471787 218.845241 
L 116.122398 240.482483 
L 116.773008 240.743172 
L 117.423618 242.046621 
L 118.724839 242.568 
L 119.375449 242.568 
L 120.026059 264.726621 
L 120.67667 264.205241 
L 121.32728 263.944552 
L 121.97789 259.512828 
L 122.628501 255.863172 
L 123.279111 235.008 
L 123.929721 238.396966 
L 124.580332 237.614897 
L 125.230942 237.093517 
L 125.881552 235.008 
L 127.182773 227.70869 
L 127.833383 228.490759 
L 128.483993 232.922483 
L 129.134604 236.572138 
L 129.785214 251.692138 
L 130.435824 251.431448 
L 131.086435 252.734897 
L 131.737045 252.474207 
L 132.387655 251.431448 
L 133.038266 254.038345 
L 133.688876 257.94869 
L 134.990097 257.94869 
L 135.640707 257.42731 
L 136.291317 264.726621 
L 136.941927 265.248 
L 138.243148 265.769379 
L 138.893758 269.158345 
L 140.845589 269.158345 
L 141.4962 269.940414 
L 142.14681 270.201103 
L 142.79742 263.683862 
L 143.448031 263.162483 
L 144.098641 254.038345 
L 144.749251 255.341793 
L 145.399862 255.341793 
L 146.050472 256.123862 
L 146.701082 253.256276 
L 147.351692 252.734897 
L 148.002303 254.038345 
L 148.652913 255.081103 
L 149.303523 261.076966 
L 149.954134 261.076966 
L 150.604744 270.461793 
L 151.255354 270.461793 
L 151.905965 271.504552 
L 152.556575 271.504552 
L 153.207185 274.632828 
L 153.857796 275.414897 
L 155.159016 274.372138 
L 155.809627 274.372138 
L 156.460237 274.893517 
L 157.110847 271.504552 
L 158.412068 270.983172 
L 159.062678 271.504552 
L 159.713288 272.54731 
L 160.363899 273.329379 
L 161.014509 273.590069 
L 162.96634 275.154207 
L 163.61695 278.282483 
L 164.918171 278.803862 
L 165.568781 278.543172 
L 166.219392 277.500414 
L 167.520612 276.979034 
L 168.171222 277.500414 
L 168.821833 277.761103 
L 169.472443 277.761103 
L 170.123053 278.021793 
L 170.773664 278.021793 
L 171.424274 277.239724 
L 172.074884 277.500414 
L 172.725495 278.543172 
L 173.376105 278.543172 
L 174.026715 278.803862 
L 174.677326 278.543172 
L 175.327936 277.761103 
L 175.978546 277.239724 
L 176.629156 278.021793 
L 177.279767 278.021793 
L 177.930377 278.282483 
L 178.580987 278.282483 
L 179.231598 277.500414 
L 179.882208 277.500414 
L 180.532818 278.021793 
L 181.183429 277.761103 
L 182.484649 278.803862 
L 183.13526 278.803862 
L 183.78587 279.064552 
L 184.43648 279.585931 
L 185.087091 279.585931 
L 185.737701 280.368 
L 186.388311 280.889379 
L 187.689532 280.368 
L 188.340142 280.889379 
L 189.641363 280.368 
L 190.291973 280.62869 
L 190.942583 279.846621 
L 191.593194 280.62869 
L 192.243804 280.62869 
L 192.894414 280.10731 
L 193.545025 280.10731 
L 194.195635 281.150069 
L 194.846245 280.889379 
L 195.496856 281.671448 
L 196.147466 282.192828 
L 196.798076 281.932138 
L 197.448686 282.714207 
L 198.099297 282.192828 
L 198.749907 282.192828 
L 199.400517 281.150069 
L 200.051128 279.585931 
L 200.701738 279.064552 
L 201.352348 279.846621 
L 202.002959 278.282483 
L 202.653569 278.021793 
L 203.304179 278.282483 
L 203.95479 278.021793 
L 205.25601 278.543172 
L 205.906621 280.10731 
L 206.557231 280.10731 
L 207.207841 280.62869 
L 207.858451 280.368 
L 208.509062 282.192828 
L 209.159672 282.192828 
L 209.810282 281.932138 
L 210.460893 282.453517 
L 211.762113 282.453517 
L 212.412724 282.714207 
L 213.063334 284.539034 
L 213.713944 284.539034 
L 215.015165 284.017655 
L 215.665775 284.017655 
L 216.316385 284.278345 
L 216.966996 284.017655 
L 218.268216 284.017655 
L 218.918827 283.756966 
L 219.569437 283.756966 
L 220.220047 283.235586 
L 220.870658 283.756966 
L 221.521268 283.496276 
L 222.171878 284.017655 
L 222.822489 284.278345 
L 224.77432 284.278345 
L 225.42493 284.799724 
L 226.07554 284.799724 
L 226.72615 285.321103 
L 227.376761 285.060414 
L 228.027371 285.060414 
L 228.677981 284.539034 
L 229.979202 285.060414 
L 230.629812 285.060414 
L 231.280423 285.581793 
L 231.931033 285.321103 
L 232.581643 285.321103 
L 233.232254 285.060414 
L 233.882864 285.321103 
L 234.533474 285.321103 
L 235.184085 285.842483 
L 235.834695 285.321103 
L 237.135915 285.321103 
L 237.786526 285.060414 
L 238.437136 285.060414 
L 239.087746 285.321103 
L 239.738357 285.842483 
L 240.388967 285.581793 
L 241.039577 285.842483 
L 241.690188 285.842483 
L 242.340798 286.103172 
L 242.991408 286.103172 
L 244.292629 286.624552 
L 244.943239 286.363862 
L 245.59385 285.581793 
L 246.24446 285.060414 
L 246.89507 284.799724 
L 247.54568 285.060414 
L 248.196291 284.799724 
L 248.846901 284.799724 
L 249.497511 284.539034 
L 250.798732 284.539034 
L 252.099953 285.581793 
L 253.401173 286.103172 
L 255.353004 286.103172 
L 256.003615 286.624552 
L 256.654225 286.885241 
L 257.304835 286.885241 
L 257.955445 286.624552 
L 259.256666 287.145931 
L 260.557887 287.145931 
L 261.859107 287.66731 
L 262.509718 287.406621 
L 263.160328 287.406621 
L 263.810938 287.145931 
L 264.461549 287.406621 
L 265.762769 287.406621 
L 266.413379 287.66731 
L 267.7146 287.145931 
L 269.015821 287.145931 
L 269.666431 286.885241 
L 270.967652 286.885241 
L 271.618262 286.624552 
L 272.268872 286.624552 
L 272.919483 286.363862 
L 273.570093 286.624552 
L 274.220703 286.624552 
L 274.871314 286.363862 
L 275.521924 286.363862 
L 276.823144 286.885241 
L 278.124365 286.885241 
L 278.774975 286.624552 
L 279.425586 286.885241 
L 280.076196 286.624552 
L 280.726806 286.624552 
L 281.377417 286.885241 
L 283.329248 286.885241 
L 283.979858 286.624552 
L 284.630468 286.624552 
L 285.281079 286.885241 
L 286.582299 286.885241 
L 287.232909 287.406621 
L 289.18474 287.406621 
L 289.835351 287.145931 
L 291.136571 287.66731 
L 292.437792 287.66731 
L 293.088402 287.928 
L 295.690844 287.928 
L 296.992064 288.449379 
L 299.594505 288.449379 
L 300.245116 288.18869 
L 300.895726 288.18869 
L 301.546336 288.710069 
L 302.847557 288.710069 
L 303.498167 288.449379 
L 304.799388 288.449379 
L 305.449998 288.710069 
L 307.401829 288.710069 
L 308.052439 288.449379 
L 310.00427 288.449379 
L 311.305491 288.970759 
L 312.606712 288.449379 
L 313.257322 288.710069 
L 314.558543 288.710069 
L 315.209153 288.970759 
L 316.510373 288.970759 
L 317.811594 288.449379 
L 318.462204 288.449379 
L 319.112815 288.710069 
L 319.763425 288.449379 
L 321.064646 288.449379 
L 321.715256 288.18869 
L 322.365866 288.449379 
L 324.317697 288.449379 
L 324.968308 288.710069 
L 326.269528 288.710069 
L 326.920138 288.970759 
L 328.221359 288.970759 
L 328.871969 288.710069 
L 330.8238 288.710069 
L 331.474411 288.449379 
L 332.125021 288.449379 
L 332.775631 288.710069 
L 333.426242 288.449379 
L 334.076852 288.710069 
L 335.378073 288.710069 
L 336.028683 288.970759 
L 336.679293 288.970759 
L 337.329903 289.231448 
L 338.631124 289.231448 
L 339.281734 288.970759 
L 339.932345 289.231448 
L 340.582955 288.970759 
L 343.185396 288.970759 
L 343.836007 288.710069 
L 344.486617 288.710069 
L 345.137227 288.970759 
L 345.787837 288.970759 
L 346.438448 288.710069 
L 348.390279 288.710069 
L 349.040889 288.449379 
L 349.691499 288.710069 
L 350.34211 288.710069 
L 350.99272 288.970759 
L 351.64333 288.710069 
L 352.293941 288.710069 
L 353.595161 289.231448 
L 354.245772 289.231448 
L 354.896382 289.492138 
L 356.197602 289.492138 
L 356.848213 289.752828 
L 360.751875 289.752828 
L 361.402485 289.492138 
L 363.354316 289.492138 
L 364.004926 289.231448 
L 366.607367 289.231448 
L 368.559198 290.013517 
L 369.860419 290.013517 
L 370.511029 290.274207 
L 371.16164 290.274207 
L 371.81225 290.534897 
L 373.113471 290.534897 
L 373.764081 290.274207 
L 375.065302 290.274207 
L 376.366522 289.752828 
L 377.017132 289.752828 
L 377.667743 290.013517 
L 378.318353 290.013517 
L 378.968963 289.752828 
L 379.619574 289.752828 
L 380.270184 290.013517 
L 382.222015 290.013517 
L 382.872625 290.274207 
L 388.077508 290.274207 
L 388.728118 290.534897 
L 393.933001 290.534897 
L 394.583611 290.274207 
L 396.535442 290.274207 
L 397.186052 290.013517 
L 397.836662 290.013517 
L 398.487273 290.274207 
L 398.487273 290.274207 
" style="fill:none;stroke:#1f77b4;stroke-linecap:square;stroke-width:1.5;"/>
   </g>
   <g id="line2d_13">
    <path clip-path="url(#p393cd93f1e)" d="M 73.832727 53.568 
L 75.133948 53.568 
L 76.435169 119.261793 
L 77.085779 108.312828 
L 77.736389 100.492138 
L 78.386999 118.414552 
L 79.03761 111.209379 
L 79.68822 105.445241 
L 80.989441 105.445241 
L 81.640051 120.565241 
L 82.290661 124.214897 
L 82.941272 119.001103 
L 84.242492 119.001103 
L 84.893103 121.086621 
L 85.543713 140.377655 
L 86.194323 140.377655 
L 86.844934 142.984552 
L 87.495544 156.279724 
L 88.146154 141.159724 
L 88.796764 144.288 
L 89.447375 130.732138 
L 90.748595 168.792828 
L 91.399206 167.22869 
L 92.049816 163.579034 
L 93.351037 200.857655 
L 94.001647 201.900414 
L 94.652257 215.456276 
L 95.302868 210.503172 
L 95.953478 210.503172 
L 97.254698 211.024552 
L 97.905309 209.721103 
L 98.555919 212.328 
L 99.206529 192.776276 
L 99.85714 186.780414 
L 100.50775 189.126621 
L 101.15836 196.94731 
L 101.808971 196.94731 
L 102.459581 217.281103 
L 103.110191 218.063172 
L 103.760802 214.152828 
L 105.062022 218.584552 
L 105.712633 238.136276 
L 106.363243 241.003862 
L 107.013853 224.319724 
L 107.664463 221.712828 
L 108.965684 223.276966 
L 109.616294 221.712828 
L 110.266905 226.926621 
L 110.917515 225.883862 
L 111.568125 227.18731 
L 112.218736 227.70869 
L 112.869346 227.70869 
L 113.519956 248.824552 
L 114.170567 250.38869 
L 114.821177 253.516966 
L 115.471787 253.256276 
L 116.122398 255.602483 
L 116.773008 252.213517 
L 117.423618 232.661793 
L 118.074228 230.054897 
L 118.724839 231.358345 
L 119.375449 235.790069 
L 120.026059 233.704552 
L 120.67667 233.704552 
L 121.32728 233.965241 
L 121.97789 231.619034 
L 122.628501 231.879724 
L 123.279111 235.26869 
L 123.929721 257.688 
L 124.580332 260.034207 
L 125.230942 259.512828 
L 125.881552 258.209379 
L 126.532163 255.602483 
L 127.833383 259.252138 
L 128.483993 262.119724 
L 129.134604 260.816276 
L 129.785214 261.859034 
L 130.435824 258.991448 
L 131.086435 258.991448 
L 131.737045 258.730759 
L 132.387655 259.773517 
L 133.038266 265.769379 
L 133.688876 266.290759 
L 134.339486 266.290759 
L 134.990097 266.030069 
L 135.640707 267.594207 
L 136.941927 266.030069 
L 137.592538 264.205241 
L 138.243148 261.859034 
L 138.893758 262.119724 
L 139.544369 261.337655 
L 140.194979 260.816276 
L 140.845589 260.816276 
L 141.4962 260.034207 
L 142.14681 258.209379 
L 142.79742 258.209379 
L 143.448031 261.859034 
L 144.098641 263.162483 
L 144.749251 267.072828 
L 145.399862 264.98731 
L 146.050472 265.769379 
L 146.701082 265.248 
L 147.351692 264.465931 
L 148.002303 266.551448 
L 148.652913 267.854897 
L 149.303523 268.636966 
L 149.954134 267.333517 
L 150.604744 268.376276 
L 151.255354 268.376276 
L 151.905965 270.201103 
L 152.556575 269.940414 
L 153.207185 270.201103 
L 153.857796 271.243862 
L 154.508406 270.201103 
L 155.159016 271.243862 
L 155.809627 270.983172 
L 157.110847 272.025931 
L 157.761457 271.765241 
L 159.062678 272.808 
L 160.363899 273.329379 
L 161.014509 274.372138 
L 161.665119 273.850759 
L 162.31573 274.632828 
L 162.96634 274.632828 
L 163.61695 273.850759 
L 164.918171 275.414897 
L 165.568781 273.590069 
L 166.219392 274.111448 
L 166.870002 273.850759 
L 167.520612 273.329379 
L 168.171222 274.632828 
L 168.821833 274.632828 
L 169.472443 274.111448 
L 170.123053 275.414897 
L 170.773664 274.632828 
L 171.424274 274.111448 
L 172.074884 275.675586 
L 172.725495 275.414897 
L 173.376105 274.893517 
L 174.026715 275.154207 
L 174.677326 272.54731 
L 175.327936 272.286621 
L 175.978546 273.329379 
L 176.629156 272.286621 
L 177.279767 272.808 
L 177.930377 271.765241 
L 178.580987 272.286621 
L 179.231598 272.54731 
L 179.882208 273.590069 
L 180.532818 273.06869 
L 181.183429 275.154207 
L 181.834039 275.414897 
L 182.484649 274.372138 
L 183.13526 274.632828 
L 183.78587 274.632828 
L 184.43648 275.936276 
L 185.087091 275.936276 
L 186.388311 275.414897 
L 187.038921 275.675586 
L 187.689532 275.675586 
L 188.340142 275.414897 
L 188.990752 274.893517 
L 189.641363 275.154207 
L 190.291973 275.154207 
L 190.942583 273.590069 
L 191.593194 273.590069 
L 192.243804 273.850759 
L 192.894414 273.590069 
L 193.545025 274.372138 
L 194.195635 274.632828 
L 194.846245 275.154207 
L 195.496856 276.979034 
L 196.147466 276.979034 
L 196.798076 277.500414 
L 197.448686 279.585931 
L 198.099297 279.325241 
L 198.749907 279.325241 
L 199.400517 279.846621 
L 200.051128 279.585931 
L 200.701738 280.368 
L 201.352348 280.10731 
L 202.002959 279.585931 
L 202.653569 279.585931 
L 203.304179 279.064552 
L 203.95479 278.803862 
L 205.25601 278.803862 
L 205.906621 279.064552 
L 206.557231 279.585931 
L 207.207841 278.543172 
L 207.858451 278.543172 
L 208.509062 279.064552 
L 209.159672 278.543172 
L 209.810282 279.064552 
L 211.762113 279.846621 
L 213.063334 279.325241 
L 213.713944 280.62869 
L 214.364555 280.889379 
L 215.015165 281.410759 
L 215.665775 281.150069 
L 216.316385 281.150069 
L 216.966996 280.368 
L 217.617606 280.62869 
L 218.268216 279.846621 
L 218.918827 280.368 
L 219.569437 280.62869 
L 220.220047 279.585931 
L 220.870658 279.585931 
L 221.521268 279.846621 
L 222.171878 280.368 
L 222.822489 279.846621 
L 223.473099 280.10731 
L 224.123709 279.325241 
L 224.77432 280.368 
L 226.07554 280.368 
L 226.72615 280.62869 
L 227.376761 280.62869 
L 228.027371 279.846621 
L 228.677981 280.889379 
L 229.328592 281.410759 
L 229.979202 282.453517 
L 230.629812 282.714207 
L 231.280423 282.714207 
L 231.931033 282.453517 
L 232.581643 281.671448 
L 233.232254 282.453517 
L 233.882864 282.714207 
L 234.533474 283.235586 
L 235.184085 283.496276 
L 235.834695 283.235586 
L 236.485305 282.192828 
L 237.135915 282.453517 
L 237.786526 282.192828 
L 239.087746 282.714207 
L 239.738357 282.453517 
L 240.388967 282.453517 
L 241.039577 282.714207 
L 241.690188 281.410759 
L 242.991408 281.932138 
L 243.642019 281.671448 
L 244.292629 281.932138 
L 245.59385 281.410759 
L 246.24446 281.671448 
L 247.54568 281.150069 
L 248.196291 281.932138 
L 248.846901 282.453517 
L 250.148122 282.453517 
L 250.798732 281.932138 
L 252.099953 283.496276 
L 252.750563 283.496276 
L 253.401173 283.235586 
L 254.702394 283.235586 
L 255.353004 282.453517 
L 256.003615 282.453517 
L 257.304835 282.974897 
L 257.955445 282.192828 
L 258.606056 282.453517 
L 259.256666 282.192828 
L 259.907276 282.453517 
L 260.557887 282.453517 
L 261.208497 282.192828 
L 261.859107 282.714207 
L 262.509718 283.496276 
L 263.160328 283.496276 
L 263.810938 283.756966 
L 265.112159 283.235586 
L 265.762769 283.235586 
L 266.413379 283.496276 
L 267.06399 283.496276 
L 267.7146 283.756966 
L 268.36521 283.756966 
L 269.015821 282.974897 
L 270.317041 282.974897 
L 270.967652 283.756966 
L 271.618262 283.756966 
L 272.268872 284.017655 
L 272.919483 283.756966 
L 273.570093 284.278345 
L 274.871314 284.799724 
L 275.521924 285.321103 
L 276.172534 285.581793 
L 276.823144 285.581793 
L 277.473755 284.799724 
L 278.124365 285.321103 
L 278.774975 285.321103 
L 279.425586 285.581793 
L 280.726806 285.060414 
L 282.028027 284.017655 
L 283.329248 284.017655 
L 283.979858 284.278345 
L 285.931689 283.496276 
L 286.582299 283.496276 
L 287.232909 284.017655 
L 287.88352 284.017655 
L 288.53413 284.278345 
L 289.18474 283.756966 
L 290.485961 284.278345 
L 291.136571 284.278345 
L 291.787182 284.539034 
L 292.437792 285.060414 
L 293.088402 285.060414 
L 293.739013 284.799724 
L 294.389623 285.060414 
L 295.690844 286.103172 
L 296.341454 285.842483 
L 297.642674 286.363862 
L 298.293285 286.103172 
L 298.943895 286.363862 
L 299.594505 286.103172 
L 300.245116 286.363862 
L 300.895726 286.363862 
L 301.546336 286.103172 
L 302.847557 286.103172 
L 303.498167 285.581793 
L 304.148778 284.799724 
L 304.799388 285.060414 
L 305.449998 284.539034 
L 306.100608 284.799724 
L 306.751219 284.799724 
L 308.70305 285.581793 
L 309.35366 285.581793 
L 310.00427 285.842483 
L 310.654881 286.624552 
L 311.305491 286.624552 
L 311.956101 286.885241 
L 312.606712 287.406621 
L 315.209153 286.363862 
L 315.859763 286.363862 
L 316.510373 286.624552 
L 317.160984 286.624552 
L 317.811594 286.885241 
L 318.462204 286.885241 
L 319.112815 286.624552 
L 319.763425 286.624552 
L 321.064646 287.145931 
L 321.715256 287.145931 
L 322.365866 287.406621 
L 323.016477 287.145931 
L 323.667087 287.145931 
L 324.317697 286.885241 
L 324.968308 286.885241 
L 325.618918 286.624552 
L 326.269528 286.885241 
L 327.570749 286.885241 
L 328.871969 286.363862 
L 329.52258 286.624552 
L 330.17319 286.624552 
L 332.125021 287.406621 
L 334.076852 287.406621 
L 334.727462 287.928 
L 335.378073 288.18869 
L 339.932345 288.18869 
L 340.582955 287.928 
L 342.534786 287.928 
L 343.836007 287.406621 
L 344.486617 287.406621 
L 346.438448 286.624552 
L 347.739668 286.624552 
L 349.040889 286.103172 
L 350.34211 286.624552 
L 350.99272 286.363862 
L 352.944551 287.145931 
L 354.245772 287.145931 
L 355.546992 287.66731 
L 356.197602 287.406621 
L 356.848213 287.406621 
L 357.498823 287.66731 
L 358.149433 287.66731 
L 358.800044 287.145931 
L 360.751875 287.145931 
L 362.053095 286.624552 
L 362.703706 286.885241 
L 363.354316 286.885241 
L 364.004926 287.145931 
L 364.655537 287.145931 
L 365.306147 287.928 
L 366.607367 288.449379 
L 367.257978 288.449379 
L 367.908588 288.710069 
L 368.559198 289.231448 
L 369.209809 289.231448 
L 369.860419 289.492138 
L 371.16164 289.492138 
L 372.46286 288.970759 
L 374.414691 288.970759 
L 375.065302 288.710069 
L 375.715912 288.710069 
L 376.366522 288.449379 
L 378.968963 288.449379 
L 380.270184 287.928 
L 381.571405 287.928 
L 382.222015 288.18869 
L 382.872625 288.18869 
L 383.523236 287.928 
L 385.475066 287.928 
L 386.125677 288.18869 
L 386.776287 288.710069 
L 387.426897 288.970759 
L 388.077508 288.970759 
L 388.728118 288.710069 
L 392.63178 288.710069 
L 393.933001 288.18869 
L 397.186052 288.18869 
L 397.836662 287.928 
L 398.487273 287.928 
L 398.487273 287.928 
" style="fill:none;stroke:#ff7f0e;stroke-linecap:square;stroke-width:1.5;"/>
   </g>
   <g id="line2d_14">
    <path clip-path="url(#p393cd93f1e)" d="M 73.832727 53.568 
L 76.435169 53.568 
L 77.085779 69.209379 
L 77.736389 66.974897 
L 78.386999 65.299034 
L 79.03761 81.085241 
L 79.68822 78.333517 
L 82.941272 78.333517 
L 83.591882 68.94869 
L 84.242492 88.500414 
L 84.893103 88.500414 
L 85.543713 73.119724 
L 86.194323 76.248 
L 86.844934 76.248 
L 87.495544 89.803862 
L 88.796764 89.803862 
L 90.097985 127.082483 
L 90.748595 107.530759 
L 92.049816 107.530759 
L 92.700426 104.402483 
L 93.351037 123.172138 
L 94.001647 129.950069 
L 95.302868 129.950069 
L 95.953478 132.556966 
L 96.604088 133.599724 
L 97.254698 151.848 
L 97.905309 151.848 
L 99.206529 190.690759 
L 99.85714 194.601103 
L 100.50775 196.686621 
L 101.15836 196.686621 
L 101.808971 214.934897 
L 102.459581 193.036966 
L 103.110191 195.383172 
L 103.760802 195.643862 
L 104.411412 195.643862 
L 105.062022 175.831448 
L 105.712633 179.481103 
L 106.363243 156.801103 
L 107.013853 153.672828 
L 107.664463 174.78869 
L 108.315074 176.874207 
L 108.965684 198.250759 
L 109.616294 197.208 
L 110.266905 201.379034 
L 110.917515 221.452138 
L 111.568125 221.452138 
L 112.218736 219.105931 
L 112.869346 219.105931 
L 114.821177 225.101793 
L 115.471787 226.405241 
L 116.122398 206.071448 
L 116.773008 206.853517 
L 117.423618 206.071448 
L 118.074228 206.071448 
L 118.724839 208.156966 
L 119.375449 225.362483 
L 120.026059 225.623172 
L 120.67667 225.623172 
L 121.32728 225.101793 
L 121.97789 221.712828 
L 122.628501 221.712828 
L 123.279111 220.14869 
L 123.929721 222.494897 
L 124.580332 244.653517 
L 125.230942 242.82869 
L 125.881552 246.478345 
L 127.182773 245.956966 
L 128.483993 204.768 
L 129.134604 227.70869 
L 129.785214 228.751448 
L 130.435824 230.054897 
L 131.086435 229.012138 
L 131.737045 228.490759 
L 132.387655 230.836966 
L 133.038266 231.097655 
L 133.688876 229.272828 
L 134.339486 248.303172 
L 134.990097 270.983172 
L 135.640707 270.461793 
L 136.291317 269.679724 
L 136.941927 269.419034 
L 137.592538 269.679724 
L 138.243148 270.983172 
L 138.893758 269.419034 
L 139.544369 247.781793 
L 140.194979 247.521103 
L 140.845589 228.490759 
L 141.4962 205.810759 
L 142.14681 205.550069 
L 142.79742 206.592828 
L 143.448031 206.332138 
L 144.098641 206.592828 
L 144.749251 205.550069 
L 145.399862 205.550069 
L 146.050472 227.969379 
L 146.701082 207.374897 
L 148.002303 251.170759 
L 148.652913 249.606621 
L 149.303523 246.478345 
L 149.954134 245.435586 
L 150.604744 244.653517 
L 151.255354 246.478345 
L 151.905965 247.260414 
L 152.556575 224.841103 
L 153.207185 246.478345 
L 153.857796 247.260414 
L 154.508406 247.521103 
L 155.159016 249.085241 
L 155.809627 251.431448 
L 156.460237 251.692138 
L 157.110847 252.213517 
L 157.761457 253.777655 
L 158.412068 252.474207 
L 159.062678 274.893517 
L 159.713288 275.936276 
L 160.363899 275.414897 
L 161.014509 277.239724 
L 161.665119 277.761103 
L 162.31573 274.893517 
L 162.96634 275.936276 
L 163.61695 277.761103 
L 164.267561 275.414897 
L 164.918171 276.718345 
L 165.568781 276.979034 
L 166.219392 277.500414 
L 166.870002 254.559724 
L 167.520612 254.559724 
L 168.171222 254.038345 
L 168.821833 257.688 
L 169.472443 256.645241 
L 170.123053 254.820414 
L 170.773664 256.123862 
L 171.424274 256.123862 
L 172.074884 256.384552 
L 172.725495 256.384552 
L 173.376105 280.368 
L 174.026715 280.10731 
L 174.677326 257.94869 
L 175.327936 257.688 
L 176.629156 261.598345 
L 177.279767 238.918345 
L 177.930377 237.875586 
L 178.580987 237.875586 
L 179.231598 238.136276 
L 179.882208 237.354207 
L 180.532818 237.354207 
L 181.183429 258.991448 
L 181.834039 258.991448 
L 182.484649 258.470069 
L 183.13526 258.991448 
L 183.78587 281.410759 
L 184.43648 283.756966 
L 185.087091 283.496276 
L 185.737701 282.714207 
L 186.388311 282.974897 
L 187.038921 283.496276 
L 187.689532 284.799724 
L 188.340142 285.581793 
L 189.641363 284.539034 
L 190.291973 285.060414 
L 190.942583 284.017655 
L 191.593194 282.714207 
L 192.243804 283.235586 
L 192.894414 282.453517 
L 193.545025 282.192828 
L 194.195635 282.453517 
L 194.846245 258.730759 
L 195.496856 259.252138 
L 196.147466 258.730759 
L 196.798076 257.688 
L 197.448686 257.166621 
L 198.099297 258.991448 
L 198.749907 259.512828 
L 199.400517 260.816276 
L 200.051128 237.614897 
L 200.701738 238.136276 
L 201.352348 261.337655 
L 202.653569 262.380414 
L 203.95479 265.50869 
L 205.25601 264.465931 
L 205.906621 264.465931 
L 206.557231 287.406621 
L 207.207841 286.885241 
L 207.858451 287.928 
L 208.509062 287.66731 
L 209.159672 287.928 
L 209.810282 287.66731 
L 210.460893 283.496276 
L 211.762113 284.539034 
L 212.412724 283.756966 
L 213.063334 284.539034 
L 213.713944 284.017655 
L 214.364555 283.235586 
L 215.015165 284.017655 
L 215.665775 283.756966 
L 216.316385 284.017655 
L 216.966996 288.18869 
L 217.617606 288.18869 
L 218.268216 288.449379 
L 218.918827 289.231448 
L 219.569437 288.18869 
L 220.220047 289.231448 
L 220.870658 289.752828 
L 222.171878 289.231448 
L 222.822489 289.231448 
L 223.473099 288.970759 
L 224.123709 289.231448 
L 224.77432 265.248 
L 225.42493 264.98731 
L 226.07554 266.290759 
L 226.72615 266.551448 
L 227.376761 266.030069 
L 228.027371 266.030069 
L 228.677981 265.248 
L 229.328592 264.98731 
L 229.979202 265.50869 
L 230.629812 242.046621 
L 231.280423 265.248 
L 231.931033 264.465931 
L 233.232254 263.944552 
L 233.882864 240.482483 
L 235.184085 239.961103 
L 235.834695 240.221793 
L 236.485305 239.700414 
L 237.135915 263.683862 
L 237.786526 263.944552 
L 238.437136 264.98731 
L 239.087746 264.98731 
L 239.738357 264.205241 
L 240.388967 287.66731 
L 241.039577 287.928 
L 241.690188 289.231448 
L 242.340798 265.769379 
L 242.991408 264.205241 
L 243.642019 264.205241 
L 244.292629 263.683862 
L 244.943239 262.901793 
L 245.59385 262.901793 
L 246.24446 263.683862 
L 246.89507 264.205241 
L 247.54568 263.423172 
L 248.196291 263.683862 
L 248.846901 287.406621 
L 249.497511 287.928 
L 250.148122 287.928 
L 250.798732 288.710069 
L 251.449342 288.970759 
L 252.099953 288.970759 
L 252.750563 288.449379 
L 253.401173 288.18869 
L 254.051784 289.752828 
L 255.353004 289.752828 
L 256.003615 291.316966 
L 256.654225 291.316966 
L 257.304835 291.056276 
L 257.955445 291.577655 
L 258.606056 291.316966 
L 259.256666 291.577655 
L 259.907276 291.577655 
L 261.208497 289.492138 
L 261.859107 289.752828 
L 262.509718 289.752828 
L 263.160328 289.492138 
L 263.810938 289.752828 
L 264.461549 289.492138 
L 265.762769 290.013517 
L 266.413379 290.013517 
L 267.06399 290.534897 
L 267.7146 291.838345 
L 269.015821 291.838345 
L 269.666431 291.316966 
L 270.317041 291.056276 
L 270.967652 291.316966 
L 271.618262 291.316966 
L 272.268872 291.056276 
L 272.919483 291.316966 
L 274.220703 290.274207 
L 274.871314 289.492138 
L 275.521924 289.492138 
L 276.172534 266.290759 
L 276.823144 266.812138 
L 277.473755 266.812138 
L 278.124365 267.072828 
L 278.774975 267.594207 
L 279.425586 267.333517 
L 280.076196 268.376276 
L 280.726806 268.897655 
L 281.377417 268.636966 
L 282.028027 268.636966 
L 282.678637 292.620414 
L 283.329248 292.620414 
L 283.979858 291.838345 
L 285.281079 291.838345 
L 285.931689 292.359724 
L 286.582299 291.577655 
L 287.232909 291.316966 
L 287.88352 292.099034 
L 288.53413 291.577655 
L 289.18474 291.838345 
L 289.835351 291.577655 
L 290.485961 292.359724 
L 291.136571 292.099034 
L 291.787182 292.099034 
L 292.437792 291.316966 
L 293.088402 291.577655 
L 293.739013 292.099034 
L 294.389623 292.359724 
L 296.341454 291.577655 
L 297.642674 291.577655 
L 298.293285 291.056276 
L 298.943895 291.316966 
L 299.594505 291.838345 
L 300.245116 291.577655 
L 300.895726 291.577655 
L 301.546336 292.359724 
L 302.196947 292.359724 
L 302.847557 292.881103 
L 303.498167 292.620414 
L 304.148778 292.881103 
L 304.799388 292.620414 
L 305.449998 293.141793 
L 306.100608 292.359724 
L 306.751219 292.620414 
L 307.401829 292.620414 
L 308.052439 292.881103 
L 308.70305 292.881103 
L 310.00427 292.359724 
L 310.654881 292.359724 
L 311.305491 292.620414 
L 311.956101 291.577655 
L 312.606712 292.099034 
L 313.257322 291.838345 
L 313.907932 291.838345 
L 314.558543 291.056276 
L 315.209153 291.316966 
L 315.859763 291.316966 
L 316.510373 292.099034 
L 317.160984 292.099034 
L 317.811594 292.620414 
L 318.462204 293.402483 
L 319.763425 292.881103 
L 320.414035 293.141793 
L 321.064646 293.663172 
L 321.715256 293.141793 
L 322.365866 293.663172 
L 323.667087 292.620414 
L 324.317697 292.620414 
L 326.269528 293.402483 
L 326.920138 293.141793 
L 328.221359 293.141793 
L 328.871969 292.881103 
L 329.52258 293.141793 
L 330.17319 293.663172 
L 330.8238 293.663172 
L 332.125021 293.141793 
L 332.775631 293.402483 
L 334.727462 293.402483 
L 335.378073 293.663172 
L 336.028683 293.663172 
L 336.679293 293.923862 
L 337.980514 293.923862 
L 338.631124 294.184552 
L 339.932345 293.663172 
L 341.233565 294.184552 
L 344.486617 294.184552 
L 345.137227 293.923862 
L 345.787837 293.923862 
L 346.438448 293.663172 
L 347.089058 293.663172 
L 347.739668 293.923862 
L 349.691499 293.141793 
L 350.99272 293.663172 
L 351.64333 293.663172 
L 352.293941 293.923862 
L 352.944551 294.445241 
L 353.595161 293.923862 
L 354.896382 293.402483 
L 355.546992 293.923862 
L 356.848213 293.923862 
L 357.498823 293.663172 
L 358.149433 293.663172 
L 358.800044 293.402483 
L 360.101264 293.923862 
L 360.751875 293.663172 
L 361.402485 294.184552 
L 362.053095 293.923862 
L 363.354316 293.923862 
L 364.655537 294.445241 
L 365.306147 294.445241 
L 365.956757 294.184552 
L 367.257978 294.705931 
L 367.908588 294.445241 
L 369.209809 294.966621 
L 371.16164 294.184552 
L 371.81225 294.445241 
L 372.46286 294.184552 
L 373.113471 294.184552 
L 374.414691 294.705931 
L 375.065302 294.445241 
L 375.715912 294.445241 
L 377.017132 294.966621 
L 377.667743 294.705931 
L 378.318353 294.705931 
L 378.968963 294.966621 
L 380.270184 294.966621 
L 380.920794 294.705931 
L 381.571405 294.966621 
L 382.222015 294.184552 
L 383.523236 294.184552 
L 384.173846 294.445241 
L 384.824456 294.184552 
L 385.475066 294.445241 
L 386.125677 294.445241 
L 386.776287 294.184552 
L 387.426897 294.445241 
L 388.077508 294.184552 
L 388.728118 294.966621 
L 390.029339 294.966621 
L 390.679949 295.22731 
L 392.63178 295.22731 
L 393.28239 295.488 
L 393.933001 295.488 
L 395.234221 294.966621 
L 395.884831 294.445241 
L 396.535442 294.184552 
L 397.186052 294.184552 
L 397.836662 294.445241 
L 398.487273 293.923862 
L 398.487273 293.923862 
" style="fill:none;stroke:#2ca02c;stroke-linecap:square;stroke-width:1.5;"/>
   </g>
   <g id="line2d_15">
    <path clip-path="url(#p393cd93f1e)" d="M 73.832727 53.568 
L 75.784558 53.568 
L 76.435169 67.645241 
L 77.085779 65.299034 
L 77.736389 63.623172 
L 78.386999 62.366276 
L 79.68822 60.606621 
L 82.290661 60.606621 
L 82.941272 53.568 
L 86.194323 53.568 
L 86.844934 67.905931 
L 90.748595 67.905931 
L 91.399206 76.50869 
L 92.700426 76.50869 
L 93.351037 62.170759 
L 94.001647 62.170759 
L 94.652257 70.512828 
L 95.302868 87.979034 
L 95.953478 87.979034 
L 96.604088 102.056276 
L 97.254698 119.261793 
L 97.905309 110.659034 
L 100.50775 110.659034 
L 101.15836 102.316966 
L 101.808971 84.850759 
L 102.459581 84.850759 
L 103.760802 57.999724 
L 104.411412 69.209379 
L 105.062022 76.248 
L 106.363243 76.248 
L 107.013853 91.62869 
L 108.315074 91.62869 
L 108.965684 103.620414 
L 109.616294 110.398345 
L 110.266905 105.966621 
L 110.917515 94.756966 
L 111.568125 97.624552 
L 112.869346 97.624552 
L 113.519956 82.243862 
L 114.821177 82.243862 
L 115.471787 70.252138 
L 116.122398 84.06869 
L 117.423618 84.06869 
L 118.074228 74.162483 
L 118.724839 89.021793 
L 119.375449 108.834207 
L 121.32728 108.834207 
L 121.97789 127.343172 
L 122.628501 106.74869 
L 124.580332 106.74869 
L 125.230942 91.889379 
L 125.881552 72.076966 
L 126.532163 72.076966 
L 127.182773 92.150069 
L 127.833383 92.150069 
L 128.483993 73.641103 
L 129.134604 73.641103 
L 129.785214 92.932138 
L 130.435824 104.141793 
L 131.737045 104.141793 
L 133.038266 144.54869 
L 133.688876 141.681103 
L 134.339486 159.14731 
L 135.640707 159.14731 
L 136.291317 156.540414 
L 136.941927 166.446621 
L 137.592538 166.446621 
L 138.243148 185.737655 
L 138.893758 164.621793 
L 139.544369 159.929379 
L 140.845589 125.257655 
L 141.4962 125.257655 
L 142.14681 145.591448 
L 142.79742 128.90731 
L 143.448031 126.821793 
L 144.098641 126.821793 
L 144.749251 107.530759 
L 145.399862 107.530759 
L 146.050472 92.932138 
L 146.701082 112.744552 
L 147.351692 112.744552 
L 148.002303 133.339034 
L 148.652913 113.005241 
L 149.303523 113.005241 
L 149.954134 93.974897 
L 152.556575 93.974897 
L 153.207185 74.162483 
L 153.857796 74.162483 
L 154.508406 68.94869 
L 160.363899 68.94869 
L 161.014509 71.816276 
L 161.665119 91.62869 
L 164.267561 91.62869 
L 164.918171 113.526621 
L 166.870002 113.526621 
L 168.171222 75.465931 
L 168.821833 75.465931 
L 169.472443 92.932138 
L 170.773664 92.932138 
L 171.424274 84.590069 
L 172.074884 105.184552 
L 172.725495 113.526621 
L 173.376105 133.860414 
L 174.026715 133.860414 
L 174.677326 147.416276 
L 175.327936 147.416276 
L 175.978546 145.591448 
L 176.629156 145.591448 
L 177.279767 158.365241 
L 177.930377 144.809379 
L 178.580987 145.070069 
L 179.231598 155.236966 
L 179.882208 134.903172 
L 180.532818 134.903172 
L 181.183429 121.34731 
L 181.834039 121.34731 
L 182.484649 126.039724 
L 183.13526 126.039724 
L 183.78587 113.265931 
L 184.43648 135.163862 
L 185.737701 95.799724 
L 188.340142 95.799724 
L 188.990752 75.465931 
L 189.641363 75.465931 
L 190.291973 92.671448 
L 190.942583 90.325241 
L 194.195635 90.325241 
L 194.846245 105.184552 
L 196.147466 105.184552 
L 197.448686 68.42731 
L 199.400517 68.42731 
L 200.051128 88.761103 
L 200.701738 88.761103 
L 201.352348 73.901793 
L 203.95479 73.901793 
L 204.6054 88.239724 
L 205.906621 88.239724 
L 206.557231 67.905931 
L 207.207841 78.333517 
L 209.159672 78.333517 
L 210.460893 111.441103 
L 211.111503 97.103172 
L 211.762113 97.103172 
L 213.063334 131.514207 
L 213.713944 121.086621 
L 215.015165 121.086621 
L 215.665775 135.424552 
L 216.316385 139.595586 
L 216.966996 122.390069 
L 217.617606 122.390069 
L 218.268216 144.54869 
L 219.569437 110.137655 
L 220.870658 110.137655 
L 221.521268 124.736276 
L 222.171878 110.398345 
L 222.822489 90.325241 
L 223.473099 105.966621 
L 224.123709 105.966621 
L 224.77432 98.928 
L 225.42493 119.783172 
L 226.07554 129.950069 
L 226.72615 150.023172 
L 227.376761 150.023172 
L 228.027371 135.424552 
L 229.328592 135.424552 
L 229.979202 119.783172 
L 230.629812 119.783172 
L 231.280423 104.663172 
L 231.931033 83.808 
L 232.581643 73.641103 
L 233.232254 75.465931 
L 233.882864 96.581793 
L 236.485305 96.581793 
L 237.135915 108.312828 
L 239.087746 108.312828 
L 240.388967 102.056276 
L 241.690188 102.056276 
L 242.340798 121.86869 
L 242.991408 121.86869 
L 243.642019 128.646621 
L 244.292629 128.646621 
L 245.59385 164.621793 
L 246.24446 157.322483 
L 246.89507 139.334897 
L 248.196291 139.334897 
L 248.846901 129.689379 
L 249.497511 129.689379 
L 250.148122 111.180414 
L 250.798732 111.180414 
L 252.099953 75.205241 
L 252.750563 75.465931 
L 254.051784 75.465931 
L 254.702394 96.581793 
L 255.353004 102.577655 
L 257.955445 102.577655 
L 258.606056 121.086621 
L 259.256666 123.172138 
L 260.557887 164.361103 
L 261.208497 143.245241 
L 261.859107 127.082483 
L 262.509718 147.676966 
L 263.160328 147.676966 
L 263.810938 167.22869 
L 264.461549 167.22869 
L 265.112159 170.356966 
L 265.762769 168.532138 
L 267.06399 127.343172 
L 267.7146 127.343172 
L 268.36521 141.941793 
L 269.015821 144.02731 
L 269.666431 144.02731 
L 270.317041 124.475586 
L 270.967652 124.475586 
L 271.618262 102.838345 
L 272.268872 90.846621 
L 272.919483 111.962483 
L 273.570093 111.962483 
L 274.220703 130.210759 
L 274.871314 115.612138 
L 275.521924 92.932138 
L 276.823144 92.932138 
L 277.473755 113.265931 
L 278.124365 113.265931 
L 278.774975 127.082483 
L 279.425586 122.911448 
L 280.076196 140.377655 
L 280.726806 122.129379 
L 282.028027 122.129379 
L 282.678637 138.031448 
L 283.329248 138.031448 
L 283.979858 137.510069 
L 284.630468 157.322483 
L 285.281079 143.505931 
L 285.931689 145.330759 
L 286.582299 142.202483 
L 287.232909 142.202483 
L 287.88352 163.057655 
L 288.53413 163.057655 
L 289.18474 147.155586 
L 289.835351 147.155586 
L 291.136571 107.530759 
L 292.437792 107.530759 
L 293.088402 93.192828 
L 293.739013 93.192828 
L 294.389623 72.337655 
L 295.040233 90.064552 
L 298.293285 90.064552 
L 298.943895 71.294897 
L 300.245116 71.294897 
L 300.895726 90.325241 
L 301.546336 72.598345 
L 303.498167 135.163862 
L 305.449998 192.515586 
L 306.751219 192.515586 
L 307.401829 173.485241 
L 308.052439 192.515586 
L 309.35366 151.326621 
L 310.00427 150.544552 
L 310.654881 152.369379 
L 311.305491 131.253517 
L 311.956101 128.385931 
L 313.257322 128.385931 
L 313.907932 146.894897 
L 315.209153 146.894897 
L 315.859763 168.532138 
L 316.510373 169.053517 
L 317.160984 148.980414 
L 317.811594 148.980414 
L 318.462204 133.860414 
L 319.112815 133.860414 
L 319.763425 153.412138 
L 321.064646 115.872828 
L 321.715256 136.98869 
L 322.365866 135.163862 
L 323.016477 114.048 
L 324.317697 157.583172 
L 324.968308 157.583172 
L 325.618918 178.959724 
L 326.269528 173.224552 
L 326.920138 173.224552 
L 327.570749 190.951448 
L 328.221359 169.835586 
L 328.871969 159.929379 
L 329.52258 178.959724 
L 330.17319 157.322483 
L 330.8238 153.672828 
L 331.474411 172.703172 
L 332.125021 151.326621 
L 332.775631 137.510069 
L 333.426242 137.510069 
L 334.076852 119.783172 
L 334.727462 136.46731 
L 335.378073 126.561103 
L 336.028683 107.530759 
L 336.679293 107.530759 
L 337.329903 102.838345 
L 337.980514 103.099034 
L 340.582955 103.099034 
L 341.233565 86.414897 
L 341.884176 86.414897 
L 342.534786 107.009379 
L 343.185396 107.009379 
L 343.836007 114.048 
L 344.486617 113.265931 
L 345.787837 113.265931 
L 347.089058 152.630069 
L 348.390279 152.630069 
L 349.040889 132.035586 
L 349.691499 152.369379 
L 350.99272 113.265931 
L 351.64333 133.860414 
L 352.293941 133.860414 
L 352.944551 131.514207 
L 353.595161 132.556966 
L 354.245772 132.556966 
L 355.546992 169.053517 
L 356.197602 148.719724 
L 356.848213 148.719724 
L 357.498823 169.835586 
L 358.149433 149.241103 
L 358.800044 149.241103 
L 359.450654 133.078345 
L 360.101264 125.779034 
L 360.751875 146.373517 
L 361.402485 144.54869 
L 362.053095 124.996966 
L 362.703706 146.112828 
L 363.354316 146.112828 
L 364.004926 124.996966 
L 365.306147 124.996966 
L 365.956757 139.856276 
L 366.607367 146.373517 
L 367.257978 140.638345 
L 367.908588 147.416276 
L 368.559198 147.416276 
L 369.209809 148.198345 
L 371.81225 148.198345 
L 372.46286 133.339034 
L 373.113471 133.599724 
L 373.764081 118.740414 
L 374.414691 118.479724 
L 375.065302 135.945931 
L 375.715912 114.048 
L 376.366522 134.121103 
L 378.968963 134.121103 
L 379.619574 112.744552 
L 380.270184 134.642483 
L 380.920794 113.005241 
L 381.571405 95.539034 
L 382.222015 95.539034 
L 382.872625 75.465931 
L 384.173846 75.465931 
L 384.824456 91.889379 
L 386.125677 91.889379 
L 386.776287 87.979034 
L 387.426897 87.979034 
L 388.728118 128.90731 
L 390.679949 128.90731 
L 391.330559 112.483862 
L 391.98117 112.483862 
L 392.63178 131.253517 
L 393.28239 113.265931 
L 393.933001 113.265931 
L 395.234221 72.337655 
L 395.884831 83.808 
L 398.487273 83.808 
L 398.487273 83.808 
" style="fill:none;stroke:#d62728;stroke-linecap:square;stroke-width:1.5;"/>
   </g>
   <g id="patch_3">
    <path d="M 57.6 307.584 
L 57.6 41.472 
" style="fill:none;stroke:#000000;stroke-linecap:square;stroke-linejoin:miter;stroke-width:0.8;"/>
   </g>
   <g id="patch_4">
    <path d="M 414.72 307.584 
L 414.72 41.472 
" style="fill:none;stroke:#000000;stroke-linecap:square;stroke-linejoin:miter;stroke-width:0.8;"/>
   </g>
   <g id="patch_5">
    <path d="M 57.6 307.584 
L 414.72 307.584 
" style="fill:none;stroke:#000000;stroke-linecap:square;stroke-linejoin:miter;stroke-width:0.8;"/>
   </g>
   <g id="patch_6">
    <path d="M 57.6 41.472 
L 414.72 41.472 
" style="fill:none;stroke:#000000;stroke-linecap:square;stroke-linejoin:miter;stroke-width:0.8;"/>
   </g>
   <g id="legend_1">
    <g id="patch_7">
     <path d="M 338.493438 302.584 
L 407.72 302.584 
Q 409.72 302.584 409.72 300.584 
L 409.72 242.8715 
Q 409.72 240.8715 407.72 240.8715 
L 338.493438 240.8715 
Q 336.493438 240.8715 336.493438 242.8715 
L 336.493438 300.584 
Q 336.493438 302.584 338.493438 302.584 
z
" style="fill:#ffffff;opacity:0.8;stroke:#cccccc;stroke-linejoin:miter;"/>
    </g>
    <g id="line2d_16">
     <path d="M 340.493438 248.969937 
L 360.493438 248.969937 
" style="fill:none;stroke:#1f77b4;stroke-linecap:square;stroke-width:1.5;"/>
    </g>
    <g id="line2d_17"/>
    <g id="text_14">
     <!-- 2 DOF -->
     <defs>
      <path d="M 19.671875 64.796875 
L 19.671875 8.109375 
L 31.59375 8.109375 
Q 46.6875 8.109375 53.6875 14.9375 
Q 60.6875 21.78125 60.6875 36.53125 
Q 60.6875 51.171875 53.6875 57.984375 
Q 46.6875 64.796875 31.59375 64.796875 
z
M 9.8125 72.90625 
L 30.078125 72.90625 
Q 51.265625 72.90625 61.171875 64.09375 
Q 71.09375 55.28125 71.09375 36.53125 
Q 71.09375 17.671875 61.125 8.828125 
Q 51.171875 0 30.078125 0 
L 9.8125 0 
z
" id="DejaVuSans-44"/>
      <path d="M 39.40625 66.21875 
Q 28.65625 66.21875 22.328125 58.203125 
Q 16.015625 50.203125 16.015625 36.375 
Q 16.015625 22.609375 22.328125 14.59375 
Q 28.65625 6.59375 39.40625 6.59375 
Q 50.140625 6.59375 56.421875 14.59375 
Q 62.703125 22.609375 62.703125 36.375 
Q 62.703125 50.203125 56.421875 58.203125 
Q 50.140625 66.21875 39.40625 66.21875 
z
M 39.40625 74.21875 
Q 54.734375 74.21875 63.90625 63.9375 
Q 73.09375 53.65625 73.09375 36.375 
Q 73.09375 19.140625 63.90625 8.859375 
Q 54.734375 -1.421875 39.40625 -1.421875 
Q 24.03125 -1.421875 14.8125 8.828125 
Q 5.609375 19.09375 5.609375 36.375 
Q 5.609375 53.65625 14.8125 63.9375 
Q 24.03125 74.21875 39.40625 74.21875 
z
" id="DejaVuSans-4f"/>
      <path d="M 9.8125 72.90625 
L 51.703125 72.90625 
L 51.703125 64.59375 
L 19.671875 64.59375 
L 19.671875 43.109375 
L 48.578125 43.109375 
L 48.578125 34.8125 
L 19.671875 34.8125 
L 19.671875 0 
L 9.8125 0 
z
" id="DejaVuSans-46"/>
     </defs>
     <g transform="translate(368.493438 252.469937)scale(0.1 -0.1)">
      <use xlink:href="#DejaVuSans-32"/>
      <use x="63.623047" xlink:href="#DejaVuSans-20"/>
      <use x="95.410156" xlink:href="#DejaVuSans-44"/>
      <use x="172.412109" xlink:href="#DejaVuSans-4f"/>
      <use x="251.123047" xlink:href="#DejaVuSans-46"/>
     </g>
    </g>
    <g id="line2d_18">
     <path d="M 340.493438 263.648062 
L 360.493438 263.648062 
" style="fill:none;stroke:#ff7f0e;stroke-linecap:square;stroke-width:1.5;"/>
    </g>
    <g id="line2d_19"/>
    <g id="text_15">
     <!-- 3 DOF -->
     <g transform="translate(368.493438 267.148062)scale(0.1 -0.1)">
      <use xlink:href="#DejaVuSans-33"/>
      <use x="63.623047" xlink:href="#DejaVuSans-20"/>
      <use x="95.410156" xlink:href="#DejaVuSans-44"/>
      <use x="172.412109" xlink:href="#DejaVuSans-4f"/>
      <use x="251.123047" xlink:href="#DejaVuSans-46"/>
     </g>
    </g>
    <g id="line2d_20">
     <path d="M 340.493438 278.326187 
L 360.493438 278.326187 
" style="fill:none;stroke:#2ca02c;stroke-linecap:square;stroke-width:1.5;"/>
    </g>
    <g id="line2d_21"/>
    <g id="text_16">
     <!-- 5 DOF -->
     <g transform="translate(368.493438 281.826187)scale(0.1 -0.1)">
      <use xlink:href="#DejaVuSans-35"/>
      <use x="63.623047" xlink:href="#DejaVuSans-20"/>
      <use x="95.410156" xlink:href="#DejaVuSans-44"/>
      <use x="172.412109" xlink:href="#DejaVuSans-4f"/>
      <use x="251.123047" xlink:href="#DejaVuSans-46"/>
     </g>
    </g>
    <g id="line2d_22">
     <path d="M 340.493438 293.004312 
L 360.493438 293.004312 
" style="fill:none;stroke:#d62728;stroke-linecap:square;stroke-width:1.5;"/>
    </g>
    <g id="line2d_23"/>
    <g id="text_17">
     <!-- 10 DOF -->
     <g transform="translate(368.493438 296.504312)scale(0.1 -0.1)">
      <use xlink:href="#DejaVuSans-31"/>
      <use x="63.623047" xlink:href="#DejaVuSans-30"/>
      <use x="127.246094" xlink:href="#DejaVuSans-20"/>
      <use x="159.033203" xlink:href="#DejaVuSans-44"/>
      <use x="236.035156" xlink:href="#DejaVuSans-4f"/>
      <use x="314.746094" xlink:href="#DejaVuSans-46"/>
     </g>
    </g>
   </g>
  </g>
 </g>
 <defs>
  <clipPath id="p393cd93f1e">
   <rect height="266.112" width="357.12" x="57.6" y="41.472"/>
  </clipPath>
 </defs>
</svg>
