<?xml version="1.0" encoding="utf-8" standalone="no"?>
<!DOCTYPE svg PUBLIC "-//W3C//DTD SVG 1.1//EN"
  "http://www.w3.org/Graphics/SVG/1.1/DTD/svg11.dtd">
<!-- Created with matplotlib (http://matplotlib.org/) -->
<svg height="345pt" version="1.1" viewBox="0 0 460 345" width="460pt" xmlns="http://www.w3.org/2000/svg" xmlns:xlink="http://www.w3.org/1999/xlink">
 <defs>
  <style type="text/css">
*{stroke-linecap:butt;stroke-linejoin:round;}
  </style>
 </defs>
 <g id="figure_1">
  <g id="patch_1">
   <path d="M 0 345.6 
L 460.8 345.6 
L 460.8 0 
L 0 0 
z
" style="fill:#ffffff;"/>
  </g>
  <g id="axes_1">
   <g id="patch_2">
    <path d="M 57.6 307.584 
L 414.72 307.584 
L 414.72 41.472 
L 57.6 41.472 
z
" style="fill:#ffffff;"/>
   </g>
   <g id="matplotlib.axis_1">
    <g id="xtick_1">
     <g id="line2d_1">
      <defs>
       <path d="M 0 0 
L 0 3.5 
" id="m6d3c2bbdf1" style="stroke:#000000;stroke-width:0.8;"/>
      </defs>
      <g>
       <use style="stroke:#000000;stroke-width:0.8;" x="73.832727" xlink:href="#m6d3c2bbdf1" y="307.584"/>
      </g>
     </g>
     <g id="text_1">
      <!-- 0 -->
      <defs>
       <path d="M 31.78125 66.40625 
Q 24.171875 66.40625 20.328125 58.90625 
Q 16.5 51.421875 16.5 36.375 
Q 16.5 21.390625 20.328125 13.890625 
Q 24.171875 6.390625 31.78125 6.390625 
Q 39.453125 6.390625 43.28125 13.890625 
Q 47.125 21.390625 47.125 36.375 
Q 47.125 51.421875 43.28125 58.90625 
Q 39.453125 66.40625 31.78125 66.40625 
z
M 31.78125 74.21875 
Q 44.046875 74.21875 50.515625 64.515625 
Q 56.984375 54.828125 56.984375 36.375 
Q 56.984375 17.96875 50.515625 8.265625 
Q 44.046875 -1.421875 31.78125 -1.421875 
Q 19.53125 -1.421875 13.0625 8.265625 
Q 6.59375 17.96875 6.59375 36.375 
Q 6.59375 54.828125 13.0625 64.515625 
Q 19.53125 74.21875 31.78125 74.21875 
z
" id="DejaVuSans-30"/>
      </defs>
      <g transform="translate(70.651477 322.182437)scale(0.1 -0.1)">
       <use xlink:href="#DejaVuSans-30"/>
      </g>
     </g>
    </g>
    <g id="xtick_2">
     <g id="line2d_2">
      <g>
       <use style="stroke:#000000;stroke-width:0.8;" x="138.893758" xlink:href="#m6d3c2bbdf1" y="307.584"/>
      </g>
     </g>
     <g id="text_2">
      <!-- 100 -->
      <defs>
       <path d="M 12.40625 8.296875 
L 28.515625 8.296875 
L 28.515625 63.921875 
L 10.984375 60.40625 
L 10.984375 69.390625 
L 28.421875 72.90625 
L 38.28125 72.90625 
L 38.28125 8.296875 
L 54.390625 8.296875 
L 54.390625 0 
L 12.40625 0 
z
" id="DejaVuSans-31"/>
      </defs>
      <g transform="translate(129.350008 322.182437)scale(0.1 -0.1)">
       <use xlink:href="#DejaVuSans-31"/>
       <use x="63.623047" xlink:href="#DejaVuSans-30"/>
       <use x="127.246094" xlink:href="#DejaVuSans-30"/>
      </g>
     </g>
    </g>
    <g id="xtick_3">
     <g id="line2d_3">
      <g>
       <use style="stroke:#000000;stroke-width:0.8;" x="203.95479" xlink:href="#m6d3c2bbdf1" y="307.584"/>
      </g>
     </g>
     <g id="text_3">
      <!-- 200 -->
      <defs>
       <path d="M 19.1875 8.296875 
L 53.609375 8.296875 
L 53.609375 0 
L 7.328125 0 
L 7.328125 8.296875 
Q 12.9375 14.109375 22.625 23.890625 
Q 32.328125 33.6875 34.8125 36.53125 
Q 39.546875 41.84375 41.421875 45.53125 
Q 43.3125 49.21875 43.3125 52.78125 
Q 43.3125 58.59375 39.234375 62.25 
Q 35.15625 65.921875 28.609375 65.921875 
Q 23.96875 65.921875 18.8125 64.3125 
Q 13.671875 62.703125 7.8125 59.421875 
L 7.8125 69.390625 
Q 13.765625 71.78125 18.9375 73 
Q 24.125 74.21875 28.421875 74.21875 
Q 39.75 74.21875 46.484375 68.546875 
Q 53.21875 62.890625 53.21875 53.421875 
Q 53.21875 48.921875 51.53125 44.890625 
Q 49.859375 40.875 45.40625 35.40625 
Q 44.1875 33.984375 37.640625 27.21875 
Q 31.109375 20.453125 19.1875 8.296875 
z
" id="DejaVuSans-32"/>
      </defs>
      <g transform="translate(194.41104 322.182437)scale(0.1 -0.1)">
       <use xlink:href="#DejaVuSans-32"/>
       <use x="63.623047" xlink:href="#DejaVuSans-30"/>
       <use x="127.246094" xlink:href="#DejaVuSans-30"/>
      </g>
     </g>
    </g>
    <g id="xtick_4">
     <g id="line2d_4">
      <g>
       <use style="stroke:#000000;stroke-width:0.8;" x="269.015821" xlink:href="#m6d3c2bbdf1" y="307.584"/>
      </g>
     </g>
     <g id="text_4">
      <!-- 300 -->
      <defs>
       <path d="M 40.578125 39.3125 
Q 47.65625 37.796875 51.625 33 
Q 55.609375 28.21875 55.609375 21.1875 
Q 55.609375 10.40625 48.1875 4.484375 
Q 40.765625 -1.421875 27.09375 -1.421875 
Q 22.515625 -1.421875 17.65625 -0.515625 
Q 12.796875 0.390625 7.625 2.203125 
L 7.625 11.71875 
Q 11.71875 9.328125 16.59375 8.109375 
Q 21.484375 6.890625 26.8125 6.890625 
Q 36.078125 6.890625 40.9375 10.546875 
Q 45.796875 14.203125 45.796875 21.1875 
Q 45.796875 27.640625 41.28125 31.265625 
Q 36.765625 34.90625 28.71875 34.90625 
L 20.21875 34.90625 
L 20.21875 43.015625 
L 29.109375 43.015625 
Q 36.375 43.015625 40.234375 45.921875 
Q 44.09375 48.828125 44.09375 54.296875 
Q 44.09375 59.90625 40.109375 62.90625 
Q 36.140625 65.921875 28.71875 65.921875 
Q 24.65625 65.921875 20.015625 65.03125 
Q 15.375 64.15625 9.8125 62.3125 
L 9.8125 71.09375 
Q 15.4375 72.65625 20.34375 73.4375 
Q 25.25 74.21875 29.59375 74.21875 
Q 40.828125 74.21875 47.359375 69.109375 
Q 53.90625 64.015625 53.90625 55.328125 
Q 53.90625 49.265625 50.4375 45.09375 
Q 46.96875 40.921875 40.578125 39.3125 
z
" id="DejaVuSans-33"/>
      </defs>
      <g transform="translate(259.472071 322.182437)scale(0.1 -0.1)">
       <use xlink:href="#DejaVuSans-33"/>
       <use x="63.623047" xlink:href="#DejaVuSans-30"/>
       <use x="127.246094" xlink:href="#DejaVuSans-30"/>
      </g>
     </g>
    </g>
    <g id="xtick_5">
     <g id="line2d_5">
      <g>
       <use style="stroke:#000000;stroke-width:0.8;" x="334.076852" xlink:href="#m6d3c2bbdf1" y="307.584"/>
      </g>
     </g>
     <g id="text_5">
      <!-- 400 -->
      <defs>
       <path d="M 37.796875 64.3125 
L 12.890625 25.390625 
L 37.796875 25.390625 
z
M 35.203125 72.90625 
L 47.609375 72.90625 
L 47.609375 25.390625 
L 58.015625 25.390625 
L 58.015625 17.1875 
L 47.609375 17.1875 
L 47.609375 0 
L 37.796875 0 
L 37.796875 17.1875 
L 4.890625 17.1875 
L 4.890625 26.703125 
z
" id="DejaVuSans-34"/>
      </defs>
      <g transform="translate(324.533102 322.182437)scale(0.1 -0.1)">
       <use xlink:href="#DejaVuSans-34"/>
       <use x="63.623047" xlink:href="#DejaVuSans-30"/>
       <use x="127.246094" xlink:href="#DejaVuSans-30"/>
      </g>
     </g>
    </g>
    <g id="xtick_6">
     <g id="line2d_6">
      <g>
       <use style="stroke:#000000;stroke-width:0.8;" x="399.137883" xlink:href="#m6d3c2bbdf1" y="307.584"/>
      </g>
     </g>
     <g id="text_6">
      <!-- 500 -->
      <defs>
       <path d="M 10.796875 72.90625 
L 49.515625 72.90625 
L 49.515625 64.59375 
L 19.828125 64.59375 
L 19.828125 46.734375 
Q 21.96875 47.46875 24.109375 47.828125 
Q 26.265625 48.1875 28.421875 48.1875 
Q 40.625 48.1875 47.75 41.5 
Q 54.890625 34.8125 54.890625 23.390625 
Q 54.890625 11.625 47.5625 5.09375 
Q 40.234375 -1.421875 26.90625 -1.421875 
Q 22.3125 -1.421875 17.546875 -0.640625 
Q 12.796875 0.140625 7.71875 1.703125 
L 7.71875 11.625 
Q 12.109375 9.234375 16.796875 8.0625 
Q 21.484375 6.890625 26.703125 6.890625 
Q 35.15625 6.890625 40.078125 11.328125 
Q 45.015625 15.765625 45.015625 23.390625 
Q 45.015625 31 40.078125 35.4375 
Q 35.15625 39.890625 26.703125 39.890625 
Q 22.75 39.890625 18.8125 39.015625 
Q 14.890625 38.140625 10.796875 36.28125 
z
" id="DejaVuSans-35"/>
      </defs>
      <g transform="translate(389.594133 322.182437)scale(0.1 -0.1)">
       <use xlink:href="#DejaVuSans-35"/>
       <use x="63.623047" xlink:href="#DejaVuSans-30"/>
       <use x="127.246094" xlink:href="#DejaVuSans-30"/>
      </g>
     </g>
    </g>
    <g id="text_7">
     <!-- episodes -->
     <defs>
      <path d="M 56.203125 29.59375 
L 56.203125 25.203125 
L 14.890625 25.203125 
Q 15.484375 15.921875 20.484375 11.0625 
Q 25.484375 6.203125 34.421875 6.203125 
Q 39.59375 6.203125 44.453125 7.46875 
Q 49.3125 8.734375 54.109375 11.28125 
L 54.109375 2.78125 
Q 49.265625 0.734375 44.1875 -0.34375 
Q 39.109375 -1.421875 33.890625 -1.421875 
Q 20.796875 -1.421875 13.15625 6.1875 
Q 5.515625 13.8125 5.515625 26.8125 
Q 5.515625 40.234375 12.765625 48.109375 
Q 20.015625 56 32.328125 56 
Q 43.359375 56 49.78125 48.890625 
Q 56.203125 41.796875 56.203125 29.59375 
z
M 47.21875 32.234375 
Q 47.125 39.59375 43.09375 43.984375 
Q 39.0625 48.390625 32.421875 48.390625 
Q 24.90625 48.390625 20.390625 44.140625 
Q 15.875 39.890625 15.1875 32.171875 
z
" id="DejaVuSans-65"/>
      <path d="M 18.109375 8.203125 
L 18.109375 -20.796875 
L 9.078125 -20.796875 
L 9.078125 54.6875 
L 18.109375 54.6875 
L 18.109375 46.390625 
Q 20.953125 51.265625 25.265625 53.625 
Q 29.59375 56 35.59375 56 
Q 45.5625 56 51.78125 48.09375 
Q 58.015625 40.1875 58.015625 27.296875 
Q 58.015625 14.40625 51.78125 6.484375 
Q 45.5625 -1.421875 35.59375 -1.421875 
Q 29.59375 -1.421875 25.265625 0.953125 
Q 20.953125 3.328125 18.109375 8.203125 
z
M 48.6875 27.296875 
Q 48.6875 37.203125 44.609375 42.84375 
Q 40.53125 48.484375 33.40625 48.484375 
Q 26.265625 48.484375 22.1875 42.84375 
Q 18.109375 37.203125 18.109375 27.296875 
Q 18.109375 17.390625 22.1875 11.75 
Q 26.265625 6.109375 33.40625 6.109375 
Q 40.53125 6.109375 44.609375 11.75 
Q 48.6875 17.390625 48.6875 27.296875 
z
" id="DejaVuSans-70"/>
      <path d="M 9.421875 54.6875 
L 18.40625 54.6875 
L 18.40625 0 
L 9.421875 0 
z
M 9.421875 75.984375 
L 18.40625 75.984375 
L 18.40625 64.59375 
L 9.421875 64.59375 
z
" id="DejaVuSans-69"/>
      <path d="M 44.28125 53.078125 
L 44.28125 44.578125 
Q 40.484375 46.53125 36.375 47.5 
Q 32.28125 48.484375 27.875 48.484375 
Q 21.1875 48.484375 17.84375 46.4375 
Q 14.5 44.390625 14.5 40.28125 
Q 14.5 37.15625 16.890625 35.375 
Q 19.28125 33.59375 26.515625 31.984375 
L 29.59375 31.296875 
Q 39.15625 29.25 43.1875 25.515625 
Q 47.21875 21.78125 47.21875 15.09375 
Q 47.21875 7.46875 41.1875 3.015625 
Q 35.15625 -1.421875 24.609375 -1.421875 
Q 20.21875 -1.421875 15.453125 -0.5625 
Q 10.6875 0.296875 5.421875 2 
L 5.421875 11.28125 
Q 10.40625 8.6875 15.234375 7.390625 
Q 20.0625 6.109375 24.8125 6.109375 
Q 31.15625 6.109375 34.5625 8.28125 
Q 37.984375 10.453125 37.984375 14.40625 
Q 37.984375 18.0625 35.515625 20.015625 
Q 33.0625 21.96875 24.703125 23.78125 
L 21.578125 24.515625 
Q 13.234375 26.265625 9.515625 29.90625 
Q 5.8125 33.546875 5.8125 39.890625 
Q 5.8125 47.609375 11.28125 51.796875 
Q 16.75 56 26.8125 56 
Q 31.78125 56 36.171875 55.265625 
Q 40.578125 54.546875 44.28125 53.078125 
z
" id="DejaVuSans-73"/>
      <path d="M 30.609375 48.390625 
Q 23.390625 48.390625 19.1875 42.75 
Q 14.984375 37.109375 14.984375 27.296875 
Q 14.984375 17.484375 19.15625 11.84375 
Q 23.34375 6.203125 30.609375 6.203125 
Q 37.796875 6.203125 41.984375 11.859375 
Q 46.1875 17.53125 46.1875 27.296875 
Q 46.1875 37.015625 41.984375 42.703125 
Q 37.796875 48.390625 30.609375 48.390625 
z
M 30.609375 56 
Q 42.328125 56 49.015625 48.375 
Q 55.71875 40.765625 55.71875 27.296875 
Q 55.71875 13.875 49.015625 6.21875 
Q 42.328125 -1.421875 30.609375 -1.421875 
Q 18.84375 -1.421875 12.171875 6.21875 
Q 5.515625 13.875 5.515625 27.296875 
Q 5.515625 40.765625 12.171875 48.375 
Q 18.84375 56 30.609375 56 
z
" id="DejaVuSans-6f"/>
      <path d="M 45.40625 46.390625 
L 45.40625 75.984375 
L 54.390625 75.984375 
L 54.390625 0 
L 45.40625 0 
L 45.40625 8.203125 
Q 42.578125 3.328125 38.25 0.953125 
Q 33.9375 -1.421875 27.875 -1.421875 
Q 17.96875 -1.421875 11.734375 6.484375 
Q 5.515625 14.40625 5.515625 27.296875 
Q 5.515625 40.1875 11.734375 48.09375 
Q 17.96875 56 27.875 56 
Q 33.9375 56 38.25 53.625 
Q 42.578125 51.265625 45.40625 46.390625 
z
M 14.796875 27.296875 
Q 14.796875 17.390625 18.875 11.75 
Q 22.953125 6.109375 30.078125 6.109375 
Q 37.203125 6.109375 41.296875 11.75 
Q 45.40625 17.390625 45.40625 27.296875 
Q 45.40625 37.203125 41.296875 42.84375 
Q 37.203125 48.484375 30.078125 48.484375 
Q 22.953125 48.484375 18.875 42.84375 
Q 14.796875 37.203125 14.796875 27.296875 
z
" id="DejaVuSans-64"/>
     </defs>
     <g transform="translate(214.000625 335.860562)scale(0.1 -0.1)">
      <use xlink:href="#DejaVuSans-65"/>
      <use x="61.523438" xlink:href="#DejaVuSans-70"/>
      <use x="125" xlink:href="#DejaVuSans-69"/>
      <use x="152.783203" xlink:href="#DejaVuSans-73"/>
      <use x="204.882812" xlink:href="#DejaVuSans-6f"/>
      <use x="266.064453" xlink:href="#DejaVuSans-64"/>
      <use x="329.541016" xlink:href="#DejaVuSans-65"/>
      <use x="391.064453" xlink:href="#DejaVuSans-73"/>
     </g>
    </g>
   </g>
   <g id="matplotlib.axis_2">
    <g id="ytick_1">
     <g id="line2d_7">
      <defs>
       <path d="M 0 0 
L -3.5 0 
" id="m429cd1ac20" style="stroke:#000000;stroke-width:0.8;"/>
      </defs>
      <g>
       <use style="stroke:#000000;stroke-width:0.8;" x="57.6" xlink:href="#m429cd1ac20" y="275.951961"/>
      </g>
     </g>
     <g id="text_8">
      <!-- −80 -->
      <defs>
       <path d="M 10.59375 35.5 
L 73.1875 35.5 
L 73.1875 27.203125 
L 10.59375 27.203125 
z
" id="DejaVuSans-2212"/>
       <path d="M 31.78125 34.625 
Q 24.75 34.625 20.71875 30.859375 
Q 16.703125 27.09375 16.703125 20.515625 
Q 16.703125 13.921875 20.71875 10.15625 
Q 24.75 6.390625 31.78125 6.390625 
Q 38.8125 6.390625 42.859375 10.171875 
Q 46.921875 13.96875 46.921875 20.515625 
Q 46.921875 27.09375 42.890625 30.859375 
Q 38.875 34.625 31.78125 34.625 
z
M 21.921875 38.8125 
Q 15.578125 40.375 12.03125 44.71875 
Q 8.5 49.078125 8.5 55.328125 
Q 8.5 64.0625 14.71875 69.140625 
Q 20.953125 74.21875 31.78125 74.21875 
Q 42.671875 74.21875 48.875 69.140625 
Q 55.078125 64.0625 55.078125 55.328125 
Q 55.078125 49.078125 51.53125 44.71875 
Q 48 40.375 41.703125 38.8125 
Q 48.828125 37.15625 52.796875 32.3125 
Q 56.78125 27.484375 56.78125 20.515625 
Q 56.78125 9.90625 50.3125 4.234375 
Q 43.84375 -1.421875 31.78125 -1.421875 
Q 19.734375 -1.421875 13.25 4.234375 
Q 6.78125 9.90625 6.78125 20.515625 
Q 6.78125 27.484375 10.78125 32.3125 
Q 14.796875 37.15625 21.921875 38.8125 
z
M 18.3125 54.390625 
Q 18.3125 48.734375 21.84375 45.5625 
Q 25.390625 42.390625 31.78125 42.390625 
Q 38.140625 42.390625 41.71875 45.5625 
Q 45.3125 48.734375 45.3125 54.390625 
Q 45.3125 60.0625 41.71875 63.234375 
Q 38.140625 66.40625 31.78125 66.40625 
Q 25.390625 66.40625 21.84375 63.234375 
Q 18.3125 60.0625 18.3125 54.390625 
z
" id="DejaVuSans-38"/>
      </defs>
      <g transform="translate(29.495313 279.75118)scale(0.1 -0.1)">
       <use xlink:href="#DejaVuSans-2212"/>
       <use x="83.789062" xlink:href="#DejaVuSans-38"/>
       <use x="147.412109" xlink:href="#DejaVuSans-30"/>
      </g>
     </g>
    </g>
    <g id="ytick_2">
     <g id="line2d_8">
      <g>
       <use style="stroke:#000000;stroke-width:0.8;" x="57.6" xlink:href="#m429cd1ac20" y="220.002921"/>
      </g>
     </g>
     <g id="text_9">
      <!-- −60 -->
      <defs>
       <path d="M 33.015625 40.375 
Q 26.375 40.375 22.484375 35.828125 
Q 18.609375 31.296875 18.609375 23.390625 
Q 18.609375 15.53125 22.484375 10.953125 
Q 26.375 6.390625 33.015625 6.390625 
Q 39.65625 6.390625 43.53125 10.953125 
Q 47.40625 15.53125 47.40625 23.390625 
Q 47.40625 31.296875 43.53125 35.828125 
Q 39.65625 40.375 33.015625 40.375 
z
M 52.59375 71.296875 
L 52.59375 62.3125 
Q 48.875 64.0625 45.09375 64.984375 
Q 41.3125 65.921875 37.59375 65.921875 
Q 27.828125 65.921875 22.671875 59.328125 
Q 17.53125 52.734375 16.796875 39.40625 
Q 19.671875 43.65625 24.015625 45.921875 
Q 28.375 48.1875 33.59375 48.1875 
Q 44.578125 48.1875 50.953125 41.515625 
Q 57.328125 34.859375 57.328125 23.390625 
Q 57.328125 12.15625 50.6875 5.359375 
Q 44.046875 -1.421875 33.015625 -1.421875 
Q 20.359375 -1.421875 13.671875 8.265625 
Q 6.984375 17.96875 6.984375 36.375 
Q 6.984375 53.65625 15.1875 63.9375 
Q 23.390625 74.21875 37.203125 74.21875 
Q 40.921875 74.21875 44.703125 73.484375 
Q 48.484375 72.75 52.59375 71.296875 
z
" id="DejaVuSans-36"/>
      </defs>
      <g transform="translate(29.495313 223.80214)scale(0.1 -0.1)">
       <use xlink:href="#DejaVuSans-2212"/>
       <use x="83.789062" xlink:href="#DejaVuSans-36"/>
       <use x="147.412109" xlink:href="#DejaVuSans-30"/>
      </g>
     </g>
    </g>
    <g id="ytick_3">
     <g id="line2d_9">
      <g>
       <use style="stroke:#000000;stroke-width:0.8;" x="57.6" xlink:href="#m429cd1ac20" y="164.05388"/>
      </g>
     </g>
     <g id="text_10">
      <!-- −40 -->
      <g transform="translate(29.495313 167.853099)scale(0.1 -0.1)">
       <use xlink:href="#DejaVuSans-2212"/>
       <use x="83.789062" xlink:href="#DejaVuSans-34"/>
       <use x="147.412109" xlink:href="#DejaVuSans-30"/>
      </g>
     </g>
    </g>
    <g id="ytick_4">
     <g id="line2d_10">
      <g>
       <use style="stroke:#000000;stroke-width:0.8;" x="57.6" xlink:href="#m429cd1ac20" y="108.10484"/>
      </g>
     </g>
     <g id="text_11">
      <!-- −20 -->
      <g transform="translate(29.495313 111.904058)scale(0.1 -0.1)">
       <use xlink:href="#DejaVuSans-2212"/>
       <use x="83.789062" xlink:href="#DejaVuSans-32"/>
       <use x="147.412109" xlink:href="#DejaVuSans-30"/>
      </g>
     </g>
    </g>
    <g id="ytick_5">
     <g id="line2d_11">
      <g>
       <use style="stroke:#000000;stroke-width:0.8;" x="57.6" xlink:href="#m429cd1ac20" y="52.155799"/>
      </g>
     </g>
     <g id="text_12">
      <!-- 0 -->
      <g transform="translate(44.2375 55.955018)scale(0.1 -0.1)">
       <use xlink:href="#DejaVuSans-30"/>
      </g>
     </g>
    </g>
    <g id="text_13">
     <!-- mean rewards -->
     <defs>
      <path d="M 52 44.1875 
Q 55.375 50.25 60.0625 53.125 
Q 64.75 56 71.09375 56 
Q 79.640625 56 84.28125 50.015625 
Q 88.921875 44.046875 88.921875 33.015625 
L 88.921875 0 
L 79.890625 0 
L 79.890625 32.71875 
Q 79.890625 40.578125 77.09375 44.375 
Q 74.3125 48.1875 68.609375 48.1875 
Q 61.625 48.1875 57.5625 43.546875 
Q 53.515625 38.921875 53.515625 30.90625 
L 53.515625 0 
L 44.484375 0 
L 44.484375 32.71875 
Q 44.484375 40.625 41.703125 44.40625 
Q 38.921875 48.1875 33.109375 48.1875 
Q 26.21875 48.1875 22.15625 43.53125 
Q 18.109375 38.875 18.109375 30.90625 
L 18.109375 0 
L 9.078125 0 
L 9.078125 54.6875 
L 18.109375 54.6875 
L 18.109375 46.1875 
Q 21.1875 51.21875 25.484375 53.609375 
Q 29.78125 56 35.6875 56 
Q 41.65625 56 45.828125 52.96875 
Q 50 49.953125 52 44.1875 
z
" id="DejaVuSans-6d"/>
      <path d="M 34.28125 27.484375 
Q 23.390625 27.484375 19.1875 25 
Q 14.984375 22.515625 14.984375 16.5 
Q 14.984375 11.71875 18.140625 8.90625 
Q 21.296875 6.109375 26.703125 6.109375 
Q 34.1875 6.109375 38.703125 11.40625 
Q 43.21875 16.703125 43.21875 25.484375 
L 43.21875 27.484375 
z
M 52.203125 31.203125 
L 52.203125 0 
L 43.21875 0 
L 43.21875 8.296875 
Q 40.140625 3.328125 35.546875 0.953125 
Q 30.953125 -1.421875 24.3125 -1.421875 
Q 15.921875 -1.421875 10.953125 3.296875 
Q 6 8.015625 6 15.921875 
Q 6 25.140625 12.171875 29.828125 
Q 18.359375 34.515625 30.609375 34.515625 
L 43.21875 34.515625 
L 43.21875 35.40625 
Q 43.21875 41.609375 39.140625 45 
Q 35.0625 48.390625 27.6875 48.390625 
Q 23 48.390625 18.546875 47.265625 
Q 14.109375 46.140625 10.015625 43.890625 
L 10.015625 52.203125 
Q 14.9375 54.109375 19.578125 55.046875 
Q 24.21875 56 28.609375 56 
Q 40.484375 56 46.34375 49.84375 
Q 52.203125 43.703125 52.203125 31.203125 
z
" id="DejaVuSans-61"/>
      <path d="M 54.890625 33.015625 
L 54.890625 0 
L 45.90625 0 
L 45.90625 32.71875 
Q 45.90625 40.484375 42.875 44.328125 
Q 39.84375 48.1875 33.796875 48.1875 
Q 26.515625 48.1875 22.3125 43.546875 
Q 18.109375 38.921875 18.109375 30.90625 
L 18.109375 0 
L 9.078125 0 
L 9.078125 54.6875 
L 18.109375 54.6875 
L 18.109375 46.1875 
Q 21.34375 51.125 25.703125 53.5625 
Q 30.078125 56 35.796875 56 
Q 45.21875 56 50.046875 50.171875 
Q 54.890625 44.34375 54.890625 33.015625 
z
" id="DejaVuSans-6e"/>
      <path id="DejaVuSans-20"/>
      <path d="M 41.109375 46.296875 
Q 39.59375 47.171875 37.8125 47.578125 
Q 36.03125 48 33.890625 48 
Q 26.265625 48 22.1875 43.046875 
Q 18.109375 38.09375 18.109375 28.8125 
L 18.109375 0 
L 9.078125 0 
L 9.078125 54.6875 
L 18.109375 54.6875 
L 18.109375 46.1875 
Q 20.953125 51.171875 25.484375 53.578125 
Q 30.03125 56 36.53125 56 
Q 37.453125 56 38.578125 55.875 
Q 39.703125 55.765625 41.0625 55.515625 
z
" id="DejaVuSans-72"/>
      <path d="M 4.203125 54.6875 
L 13.1875 54.6875 
L 24.421875 12.015625 
L 35.59375 54.6875 
L 46.1875 54.6875 
L 57.421875 12.015625 
L 68.609375 54.6875 
L 77.59375 54.6875 
L 63.28125 0 
L 52.6875 0 
L 40.921875 44.828125 
L 29.109375 0 
L 18.5 0 
z
" id="DejaVuSans-77"/>
     </defs>
     <g transform="translate(23.415625 210.413938)rotate(-90)scale(0.1 -0.1)">
      <use xlink:href="#DejaVuSans-6d"/>
      <use x="97.412109" xlink:href="#DejaVuSans-65"/>
      <use x="158.935547" xlink:href="#DejaVuSans-61"/>
      <use x="220.214844" xlink:href="#DejaVuSans-6e"/>
      <use x="283.59375" xlink:href="#DejaVuSans-20"/>
      <use x="315.380859" xlink:href="#DejaVuSans-72"/>
      <use x="356.462891" xlink:href="#DejaVuSans-65"/>
      <use x="417.986328" xlink:href="#DejaVuSans-77"/>
      <use x="499.773438" xlink:href="#DejaVuSans-61"/>
      <use x="561.052734" xlink:href="#DejaVuSans-72"/>
      <use x="602.150391" xlink:href="#DejaVuSans-64"/>
      <use x="665.626953" xlink:href="#DejaVuSans-73"/>
     </g>
    </g>
   </g>
   <g id="line2d_12">
    <path clip-path="url(#pfcc743c863)" d="M 73.832727 67.829891 
L 74.483338 76.394298 
L 75.133948 79.659616 
L 75.784558 79.260766 
L 76.435169 78.702925 
L 77.085779 79.728293 
L 77.736389 79.388668 
L 78.386999 78.078356 
L 79.03761 77.692256 
L 79.68822 76.144842 
L 80.33883 78.322455 
L 80.989441 76.833169 
L 81.640051 74.886158 
L 82.290661 74.175083 
L 82.941272 73.664015 
L 83.591882 72.767836 
L 84.242492 71.08253 
L 84.893103 71.206211 
L 85.543713 69.616185 
L 86.194323 70.895807 
L 86.844934 67.813001 
L 87.495544 66.539755 
L 88.146154 66.607685 
L 88.796764 65.714308 
L 90.097985 63.194501 
L 90.748595 62.913372 
L 91.399206 62.85247 
L 92.049816 63.965721 
L 92.700426 61.963937 
L 93.351037 61.724106 
L 94.001647 61.774094 
L 94.652257 60.890906 
L 95.302868 60.63493 
L 95.953478 62.045033 
L 96.604088 61.377537 
L 97.254698 62.762817 
L 98.555919 60.322072 
L 99.206529 60.852448 
L 99.85714 61.06639 
L 100.50775 61.090444 
L 101.15836 60.966776 
L 101.808971 61.286754 
L 102.459581 60.061084 
L 103.110191 60.447612 
L 103.760802 58.90292 
L 104.411412 58.666798 
L 105.062022 58.618529 
L 105.712633 58.10732 
L 106.363243 57.758546 
L 107.013853 58.268132 
L 107.664463 58.108914 
L 108.315074 59.449965 
L 108.965684 58.989379 
L 109.616294 60.201641 
L 110.266905 60.23999 
L 110.917515 60.67482 
L 111.568125 60.491203 
L 112.869346 60.479778 
L 113.519956 60.964392 
L 114.170567 60.863388 
L 114.821177 58.821884 
L 115.471787 58.795778 
L 116.122398 57.020525 
L 118.074228 56.811238 
L 119.375449 56.811288 
L 120.026059 55.474816 
L 121.32728 55.4673 
L 122.628501 55.933784 
L 123.279111 57.589659 
L 123.929721 57.254806 
L 125.881552 57.489595 
L 127.182773 57.947989 
L 127.833383 57.934096 
L 129.134604 57.440239 
L 129.785214 56.074687 
L 130.435824 56.123572 
L 131.086435 55.972898 
L 131.737045 55.954941 
L 132.387655 56.055054 
L 133.688876 55.69795 
L 135.640707 55.71655 
L 136.291317 55.300437 
L 138.243148 55.222153 
L 138.893758 54.984957 
L 142.14681 54.844027 
L 142.79742 55.468424 
L 143.448031 55.53307 
L 144.098641 56.177195 
L 145.399862 56.107225 
L 146.050472 56.070933 
L 146.701082 56.276503 
L 147.351692 56.345089 
L 148.652913 56.222122 
L 149.303523 55.643955 
L 149.954134 55.648422 
L 150.604744 55.013445 
L 152.556575 54.981049 
L 153.857796 54.712404 
L 155.809627 54.812739 
L 156.460237 54.718913 
L 157.110847 55.157203 
L 159.713288 54.994093 
L 162.96634 54.808981 
L 163.61695 54.387896 
L 166.219392 54.48729 
L 168.171222 54.540452 
L 170.123053 54.543677 
L 172.074884 54.576658 
L 173.376105 54.468856 
L 178.580987 54.400632 
L 179.882208 54.471609 
L 188.340142 54.250012 
L 190.942583 54.333823 
L 192.243804 54.293416 
L 193.545025 54.298475 
L 195.496856 54.160162 
L 198.099297 54.117488 
L 198.749907 54.11547 
L 199.400517 54.311585 
L 200.701738 54.449418 
L 201.352348 54.398539 
L 202.002959 54.569714 
L 203.95479 54.563769 
L 205.25601 54.52159 
L 205.906621 54.307178 
L 207.858451 54.282572 
L 208.509062 54.096952 
L 212.412724 54.045111 
L 213.713944 53.966629 
L 221.521268 54.034497 
L 227.376761 53.900026 
L 231.931033 53.944016 
L 245.59385 53.935304 
L 250.798732 53.980294 
L 259.256666 53.786801 
L 289.835351 53.800797 
L 292.437792 53.748481 
L 296.992064 53.711203 
L 331.474411 53.703498 
L 335.378073 53.673884 
L 343.185396 53.652787 
L 352.944551 53.657159 
L 360.101264 53.626349 
L 370.511029 53.605854 
L 384.824456 53.581428 
L 398.487273 53.588059 
L 398.487273 53.588059 
" style="fill:none;stroke:#1f77b4;stroke-linecap:square;stroke-width:1.5;"/>
   </g>
   <g id="line2d_13">
    <path clip-path="url(#pfcc743c863)" d="M 73.832727 101.438035 
L 74.483338 117.801703 
L 75.133948 110.514735 
L 75.784558 99.494233 
L 76.435169 91.46981 
L 77.085779 97.440006 
L 77.736389 99.994884 
L 78.386999 94.802045 
L 79.03761 97.447473 
L 79.68822 97.430101 
L 80.33883 103.937218 
L 80.989441 101.885411 
L 81.640051 98.505558 
L 82.290661 98.097023 
L 82.941272 99.038097 
L 83.591882 98.554105 
L 84.242492 100.706001 
L 84.893103 100.633326 
L 85.543713 94.861509 
L 86.194323 99.639276 
L 86.844934 91.742347 
L 87.495544 87.23434 
L 88.146154 96.634337 
L 88.796764 96.109525 
L 89.447375 102.364169 
L 90.097985 96.125384 
L 90.748595 88.423425 
L 91.399206 88.688943 
L 92.049816 89.101423 
L 92.700426 80.476802 
L 93.351037 77.600096 
L 94.001647 77.341377 
L 94.652257 68.472733 
L 95.302868 69.052302 
L 95.953478 68.127177 
L 96.604088 68.24936 
L 97.254698 68.172346 
L 97.905309 68.258638 
L 98.555919 68.069428 
L 99.206529 77.906464 
L 99.85714 78.830039 
L 100.50775 78.56611 
L 101.15836 77.471565 
L 101.808971 77.720183 
L 102.459581 71.408239 
L 103.110191 71.191363 
L 103.760802 72.054871 
L 105.062022 71.341387 
L 105.712633 61.536728 
L 106.363243 61.054602 
L 107.013853 69.03967 
L 107.664463 69.374513 
L 108.315074 69.478244 
L 108.965684 69.249286 
L 109.616294 69.55134 
L 110.266905 68.528377 
L 110.917515 68.778486 
L 111.568125 68.601865 
L 112.218736 68.575322 
L 112.869346 68.678036 
L 113.519956 60.005449 
L 114.170567 59.95247 
L 114.821177 59.313582 
L 115.471787 59.363334 
L 116.122398 58.955969 
L 116.773008 59.286379 
L 117.423618 66.736381 
L 118.074228 66.981958 
L 118.724839 66.810545 
L 119.375449 65.982778 
L 120.026059 66.320143 
L 120.67667 66.287608 
L 121.32728 65.974918 
L 121.97789 66.425213 
L 122.628501 66.298371 
L 123.279111 65.877095 
L 123.929721 57.897761 
L 124.580332 57.579128 
L 125.230942 57.577926 
L 125.881552 57.75476 
L 126.532163 58.328868 
L 127.182773 57.995372 
L 127.833383 57.932649 
L 128.483993 57.450779 
L 129.134604 57.757149 
L 129.785214 57.756747 
L 130.435824 58.083433 
L 132.387655 58.001716 
L 133.038266 56.999898 
L 134.990097 57.023655 
L 135.640707 56.788402 
L 136.941927 57.151006 
L 138.243148 57.5584 
L 138.893758 57.531086 
L 140.194979 57.643214 
L 141.4962 57.65352 
L 142.14681 57.849911 
L 142.79742 57.750113 
L 143.448031 57.253112 
L 144.098641 57.048969 
L 144.749251 56.704788 
L 145.399862 57.020443 
L 146.050472 56.939141 
L 147.351692 57.063665 
L 149.303523 56.677419 
L 149.954134 56.758607 
L 153.857796 56.370155 
L 154.508406 56.456109 
L 155.809627 56.348159 
L 159.062678 56.066429 
L 160.363899 56.139343 
L 161.014509 55.963584 
L 164.267561 56.141383 
L 164.918171 56.027279 
L 165.568781 56.252289 
L 166.219392 56.144951 
L 167.520612 56.323346 
L 168.171222 56.136254 
L 170.123053 55.938616 
L 171.424274 56.077185 
L 172.074884 55.908133 
L 174.026715 55.96042 
L 174.677326 56.413798 
L 175.327936 56.511656 
L 175.978546 56.360795 
L 177.279767 56.424291 
L 177.930377 56.461655 
L 179.882208 56.23224 
L 180.532818 56.231403 
L 181.183429 55.874868 
L 181.834039 55.853221 
L 182.484649 56.010555 
L 183.78587 56.059764 
L 184.43648 55.964491 
L 187.689532 56.076842 
L 188.340142 56.021023 
L 188.990752 56.099191 
L 190.291973 55.928415 
L 190.942583 56.095602 
L 194.846245 55.846207 
L 195.496856 55.65526 
L 196.798076 55.622895 
L 197.448686 55.384278 
L 198.749907 55.431489 
L 200.701738 55.321518 
L 205.25601 55.607873 
L 206.557231 55.520054 
L 207.207841 55.690044 
L 207.858451 55.73049 
L 208.509062 55.64883 
L 209.159672 55.730896 
L 210.460893 55.655276 
L 212.412724 55.615009 
L 213.063334 55.67624 
L 214.364555 55.417413 
L 215.665775 55.391865 
L 218.918827 55.453843 
L 220.220047 55.502887 
L 221.521268 55.479922 
L 223.473099 55.392337 
L 224.123709 55.459412 
L 225.42493 55.379192 
L 229.328592 55.284987 
L 230.629812 55.127703 
L 235.184085 55.085799 
L 241.039577 55.047303 
L 242.340798 55.167273 
L 244.292629 55.118024 
L 247.54568 55.250704 
L 248.846901 55.073284 
L 250.798732 55.166215 
L 252.750563 54.961721 
L 261.859107 55.045046 
L 263.810938 54.946459 
L 270.317041 55.136356 
L 271.618262 55.041726 
L 275.521924 54.876739 
L 280.076196 54.829962 
L 283.329248 54.947117 
L 284.630468 54.896958 
L 286.582299 54.978146 
L 288.53413 54.893133 
L 291.136571 54.920478 
L 293.088402 54.819605 
L 294.389623 54.828604 
L 297.642674 54.676722 
L 300.245116 54.725625 
L 302.196947 54.737118 
L 304.799388 54.832156 
L 306.100608 54.854671 
L 317.160984 54.702653 
L 321.715256 54.653169 
L 323.667087 54.631417 
L 327.570749 54.615542 
L 329.52258 54.668215 
L 334.727462 54.540434 
L 336.679293 54.494808 
L 339.281734 54.492362 
L 341.884176 54.559375 
L 345.137227 54.629605 
L 347.089058 54.720209 
L 351.64333 54.694294 
L 353.595161 54.589631 
L 358.800044 54.635702 
L 364.655537 54.604398 
L 366.607367 54.529471 
L 375.715912 54.501795 
L 380.920794 54.541786 
L 386.776287 54.434495 
L 389.378728 54.438961 
L 393.28239 54.473151 
L 398.487273 54.528828 
L 398.487273 54.528828 
" style="fill:none;stroke:#ff7f0e;stroke-linecap:square;stroke-width:1.5;"/>
   </g>
   <g id="line2d_14">
    <path clip-path="url(#pfcc743c863)" d="M 73.832727 151.997124 
L 74.483338 151.651323 
L 75.133948 147.928776 
L 75.784558 147.984871 
L 76.435169 145.481771 
L 77.085779 135.311943 
L 77.736389 139.876152 
L 78.386999 139.459308 
L 79.03761 131.824253 
L 79.68822 136.040998 
L 80.33883 134.034558 
L 80.989441 127.842631 
L 81.640051 127.847345 
L 82.941272 119.142463 
L 83.591882 119.613127 
L 84.242492 109.25271 
L 84.893103 105.80613 
L 85.543713 111.525602 
L 86.194323 102.827862 
L 86.844934 107.863534 
L 87.495544 106.946312 
L 88.146154 101.355064 
L 88.796764 100.269592 
L 90.097985 94.47494 
L 90.748595 96.435542 
L 91.399206 97.664078 
L 92.049816 96.270234 
L 92.700426 96.649846 
L 93.351037 84.943633 
L 94.001647 82.772849 
L 94.652257 83.155206 
L 95.302868 83.712945 
L 95.953478 83.296316 
L 96.604088 83.212654 
L 97.905309 79.918892 
L 98.555919 74.434204 
L 99.206529 71.885809 
L 99.85714 71.032447 
L 100.50775 70.831004 
L 101.15836 72.20147 
L 101.808971 68.903233 
L 102.459581 74.041167 
L 103.760802 73.389113 
L 104.411412 73.359728 
L 105.062022 76.540377 
L 105.712633 75.673409 
L 106.363243 82.534035 
L 107.013853 82.97556 
L 107.664463 78.726971 
L 108.315074 78.024907 
L 108.965684 73.012969 
L 109.616294 73.071657 
L 110.266905 72.540718 
L 110.917515 68.775793 
L 111.568125 74.80012 
L 112.869346 75.854384 
L 113.519956 75.632032 
L 114.170567 75.229174 
L 114.821177 75.233992 
L 115.471787 74.951513 
L 116.122398 77.277837 
L 117.423618 77.031831 
L 118.074228 72.844889 
L 118.724839 72.472755 
L 119.375449 66.059705 
L 121.32728 65.993847 
L 121.97789 66.62572 
L 122.628501 73.892778 
L 123.279111 74.106818 
L 123.929721 74.025794 
L 124.580332 68.831606 
L 125.230942 68.899268 
L 125.881552 68.047923 
L 126.532163 68.247566 
L 127.182773 68.247702 
L 127.833383 72.699872 
L 128.483993 85.253404 
L 129.134604 75.296027 
L 129.785214 75.177608 
L 130.435824 74.825777 
L 131.737045 75.144751 
L 133.038266 74.617343 
L 133.688876 74.878725 
L 134.339486 70.865694 
L 134.990097 57.65497 
L 137.592538 57.833794 
L 138.243148 57.710519 
L 138.893758 58.076517 
L 139.544369 62.823748 
L 140.194979 63.138116 
L 140.845589 70.397274 
L 141.4962 74.504472 
L 142.14681 74.600993 
L 142.79742 74.401605 
L 143.448031 74.536593 
L 144.098641 74.808963 
L 144.749251 74.634131 
L 145.399862 74.57528 
L 146.050472 69.632354 
L 146.701082 72.755895 
L 147.351692 65.01806 
L 148.002303 61.191337 
L 148.652913 61.681618 
L 149.303523 62.449694 
L 149.954134 62.513974 
L 150.604744 62.14965 
L 151.255354 62.150248 
L 151.905965 61.975172 
L 152.556575 67.281763 
L 153.207185 63.846683 
L 154.508406 63.593215 
L 155.159016 63.186516 
L 155.809627 62.58108 
L 156.460237 62.539302 
L 157.110847 62.706425 
L 157.761457 62.412015 
L 158.412068 62.540713 
L 159.062678 57.21177 
L 159.713288 57.063282 
L 160.363899 57.177071 
L 161.014509 56.920228 
L 161.665119 56.795686 
L 162.31573 57.208035 
L 162.96634 57.078904 
L 163.61695 56.704832 
L 164.267561 56.97169 
L 164.918171 56.859219 
L 165.568781 56.903292 
L 166.219392 56.7341 
L 166.870002 62.902714 
L 168.171222 63.110899 
L 168.821833 62.557193 
L 169.472443 62.670373 
L 170.123053 63.044072 
L 172.074884 62.938919 
L 172.725495 62.950128 
L 173.376105 56.623363 
L 174.026715 56.618956 
L 174.677326 61.018247 
L 175.327936 60.988318 
L 175.978546 60.745944 
L 176.629156 60.356142 
L 177.279767 65.076883 
L 177.930377 65.151408 
L 179.231598 65.025393 
L 180.532818 65.270235 
L 181.183429 60.896825 
L 183.13526 60.886086 
L 183.78587 56.218024 
L 184.43648 55.975543 
L 185.737701 56.300021 
L 187.038921 55.952086 
L 188.340142 55.676906 
L 189.641363 55.840996 
L 190.291973 55.7868 
L 191.593194 56.19694 
L 192.243804 56.116823 
L 193.545025 56.434707 
L 194.195635 56.35915 
L 194.846245 61.756758 
L 195.496856 61.634428 
L 197.448686 61.722801 
L 198.099297 61.409411 
L 199.400517 61.145242 
L 200.051128 64.303712 
L 200.701738 64.245896 
L 201.352348 58.917784 
L 202.653569 58.822539 
L 204.6054 58.528033 
L 205.906621 58.572393 
L 206.557231 55.424324 
L 207.207841 55.485632 
L 207.858451 55.338884 
L 208.509062 55.431418 
L 209.810282 55.403308 
L 210.460893 56.537991 
L 211.762113 56.441548 
L 212.412724 56.558432 
L 213.063334 56.392279 
L 214.364555 56.655558 
L 215.015165 56.513191 
L 216.316385 56.504143 
L 216.966996 55.335993 
L 218.268216 55.330444 
L 218.918827 55.178351 
L 219.569437 55.287481 
L 220.870658 55.061261 
L 222.822489 55.230925 
L 224.123709 55.1785 
L 224.77432 68.024405 
L 225.42493 68.095742 
L 226.72615 67.869404 
L 229.979202 68.03486 
L 230.629812 81.931035 
L 231.280423 69.213047 
L 233.232254 69.39051 
L 233.882864 73.520188 
L 234.533474 73.529813 
L 235.184085 73.687322 
L 235.834695 73.592433 
L 236.485305 73.684005 
L 237.135915 59.732527 
L 237.786526 59.713379 
L 238.437136 59.529036 
L 239.738357 59.541921 
L 240.388967 55.43357 
L 241.039577 55.403159 
L 241.690188 55.021295 
L 242.340798 59.253805 
L 242.991408 59.367988 
L 244.292629 59.409616 
L 244.943239 59.554903 
L 246.24446 59.527098 
L 247.54568 59.499318 
L 248.196291 59.522181 
L 248.846901 55.305258 
L 251.449342 55.234019 
L 252.750563 55.205142 
L 253.401173 55.213118 
L 256.003615 54.790792 
L 257.304835 54.80186 
L 257.955445 54.680117 
L 260.557887 54.864861 
L 261.208497 55.158795 
L 267.06399 55.012501 
L 267.7146 54.673569 
L 269.015821 54.728461 
L 269.666431 54.884889 
L 272.268872 54.922257 
L 272.919483 54.855732 
L 275.521924 55.185907 
L 276.172534 63.341098 
L 282.028027 62.990692 
L 282.678637 54.708394 
L 285.931689 54.759275 
L 287.232909 54.884539 
L 287.88352 54.793436 
L 288.53413 54.847627 
L 290.485961 54.708612 
L 293.739013 54.724062 
L 295.040233 54.708837 
L 297.642674 54.769161 
L 300.895726 54.777855 
L 302.847557 54.594871 
L 304.799388 54.609174 
L 305.449998 54.502736 
L 306.100608 54.591807 
L 308.70305 54.505473 
L 310.654881 54.64811 
L 311.305491 54.642437 
L 311.956101 54.905498 
L 312.606712 54.844118 
L 315.209153 54.974841 
L 317.811594 54.827111 
L 318.462204 54.616127 
L 323.016477 54.578311 
L 324.317697 54.59151 
L 331.474411 54.633458 
L 332.775631 54.670201 
L 334.076852 54.631018 
L 335.378073 54.635929 
L 362.703706 54.45356 
L 376.366522 54.388943 
L 377.667743 54.409937 
L 381.571405 54.4135 
L 382.872625 54.457443 
L 384.824456 54.46051 
L 386.125677 54.402157 
L 388.077508 54.396381 
L 389.378728 54.339852 
L 395.234221 54.424419 
L 398.487273 54.582745 
L 398.487273 54.582745 
" style="fill:none;stroke:#2ca02c;stroke-linecap:square;stroke-width:1.5;"/>
   </g>
   <g id="line2d_15">
    <path clip-path="url(#pfcc743c863)" d="M 73.832727 248.473194 
L 74.483338 280.908319 
L 75.133948 289.059835 
L 75.784558 283.45044 
L 76.435169 255.554827 
L 77.085779 239.836757 
L 77.736389 246.649615 
L 78.386999 233.265307 
L 79.03761 228.716019 
L 79.68822 233.47362 
L 80.33883 243.779066 
L 80.989441 233.287028 
L 81.640051 225.947115 
L 82.290661 215.799031 
L 82.941272 227.985616 
L 83.591882 243.447511 
L 84.242492 246.43422 
L 84.893103 265.405925 
L 85.543713 277.876363 
L 86.194323 281.3204 
L 86.844934 257.533351 
L 87.495544 272.359136 
L 88.146154 270.74383 
L 88.796764 271.318752 
L 89.447375 271.564419 
L 90.097985 270.041351 
L 90.748595 256.910946 
L 91.399206 239.432732 
L 92.049816 230.982436 
L 92.700426 226.830352 
L 93.351037 233.163991 
L 94.001647 211.479107 
L 95.953478 185.77004 
L 96.604088 164.871928 
L 97.254698 154.83892 
L 97.905309 160.032046 
L 98.555919 152.868832 
L 99.206529 139.827184 
L 100.50775 152.177186 
L 101.15836 167.751902 
L 101.808971 176.915222 
L 102.459581 174.12788 
L 103.760802 197.582547 
L 104.411412 189.302201 
L 105.062022 187.462389 
L 105.712633 196.276955 
L 106.363243 210.324552 
L 107.013853 201.024957 
L 107.664463 189.47951 
L 108.315074 193.441222 
L 108.965684 190.455881 
L 109.616294 188.418493 
L 110.266905 187.337477 
L 110.917515 191.02032 
L 111.568125 191.534277 
L 112.218736 190.385203 
L 112.869346 178.461296 
L 113.519956 197.335759 
L 114.170567 198.385503 
L 114.821177 194.174527 
L 115.471787 202.256151 
L 116.122398 190.828596 
L 116.773008 192.413131 
L 118.074228 201.889401 
L 118.724839 191.30042 
L 119.375449 172.995618 
L 120.026059 168.334178 
L 120.67667 179.312208 
L 121.32728 204.814146 
L 121.97789 193.039529 
L 122.628501 225.278056 
L 123.279111 223.565131 
L 123.929721 229.261813 
L 124.580332 245.49694 
L 125.881552 284.368513 
L 126.532163 295.488 
L 127.182773 274.935333 
L 127.833383 258.989678 
L 128.483993 272.60543 
L 129.134604 257.286348 
L 130.435824 232.83035 
L 131.086435 227.245164 
L 131.737045 223.183055 
L 132.387655 204.23872 
L 133.038266 177.973968 
L 133.688876 177.985773 
L 134.339486 160.652514 
L 134.990097 164.960845 
L 135.640707 161.665188 
L 136.291317 162.691501 
L 136.941927 156.561583 
L 137.592538 152.308704 
L 138.243148 133.439141 
L 138.893758 150.104467 
L 139.544369 150.96522 
L 140.845589 186.067598 
L 141.4962 195.033172 
L 142.14681 181.904236 
L 142.79742 199.65452 
L 143.448031 199.89307 
L 144.098641 201.472554 
L 144.749251 223.042929 
L 145.399862 226.785225 
L 146.050472 233.320074 
L 146.701082 214.663836 
L 147.351692 212.414023 
L 148.002303 184.357799 
L 148.652913 200.444333 
L 149.303523 211.80039 
L 149.954134 228.599632 
L 150.604744 227.740918 
L 151.255354 223.477092 
L 151.905965 225.287461 
L 152.556575 230.938381 
L 153.207185 244.33534 
L 153.857796 248.556725 
L 154.508406 250.247434 
L 155.159016 255.795839 
L 155.809627 240.850495 
L 156.460237 243.936278 
L 157.110847 238.455334 
L 157.761457 255.196256 
L 158.412068 256.129299 
L 159.062678 254.021088 
L 159.713288 250.955809 
L 160.363899 245.071971 
L 161.014509 244.584598 
L 161.665119 223.299061 
L 162.31573 229.095285 
L 162.96634 219.527471 
L 163.61695 223.669932 
L 164.918171 173.646252 
L 165.568781 177.411218 
L 166.219392 180.281806 
L 166.870002 182.330676 
L 168.171222 210.74539 
L 168.821833 204.0235 
L 170.123053 187.962431 
L 170.773664 197.116588 
L 171.424274 199.514858 
L 172.074884 181.973771 
L 172.725495 172.996007 
L 173.376105 155.856497 
L 174.026715 151.044938 
L 174.677326 140.53523 
L 175.978546 143.157246 
L 176.629156 149.791981 
L 177.279767 135.65914 
L 177.930377 146.117908 
L 178.580987 146.593108 
L 179.231598 142.099217 
L 179.882208 161.690199 
L 180.532818 154.631171 
L 181.183429 166.389681 
L 181.834039 163.966314 
L 182.484649 161.008249 
L 183.13526 163.649188 
L 183.78587 177.969121 
L 184.43648 164.931367 
L 185.737701 192.341482 
L 186.388311 182.668357 
L 187.038921 194.097313 
L 187.689532 188.378839 
L 188.340142 181.05822 
L 188.990752 191.263466 
L 189.641363 180.566297 
L 190.291973 164.39001 
L 190.942583 165.425179 
L 191.593194 158.051422 
L 192.243804 153.510457 
L 192.894414 150.160061 
L 193.545025 150.469202 
L 194.195635 165.222939 
L 194.846245 161.609954 
L 195.496856 156.559093 
L 196.147466 165.340931 
L 196.798076 178.996068 
L 197.448686 185.446476 
L 198.099297 186.141666 
L 198.749907 188.400503 
L 199.400517 201.940707 
L 200.701738 169.348007 
L 201.352348 174.785805 
L 202.002959 177.156713 
L 202.653569 168.057895 
L 203.304179 167.029898 
L 203.95479 177.969759 
L 204.6054 172.948064 
L 205.25601 175.349049 
L 205.906621 175.323884 
L 206.557231 189.285776 
L 207.207841 187.30555 
L 207.858451 199.178449 
L 208.509062 206.591314 
L 209.159672 210.740736 
L 209.810282 199.367359 
L 210.460893 181.685506 
L 211.111503 193.802147 
L 211.762113 192.992366 
L 212.412724 174.130835 
L 213.063334 163.698041 
L 213.713944 174.411229 
L 214.364555 167.160719 
L 215.015165 164.781898 
L 215.665775 153.682898 
L 216.316385 150.947269 
L 216.966996 166.713162 
L 217.617606 161.077147 
L 218.268216 147.896814 
L 218.918827 157.988024 
L 219.569437 170.508968 
L 220.220047 168.55788 
L 220.870658 160.252654 
L 221.521268 149.678144 
L 222.822489 185.153984 
L 223.473099 170.841094 
L 224.123709 177.889136 
L 224.77432 181.82314 
L 225.42493 169.909654 
L 226.07554 160.198601 
L 226.72615 146.173483 
L 227.376761 150.021555 
L 228.027371 150.552948 
L 228.677981 140.855042 
L 229.328592 140.537084 
L 229.979202 158.001007 
L 230.629812 158.76525 
L 231.280423 172.120743 
L 231.931033 178.394534 
L 232.581643 179.993435 
L 233.232254 178.641342 
L 233.882864 170.349444 
L 234.533474 192.587169 
L 235.184085 197.999136 
L 235.834695 198.966667 
L 236.485305 191.221126 
L 237.135915 179.526584 
L 237.786526 174.401002 
L 238.437136 179.363627 
L 239.087746 192.454074 
L 240.388967 195.301578 
L 241.039577 185.1015 
L 241.690188 186.459959 
L 242.340798 168.862413 
L 242.991408 171.187401 
L 243.642019 167.481975 
L 244.292629 168.665487 
L 244.943239 160.093117 
L 245.59385 141.225759 
L 246.24446 141.557711 
L 246.89507 154.489234 
L 247.54568 153.68262 
L 248.196291 150.31401 
L 248.846901 152.427051 
L 249.497511 155.68062 
L 250.148122 169.909341 
L 250.798732 169.607384 
L 251.449342 195.029421 
L 252.099953 210.247249 
L 252.750563 214.61993 
L 253.401173 209.368491 
L 254.051784 202.987818 
L 254.702394 189.34353 
L 255.353004 188.42625 
L 256.003615 186.218281 
L 256.654225 195.571091 
L 257.304835 200.282399 
L 257.955445 179.529829 
L 258.606056 162.592961 
L 259.256666 161.526256 
L 259.907276 151.806746 
L 260.557887 144.769925 
L 261.859107 182.753265 
L 263.160328 151.159442 
L 263.810938 134.495442 
L 264.461549 142.122564 
L 265.112159 141.306515 
L 265.762769 140.898254 
L 267.06399 185.149005 
L 267.7146 181.134373 
L 268.36521 164.565032 
L 269.015821 164.027461 
L 269.666431 171.626639 
L 270.317041 177.53295 
L 270.967652 172.736479 
L 272.268872 192.432684 
L 272.919483 169.480041 
L 273.570093 165.502975 
L 274.220703 149.533011 
L 275.521924 183.017494 
L 276.172534 184.469814 
L 276.823144 194.448494 
L 277.473755 184.278107 
L 278.124365 193.281951 
L 278.774975 179.092513 
L 279.425586 181.31618 
L 280.076196 163.725379 
L 280.726806 173.319759 
L 281.377417 161.741144 
L 282.028027 162.218432 
L 282.678637 146.987948 
L 283.329248 145.063269 
L 283.979858 145.850854 
L 284.630468 128.571968 
L 285.281079 147.101376 
L 285.931689 146.905011 
L 286.582299 147.237432 
L 287.232909 153.951262 
L 287.88352 145.447095 
L 288.53413 139.418314 
L 289.18474 146.108444 
L 289.835351 143.449193 
L 290.485961 157.419231 
L 291.136571 162.877206 
L 291.787182 158.930357 
L 292.437792 158.543712 
L 293.088402 174.159773 
L 293.739013 172.330029 
L 294.389623 188.5007 
L 295.040233 181.256046 
L 295.690844 181.667045 
L 296.341454 179.285277 
L 296.992064 179.287509 
L 297.642674 185.727687 
L 298.293285 183.950856 
L 298.943895 194.450388 
L 299.594505 190.467756 
L 300.245116 191.802065 
L 300.895726 177.062649 
L 301.546336 190.300218 
L 302.847557 171.913771 
L 304.148778 144.339358 
L 304.799388 131.017177 
L 305.449998 121.120983 
L 306.100608 123.209278 
L 306.751219 119.488499 
L 307.401829 128.031255 
L 308.052439 113.443319 
L 308.70305 131.23651 
L 309.35366 138.636833 
L 310.00427 137.849325 
L 310.654881 138.029348 
L 311.305491 148.55655 
L 311.956101 150.315834 
L 312.606712 139.967639 
L 313.257322 138.485699 
L 313.907932 130.696239 
L 314.558543 130.542864 
L 315.209153 123.997591 
L 315.859763 115.387298 
L 316.510373 115.830657 
L 317.160984 137.555268 
L 317.811594 139.972601 
L 319.112815 147.48738 
L 319.763425 136.126838 
L 320.414035 154.939436 
L 321.064646 169.639608 
L 321.715256 158.930124 
L 322.365866 159.658882 
L 323.016477 179.123627 
L 323.667087 157.008946 
L 324.317697 143.365558 
L 324.968308 146.519959 
L 325.618918 138.663171 
L 326.269528 139.521151 
L 326.920138 131.390557 
L 327.570749 116.097232 
L 328.221359 132.19302 
L 328.871969 134.795966 
L 329.52258 116.31035 
L 330.17319 126.513404 
L 330.8238 127.958079 
L 331.474411 118.731154 
L 332.775631 139.984619 
L 333.426242 145.832612 
L 334.076852 158.906259 
L 334.727462 143.84629 
L 335.378073 148.782164 
L 336.028683 162.377768 
L 336.679293 171.04315 
L 337.329903 174.566245 
L 337.980514 174.269031 
L 338.631124 171.464276 
L 339.281734 165.423209 
L 339.932345 154.587967 
L 340.582955 148.970869 
L 341.233565 162.658352 
L 341.884176 165.753377 
L 342.534786 152.093218 
L 343.185396 153.018566 
L 343.836007 148.656559 
L 345.137227 148.867343 
L 345.787837 159.155987 
L 347.089058 144.238948 
L 347.739668 141.177772 
L 348.390279 146.684671 
L 349.040889 153.795604 
L 349.691499 134.983575 
L 350.34211 142.517241 
L 350.99272 146.046584 
L 351.64333 137.948443 
L 352.293941 134.628293 
L 352.944551 137.803762 
L 353.595161 137.475248 
L 354.245772 142.649364 
L 354.896382 126.253573 
L 355.546992 119.251004 
L 356.197602 126.47728 
L 356.848213 129.566907 
L 357.498823 125.245604 
L 358.149433 136.304149 
L 358.800044 134.791984 
L 359.450654 137.137514 
L 360.101264 140.296263 
L 360.751875 124.062621 
L 361.402485 125.345349 
L 362.053095 140.339204 
L 362.703706 132.179631 
L 363.354316 137.507658 
L 364.004926 146.499023 
L 364.655537 146.483426 
L 365.956757 138.678806 
L 366.607367 135.845174 
L 367.257978 137.903613 
L 367.908588 135.560469 
L 368.559198 131.336863 
L 369.209809 131.664298 
L 369.860419 132.363316 
L 371.81225 143.778616 
L 372.46286 151.672414 
L 373.113471 151.42868 
L 373.764081 161.802494 
L 374.414691 162.301847 
L 375.065302 153.145068 
L 375.715912 162.720432 
L 376.366522 145.890877 
L 377.017132 140.092037 
L 377.667743 137.455967 
L 378.318353 143.812974 
L 378.968963 146.885122 
L 379.619574 157.032642 
L 380.270184 143.708955 
L 380.920794 160.739366 
L 382.222015 171.064346 
L 382.872625 186.621596 
L 383.523236 196.17105 
L 384.173846 193.93548 
L 384.824456 179.144837 
L 385.475066 188.850455 
L 386.125677 187.244428 
L 386.776287 188.785836 
L 388.077508 175.007146 
L 388.728118 161.162295 
L 389.378728 159.206836 
L 390.029339 157.980375 
L 390.679949 159.879005 
L 391.330559 172.427535 
L 391.98117 158.21704 
L 392.63178 150.493163 
L 393.28239 161.68396 
L 393.933001 168.113491 
L 394.583611 184.113782 
L 395.234221 196.520458 
L 395.884831 184.304998 
L 396.535442 178.625676 
L 397.186052 184.440903 
L 397.836662 184.493822 
L 398.487273 188.872264 
L 398.487273 188.872264 
" style="fill:none;stroke:#d62728;stroke-linecap:square;stroke-width:1.5;"/>
   </g>
   <g id="patch_3">
    <path d="M 57.6 307.584 
L 57.6 41.472 
" style="fill:none;stroke:#000000;stroke-linecap:square;stroke-linejoin:miter;stroke-width:0.8;"/>
   </g>
   <g id="patch_4">
    <path d="M 414.72 307.584 
L 414.72 41.472 
" style="fill:none;stroke:#000000;stroke-linecap:square;stroke-linejoin:miter;stroke-width:0.8;"/>
   </g>
   <g id="patch_5">
    <path d="M 57.6 307.584 
L 414.72 307.584 
" style="fill:none;stroke:#000000;stroke-linecap:square;stroke-linejoin:miter;stroke-width:0.8;"/>
   </g>
   <g id="patch_6">
    <path d="M 57.6 41.472 
L 414.72 41.472 
" style="fill:none;stroke:#000000;stroke-linecap:square;stroke-linejoin:miter;stroke-width:0.8;"/>
   </g>
   <g id="legend_1">
    <g id="patch_7">
     <path d="M 338.493438 302.584 
L 407.72 302.584 
Q 409.72 302.584 409.72 300.584 
L 409.72 242.8715 
Q 409.72 240.8715 407.72 240.8715 
L 338.493438 240.8715 
Q 336.493438 240.8715 336.493438 242.8715 
L 336.493438 300.584 
Q 336.493438 302.584 338.493438 302.584 
z
" style="fill:#ffffff;opacity:0.8;stroke:#cccccc;stroke-linejoin:miter;"/>
    </g>
    <g id="line2d_16">
     <path d="M 340.493438 248.969937 
L 360.493438 248.969937 
" style="fill:none;stroke:#1f77b4;stroke-linecap:square;stroke-width:1.5;"/>
    </g>
    <g id="line2d_17"/>
    <g id="text_14">
     <!-- 2 DOF -->
     <defs>
      <path d="M 19.671875 64.796875 
L 19.671875 8.109375 
L 31.59375 8.109375 
Q 46.6875 8.109375 53.6875 14.9375 
Q 60.6875 21.78125 60.6875 36.53125 
Q 60.6875 51.171875 53.6875 57.984375 
Q 46.6875 64.796875 31.59375 64.796875 
z
M 9.8125 72.90625 
L 30.078125 72.90625 
Q 51.265625 72.90625 61.171875 64.09375 
Q 71.09375 55.28125 71.09375 36.53125 
Q 71.09375 17.671875 61.125 8.828125 
Q 51.171875 0 30.078125 0 
L 9.8125 0 
z
" id="DejaVuSans-44"/>
      <path d="M 39.40625 66.21875 
Q 28.65625 66.21875 22.328125 58.203125 
Q 16.015625 50.203125 16.015625 36.375 
Q 16.015625 22.609375 22.328125 14.59375 
Q 28.65625 6.59375 39.40625 6.59375 
Q 50.140625 6.59375 56.421875 14.59375 
Q 62.703125 22.609375 62.703125 36.375 
Q 62.703125 50.203125 56.421875 58.203125 
Q 50.140625 66.21875 39.40625 66.21875 
z
M 39.40625 74.21875 
Q 54.734375 74.21875 63.90625 63.9375 
Q 73.09375 53.65625 73.09375 36.375 
Q 73.09375 19.140625 63.90625 8.859375 
Q 54.734375 -1.421875 39.40625 -1.421875 
Q 24.03125 -1.421875 14.8125 8.828125 
Q 5.609375 19.09375 5.609375 36.375 
Q 5.609375 53.65625 14.8125 63.9375 
Q 24.03125 74.21875 39.40625 74.21875 
z
" id="DejaVuSans-4f"/>
      <path d="M 9.8125 72.90625 
L 51.703125 72.90625 
L 51.703125 64.59375 
L 19.671875 64.59375 
L 19.671875 43.109375 
L 48.578125 43.109375 
L 48.578125 34.8125 
L 19.671875 34.8125 
L 19.671875 0 
L 9.8125 0 
z
" id="DejaVuSans-46"/>
     </defs>
     <g transform="translate(368.493438 252.469937)scale(0.1 -0.1)">
      <use xlink:href="#DejaVuSans-32"/>
      <use x="63.623047" xlink:href="#DejaVuSans-20"/>
      <use x="95.410156" xlink:href="#DejaVuSans-44"/>
      <use x="172.412109" xlink:href="#DejaVuSans-4f"/>
      <use x="251.123047" xlink:href="#DejaVuSans-46"/>
     </g>
    </g>
    <g id="line2d_18">
     <path d="M 340.493438 263.648062 
L 360.493438 263.648062 
" style="fill:none;stroke:#ff7f0e;stroke-linecap:square;stroke-width:1.5;"/>
    </g>
    <g id="line2d_19"/>
    <g id="text_15">
     <!-- 3 DOF -->
     <g transform="translate(368.493438 267.148062)scale(0.1 -0.1)">
      <use xlink:href="#DejaVuSans-33"/>
      <use x="63.623047" xlink:href="#DejaVuSans-20"/>
      <use x="95.410156" xlink:href="#DejaVuSans-44"/>
      <use x="172.412109" xlink:href="#DejaVuSans-4f"/>
      <use x="251.123047" xlink:href="#DejaVuSans-46"/>
     </g>
    </g>
    <g id="line2d_20">
     <path d="M 340.493438 278.326187 
L 360.493438 278.326187 
" style="fill:none;stroke:#2ca02c;stroke-linecap:square;stroke-width:1.5;"/>
    </g>
    <g id="line2d_21"/>
    <g id="text_16">
     <!-- 5 DOF -->
     <g transform="translate(368.493438 281.826187)scale(0.1 -0.1)">
      <use xlink:href="#DejaVuSans-35"/>
      <use x="63.623047" xlink:href="#DejaVuSans-20"/>
      <use x="95.410156" xlink:href="#DejaVuSans-44"/>
      <use x="172.412109" xlink:href="#DejaVuSans-4f"/>
      <use x="251.123047" xlink:href="#DejaVuSans-46"/>
     </g>
    </g>
    <g id="line2d_22">
     <path d="M 340.493438 293.004312 
L 360.493438 293.004312 
" style="fill:none;stroke:#d62728;stroke-linecap:square;stroke-width:1.5;"/>
    </g>
    <g id="line2d_23"/>
    <g id="text_17">
     <!-- 10 DOF -->
     <g transform="translate(368.493438 296.504312)scale(0.1 -0.1)">
      <use xlink:href="#DejaVuSans-31"/>
      <use x="63.623047" xlink:href="#DejaVuSans-30"/>
      <use x="127.246094" xlink:href="#DejaVuSans-20"/>
      <use x="159.033203" xlink:href="#DejaVuSans-44"/>
      <use x="236.035156" xlink:href="#DejaVuSans-4f"/>
      <use x="314.746094" xlink:href="#DejaVuSans-46"/>
     </g>
    </g>
   </g>
  </g>
 </g>
 <defs>
  <clipPath id="pfcc743c863">
   <rect height="266.112" width="357.12" x="57.6" y="41.472"/>
  </clipPath>
 </defs>
</svg>
