<?xml version="1.0" encoding="utf-8" standalone="no"?>
<!DOCTYPE svg PUBLIC "-//W3C//DTD SVG 1.1//EN"
  "http://www.w3.org/Graphics/SVG/1.1/DTD/svg11.dtd">
<!-- Created with matplotlib (http://matplotlib.org/) -->
<svg height="345pt" version="1.1" viewBox="0 0 460 345" width="460pt" xmlns="http://www.w3.org/2000/svg" xmlns:xlink="http://www.w3.org/1999/xlink">
 <defs>
  <style type="text/css">
*{stroke-linecap:butt;stroke-linejoin:round;}
  </style>
 </defs>
 <g id="figure_1">
  <g id="patch_1">
   <path d="M 0 345.6 
L 460.8 345.6 
L 460.8 0 
L 0 0 
z
" style="fill:#ffffff;"/>
  </g>
  <g id="axes_1">
   <g id="patch_2">
    <path d="M 57.6 307.584 
L 414.72 307.584 
L 414.72 41.472 
L 57.6 41.472 
z
" style="fill:#ffffff;"/>
   </g>
   <g id="matplotlib.axis_1">
    <g id="xtick_1">
     <g id="line2d_1">
      <defs>
       <path d="M 0 0 
L 0 3.5 
" id="m7dc23df80e" style="stroke:#000000;stroke-width:0.8;"/>
      </defs>
      <g>
       <use style="stroke:#000000;stroke-width:0.8;" x="73.832727" xlink:href="#m7dc23df80e" y="307.584"/>
      </g>
     </g>
     <g id="text_1">
      <!-- 0 -->
      <defs>
       <path d="M 31.78125 66.40625 
Q 24.171875 66.40625 20.328125 58.90625 
Q 16.5 51.421875 16.5 36.375 
Q 16.5 21.390625 20.328125 13.890625 
Q 24.171875 6.390625 31.78125 6.390625 
Q 39.453125 6.390625 43.28125 13.890625 
Q 47.125 21.390625 47.125 36.375 
Q 47.125 51.421875 43.28125 58.90625 
Q 39.453125 66.40625 31.78125 66.40625 
z
M 31.78125 74.21875 
Q 44.046875 74.21875 50.515625 64.515625 
Q 56.984375 54.828125 56.984375 36.375 
Q 56.984375 17.96875 50.515625 8.265625 
Q 44.046875 -1.421875 31.78125 -1.421875 
Q 19.53125 -1.421875 13.0625 8.265625 
Q 6.59375 17.96875 6.59375 36.375 
Q 6.59375 54.828125 13.0625 64.515625 
Q 19.53125 74.21875 31.78125 74.21875 
z
" id="DejaVuSans-30"/>
      </defs>
      <g transform="translate(70.651477 322.182437)scale(0.1 -0.1)">
       <use xlink:href="#DejaVuSans-30"/>
      </g>
     </g>
    </g>
    <g id="xtick_2">
     <g id="line2d_2">
      <g>
       <use style="stroke:#000000;stroke-width:0.8;" x="138.893758" xlink:href="#m7dc23df80e" y="307.584"/>
      </g>
     </g>
     <g id="text_2">
      <!-- 100 -->
      <defs>
       <path d="M 12.40625 8.296875 
L 28.515625 8.296875 
L 28.515625 63.921875 
L 10.984375 60.40625 
L 10.984375 69.390625 
L 28.421875 72.90625 
L 38.28125 72.90625 
L 38.28125 8.296875 
L 54.390625 8.296875 
L 54.390625 0 
L 12.40625 0 
z
" id="DejaVuSans-31"/>
      </defs>
      <g transform="translate(129.350008 322.182437)scale(0.1 -0.1)">
       <use xlink:href="#DejaVuSans-31"/>
       <use x="63.623047" xlink:href="#DejaVuSans-30"/>
       <use x="127.246094" xlink:href="#DejaVuSans-30"/>
      </g>
     </g>
    </g>
    <g id="xtick_3">
     <g id="line2d_3">
      <g>
       <use style="stroke:#000000;stroke-width:0.8;" x="203.95479" xlink:href="#m7dc23df80e" y="307.584"/>
      </g>
     </g>
     <g id="text_3">
      <!-- 200 -->
      <defs>
       <path d="M 19.1875 8.296875 
L 53.609375 8.296875 
L 53.609375 0 
L 7.328125 0 
L 7.328125 8.296875 
Q 12.9375 14.109375 22.625 23.890625 
Q 32.328125 33.6875 34.8125 36.53125 
Q 39.546875 41.84375 41.421875 45.53125 
Q 43.3125 49.21875 43.3125 52.78125 
Q 43.3125 58.59375 39.234375 62.25 
Q 35.15625 65.921875 28.609375 65.921875 
Q 23.96875 65.921875 18.8125 64.3125 
Q 13.671875 62.703125 7.8125 59.421875 
L 7.8125 69.390625 
Q 13.765625 71.78125 18.9375 73 
Q 24.125 74.21875 28.421875 74.21875 
Q 39.75 74.21875 46.484375 68.546875 
Q 53.21875 62.890625 53.21875 53.421875 
Q 53.21875 48.921875 51.53125 44.890625 
Q 49.859375 40.875 45.40625 35.40625 
Q 44.1875 33.984375 37.640625 27.21875 
Q 31.109375 20.453125 19.1875 8.296875 
z
" id="DejaVuSans-32"/>
      </defs>
      <g transform="translate(194.41104 322.182437)scale(0.1 -0.1)">
       <use xlink:href="#DejaVuSans-32"/>
       <use x="63.623047" xlink:href="#DejaVuSans-30"/>
       <use x="127.246094" xlink:href="#DejaVuSans-30"/>
      </g>
     </g>
    </g>
    <g id="xtick_4">
     <g id="line2d_4">
      <g>
       <use style="stroke:#000000;stroke-width:0.8;" x="269.015821" xlink:href="#m7dc23df80e" y="307.584"/>
      </g>
     </g>
     <g id="text_4">
      <!-- 300 -->
      <defs>
       <path d="M 40.578125 39.3125 
Q 47.65625 37.796875 51.625 33 
Q 55.609375 28.21875 55.609375 21.1875 
Q 55.609375 10.40625 48.1875 4.484375 
Q 40.765625 -1.421875 27.09375 -1.421875 
Q 22.515625 -1.421875 17.65625 -0.515625 
Q 12.796875 0.390625 7.625 2.203125 
L 7.625 11.71875 
Q 11.71875 9.328125 16.59375 8.109375 
Q 21.484375 6.890625 26.8125 6.890625 
Q 36.078125 6.890625 40.9375 10.546875 
Q 45.796875 14.203125 45.796875 21.1875 
Q 45.796875 27.640625 41.28125 31.265625 
Q 36.765625 34.90625 28.71875 34.90625 
L 20.21875 34.90625 
L 20.21875 43.015625 
L 29.109375 43.015625 
Q 36.375 43.015625 40.234375 45.921875 
Q 44.09375 48.828125 44.09375 54.296875 
Q 44.09375 59.90625 40.109375 62.90625 
Q 36.140625 65.921875 28.71875 65.921875 
Q 24.65625 65.921875 20.015625 65.03125 
Q 15.375 64.15625 9.8125 62.3125 
L 9.8125 71.09375 
Q 15.4375 72.65625 20.34375 73.4375 
Q 25.25 74.21875 29.59375 74.21875 
Q 40.828125 74.21875 47.359375 69.109375 
Q 53.90625 64.015625 53.90625 55.328125 
Q 53.90625 49.265625 50.4375 45.09375 
Q 46.96875 40.921875 40.578125 39.3125 
z
" id="DejaVuSans-33"/>
      </defs>
      <g transform="translate(259.472071 322.182437)scale(0.1 -0.1)">
       <use xlink:href="#DejaVuSans-33"/>
       <use x="63.623047" xlink:href="#DejaVuSans-30"/>
       <use x="127.246094" xlink:href="#DejaVuSans-30"/>
      </g>
     </g>
    </g>
    <g id="xtick_5">
     <g id="line2d_5">
      <g>
       <use style="stroke:#000000;stroke-width:0.8;" x="334.076852" xlink:href="#m7dc23df80e" y="307.584"/>
      </g>
     </g>
     <g id="text_5">
      <!-- 400 -->
      <defs>
       <path d="M 37.796875 64.3125 
L 12.890625 25.390625 
L 37.796875 25.390625 
z
M 35.203125 72.90625 
L 47.609375 72.90625 
L 47.609375 25.390625 
L 58.015625 25.390625 
L 58.015625 17.1875 
L 47.609375 17.1875 
L 47.609375 0 
L 37.796875 0 
L 37.796875 17.1875 
L 4.890625 17.1875 
L 4.890625 26.703125 
z
" id="DejaVuSans-34"/>
      </defs>
      <g transform="translate(324.533102 322.182437)scale(0.1 -0.1)">
       <use xlink:href="#DejaVuSans-34"/>
       <use x="63.623047" xlink:href="#DejaVuSans-30"/>
       <use x="127.246094" xlink:href="#DejaVuSans-30"/>
      </g>
     </g>
    </g>
    <g id="xtick_6">
     <g id="line2d_6">
      <g>
       <use style="stroke:#000000;stroke-width:0.8;" x="399.137883" xlink:href="#m7dc23df80e" y="307.584"/>
      </g>
     </g>
     <g id="text_6">
      <!-- 500 -->
      <defs>
       <path d="M 10.796875 72.90625 
L 49.515625 72.90625 
L 49.515625 64.59375 
L 19.828125 64.59375 
L 19.828125 46.734375 
Q 21.96875 47.46875 24.109375 47.828125 
Q 26.265625 48.1875 28.421875 48.1875 
Q 40.625 48.1875 47.75 41.5 
Q 54.890625 34.8125 54.890625 23.390625 
Q 54.890625 11.625 47.5625 5.09375 
Q 40.234375 -1.421875 26.90625 -1.421875 
Q 22.3125 -1.421875 17.546875 -0.640625 
Q 12.796875 0.140625 7.71875 1.703125 
L 7.71875 11.625 
Q 12.109375 9.234375 16.796875 8.0625 
Q 21.484375 6.890625 26.703125 6.890625 
Q 35.15625 6.890625 40.078125 11.328125 
Q 45.015625 15.765625 45.015625 23.390625 
Q 45.015625 31 40.078125 35.4375 
Q 35.15625 39.890625 26.703125 39.890625 
Q 22.75 39.890625 18.8125 39.015625 
Q 14.890625 38.140625 10.796875 36.28125 
z
" id="DejaVuSans-35"/>
      </defs>
      <g transform="translate(389.594133 322.182437)scale(0.1 -0.1)">
       <use xlink:href="#DejaVuSans-35"/>
       <use x="63.623047" xlink:href="#DejaVuSans-30"/>
       <use x="127.246094" xlink:href="#DejaVuSans-30"/>
      </g>
     </g>
    </g>
    <g id="text_7">
     <!-- episodes -->
     <defs>
      <path d="M 56.203125 29.59375 
L 56.203125 25.203125 
L 14.890625 25.203125 
Q 15.484375 15.921875 20.484375 11.0625 
Q 25.484375 6.203125 34.421875 6.203125 
Q 39.59375 6.203125 44.453125 7.46875 
Q 49.3125 8.734375 54.109375 11.28125 
L 54.109375 2.78125 
Q 49.265625 0.734375 44.1875 -0.34375 
Q 39.109375 -1.421875 33.890625 -1.421875 
Q 20.796875 -1.421875 13.15625 6.1875 
Q 5.515625 13.8125 5.515625 26.8125 
Q 5.515625 40.234375 12.765625 48.109375 
Q 20.015625 56 32.328125 56 
Q 43.359375 56 49.78125 48.890625 
Q 56.203125 41.796875 56.203125 29.59375 
z
M 47.21875 32.234375 
Q 47.125 39.59375 43.09375 43.984375 
Q 39.0625 48.390625 32.421875 48.390625 
Q 24.90625 48.390625 20.390625 44.140625 
Q 15.875 39.890625 15.1875 32.171875 
z
" id="DejaVuSans-65"/>
      <path d="M 18.109375 8.203125 
L 18.109375 -20.796875 
L 9.078125 -20.796875 
L 9.078125 54.6875 
L 18.109375 54.6875 
L 18.109375 46.390625 
Q 20.953125 51.265625 25.265625 53.625 
Q 29.59375 56 35.59375 56 
Q 45.5625 56 51.78125 48.09375 
Q 58.015625 40.1875 58.015625 27.296875 
Q 58.015625 14.40625 51.78125 6.484375 
Q 45.5625 -1.421875 35.59375 -1.421875 
Q 29.59375 -1.421875 25.265625 0.953125 
Q 20.953125 3.328125 18.109375 8.203125 
z
M 48.6875 27.296875 
Q 48.6875 37.203125 44.609375 42.84375 
Q 40.53125 48.484375 33.40625 48.484375 
Q 26.265625 48.484375 22.1875 42.84375 
Q 18.109375 37.203125 18.109375 27.296875 
Q 18.109375 17.390625 22.1875 11.75 
Q 26.265625 6.109375 33.40625 6.109375 
Q 40.53125 6.109375 44.609375 11.75 
Q 48.6875 17.390625 48.6875 27.296875 
z
" id="DejaVuSans-70"/>
      <path d="M 9.421875 54.6875 
L 18.40625 54.6875 
L 18.40625 0 
L 9.421875 0 
z
M 9.421875 75.984375 
L 18.40625 75.984375 
L 18.40625 64.59375 
L 9.421875 64.59375 
z
" id="DejaVuSans-69"/>
      <path d="M 44.28125 53.078125 
L 44.28125 44.578125 
Q 40.484375 46.53125 36.375 47.5 
Q 32.28125 48.484375 27.875 48.484375 
Q 21.1875 48.484375 17.84375 46.4375 
Q 14.5 44.390625 14.5 40.28125 
Q 14.5 37.15625 16.890625 35.375 
Q 19.28125 33.59375 26.515625 31.984375 
L 29.59375 31.296875 
Q 39.15625 29.25 43.1875 25.515625 
Q 47.21875 21.78125 47.21875 15.09375 
Q 47.21875 7.46875 41.1875 3.015625 
Q 35.15625 -1.421875 24.609375 -1.421875 
Q 20.21875 -1.421875 15.453125 -0.5625 
Q 10.6875 0.296875 5.421875 2 
L 5.421875 11.28125 
Q 10.40625 8.6875 15.234375 7.390625 
Q 20.0625 6.109375 24.8125 6.109375 
Q 31.15625 6.109375 34.5625 8.28125 
Q 37.984375 10.453125 37.984375 14.40625 
Q 37.984375 18.0625 35.515625 20.015625 
Q 33.0625 21.96875 24.703125 23.78125 
L 21.578125 24.515625 
Q 13.234375 26.265625 9.515625 29.90625 
Q 5.8125 33.546875 5.8125 39.890625 
Q 5.8125 47.609375 11.28125 51.796875 
Q 16.75 56 26.8125 56 
Q 31.78125 56 36.171875 55.265625 
Q 40.578125 54.546875 44.28125 53.078125 
z
" id="DejaVuSans-73"/>
      <path d="M 30.609375 48.390625 
Q 23.390625 48.390625 19.1875 42.75 
Q 14.984375 37.109375 14.984375 27.296875 
Q 14.984375 17.484375 19.15625 11.84375 
Q 23.34375 6.203125 30.609375 6.203125 
Q 37.796875 6.203125 41.984375 11.859375 
Q 46.1875 17.53125 46.1875 27.296875 
Q 46.1875 37.015625 41.984375 42.703125 
Q 37.796875 48.390625 30.609375 48.390625 
z
M 30.609375 56 
Q 42.328125 56 49.015625 48.375 
Q 55.71875 40.765625 55.71875 27.296875 
Q 55.71875 13.875 49.015625 6.21875 
Q 42.328125 -1.421875 30.609375 -1.421875 
Q 18.84375 -1.421875 12.171875 6.21875 
Q 5.515625 13.875 5.515625 27.296875 
Q 5.515625 40.765625 12.171875 48.375 
Q 18.84375 56 30.609375 56 
z
" id="DejaVuSans-6f"/>
      <path d="M 45.40625 46.390625 
L 45.40625 75.984375 
L 54.390625 75.984375 
L 54.390625 0 
L 45.40625 0 
L 45.40625 8.203125 
Q 42.578125 3.328125 38.25 0.953125 
Q 33.9375 -1.421875 27.875 -1.421875 
Q 17.96875 -1.421875 11.734375 6.484375 
Q 5.515625 14.40625 5.515625 27.296875 
Q 5.515625 40.1875 11.734375 48.09375 
Q 17.96875 56 27.875 56 
Q 33.9375 56 38.25 53.625 
Q 42.578125 51.265625 45.40625 46.390625 
z
M 14.796875 27.296875 
Q 14.796875 17.390625 18.875 11.75 
Q 22.953125 6.109375 30.078125 6.109375 
Q 37.203125 6.109375 41.296875 11.75 
Q 45.40625 17.390625 45.40625 27.296875 
Q 45.40625 37.203125 41.296875 42.84375 
Q 37.203125 48.484375 30.078125 48.484375 
Q 22.953125 48.484375 18.875 42.84375 
Q 14.796875 37.203125 14.796875 27.296875 
z
" id="DejaVuSans-64"/>
     </defs>
     <g transform="translate(214.000625 335.860562)scale(0.1 -0.1)">
      <use xlink:href="#DejaVuSans-65"/>
      <use x="61.523438" xlink:href="#DejaVuSans-70"/>
      <use x="125" xlink:href="#DejaVuSans-69"/>
      <use x="152.783203" xlink:href="#DejaVuSans-73"/>
      <use x="204.882812" xlink:href="#DejaVuSans-6f"/>
      <use x="266.064453" xlink:href="#DejaVuSans-64"/>
      <use x="329.541016" xlink:href="#DejaVuSans-65"/>
      <use x="391.064453" xlink:href="#DejaVuSans-73"/>
     </g>
    </g>
   </g>
   <g id="matplotlib.axis_2">
    <g id="ytick_1">
     <g id="line2d_7">
      <defs>
       <path d="M 0 0 
L -3.5 0 
" id="mac8d621d3c" style="stroke:#000000;stroke-width:0.8;"/>
      </defs>
      <g>
       <use style="stroke:#000000;stroke-width:0.8;" x="57.6" xlink:href="#mac8d621d3c" y="293.276612"/>
      </g>
     </g>
     <g id="text_8">
      <!-- −60 -->
      <defs>
       <path d="M 10.59375 35.5 
L 73.1875 35.5 
L 73.1875 27.203125 
L 10.59375 27.203125 
z
" id="DejaVuSans-2212"/>
       <path d="M 33.015625 40.375 
Q 26.375 40.375 22.484375 35.828125 
Q 18.609375 31.296875 18.609375 23.390625 
Q 18.609375 15.53125 22.484375 10.953125 
Q 26.375 6.390625 33.015625 6.390625 
Q 39.65625 6.390625 43.53125 10.953125 
Q 47.40625 15.53125 47.40625 23.390625 
Q 47.40625 31.296875 43.53125 35.828125 
Q 39.65625 40.375 33.015625 40.375 
z
M 52.59375 71.296875 
L 52.59375 62.3125 
Q 48.875 64.0625 45.09375 64.984375 
Q 41.3125 65.921875 37.59375 65.921875 
Q 27.828125 65.921875 22.671875 59.328125 
Q 17.53125 52.734375 16.796875 39.40625 
Q 19.671875 43.65625 24.015625 45.921875 
Q 28.375 48.1875 33.59375 48.1875 
Q 44.578125 48.1875 50.953125 41.515625 
Q 57.328125 34.859375 57.328125 23.390625 
Q 57.328125 12.15625 50.6875 5.359375 
Q 44.046875 -1.421875 33.015625 -1.421875 
Q 20.359375 -1.421875 13.671875 8.265625 
Q 6.984375 17.96875 6.984375 36.375 
Q 6.984375 53.65625 15.1875 63.9375 
Q 23.390625 74.21875 37.203125 74.21875 
Q 40.921875 74.21875 44.703125 73.484375 
Q 48.484375 72.75 52.59375 71.296875 
z
" id="DejaVuSans-36"/>
      </defs>
      <g transform="translate(29.495313 297.075831)scale(0.1 -0.1)">
       <use xlink:href="#DejaVuSans-2212"/>
       <use x="83.789062" xlink:href="#DejaVuSans-36"/>
       <use x="147.412109" xlink:href="#DejaVuSans-30"/>
      </g>
     </g>
    </g>
    <g id="ytick_2">
     <g id="line2d_8">
      <g>
       <use style="stroke:#000000;stroke-width:0.8;" x="57.6" xlink:href="#mac8d621d3c" y="252.80805"/>
      </g>
     </g>
     <g id="text_9">
      <!-- −50 -->
      <g transform="translate(29.495313 256.607269)scale(0.1 -0.1)">
       <use xlink:href="#DejaVuSans-2212"/>
       <use x="83.789062" xlink:href="#DejaVuSans-35"/>
       <use x="147.412109" xlink:href="#DejaVuSans-30"/>
      </g>
     </g>
    </g>
    <g id="ytick_3">
     <g id="line2d_9">
      <g>
       <use style="stroke:#000000;stroke-width:0.8;" x="57.6" xlink:href="#mac8d621d3c" y="212.339488"/>
      </g>
     </g>
     <g id="text_10">
      <!-- −40 -->
      <g transform="translate(29.495313 216.138707)scale(0.1 -0.1)">
       <use xlink:href="#DejaVuSans-2212"/>
       <use x="83.789062" xlink:href="#DejaVuSans-34"/>
       <use x="147.412109" xlink:href="#DejaVuSans-30"/>
      </g>
     </g>
    </g>
    <g id="ytick_4">
     <g id="line2d_10">
      <g>
       <use style="stroke:#000000;stroke-width:0.8;" x="57.6" xlink:href="#mac8d621d3c" y="171.870926"/>
      </g>
     </g>
     <g id="text_11">
      <!-- −30 -->
      <g transform="translate(29.495313 175.670145)scale(0.1 -0.1)">
       <use xlink:href="#DejaVuSans-2212"/>
       <use x="83.789062" xlink:href="#DejaVuSans-33"/>
       <use x="147.412109" xlink:href="#DejaVuSans-30"/>
      </g>
     </g>
    </g>
    <g id="ytick_5">
     <g id="line2d_11">
      <g>
       <use style="stroke:#000000;stroke-width:0.8;" x="57.6" xlink:href="#mac8d621d3c" y="131.402365"/>
      </g>
     </g>
     <g id="text_12">
      <!-- −20 -->
      <g transform="translate(29.495313 135.201583)scale(0.1 -0.1)">
       <use xlink:href="#DejaVuSans-2212"/>
       <use x="83.789062" xlink:href="#DejaVuSans-32"/>
       <use x="147.412109" xlink:href="#DejaVuSans-30"/>
      </g>
     </g>
    </g>
    <g id="ytick_6">
     <g id="line2d_12">
      <g>
       <use style="stroke:#000000;stroke-width:0.8;" x="57.6" xlink:href="#mac8d621d3c" y="90.933803"/>
      </g>
     </g>
     <g id="text_13">
      <!-- −10 -->
      <g transform="translate(29.495313 94.733022)scale(0.1 -0.1)">
       <use xlink:href="#DejaVuSans-2212"/>
       <use x="83.789062" xlink:href="#DejaVuSans-31"/>
       <use x="147.412109" xlink:href="#DejaVuSans-30"/>
      </g>
     </g>
    </g>
    <g id="ytick_7">
     <g id="line2d_13">
      <g>
       <use style="stroke:#000000;stroke-width:0.8;" x="57.6" xlink:href="#mac8d621d3c" y="50.465241"/>
      </g>
     </g>
     <g id="text_14">
      <!-- 0 -->
      <g transform="translate(44.2375 54.26446)scale(0.1 -0.1)">
       <use xlink:href="#DejaVuSans-30"/>
      </g>
     </g>
    </g>
    <g id="text_15">
     <!-- mean rewards -->
     <defs>
      <path d="M 52 44.1875 
Q 55.375 50.25 60.0625 53.125 
Q 64.75 56 71.09375 56 
Q 79.640625 56 84.28125 50.015625 
Q 88.921875 44.046875 88.921875 33.015625 
L 88.921875 0 
L 79.890625 0 
L 79.890625 32.71875 
Q 79.890625 40.578125 77.09375 44.375 
Q 74.3125 48.1875 68.609375 48.1875 
Q 61.625 48.1875 57.5625 43.546875 
Q 53.515625 38.921875 53.515625 30.90625 
L 53.515625 0 
L 44.484375 0 
L 44.484375 32.71875 
Q 44.484375 40.625 41.703125 44.40625 
Q 38.921875 48.1875 33.109375 48.1875 
Q 26.21875 48.1875 22.15625 43.53125 
Q 18.109375 38.875 18.109375 30.90625 
L 18.109375 0 
L 9.078125 0 
L 9.078125 54.6875 
L 18.109375 54.6875 
L 18.109375 46.1875 
Q 21.1875 51.21875 25.484375 53.609375 
Q 29.78125 56 35.6875 56 
Q 41.65625 56 45.828125 52.96875 
Q 50 49.953125 52 44.1875 
z
" id="DejaVuSans-6d"/>
      <path d="M 34.28125 27.484375 
Q 23.390625 27.484375 19.1875 25 
Q 14.984375 22.515625 14.984375 16.5 
Q 14.984375 11.71875 18.140625 8.90625 
Q 21.296875 6.109375 26.703125 6.109375 
Q 34.1875 6.109375 38.703125 11.40625 
Q 43.21875 16.703125 43.21875 25.484375 
L 43.21875 27.484375 
z
M 52.203125 31.203125 
L 52.203125 0 
L 43.21875 0 
L 43.21875 8.296875 
Q 40.140625 3.328125 35.546875 0.953125 
Q 30.953125 -1.421875 24.3125 -1.421875 
Q 15.921875 -1.421875 10.953125 3.296875 
Q 6 8.015625 6 15.921875 
Q 6 25.140625 12.171875 29.828125 
Q 18.359375 34.515625 30.609375 34.515625 
L 43.21875 34.515625 
L 43.21875 35.40625 
Q 43.21875 41.609375 39.140625 45 
Q 35.0625 48.390625 27.6875 48.390625 
Q 23 48.390625 18.546875 47.265625 
Q 14.109375 46.140625 10.015625 43.890625 
L 10.015625 52.203125 
Q 14.9375 54.109375 19.578125 55.046875 
Q 24.21875 56 28.609375 56 
Q 40.484375 56 46.34375 49.84375 
Q 52.203125 43.703125 52.203125 31.203125 
z
" id="DejaVuSans-61"/>
      <path d="M 54.890625 33.015625 
L 54.890625 0 
L 45.90625 0 
L 45.90625 32.71875 
Q 45.90625 40.484375 42.875 44.328125 
Q 39.84375 48.1875 33.796875 48.1875 
Q 26.515625 48.1875 22.3125 43.546875 
Q 18.109375 38.921875 18.109375 30.90625 
L 18.109375 0 
L 9.078125 0 
L 9.078125 54.6875 
L 18.109375 54.6875 
L 18.109375 46.1875 
Q 21.34375 51.125 25.703125 53.5625 
Q 30.078125 56 35.796875 56 
Q 45.21875 56 50.046875 50.171875 
Q 54.890625 44.34375 54.890625 33.015625 
z
" id="DejaVuSans-6e"/>
      <path id="DejaVuSans-20"/>
      <path d="M 41.109375 46.296875 
Q 39.59375 47.171875 37.8125 47.578125 
Q 36.03125 48 33.890625 48 
Q 26.265625 48 22.1875 43.046875 
Q 18.109375 38.09375 18.109375 28.8125 
L 18.109375 0 
L 9.078125 0 
L 9.078125 54.6875 
L 18.109375 54.6875 
L 18.109375 46.1875 
Q 20.953125 51.171875 25.484375 53.578125 
Q 30.03125 56 36.53125 56 
Q 37.453125 56 38.578125 55.875 
Q 39.703125 55.765625 41.0625 55.515625 
z
" id="DejaVuSans-72"/>
      <path d="M 4.203125 54.6875 
L 13.1875 54.6875 
L 24.421875 12.015625 
L 35.59375 54.6875 
L 46.1875 54.6875 
L 57.421875 12.015625 
L 68.609375 54.6875 
L 77.59375 54.6875 
L 63.28125 0 
L 52.6875 0 
L 40.921875 44.828125 
L 29.109375 0 
L 18.5 0 
z
" id="DejaVuSans-77"/>
     </defs>
     <g transform="translate(23.415625 210.413938)rotate(-90)scale(0.1 -0.1)">
      <use xlink:href="#DejaVuSans-6d"/>
      <use x="97.412109" xlink:href="#DejaVuSans-65"/>
      <use x="158.935547" xlink:href="#DejaVuSans-61"/>
      <use x="220.214844" xlink:href="#DejaVuSans-6e"/>
      <use x="283.59375" xlink:href="#DejaVuSans-20"/>
      <use x="315.380859" xlink:href="#DejaVuSans-72"/>
      <use x="356.462891" xlink:href="#DejaVuSans-65"/>
      <use x="417.986328" xlink:href="#DejaVuSans-77"/>
      <use x="499.773438" xlink:href="#DejaVuSans-61"/>
      <use x="561.052734" xlink:href="#DejaVuSans-72"/>
      <use x="602.150391" xlink:href="#DejaVuSans-64"/>
      <use x="665.626953" xlink:href="#DejaVuSans-73"/>
     </g>
    </g>
   </g>
   <g id="line2d_14">
    <path clip-path="url(#p73158b19d4)" d="M 73.832727 194.897917 
L 74.483338 194.397673 
L 75.133948 189.012554 
L 75.784558 189.093702 
L 76.435169 185.472663 
L 77.085779 170.760764 
L 77.736389 177.36345 
L 78.386999 176.760434 
L 79.03761 165.715394 
L 79.68822 171.815432 
L 80.33883 168.912871 
L 80.989441 159.955491 
L 81.640051 159.962311 
L 82.941272 147.369635 
L 83.591882 148.050508 
L 84.242492 133.062899 
L 84.893103 128.077 
L 85.543713 136.350915 
L 86.194323 123.768571 
L 86.844934 131.053286 
L 87.495544 129.726413 
L 88.146154 121.637989 
L 88.796764 120.067721 
L 90.097985 111.685049 
L 90.748595 114.5213 
L 91.399206 116.298528 
L 92.049816 114.282161 
L 92.700426 114.831317 
L 93.351037 97.896849 
L 94.001647 94.756545 
L 94.652257 95.309671 
L 95.302868 96.116508 
L 95.953478 95.513803 
L 96.604088 95.392776 
L 97.905309 90.627948 
L 98.555919 82.693676 
L 99.206529 79.007111 
L 99.85714 77.772619 
L 100.50775 77.481206 
L 101.15836 79.463753 
L 101.808971 74.69245 
L 102.459581 82.1251 
L 103.760802 81.181825 
L 104.411412 81.139315 
L 105.062022 85.740513 
L 105.712633 84.486338 
L 106.363243 94.41107 
L 107.013853 95.049791 
L 107.664463 88.903688 
L 108.315074 87.888066 
L 108.965684 80.637686 
L 109.616294 80.722585 
L 110.266905 79.954517 
L 110.917515 74.508093 
L 111.568125 83.223019 
L 112.869346 84.74814 
L 113.519956 84.426481 
L 114.170567 83.843698 
L 114.821177 83.850667 
L 115.471787 83.442026 
L 116.122398 86.807339 
L 117.423618 86.451461 
L 118.074228 80.394538 
L 118.724839 79.856201 
L 119.375449 70.578939 
L 121.32728 70.483668 
L 121.97789 71.39775 
L 122.628501 81.910437 
L 123.279111 82.220072 
L 123.929721 82.102861 
L 124.580332 74.588833 
L 125.230942 74.686714 
L 125.881552 73.455141 
L 126.532163 73.743948 
L 127.182773 73.744145 
L 127.833383 80.184752 
L 128.483993 98.344971 
L 129.134604 83.940409 
L 129.785214 83.7691 
L 130.435824 83.260135 
L 131.086435 83.418154 
L 131.737045 83.721568 
L 133.038266 82.958608 
L 133.688876 83.336729 
L 134.339486 77.531391 
L 134.990097 58.420463 
L 135.640707 58.47091 
L 136.291317 58.637579 
L 137.592538 58.679155 
L 138.243148 58.500822 
L 138.893758 59.030282 
L 139.544369 65.897732 
L 140.194979 66.352504 
L 140.845589 76.853763 
L 141.4962 82.795328 
L 142.14681 82.934957 
L 142.79742 82.646517 
L 143.448031 82.841794 
L 144.098641 83.235811 
L 144.749251 82.982895 
L 145.399862 82.89776 
L 146.050472 75.747213 
L 146.701082 80.265796 
L 147.351692 69.072073 
L 148.002303 63.53625 
L 148.652913 64.245502 
L 149.303523 65.356617 
L 149.954134 65.449606 
L 150.604744 64.922568 
L 151.255354 64.923432 
L 151.905965 64.670164 
L 152.556575 72.346795 
L 153.207185 67.377534 
L 154.508406 67.010861 
L 155.159016 66.422521 
L 155.809627 65.546684 
L 156.460237 65.486246 
L 157.110847 65.72801 
L 157.761457 65.30211 
L 158.412068 65.488288 
L 159.062678 57.779321 
L 159.713288 57.564515 
L 160.363899 57.729124 
L 161.014509 57.35757 
L 161.665119 57.177405 
L 162.31573 57.773918 
L 162.96634 57.587114 
L 163.61695 57.045973 
L 164.267561 57.432015 
L 164.918171 57.269313 
L 165.568781 57.33307 
L 166.219392 57.088312 
L 166.870002 66.011967 
L 168.171222 66.313132 
L 168.821833 65.512128 
L 169.472443 65.675857 
L 170.123053 66.216458 
L 171.424274 66.063257 
L 172.725495 66.080557 
L 173.376105 56.928118 
L 174.026715 56.921743 
L 174.677326 63.285855 
L 175.327936 63.242559 
L 175.978546 62.891935 
L 176.629156 62.328039 
L 177.279767 69.157167 
L 177.930377 69.264977 
L 179.231598 69.082681 
L 180.532818 69.436875 
L 181.183429 63.110203 
L 183.13526 63.094668 
L 183.78587 56.341745 
L 184.43648 55.990967 
L 185.737701 56.460365 
L 186.388311 56.278189 
L 187.689532 55.690509 
L 188.340142 55.558953 
L 189.641363 55.796329 
L 190.291973 55.717927 
L 191.593194 56.311245 
L 192.243804 56.195346 
L 193.545025 56.655204 
L 194.195635 56.545901 
L 194.846245 64.354201 
L 195.496856 64.177236 
L 197.448686 64.305079 
L 198.099297 63.851722 
L 199.400517 63.469568 
L 200.051128 68.038682 
L 200.701738 67.955043 
L 201.352348 60.247279 
L 202.653569 60.109495 
L 203.95479 59.646406 
L 205.906621 59.747628 
L 206.557231 55.193561 
L 207.207841 55.282252 
L 207.858451 55.069962 
L 208.509062 55.203824 
L 209.810282 55.163159 
L 210.460893 56.804618 
L 211.762113 56.6651 
L 212.412724 56.834188 
L 213.063334 56.593827 
L 214.364555 56.974693 
L 215.015165 56.768741 
L 215.665775 56.841643 
L 216.316385 56.755652 
L 216.966996 55.06578 
L 218.268216 55.057753 
L 218.918827 54.837731 
L 219.569437 54.995602 
L 220.870658 54.668346 
L 222.822489 54.913787 
L 223.473099 54.95466 
L 224.123709 54.837947 
L 224.77432 73.421119 
L 225.42493 73.524316 
L 226.07554 73.294218 
L 226.72615 73.196891 
L 228.677981 73.412949 
L 229.328592 73.538417 
L 229.979202 73.436242 
L 230.629812 93.538758 
L 231.280423 75.140635 
L 233.232254 75.397357 
L 233.882864 81.371439 
L 234.533474 81.385364 
L 235.184085 81.61322 
L 235.834695 81.475951 
L 236.485305 81.608422 
L 237.135915 61.425903 
L 237.786526 61.398204 
L 238.437136 61.131529 
L 239.738357 61.15017 
L 240.388967 55.206937 
L 241.039577 55.162944 
L 241.690188 54.610531 
L 242.340798 60.733374 
L 242.991408 60.898554 
L 244.292629 60.958773 
L 244.943239 61.168949 
L 245.59385 61.211001 
L 246.89507 61.050527 
L 248.196291 61.121613 
L 248.846901 55.021318 
L 250.148122 55.047915 
L 252.099953 54.853031 
L 253.401173 54.888026 
L 254.051784 54.733276 
L 255.353004 54.569812 
L 256.003615 54.277081 
L 257.304835 54.293092 
L 257.955445 54.116975 
L 259.907276 54.209094 
L 260.557887 54.38423 
L 261.208497 54.809441 
L 266.413379 54.724985 
L 267.06399 54.597809 
L 267.7146 54.107503 
L 269.015821 54.18691 
L 269.666431 54.413202 
L 272.268872 54.46726 
L 272.919483 54.371024 
L 275.521924 54.848662 
L 276.172534 66.646142 
L 280.076196 66.293323 
L 282.028027 66.139237 
L 282.678637 54.157882 
L 283.979858 54.23456 
L 287.232909 54.412696 
L 287.88352 54.280906 
L 288.53413 54.359299 
L 290.485961 54.158197 
L 293.088402 54.281056 
L 294.389623 54.12775 
L 298.943895 54.301373 
L 299.594505 54.198087 
L 300.895726 54.258366 
L 302.196947 54.096594 
L 302.847557 53.993656 
L 304.799388 54.014347 
L 305.449998 53.860372 
L 306.100608 53.989224 
L 308.70305 53.864332 
L 310.00427 54.031151 
L 311.305491 54.062467 
L 311.956101 54.443017 
L 312.606712 54.354223 
L 315.209153 54.543329 
L 317.811594 54.32962 
L 318.462204 54.024406 
L 323.016477 53.969701 
L 324.317697 53.988794 
L 326.920138 54.013081 
L 328.871969 54.122681 
L 330.8238 53.980467 
L 332.775631 54.102631 
L 334.076852 54.045948 
L 334.727462 54.113453 
L 336.679293 54.016698 
L 337.980514 53.98929 
L 339.281734 53.954213 
L 340.582955 53.945665 
L 341.233565 53.852416 
L 343.836007 53.873795 
L 345.787837 53.821113 
L 347.089058 53.80413 
L 348.390279 53.800466 
L 349.691499 53.871852 
L 352.944551 53.742798 
L 354.245772 53.839473 
L 355.546992 53.767016 
L 357.498823 53.81562 
L 358.800044 53.802765 
L 360.101264 53.733436 
L 360.751875 53.808214 
L 361.402485 53.742083 
L 363.354316 53.790948 
L 380.270184 53.736721 
L 382.222015 53.825225 
L 386.125677 53.714872 
L 387.426897 53.674437 
L 388.077508 53.706516 
L 388.728118 53.599041 
L 390.679949 53.573412 
L 393.933001 53.615693 
L 397.186052 53.920351 
L 397.836662 53.875887 
L 398.487273 53.976115 
L 398.487273 53.976115 
" style="fill:none;stroke:#1f77b4;stroke-linecap:square;stroke-width:1.5;"/>
   </g>
   <g id="line2d_15">
    <path clip-path="url(#p73158b19d4)" d="M 73.832727 295.488 
L 74.483338 230.367572 
L 75.133948 213.834697 
L 75.784558 184.603828 
L 76.435169 185.189656 
L 77.085779 189.61886 
L 77.736389 195.48389 
L 78.386999 185.675637 
L 79.03761 183.027632 
L 79.68822 190.603194 
L 80.33883 174.403041 
L 80.989441 166.07145 
L 81.640051 160.785845 
L 82.290661 159.294715 
L 83.591882 143.337595 
L 84.242492 127.711634 
L 84.893103 124.448907 
L 85.543713 126.635672 
L 86.194323 126.220459 
L 86.844934 144.68582 
L 87.495544 156.14346 
L 88.146154 160.011285 
L 88.796764 169.103154 
L 89.447375 173.346656 
L 90.097985 176.344146 
L 90.748595 178.449801 
L 91.399206 183.726035 
L 92.049816 195.74558 
L 93.351037 156.108095 
L 94.001647 145.200242 
L 94.652257 141.080713 
L 95.302868 157.102368 
L 95.953478 149.469483 
L 96.604088 160.080412 
L 97.254698 157.565363 
L 97.905309 160.639383 
L 98.555919 152.954817 
L 99.206529 175.175728 
L 99.85714 174.050324 
L 100.50775 180.684997 
L 101.15836 176.085182 
L 101.808971 167.357647 
L 102.459581 191.379733 
L 103.110191 173.041946 
L 103.760802 179.6863 
L 104.411412 185.026983 
L 105.712633 155.392221 
L 106.363243 152.634942 
L 107.664463 189.734281 
L 108.315074 173.041308 
L 108.965684 149.34385 
L 109.616294 167.476413 
L 110.266905 161.529653 
L 110.917515 147.159123 
L 111.568125 153.989663 
L 112.218736 148.005357 
L 112.869346 146.642188 
L 113.519956 119.577454 
L 114.170567 106.293837 
L 114.821177 109.930766 
L 115.471787 109.145336 
L 116.122398 89.297986 
L 117.423618 99.642419 
L 118.074228 93.740415 
L 118.724839 116.407783 
L 119.375449 122.530088 
L 120.026059 122.653158 
L 120.67667 116.659061 
L 121.32728 112.277839 
L 121.97789 113.082997 
L 122.628501 113.499486 
L 123.279111 133.24323 
L 123.929721 132.089833 
L 124.580332 143.248149 
L 125.230942 120.328815 
L 125.881552 121.285727 
L 126.532163 121.818127 
L 127.182773 120.667865 
L 127.833383 122.380755 
L 128.483993 121.242608 
L 129.134604 137.97564 
L 129.785214 111.903557 
L 130.435824 107.75466 
L 131.086435 96.497424 
L 131.737045 95.734151 
L 132.387655 89.370804 
L 133.038266 111.519613 
L 133.688876 121.749271 
L 134.339486 120.097052 
L 134.990097 120.121286 
L 135.640707 110.369037 
L 136.291317 110.972255 
L 136.941927 124.348975 
L 137.592538 122.410195 
L 138.243148 121.811637 
L 138.893758 122.375622 
L 139.544369 100.39643 
L 140.194979 104.537328 
L 140.845589 111.7061 
L 141.4962 113.810703 
L 142.14681 112.197636 
L 142.79742 117.025918 
L 143.448031 107.91516 
L 144.098641 109.119798 
L 144.749251 109.675336 
L 145.399862 108.571496 
L 146.050472 107.23529 
L 146.701082 92.688595 
L 147.351692 85.578532 
L 148.002303 96.05342 
L 148.652913 90.438613 
L 149.303523 90.164463 
L 149.954134 92.274988 
L 150.604744 91.148947 
L 151.255354 102.640086 
L 151.905965 104.136691 
L 152.556575 104.098138 
L 153.207185 112.285162 
L 153.857796 113.077248 
L 154.508406 109.646994 
L 155.159016 122.479368 
L 155.809627 126.586861 
L 156.460237 119.195168 
L 157.110847 120.673491 
L 157.761457 108.126319 
L 158.412068 107.798605 
L 159.062678 115.939022 
L 159.713288 117.352598 
L 160.363899 116.284852 
L 161.014509 106.671451 
L 161.665119 93.674831 
L 162.31573 83.865215 
L 162.96634 84.343304 
L 163.61695 83.427208 
L 164.267561 97.886741 
L 164.918171 96.420573 
L 165.568781 100.939278 
L 166.219392 91.530607 
L 166.870002 107.14086 
L 168.171222 106.97722 
L 168.821833 120.126617 
L 170.123053 118.98666 
L 170.773664 104.994222 
L 171.424274 105.001673 
L 172.074884 105.739684 
L 172.725495 115.128856 
L 173.376105 99.580575 
L 174.026715 100.249018 
L 174.677326 105.012205 
L 175.327936 91.580453 
L 175.978546 90.927884 
L 176.629156 98.319843 
L 177.279767 123.805598 
L 177.930377 123.75446 
L 178.580987 111.564058 
L 179.231598 106.644623 
L 179.882208 114.260041 
L 180.532818 117.955319 
L 181.183429 113.271564 
L 182.484649 123.685661 
L 183.13526 116.480676 
L 183.78587 95.725517 
L 184.43648 106.426092 
L 185.087091 106.362202 
L 185.737701 101.880276 
L 186.388311 94.269426 
L 187.038921 96.181978 
L 187.689532 100.606714 
L 188.340142 102.625217 
L 188.990752 99.169118 
L 189.641363 104.033214 
L 190.291973 99.19886 
L 190.942583 88.691021 
L 191.593194 92.796876 
L 192.243804 92.529511 
L 192.894414 99.601836 
L 193.545025 93.170398 
L 194.846245 83.377532 
L 195.496856 90.720377 
L 196.147466 85.543763 
L 196.798076 85.357205 
L 197.448686 85.948983 
L 198.099297 82.050917 
L 198.749907 82.212983 
L 199.400517 78.898924 
L 200.051128 79.15052 
L 200.701738 78.557313 
L 201.352348 76.083063 
L 202.002959 72.62006 
L 202.653569 79.43929 
L 203.304179 94.131712 
L 203.95479 104.733443 
L 204.6054 110.830799 
L 205.25601 120.229249 
L 205.906621 122.6914 
L 206.557231 122.319412 
L 207.207841 132.900767 
L 207.858451 133.421028 
L 208.509062 137.955219 
L 209.159672 131.809354 
L 209.810282 116.463656 
L 210.460893 106.004244 
L 211.111503 98.143911 
L 211.762113 96.09717 
L 212.412724 89.056167 
L 213.063334 94.008926 
L 213.713944 84.19512 
L 214.364555 83.547027 
L 215.015165 73.815205 
L 215.665775 72.835036 
L 216.316385 72.863648 
L 216.966996 72.564564 
L 217.617606 73.491101 
L 218.268216 66.006755 
L 218.918827 70.978818 
L 219.569437 70.246748 
L 220.220047 70.029877 
L 220.870658 69.967234 
L 221.521268 70.532806 
L 222.171878 78.068888 
L 222.822489 78.308616 
L 224.123709 77.634119 
L 224.77432 77.656761 
L 225.42493 72.591981 
L 226.07554 68.412619 
L 226.72615 67.954071 
L 227.376761 73.44934 
L 228.027371 73.791658 
L 228.677981 66.210415 
L 229.328592 74.669436 
L 229.979202 74.800303 
L 230.629812 74.191324 
L 231.280423 74.39127 
L 231.931033 80.9098 
L 232.581643 80.778715 
L 233.232254 80.875509 
L 233.882864 75.443114 
L 234.533474 74.656421 
L 235.184085 84.908954 
L 235.834695 76.669713 
L 236.485305 86.775644 
L 237.135915 100.206118 
L 237.786526 109.523061 
L 238.437136 102.769264 
L 239.087746 102.771017 
L 240.388967 102.965059 
L 241.039577 106.602651 
L 241.690188 97.276614 
L 242.340798 97.297149 
L 242.991408 86.683163 
L 243.642019 81.962582 
L 244.292629 79.109278 
L 244.943239 83.387272 
L 245.59385 83.513589 
L 246.24446 96.890309 
L 246.89507 103.661137 
L 247.54568 100.290845 
L 248.196291 107.071391 
L 248.846901 106.888902 
L 249.497511 106.967234 
L 250.148122 98.868415 
L 250.798732 92.578321 
L 251.449342 88.515242 
L 252.099953 89.699511 
L 252.750563 80.278773 
L 253.401173 73.336817 
L 254.051784 73.0728 
L 254.702394 65.434939 
L 255.353004 65.903249 
L 256.003615 66.116992 
L 256.654225 65.896598 
L 257.304835 65.185902 
L 257.955445 65.183447 
L 258.606056 64.053172 
L 259.256666 60.412964 
L 259.907276 69.62939 
L 260.557887 70.095272 
L 261.208497 76.184032 
L 261.859107 90.71097 
L 262.509718 90.538107 
L 263.160328 90.225041 
L 263.810938 102.471433 
L 264.461549 102.83941 
L 265.762769 102.673915 
L 266.413379 93.234028 
L 267.06399 106.176165 
L 267.7146 100.919888 
L 268.36521 86.877724 
L 269.015821 94.873667 
L 269.666431 94.690995 
L 270.317041 82.535927 
L 270.967652 81.725369 
L 271.618262 81.663187 
L 272.268872 81.430868 
L 272.919483 81.582088 
L 273.570093 68.187781 
L 274.220703 67.387391 
L 274.871314 66.386316 
L 275.521924 58.269744 
L 276.172534 58.542014 
L 276.823144 70.460728 
L 278.124365 70.732859 
L 281.377417 69.89721 
L 282.028027 79.422742 
L 282.678637 91.901602 
L 283.329248 79.969318 
L 283.979858 89.723007 
L 284.630468 89.542134 
L 285.281079 89.800739 
L 285.931689 102.127662 
L 286.582299 102.086792 
L 287.232909 102.283747 
L 287.88352 102.767297 
L 288.53413 103.911969 
L 289.18474 91.414193 
L 289.835351 91.257017 
L 290.485961 81.683498 
L 291.136571 81.794495 
L 291.787182 81.669526 
L 292.437792 69.603233 
L 293.088402 69.763963 
L 293.739013 80.178503 
L 294.389623 80.105445 
L 295.040233 69.25624 
L 295.690844 80.32316 
L 296.341454 87.707189 
L 297.642674 87.233394 
L 298.293285 87.203776 
L 298.943895 98.393329 
L 299.594505 105.75129 
L 300.245116 106.921753 
L 300.895726 116.956899 
L 301.546336 117.256838 
L 302.196947 106.309969 
L 302.847557 98.988054 
L 303.498167 99.085108 
L 304.148778 99.060699 
L 304.799388 99.983333 
L 305.449998 89.069564 
L 306.100608 81.752 
L 306.751219 78.120756 
L 307.401829 73.185865 
L 308.052439 73.319535 
L 309.35366 73.990525 
L 310.00427 85.887175 
L 310.654881 90.8061 
L 311.305491 90.24804 
L 311.956101 89.964147 
L 312.606712 89.943509 
L 313.257322 81.882619 
L 313.907932 76.364211 
L 314.558543 76.782015 
L 315.209153 76.644004 
L 315.859763 88.626702 
L 316.510373 76.821214 
L 317.160984 78.573971 
L 317.811594 78.21955 
L 319.112815 78.141218 
L 319.763425 86.660473 
L 320.414035 86.746781 
L 321.715256 86.178624 
L 322.365866 73.839924 
L 323.016477 73.894354 
L 323.667087 67.282169 
L 324.317697 67.808137 
L 324.968308 68.062108 
L 325.618918 68.052158 
L 326.269528 59.382332 
L 326.920138 59.272022 
L 327.570749 58.834476 
L 328.221359 67.218492 
L 328.871969 67.209267 
L 329.52258 67.028099 
L 330.17319 73.5007 
L 330.8238 73.058295 
L 331.474411 73.131704 
L 332.125021 82.45344 
L 334.076852 82.327442 
L 334.727462 74.0225 
L 335.378073 74.370397 
L 336.028683 84.42214 
L 336.679293 87.971246 
L 337.329903 87.862134 
L 337.980514 93.168868 
L 338.631124 94.033765 
L 339.281734 93.990345 
L 340.582955 121.040944 
L 341.884176 120.830427 
L 343.185396 100.856033 
L 343.836007 100.95769 
L 344.486617 95.183771 
L 345.137227 96.705584 
L 345.787837 96.738968 
L 347.089058 69.731937 
L 347.739668 69.780578 
L 348.390279 81.486356 
L 349.040889 81.448153 
L 349.691499 93.68026 
L 350.34211 93.616167 
L 350.99272 94.052493 
L 351.64333 82.198107 
L 352.293941 82.512964 
L 353.595161 82.64202 
L 354.245772 82.717485 
L 354.896382 70.981632 
L 355.546992 71.249421 
L 356.197602 59.070096 
L 356.848213 59.220083 
L 357.498823 59.061832 
L 358.149433 59.352539 
L 358.800044 59.155129 
L 360.101264 59.785365 
L 360.751875 59.763366 
L 362.053095 59.374164 
L 364.004926 58.771131 
L 364.655537 58.81349 
L 365.306147 58.699431 
L 366.607367 57.934058 
L 367.257978 63.313788 
L 367.908588 63.618942 
L 368.559198 63.391788 
L 369.209809 63.440902 
L 369.860419 74.750325 
L 370.511029 75.298987 
L 371.16164 75.14043 
L 371.81225 75.295622 
L 373.113471 75.214882 
L 373.764081 69.782621 
L 374.414691 69.52602 
L 375.065302 69.708308 
L 375.715912 69.73041 
L 376.366522 68.913916 
L 377.017132 68.414987 
L 377.667743 80.399263 
L 378.318353 89.739296 
L 378.968963 90.031546 
L 380.920794 90.363166 
L 381.571405 90.701671 
L 382.222015 90.517876 
L 382.872625 79.902465 
L 383.523236 80.317346 
L 384.173846 68.166683 
L 384.824456 59.004716 
L 385.475066 58.659523 
L 386.125677 58.673789 
L 386.776287 64.981198 
L 387.426897 64.686778 
L 388.728118 91.416269 
L 389.378728 91.638571 
L 390.029339 91.138863 
L 390.679949 91.461806 
L 391.330559 106.62137 
L 392.63178 106.47419 
L 393.28239 99.799279 
L 393.933001 111.987356 
L 395.234221 85.208275 
L 395.884831 85.023563 
L 396.535442 85.075684 
L 397.186052 84.747881 
L 397.836662 69.460542 
L 398.487273 69.486768 
L 398.487273 69.486768 
" style="fill:none;stroke:#ff7f0e;stroke-linecap:square;stroke-width:1.5;"/>
   </g>
   <g id="patch_3">
    <path d="M 57.6 307.584 
L 57.6 41.472 
" style="fill:none;stroke:#000000;stroke-linecap:square;stroke-linejoin:miter;stroke-width:0.8;"/>
   </g>
   <g id="patch_4">
    <path d="M 414.72 307.584 
L 414.72 41.472 
" style="fill:none;stroke:#000000;stroke-linecap:square;stroke-linejoin:miter;stroke-width:0.8;"/>
   </g>
   <g id="patch_5">
    <path d="M 57.6 307.584 
L 414.72 307.584 
" style="fill:none;stroke:#000000;stroke-linecap:square;stroke-linejoin:miter;stroke-width:0.8;"/>
   </g>
   <g id="patch_6">
    <path d="M 57.6 41.472 
L 414.72 41.472 
" style="fill:none;stroke:#000000;stroke-linecap:square;stroke-linejoin:miter;stroke-width:0.8;"/>
   </g>
   <g id="legend_1">
    <g id="patch_7">
     <path d="M 332.584063 302.584 
L 407.72 302.584 
Q 409.72 302.584 409.72 300.584 
L 409.72 272.22775 
Q 409.72 270.22775 407.72 270.22775 
L 332.584063 270.22775 
Q 330.584063 270.22775 330.584063 272.22775 
L 330.584063 300.584 
Q 330.584063 302.584 332.584063 302.584 
z
" style="fill:#ffffff;opacity:0.8;stroke:#cccccc;stroke-linejoin:miter;"/>
    </g>
    <g id="line2d_16">
     <path d="M 334.584063 278.326187 
L 354.584063 278.326187 
" style="fill:none;stroke:#1f77b4;stroke-linecap:square;stroke-width:1.5;"/>
    </g>
    <g id="line2d_17"/>
    <g id="text_16">
     <!-- r&lt;=0.02 -->
     <defs>
      <path d="M 73.1875 49.21875 
L 22.796875 31.296875 
L 73.1875 13.484375 
L 73.1875 4.59375 
L 10.59375 27.296875 
L 10.59375 35.40625 
L 73.1875 58.109375 
z
" id="DejaVuSans-3c"/>
      <path d="M 10.59375 45.40625 
L 73.1875 45.40625 
L 73.1875 37.203125 
L 10.59375 37.203125 
z
M 10.59375 25.484375 
L 73.1875 25.484375 
L 73.1875 17.1875 
L 10.59375 17.1875 
z
" id="DejaVuSans-3d"/>
      <path d="M 10.6875 12.40625 
L 21 12.40625 
L 21 0 
L 10.6875 0 
z
" id="DejaVuSans-2e"/>
     </defs>
     <g transform="translate(362.584063 281.826187)scale(0.1 -0.1)">
      <use xlink:href="#DejaVuSans-72"/>
      <use x="41.113281" xlink:href="#DejaVuSans-3c"/>
      <use x="124.902344" xlink:href="#DejaVuSans-3d"/>
      <use x="208.691406" xlink:href="#DejaVuSans-30"/>
      <use x="272.314453" xlink:href="#DejaVuSans-2e"/>
      <use x="304.101562" xlink:href="#DejaVuSans-30"/>
      <use x="367.724609" xlink:href="#DejaVuSans-32"/>
     </g>
    </g>
    <g id="line2d_18">
     <path d="M 334.584063 293.004312 
L 354.584063 293.004312 
" style="fill:none;stroke:#ff7f0e;stroke-linecap:square;stroke-width:1.5;"/>
    </g>
    <g id="line2d_19"/>
    <g id="text_17">
     <!-- r&lt;=0.01 -->
     <g transform="translate(362.584063 296.504312)scale(0.1 -0.1)">
      <use xlink:href="#DejaVuSans-72"/>
      <use x="41.113281" xlink:href="#DejaVuSans-3c"/>
      <use x="124.902344" xlink:href="#DejaVuSans-3d"/>
      <use x="208.691406" xlink:href="#DejaVuSans-30"/>
      <use x="272.314453" xlink:href="#DejaVuSans-2e"/>
      <use x="304.101562" xlink:href="#DejaVuSans-30"/>
      <use x="367.724609" xlink:href="#DejaVuSans-31"/>
     </g>
    </g>
   </g>
  </g>
 </g>
 <defs>
  <clipPath id="p73158b19d4">
   <rect height="266.112" width="357.12" x="57.6" y="41.472"/>
  </clipPath>
 </defs>
</svg>
