<?xml version="1.0" encoding="utf-8" standalone="no"?>
<!DOCTYPE svg PUBLIC "-//W3C//DTD SVG 1.1//EN"
  "http://www.w3.org/Graphics/SVG/1.1/DTD/svg11.dtd">
<!-- Created with matplotlib (http://matplotlib.org/) -->
<svg height="345pt" version="1.1" viewBox="0 0 460 345" width="460pt" xmlns="http://www.w3.org/2000/svg" xmlns:xlink="http://www.w3.org/1999/xlink">
 <defs>
  <style type="text/css">
*{stroke-linecap:butt;stroke-linejoin:round;}
  </style>
 </defs>
 <g id="figure_1">
  <g id="patch_1">
   <path d="M 0 345.6 
L 460.8 345.6 
L 460.8 0 
L 0 0 
z
" style="fill:#ffffff;"/>
  </g>
  <g id="axes_1">
   <g id="patch_2">
    <path d="M 57.6 307.584 
L 414.72 307.584 
L 414.72 41.472 
L 57.6 41.472 
z
" style="fill:#ffffff;"/>
   </g>
   <g id="matplotlib.axis_1">
    <g id="xtick_1">
     <g id="line2d_1">
      <defs>
       <path d="M 0 0 
L 0 3.5 
" id="m0e5966f1ec" style="stroke:#000000;stroke-width:0.8;"/>
      </defs>
      <g>
       <use style="stroke:#000000;stroke-width:0.8;" x="73.832727" xlink:href="#m0e5966f1ec" y="307.584"/>
      </g>
     </g>
     <g id="text_1">
      <!-- 0 -->
      <defs>
       <path d="M 31.78125 66.40625 
Q 24.171875 66.40625 20.328125 58.90625 
Q 16.5 51.421875 16.5 36.375 
Q 16.5 21.390625 20.328125 13.890625 
Q 24.171875 6.390625 31.78125 6.390625 
Q 39.453125 6.390625 43.28125 13.890625 
Q 47.125 21.390625 47.125 36.375 
Q 47.125 51.421875 43.28125 58.90625 
Q 39.453125 66.40625 31.78125 66.40625 
z
M 31.78125 74.21875 
Q 44.046875 74.21875 50.515625 64.515625 
Q 56.984375 54.828125 56.984375 36.375 
Q 56.984375 17.96875 50.515625 8.265625 
Q 44.046875 -1.421875 31.78125 -1.421875 
Q 19.53125 -1.421875 13.0625 8.265625 
Q 6.59375 17.96875 6.59375 36.375 
Q 6.59375 54.828125 13.0625 64.515625 
Q 19.53125 74.21875 31.78125 74.21875 
z
" id="DejaVuSans-30"/>
      </defs>
      <g transform="translate(70.651477 322.182437)scale(0.1 -0.1)">
       <use xlink:href="#DejaVuSans-30"/>
      </g>
     </g>
    </g>
    <g id="xtick_2">
     <g id="line2d_2">
      <g>
       <use style="stroke:#000000;stroke-width:0.8;" x="138.893758" xlink:href="#m0e5966f1ec" y="307.584"/>
      </g>
     </g>
     <g id="text_2">
      <!-- 100 -->
      <defs>
       <path d="M 12.40625 8.296875 
L 28.515625 8.296875 
L 28.515625 63.921875 
L 10.984375 60.40625 
L 10.984375 69.390625 
L 28.421875 72.90625 
L 38.28125 72.90625 
L 38.28125 8.296875 
L 54.390625 8.296875 
L 54.390625 0 
L 12.40625 0 
z
" id="DejaVuSans-31"/>
      </defs>
      <g transform="translate(129.350008 322.182437)scale(0.1 -0.1)">
       <use xlink:href="#DejaVuSans-31"/>
       <use x="63.623047" xlink:href="#DejaVuSans-30"/>
       <use x="127.246094" xlink:href="#DejaVuSans-30"/>
      </g>
     </g>
    </g>
    <g id="xtick_3">
     <g id="line2d_3">
      <g>
       <use style="stroke:#000000;stroke-width:0.8;" x="203.95479" xlink:href="#m0e5966f1ec" y="307.584"/>
      </g>
     </g>
     <g id="text_3">
      <!-- 200 -->
      <defs>
       <path d="M 19.1875 8.296875 
L 53.609375 8.296875 
L 53.609375 0 
L 7.328125 0 
L 7.328125 8.296875 
Q 12.9375 14.109375 22.625 23.890625 
Q 32.328125 33.6875 34.8125 36.53125 
Q 39.546875 41.84375 41.421875 45.53125 
Q 43.3125 49.21875 43.3125 52.78125 
Q 43.3125 58.59375 39.234375 62.25 
Q 35.15625 65.921875 28.609375 65.921875 
Q 23.96875 65.921875 18.8125 64.3125 
Q 13.671875 62.703125 7.8125 59.421875 
L 7.8125 69.390625 
Q 13.765625 71.78125 18.9375 73 
Q 24.125 74.21875 28.421875 74.21875 
Q 39.75 74.21875 46.484375 68.546875 
Q 53.21875 62.890625 53.21875 53.421875 
Q 53.21875 48.921875 51.53125 44.890625 
Q 49.859375 40.875 45.40625 35.40625 
Q 44.1875 33.984375 37.640625 27.21875 
Q 31.109375 20.453125 19.1875 8.296875 
z
" id="DejaVuSans-32"/>
      </defs>
      <g transform="translate(194.41104 322.182437)scale(0.1 -0.1)">
       <use xlink:href="#DejaVuSans-32"/>
       <use x="63.623047" xlink:href="#DejaVuSans-30"/>
       <use x="127.246094" xlink:href="#DejaVuSans-30"/>
      </g>
     </g>
    </g>
    <g id="xtick_4">
     <g id="line2d_4">
      <g>
       <use style="stroke:#000000;stroke-width:0.8;" x="269.015821" xlink:href="#m0e5966f1ec" y="307.584"/>
      </g>
     </g>
     <g id="text_4">
      <!-- 300 -->
      <defs>
       <path d="M 40.578125 39.3125 
Q 47.65625 37.796875 51.625 33 
Q 55.609375 28.21875 55.609375 21.1875 
Q 55.609375 10.40625 48.1875 4.484375 
Q 40.765625 -1.421875 27.09375 -1.421875 
Q 22.515625 -1.421875 17.65625 -0.515625 
Q 12.796875 0.390625 7.625 2.203125 
L 7.625 11.71875 
Q 11.71875 9.328125 16.59375 8.109375 
Q 21.484375 6.890625 26.8125 6.890625 
Q 36.078125 6.890625 40.9375 10.546875 
Q 45.796875 14.203125 45.796875 21.1875 
Q 45.796875 27.640625 41.28125 31.265625 
Q 36.765625 34.90625 28.71875 34.90625 
L 20.21875 34.90625 
L 20.21875 43.015625 
L 29.109375 43.015625 
Q 36.375 43.015625 40.234375 45.921875 
Q 44.09375 48.828125 44.09375 54.296875 
Q 44.09375 59.90625 40.109375 62.90625 
Q 36.140625 65.921875 28.71875 65.921875 
Q 24.65625 65.921875 20.015625 65.03125 
Q 15.375 64.15625 9.8125 62.3125 
L 9.8125 71.09375 
Q 15.4375 72.65625 20.34375 73.4375 
Q 25.25 74.21875 29.59375 74.21875 
Q 40.828125 74.21875 47.359375 69.109375 
Q 53.90625 64.015625 53.90625 55.328125 
Q 53.90625 49.265625 50.4375 45.09375 
Q 46.96875 40.921875 40.578125 39.3125 
z
" id="DejaVuSans-33"/>
      </defs>
      <g transform="translate(259.472071 322.182437)scale(0.1 -0.1)">
       <use xlink:href="#DejaVuSans-33"/>
       <use x="63.623047" xlink:href="#DejaVuSans-30"/>
       <use x="127.246094" xlink:href="#DejaVuSans-30"/>
      </g>
     </g>
    </g>
    <g id="xtick_5">
     <g id="line2d_5">
      <g>
       <use style="stroke:#000000;stroke-width:0.8;" x="334.076852" xlink:href="#m0e5966f1ec" y="307.584"/>
      </g>
     </g>
     <g id="text_5">
      <!-- 400 -->
      <defs>
       <path d="M 37.796875 64.3125 
L 12.890625 25.390625 
L 37.796875 25.390625 
z
M 35.203125 72.90625 
L 47.609375 72.90625 
L 47.609375 25.390625 
L 58.015625 25.390625 
L 58.015625 17.1875 
L 47.609375 17.1875 
L 47.609375 0 
L 37.796875 0 
L 37.796875 17.1875 
L 4.890625 17.1875 
L 4.890625 26.703125 
z
" id="DejaVuSans-34"/>
      </defs>
      <g transform="translate(324.533102 322.182437)scale(0.1 -0.1)">
       <use xlink:href="#DejaVuSans-34"/>
       <use x="63.623047" xlink:href="#DejaVuSans-30"/>
       <use x="127.246094" xlink:href="#DejaVuSans-30"/>
      </g>
     </g>
    </g>
    <g id="xtick_6">
     <g id="line2d_6">
      <g>
       <use style="stroke:#000000;stroke-width:0.8;" x="399.137883" xlink:href="#m0e5966f1ec" y="307.584"/>
      </g>
     </g>
     <g id="text_6">
      <!-- 500 -->
      <defs>
       <path d="M 10.796875 72.90625 
L 49.515625 72.90625 
L 49.515625 64.59375 
L 19.828125 64.59375 
L 19.828125 46.734375 
Q 21.96875 47.46875 24.109375 47.828125 
Q 26.265625 48.1875 28.421875 48.1875 
Q 40.625 48.1875 47.75 41.5 
Q 54.890625 34.8125 54.890625 23.390625 
Q 54.890625 11.625 47.5625 5.09375 
Q 40.234375 -1.421875 26.90625 -1.421875 
Q 22.3125 -1.421875 17.546875 -0.640625 
Q 12.796875 0.140625 7.71875 1.703125 
L 7.71875 11.625 
Q 12.109375 9.234375 16.796875 8.0625 
Q 21.484375 6.890625 26.703125 6.890625 
Q 35.15625 6.890625 40.078125 11.328125 
Q 45.015625 15.765625 45.015625 23.390625 
Q 45.015625 31 40.078125 35.4375 
Q 35.15625 39.890625 26.703125 39.890625 
Q 22.75 39.890625 18.8125 39.015625 
Q 14.890625 38.140625 10.796875 36.28125 
z
" id="DejaVuSans-35"/>
      </defs>
      <g transform="translate(389.594133 322.182437)scale(0.1 -0.1)">
       <use xlink:href="#DejaVuSans-35"/>
       <use x="63.623047" xlink:href="#DejaVuSans-30"/>
       <use x="127.246094" xlink:href="#DejaVuSans-30"/>
      </g>
     </g>
    </g>
    <g id="text_7">
     <!-- episodes -->
     <defs>
      <path d="M 56.203125 29.59375 
L 56.203125 25.203125 
L 14.890625 25.203125 
Q 15.484375 15.921875 20.484375 11.0625 
Q 25.484375 6.203125 34.421875 6.203125 
Q 39.59375 6.203125 44.453125 7.46875 
Q 49.3125 8.734375 54.109375 11.28125 
L 54.109375 2.78125 
Q 49.265625 0.734375 44.1875 -0.34375 
Q 39.109375 -1.421875 33.890625 -1.421875 
Q 20.796875 -1.421875 13.15625 6.1875 
Q 5.515625 13.8125 5.515625 26.8125 
Q 5.515625 40.234375 12.765625 48.109375 
Q 20.015625 56 32.328125 56 
Q 43.359375 56 49.78125 48.890625 
Q 56.203125 41.796875 56.203125 29.59375 
z
M 47.21875 32.234375 
Q 47.125 39.59375 43.09375 43.984375 
Q 39.0625 48.390625 32.421875 48.390625 
Q 24.90625 48.390625 20.390625 44.140625 
Q 15.875 39.890625 15.1875 32.171875 
z
" id="DejaVuSans-65"/>
      <path d="M 18.109375 8.203125 
L 18.109375 -20.796875 
L 9.078125 -20.796875 
L 9.078125 54.6875 
L 18.109375 54.6875 
L 18.109375 46.390625 
Q 20.953125 51.265625 25.265625 53.625 
Q 29.59375 56 35.59375 56 
Q 45.5625 56 51.78125 48.09375 
Q 58.015625 40.1875 58.015625 27.296875 
Q 58.015625 14.40625 51.78125 6.484375 
Q 45.5625 -1.421875 35.59375 -1.421875 
Q 29.59375 -1.421875 25.265625 0.953125 
Q 20.953125 3.328125 18.109375 8.203125 
z
M 48.6875 27.296875 
Q 48.6875 37.203125 44.609375 42.84375 
Q 40.53125 48.484375 33.40625 48.484375 
Q 26.265625 48.484375 22.1875 42.84375 
Q 18.109375 37.203125 18.109375 27.296875 
Q 18.109375 17.390625 22.1875 11.75 
Q 26.265625 6.109375 33.40625 6.109375 
Q 40.53125 6.109375 44.609375 11.75 
Q 48.6875 17.390625 48.6875 27.296875 
z
" id="DejaVuSans-70"/>
      <path d="M 9.421875 54.6875 
L 18.40625 54.6875 
L 18.40625 0 
L 9.421875 0 
z
M 9.421875 75.984375 
L 18.40625 75.984375 
L 18.40625 64.59375 
L 9.421875 64.59375 
z
" id="DejaVuSans-69"/>
      <path d="M 44.28125 53.078125 
L 44.28125 44.578125 
Q 40.484375 46.53125 36.375 47.5 
Q 32.28125 48.484375 27.875 48.484375 
Q 21.1875 48.484375 17.84375 46.4375 
Q 14.5 44.390625 14.5 40.28125 
Q 14.5 37.15625 16.890625 35.375 
Q 19.28125 33.59375 26.515625 31.984375 
L 29.59375 31.296875 
Q 39.15625 29.25 43.1875 25.515625 
Q 47.21875 21.78125 47.21875 15.09375 
Q 47.21875 7.46875 41.1875 3.015625 
Q 35.15625 -1.421875 24.609375 -1.421875 
Q 20.21875 -1.421875 15.453125 -0.5625 
Q 10.6875 0.296875 5.421875 2 
L 5.421875 11.28125 
Q 10.40625 8.6875 15.234375 7.390625 
Q 20.0625 6.109375 24.8125 6.109375 
Q 31.15625 6.109375 34.5625 8.28125 
Q 37.984375 10.453125 37.984375 14.40625 
Q 37.984375 18.0625 35.515625 20.015625 
Q 33.0625 21.96875 24.703125 23.78125 
L 21.578125 24.515625 
Q 13.234375 26.265625 9.515625 29.90625 
Q 5.8125 33.546875 5.8125 39.890625 
Q 5.8125 47.609375 11.28125 51.796875 
Q 16.75 56 26.8125 56 
Q 31.78125 56 36.171875 55.265625 
Q 40.578125 54.546875 44.28125 53.078125 
z
" id="DejaVuSans-73"/>
      <path d="M 30.609375 48.390625 
Q 23.390625 48.390625 19.1875 42.75 
Q 14.984375 37.109375 14.984375 27.296875 
Q 14.984375 17.484375 19.15625 11.84375 
Q 23.34375 6.203125 30.609375 6.203125 
Q 37.796875 6.203125 41.984375 11.859375 
Q 46.1875 17.53125 46.1875 27.296875 
Q 46.1875 37.015625 41.984375 42.703125 
Q 37.796875 48.390625 30.609375 48.390625 
z
M 30.609375 56 
Q 42.328125 56 49.015625 48.375 
Q 55.71875 40.765625 55.71875 27.296875 
Q 55.71875 13.875 49.015625 6.21875 
Q 42.328125 -1.421875 30.609375 -1.421875 
Q 18.84375 -1.421875 12.171875 6.21875 
Q 5.515625 13.875 5.515625 27.296875 
Q 5.515625 40.765625 12.171875 48.375 
Q 18.84375 56 30.609375 56 
z
" id="DejaVuSans-6f"/>
      <path d="M 45.40625 46.390625 
L 45.40625 75.984375 
L 54.390625 75.984375 
L 54.390625 0 
L 45.40625 0 
L 45.40625 8.203125 
Q 42.578125 3.328125 38.25 0.953125 
Q 33.9375 -1.421875 27.875 -1.421875 
Q 17.96875 -1.421875 11.734375 6.484375 
Q 5.515625 14.40625 5.515625 27.296875 
Q 5.515625 40.1875 11.734375 48.09375 
Q 17.96875 56 27.875 56 
Q 33.9375 56 38.25 53.625 
Q 42.578125 51.265625 45.40625 46.390625 
z
M 14.796875 27.296875 
Q 14.796875 17.390625 18.875 11.75 
Q 22.953125 6.109375 30.078125 6.109375 
Q 37.203125 6.109375 41.296875 11.75 
Q 45.40625 17.390625 45.40625 27.296875 
Q 45.40625 37.203125 41.296875 42.84375 
Q 37.203125 48.484375 30.078125 48.484375 
Q 22.953125 48.484375 18.875 42.84375 
Q 14.796875 37.203125 14.796875 27.296875 
z
" id="DejaVuSans-64"/>
     </defs>
     <g transform="translate(214.000625 335.860562)scale(0.1 -0.1)">
      <use xlink:href="#DejaVuSans-65"/>
      <use x="61.523438" xlink:href="#DejaVuSans-70"/>
      <use x="125" xlink:href="#DejaVuSans-69"/>
      <use x="152.783203" xlink:href="#DejaVuSans-73"/>
      <use x="204.882812" xlink:href="#DejaVuSans-6f"/>
      <use x="266.064453" xlink:href="#DejaVuSans-64"/>
      <use x="329.541016" xlink:href="#DejaVuSans-65"/>
      <use x="391.064453" xlink:href="#DejaVuSans-73"/>
     </g>
    </g>
   </g>
   <g id="matplotlib.axis_2">
    <g id="ytick_1">
     <g id="line2d_7">
      <defs>
       <path d="M 0 0 
L -3.5 0 
" id="m5f812ac9e2" style="stroke:#000000;stroke-width:0.8;"/>
      </defs>
      <g>
       <use style="stroke:#000000;stroke-width:0.8;" x="57.6" xlink:href="#m5f812ac9e2" y="303.361207"/>
      </g>
     </g>
     <g id="text_8">
      <!-- −12 -->
      <defs>
       <path d="M 10.59375 35.5 
L 73.1875 35.5 
L 73.1875 27.203125 
L 10.59375 27.203125 
z
" id="DejaVuSans-2212"/>
      </defs>
      <g transform="translate(29.495313 307.160426)scale(0.1 -0.1)">
       <use xlink:href="#DejaVuSans-2212"/>
       <use x="83.789062" xlink:href="#DejaVuSans-31"/>
       <use x="147.412109" xlink:href="#DejaVuSans-32"/>
      </g>
     </g>
    </g>
    <g id="ytick_2">
     <g id="line2d_8">
      <g>
       <use style="stroke:#000000;stroke-width:0.8;" x="57.6" xlink:href="#m5f812ac9e2" y="259.900706"/>
      </g>
     </g>
     <g id="text_9">
      <!-- −10 -->
      <g transform="translate(29.495313 263.699925)scale(0.1 -0.1)">
       <use xlink:href="#DejaVuSans-2212"/>
       <use x="83.789062" xlink:href="#DejaVuSans-31"/>
       <use x="147.412109" xlink:href="#DejaVuSans-30"/>
      </g>
     </g>
    </g>
    <g id="ytick_3">
     <g id="line2d_9">
      <g>
       <use style="stroke:#000000;stroke-width:0.8;" x="57.6" xlink:href="#m5f812ac9e2" y="216.440206"/>
      </g>
     </g>
     <g id="text_10">
      <!-- −8 -->
      <defs>
       <path d="M 31.78125 34.625 
Q 24.75 34.625 20.71875 30.859375 
Q 16.703125 27.09375 16.703125 20.515625 
Q 16.703125 13.921875 20.71875 10.15625 
Q 24.75 6.390625 31.78125 6.390625 
Q 38.8125 6.390625 42.859375 10.171875 
Q 46.921875 13.96875 46.921875 20.515625 
Q 46.921875 27.09375 42.890625 30.859375 
Q 38.875 34.625 31.78125 34.625 
z
M 21.921875 38.8125 
Q 15.578125 40.375 12.03125 44.71875 
Q 8.5 49.078125 8.5 55.328125 
Q 8.5 64.0625 14.71875 69.140625 
Q 20.953125 74.21875 31.78125 74.21875 
Q 42.671875 74.21875 48.875 69.140625 
Q 55.078125 64.0625 55.078125 55.328125 
Q 55.078125 49.078125 51.53125 44.71875 
Q 48 40.375 41.703125 38.8125 
Q 48.828125 37.15625 52.796875 32.3125 
Q 56.78125 27.484375 56.78125 20.515625 
Q 56.78125 9.90625 50.3125 4.234375 
Q 43.84375 -1.421875 31.78125 -1.421875 
Q 19.734375 -1.421875 13.25 4.234375 
Q 6.78125 9.90625 6.78125 20.515625 
Q 6.78125 27.484375 10.78125 32.3125 
Q 14.796875 37.15625 21.921875 38.8125 
z
M 18.3125 54.390625 
Q 18.3125 48.734375 21.84375 45.5625 
Q 25.390625 42.390625 31.78125 42.390625 
Q 38.140625 42.390625 41.71875 45.5625 
Q 45.3125 48.734375 45.3125 54.390625 
Q 45.3125 60.0625 41.71875 63.234375 
Q 38.140625 66.40625 31.78125 66.40625 
Q 25.390625 66.40625 21.84375 63.234375 
Q 18.3125 60.0625 18.3125 54.390625 
z
" id="DejaVuSans-38"/>
      </defs>
      <g transform="translate(35.857813 220.239425)scale(0.1 -0.1)">
       <use xlink:href="#DejaVuSans-2212"/>
       <use x="83.789062" xlink:href="#DejaVuSans-38"/>
      </g>
     </g>
    </g>
    <g id="ytick_4">
     <g id="line2d_10">
      <g>
       <use style="stroke:#000000;stroke-width:0.8;" x="57.6" xlink:href="#m5f812ac9e2" y="172.979705"/>
      </g>
     </g>
     <g id="text_11">
      <!-- −6 -->
      <defs>
       <path d="M 33.015625 40.375 
Q 26.375 40.375 22.484375 35.828125 
Q 18.609375 31.296875 18.609375 23.390625 
Q 18.609375 15.53125 22.484375 10.953125 
Q 26.375 6.390625 33.015625 6.390625 
Q 39.65625 6.390625 43.53125 10.953125 
Q 47.40625 15.53125 47.40625 23.390625 
Q 47.40625 31.296875 43.53125 35.828125 
Q 39.65625 40.375 33.015625 40.375 
z
M 52.59375 71.296875 
L 52.59375 62.3125 
Q 48.875 64.0625 45.09375 64.984375 
Q 41.3125 65.921875 37.59375 65.921875 
Q 27.828125 65.921875 22.671875 59.328125 
Q 17.53125 52.734375 16.796875 39.40625 
Q 19.671875 43.65625 24.015625 45.921875 
Q 28.375 48.1875 33.59375 48.1875 
Q 44.578125 48.1875 50.953125 41.515625 
Q 57.328125 34.859375 57.328125 23.390625 
Q 57.328125 12.15625 50.6875 5.359375 
Q 44.046875 -1.421875 33.015625 -1.421875 
Q 20.359375 -1.421875 13.671875 8.265625 
Q 6.984375 17.96875 6.984375 36.375 
Q 6.984375 53.65625 15.1875 63.9375 
Q 23.390625 74.21875 37.203125 74.21875 
Q 40.921875 74.21875 44.703125 73.484375 
Q 48.484375 72.75 52.59375 71.296875 
z
" id="DejaVuSans-36"/>
      </defs>
      <g transform="translate(35.857813 176.778924)scale(0.1 -0.1)">
       <use xlink:href="#DejaVuSans-2212"/>
       <use x="83.789062" xlink:href="#DejaVuSans-36"/>
      </g>
     </g>
    </g>
    <g id="ytick_5">
     <g id="line2d_11">
      <g>
       <use style="stroke:#000000;stroke-width:0.8;" x="57.6" xlink:href="#m5f812ac9e2" y="129.519205"/>
      </g>
     </g>
     <g id="text_12">
      <!-- −4 -->
      <g transform="translate(35.857813 133.318424)scale(0.1 -0.1)">
       <use xlink:href="#DejaVuSans-2212"/>
       <use x="83.789062" xlink:href="#DejaVuSans-34"/>
      </g>
     </g>
    </g>
    <g id="ytick_6">
     <g id="line2d_12">
      <g>
       <use style="stroke:#000000;stroke-width:0.8;" x="57.6" xlink:href="#m5f812ac9e2" y="86.058704"/>
      </g>
     </g>
     <g id="text_13">
      <!-- −2 -->
      <g transform="translate(35.857813 89.857923)scale(0.1 -0.1)">
       <use xlink:href="#DejaVuSans-2212"/>
       <use x="83.789062" xlink:href="#DejaVuSans-32"/>
      </g>
     </g>
    </g>
    <g id="ytick_7">
     <g id="line2d_13">
      <g>
       <use style="stroke:#000000;stroke-width:0.8;" x="57.6" xlink:href="#m5f812ac9e2" y="42.598204"/>
      </g>
     </g>
     <g id="text_14">
      <!-- 0 -->
      <g transform="translate(44.2375 46.397423)scale(0.1 -0.1)">
       <use xlink:href="#DejaVuSans-30"/>
      </g>
     </g>
    </g>
    <g id="text_15">
     <!-- mean rewards -->
     <defs>
      <path d="M 52 44.1875 
Q 55.375 50.25 60.0625 53.125 
Q 64.75 56 71.09375 56 
Q 79.640625 56 84.28125 50.015625 
Q 88.921875 44.046875 88.921875 33.015625 
L 88.921875 0 
L 79.890625 0 
L 79.890625 32.71875 
Q 79.890625 40.578125 77.09375 44.375 
Q 74.3125 48.1875 68.609375 48.1875 
Q 61.625 48.1875 57.5625 43.546875 
Q 53.515625 38.921875 53.515625 30.90625 
L 53.515625 0 
L 44.484375 0 
L 44.484375 32.71875 
Q 44.484375 40.625 41.703125 44.40625 
Q 38.921875 48.1875 33.109375 48.1875 
Q 26.21875 48.1875 22.15625 43.53125 
Q 18.109375 38.875 18.109375 30.90625 
L 18.109375 0 
L 9.078125 0 
L 9.078125 54.6875 
L 18.109375 54.6875 
L 18.109375 46.1875 
Q 21.1875 51.21875 25.484375 53.609375 
Q 29.78125 56 35.6875 56 
Q 41.65625 56 45.828125 52.96875 
Q 50 49.953125 52 44.1875 
z
" id="DejaVuSans-6d"/>
      <path d="M 34.28125 27.484375 
Q 23.390625 27.484375 19.1875 25 
Q 14.984375 22.515625 14.984375 16.5 
Q 14.984375 11.71875 18.140625 8.90625 
Q 21.296875 6.109375 26.703125 6.109375 
Q 34.1875 6.109375 38.703125 11.40625 
Q 43.21875 16.703125 43.21875 25.484375 
L 43.21875 27.484375 
z
M 52.203125 31.203125 
L 52.203125 0 
L 43.21875 0 
L 43.21875 8.296875 
Q 40.140625 3.328125 35.546875 0.953125 
Q 30.953125 -1.421875 24.3125 -1.421875 
Q 15.921875 -1.421875 10.953125 3.296875 
Q 6 8.015625 6 15.921875 
Q 6 25.140625 12.171875 29.828125 
Q 18.359375 34.515625 30.609375 34.515625 
L 43.21875 34.515625 
L 43.21875 35.40625 
Q 43.21875 41.609375 39.140625 45 
Q 35.0625 48.390625 27.6875 48.390625 
Q 23 48.390625 18.546875 47.265625 
Q 14.109375 46.140625 10.015625 43.890625 
L 10.015625 52.203125 
Q 14.9375 54.109375 19.578125 55.046875 
Q 24.21875 56 28.609375 56 
Q 40.484375 56 46.34375 49.84375 
Q 52.203125 43.703125 52.203125 31.203125 
z
" id="DejaVuSans-61"/>
      <path d="M 54.890625 33.015625 
L 54.890625 0 
L 45.90625 0 
L 45.90625 32.71875 
Q 45.90625 40.484375 42.875 44.328125 
Q 39.84375 48.1875 33.796875 48.1875 
Q 26.515625 48.1875 22.3125 43.546875 
Q 18.109375 38.921875 18.109375 30.90625 
L 18.109375 0 
L 9.078125 0 
L 9.078125 54.6875 
L 18.109375 54.6875 
L 18.109375 46.1875 
Q 21.34375 51.125 25.703125 53.5625 
Q 30.078125 56 35.796875 56 
Q 45.21875 56 50.046875 50.171875 
Q 54.890625 44.34375 54.890625 33.015625 
z
" id="DejaVuSans-6e"/>
      <path id="DejaVuSans-20"/>
      <path d="M 41.109375 46.296875 
Q 39.59375 47.171875 37.8125 47.578125 
Q 36.03125 48 33.890625 48 
Q 26.265625 48 22.1875 43.046875 
Q 18.109375 38.09375 18.109375 28.8125 
L 18.109375 0 
L 9.078125 0 
L 9.078125 54.6875 
L 18.109375 54.6875 
L 18.109375 46.1875 
Q 20.953125 51.171875 25.484375 53.578125 
Q 30.03125 56 36.53125 56 
Q 37.453125 56 38.578125 55.875 
Q 39.703125 55.765625 41.0625 55.515625 
z
" id="DejaVuSans-72"/>
      <path d="M 4.203125 54.6875 
L 13.1875 54.6875 
L 24.421875 12.015625 
L 35.59375 54.6875 
L 46.1875 54.6875 
L 57.421875 12.015625 
L 68.609375 54.6875 
L 77.59375 54.6875 
L 63.28125 0 
L 52.6875 0 
L 40.921875 44.828125 
L 29.109375 0 
L 18.5 0 
z
" id="DejaVuSans-77"/>
     </defs>
     <g transform="translate(23.415625 210.413938)rotate(-90)scale(0.1 -0.1)">
      <use xlink:href="#DejaVuSans-6d"/>
      <use x="97.412109" xlink:href="#DejaVuSans-65"/>
      <use x="158.935547" xlink:href="#DejaVuSans-61"/>
      <use x="220.214844" xlink:href="#DejaVuSans-6e"/>
      <use x="283.59375" xlink:href="#DejaVuSans-20"/>
      <use x="315.380859" xlink:href="#DejaVuSans-72"/>
      <use x="356.462891" xlink:href="#DejaVuSans-65"/>
      <use x="417.986328" xlink:href="#DejaVuSans-77"/>
      <use x="499.773438" xlink:href="#DejaVuSans-61"/>
      <use x="561.052734" xlink:href="#DejaVuSans-72"/>
      <use x="602.150391" xlink:href="#DejaVuSans-64"/>
      <use x="665.626953" xlink:href="#DejaVuSans-73"/>
     </g>
    </g>
   </g>
   <g id="line2d_14">
    <path clip-path="url(#p85e07291ac)" d="M 73.832727 164.35255 
L 74.483338 230.879773 
L 75.133948 256.244339 
L 75.784558 253.146129 
L 76.435169 248.812891 
L 77.085779 256.777816 
L 77.736389 254.139652 
L 78.386999 243.961316 
L 79.03761 240.962141 
L 79.68822 228.942023 
L 80.33883 245.85745 
L 80.989441 234.288864 
L 81.640051 219.164732 
L 82.290661 213.64119 
L 82.941272 209.671276 
L 83.591882 202.709877 
L 84.242492 189.618633 
L 84.893103 190.579369 
L 85.543713 178.228252 
L 86.194323 188.168191 
L 86.844934 164.221348 
L 87.495544 154.330938 
L 88.146154 154.858609 
L 88.796764 147.918974 
L 90.097985 128.34543 
L 90.748595 126.161659 
L 91.399206 125.688578 
L 92.049816 134.336168 
L 92.700426 118.786566 
L 93.351037 116.923588 
L 94.001647 117.311894 
L 94.652257 110.451397 
L 95.302868 108.46301 
L 95.953478 119.416509 
L 96.604088 114.231486 
L 97.254698 124.992166 
L 98.555919 106.032765 
L 99.206529 110.152664 
L 99.85714 111.814539 
L 100.50775 112.001383 
L 101.15836 111.040749 
L 101.808971 113.526293 
L 102.459581 104.005451 
L 103.110191 107.007945 
L 103.760802 95.008978 
L 104.411412 93.174814 
L 105.062022 92.799863 
L 105.712633 88.828862 
L 106.363243 86.119626 
L 107.013853 90.078029 
L 107.664463 88.841239 
L 108.315074 99.258353 
L 108.965684 95.680579 
L 109.616294 105.097275 
L 110.266905 105.39517 
L 110.917515 108.772872 
L 111.568125 107.346556 
L 112.869346 107.257806 
L 113.519956 111.022233 
L 114.170567 110.237642 
L 114.821177 94.379498 
L 115.471787 94.176711 
L 116.122398 80.386776 
L 116.773008 79.701571 
L 117.423618 78.645217 
L 118.724839 78.809355 
L 119.375449 78.761444 
L 120.026059 68.379904 
L 120.67667 68.659656 
L 121.32728 68.321519 
L 121.97789 70.393766 
L 122.628501 71.945106 
L 123.279111 84.807737 
L 123.929721 82.206639 
L 124.580332 82.845671 
L 125.230942 83.176156 
L 125.881552 84.030448 
L 126.532163 86.259652 
L 127.182773 87.591194 
L 127.833383 87.483276 
L 128.483993 85.253291 
L 129.134604 83.64706 
L 129.785214 73.039627 
L 130.435824 73.419357 
L 131.086435 72.248941 
L 131.737045 72.109452 
L 132.387655 72.88712 
L 133.038266 71.062637 
L 133.688876 70.113177 
L 134.990097 69.805269 
L 135.640707 70.257663 
L 136.291317 67.02535 
L 136.941927 66.638285 
L 137.592538 66.465267 
L 138.243148 66.417247 
L 138.893758 64.574744 
L 139.544369 64.462681 
L 140.194979 64.087671 
L 140.845589 64.043208 
L 141.4962 63.625786 
L 142.14681 63.480013 
L 142.79742 68.330248 
L 143.448031 68.832412 
L 144.098641 73.83589 
L 144.749251 73.134229 
L 145.399862 73.292375 
L 146.050472 73.010464 
L 146.701082 74.607303 
L 147.351692 75.140075 
L 148.002303 74.732999 
L 148.652913 74.184878 
L 149.303523 69.693755 
L 149.954134 69.72845 
L 150.604744 64.796034 
L 151.255354 64.855421 
L 151.905965 64.27201 
L 152.556575 64.544381 
L 153.207185 63.136068 
L 153.857796 62.457586 
L 155.809627 63.236972 
L 156.460237 62.508149 
L 157.110847 65.912723 
L 157.761457 65.764008 
L 158.412068 65.989008 
L 159.062678 65.430868 
L 159.713288 64.64571 
L 160.363899 64.238894 
L 161.014509 64.029176 
L 161.665119 63.49687 
L 162.31573 63.186388 
L 162.96634 63.207784 
L 163.61695 59.936848 
L 164.267561 59.953059 
L 164.918171 59.80019 
L 165.568781 60.146384 
L 166.219392 60.70893 
L 166.870002 61.096522 
L 167.520612 61.20124 
L 168.171222 61.121881 
L 168.821833 60.8511 
L 171.424274 61.7105 
L 172.074884 61.403124 
L 172.725495 60.749141 
L 174.026715 60.462079 
L 174.677326 60.488824 
L 175.327936 60.905647 
L 175.978546 60.858382 
L 176.629156 60.156007 
L 177.930377 59.707152 
L 178.580987 60.035778 
L 179.231598 60.513764 
L 179.882208 60.587121 
L 180.532818 60.408436 
L 181.183429 60.60779 
L 183.13526 60.24274 
L 183.78587 60.343559 
L 185.087091 59.874866 
L 185.737701 59.370788 
L 186.388311 59.008726 
L 187.689532 59.185768 
L 188.340142 58.86578 
L 188.990752 59.118083 
L 189.641363 59.221454 
L 190.291973 59.042023 
L 190.942583 59.516812 
L 191.593194 59.153993 
L 193.545025 59.242233 
L 194.195635 58.656925 
L 194.846245 58.730232 
L 195.496856 58.167843 
L 196.147466 57.882284 
L 196.798076 58.112935 
L 197.448686 57.52353 
L 198.099297 57.836356 
L 198.749907 57.820676 
L 199.400517 59.344076 
L 200.701738 60.414746 
L 201.352348 60.019519 
L 202.002959 61.349184 
L 202.653569 61.501262 
L 203.304179 61.222796 
L 203.95479 61.303008 
L 204.6054 60.981272 
L 205.25601 60.975364 
L 205.906621 59.309839 
L 206.557231 59.277497 
L 207.207841 58.905673 
L 207.858451 59.118708 
L 208.509062 57.676832 
L 209.159672 57.708033 
L 210.460893 57.461736 
L 211.111503 57.508865 
L 212.412724 57.27414 
L 213.063334 56.648802 
L 214.364555 56.762195 
L 215.015165 56.957443 
L 215.665775 56.910938 
L 216.316385 57.058417 
L 218.268216 57.177389 
L 220.220047 57.446439 
L 220.870658 57.182537 
L 221.521268 57.191688 
L 222.822489 56.742972 
L 224.77432 56.662662 
L 225.42493 56.434581 
L 226.07554 56.422189 
L 226.72615 56.183218 
L 227.376761 56.147136 
L 228.677981 56.521376 
L 229.979202 56.511339 
L 230.629812 56.520774 
L 231.280423 56.278083 
L 231.931033 56.488845 
L 232.581643 56.445286 
L 233.232254 56.650422 
L 234.533474 56.682172 
L 235.184085 56.544158 
L 235.834695 56.809075 
L 236.485305 56.711111 
L 239.087746 56.754701 
L 239.738357 56.542177 
L 240.388967 56.667472 
L 241.039577 56.426849 
L 242.991408 56.155165 
L 244.943239 55.930759 
L 245.59385 56.421173 
L 246.89507 56.680131 
L 247.54568 56.592656 
L 249.497511 56.843207 
L 251.449342 56.589418 
L 252.099953 56.158605 
L 252.750563 56.126586 
L 253.401173 55.883291 
L 254.051784 55.824793 
L 254.702394 55.899027 
L 255.353004 55.850118 
L 256.654225 55.495469 
L 257.955445 55.58416 
L 259.256666 55.267622 
L 260.557887 55.274901 
L 261.859107 54.979382 
L 263.810938 55.382054 
L 264.461549 55.209707 
L 265.762769 55.168736 
L 266.413379 55.058036 
L 267.06399 55.299816 
L 269.666431 55.320151 
L 270.317041 55.281372 
L 272.919483 55.68815 
L 273.570093 55.56261 
L 275.521924 55.755701 
L 277.473755 55.656201 
L 278.774975 55.775562 
L 279.425586 55.60108 
L 280.726806 55.586887 
L 281.377417 55.510356 
L 282.678637 55.554818 
L 283.329248 55.445611 
L 283.979858 55.718363 
L 286.582299 55.579261 
L 287.232909 55.365923 
L 289.18474 55.195829 
L 289.835351 55.376338 
L 290.485961 55.069168 
L 291.787182 54.946343 
L 292.437792 54.969956 
L 293.088402 54.823267 
L 294.389623 54.783042 
L 296.341454 54.742259 
L 297.642674 54.664407 
L 300.895726 54.908328 
L 301.546336 54.652224 
L 304.799388 54.815595 
L 305.449998 54.648852 
L 308.70305 54.70353 
L 309.35366 54.649548 
L 310.00427 54.71499 
L 311.305491 54.450581 
L 312.606712 54.749818 
L 313.907932 54.707581 
L 315.209153 54.698661 
L 317.160984 54.621516 
L 317.811594 54.691514 
L 319.112815 54.472311 
L 320.414035 54.581075 
L 323.016477 54.581697 
L 323.667087 54.700712 
L 330.8238 54.511098 
L 332.125021 54.714847 
L 332.775631 54.604579 
L 333.426242 54.617592 
L 334.727462 54.361044 
L 336.679293 54.366345 
L 338.631124 54.193689 
L 339.281734 54.252374 
L 339.932345 54.18428 
L 340.582955 54.322578 
L 342.534786 54.294368 
L 343.185396 54.226613 
L 344.486617 54.261654 
L 345.787837 54.124394 
L 346.438448 54.265687 
L 347.739668 54.192493 
L 352.293941 54.36383 
L 354.896382 54.052339 
L 359.450654 53.998404 
L 366.607367 54.217595 
L 368.559198 53.947789 
L 373.113471 53.748258 
L 374.414691 53.846278 
L 375.715912 53.966111 
L 376.366522 54.036595 
L 378.968963 53.880161 
L 382.222015 53.738984 
L 383.523236 53.676151 
L 386.776287 53.656899 
L 393.933001 53.673859 
L 395.234221 53.706873 
L 396.535442 53.718187 
L 397.186052 53.782055 
L 398.487273 53.723814 
L 398.487273 53.723814 
" style="fill:none;stroke:#1f77b4;stroke-linecap:square;stroke-width:1.5;"/>
   </g>
   <g id="line2d_15">
    <path clip-path="url(#p85e07291ac)" d="M 73.832727 121.825464 
L 74.483338 147.336289 
L 75.133948 126.78101 
L 75.784558 227.910579 
L 76.435169 295.488 
L 77.085779 272.411387 
L 77.736389 293.010406 
L 78.386999 276.305335 
L 79.68822 237.979011 
L 80.33883 238.172154 
L 80.989441 230.309647 
L 81.640051 231.56269 
L 82.941272 142.824461 
L 83.591882 164.917416 
L 84.242492 180.948003 
L 84.893103 172.379212 
L 85.543713 171.900515 
L 86.194323 173.380949 
L 86.844934 167.866651 
L 87.495544 188.498873 
L 88.146154 186.557615 
L 88.796764 182.647823 
L 89.447375 183.488489 
L 90.097985 151.80433 
L 90.748595 103.723975 
L 91.399206 151.778965 
L 92.049816 152.636565 
L 92.700426 151.859038 
L 93.351037 151.540432 
L 94.001647 135.052582 
L 94.652257 136.099607 
L 95.302868 152.537998 
L 95.953478 151.800225 
L 96.604088 152.987877 
L 97.254698 151.118971 
L 97.905309 104.50342 
L 98.555919 102.968698 
L 99.206529 120.963713 
L 99.85714 124.663002 
L 100.50775 117.884903 
L 101.15836 115.322018 
L 101.808971 97.559009 
L 102.459581 94.797339 
L 103.110191 94.269201 
L 103.760802 100.095384 
L 104.411412 98.254856 
L 105.062022 98.907171 
L 105.712633 79.929877 
L 106.363243 76.118572 
L 107.013853 75.345537 
L 107.664463 76.263157 
L 108.315074 136.823689 
L 108.965684 137.249796 
L 109.616294 137.118718 
L 110.266905 131.214025 
L 110.917515 130.578579 
L 111.568125 185.546384 
L 112.218736 185.983743 
L 112.869346 185.644886 
L 113.519956 186.100055 
L 114.170567 184.915892 
L 114.821177 124.175222 
L 115.471787 124.239717 
L 116.122398 123.967062 
L 116.773008 122.408368 
L 117.423618 121.980996 
L 118.074228 64.416608 
L 118.724839 63.474781 
L 120.026059 63.700927 
L 120.67667 65.110843 
L 121.32728 64.489588 
L 121.97789 63.491354 
L 122.628501 63.323261 
L 123.929721 64.414008 
L 124.580332 64.120526 
L 125.230942 63.663291 
L 126.532163 63.87544 
L 127.182773 62.160877 
L 127.833383 71.504675 
L 128.483993 71.996589 
L 129.134604 72.08897 
L 131.737045 74.247956 
L 132.387655 74.471304 
L 133.688876 76.30527 
L 134.339486 67.072456 
L 134.990097 66.83474 
L 135.640707 67.102065 
L 136.291317 110.411795 
L 136.941927 109.672354 
L 137.592538 109.905859 
L 138.243148 109.348109 
L 138.893758 110.59319 
L 139.544369 109.611247 
L 140.194979 110.0661 
L 140.845589 110.333651 
L 142.14681 110.264331 
L 142.79742 85.991315 
L 143.448031 86.82053 
L 144.098641 87.198624 
L 144.749251 87.71017 
L 145.399862 86.747905 
L 146.050472 87.716679 
L 146.701082 87.068806 
L 147.351692 87.581482 
L 148.002303 88.479345 
L 148.652913 88.547429 
L 149.303523 68.788644 
L 149.954134 69.599525 
L 150.604744 68.953477 
L 151.905965 69.543455 
L 152.556575 69.037555 
L 153.207185 69.510243 
L 154.508406 68.64674 
L 155.159016 79.798394 
L 155.809627 80.63774 
L 156.460237 81.873834 
L 157.110847 82.042281 
L 157.761457 83.084844 
L 158.412068 81.970058 
L 159.062678 81.865985 
L 159.713288 81.166445 
L 160.363899 81.100648 
L 161.014509 90.152985 
L 161.665119 79.501864 
L 162.31573 78.931391 
L 162.96634 76.149583 
L 163.61695 75.766297 
L 164.267561 74.456479 
L 164.918171 75.213559 
L 165.568781 74.039167 
L 166.219392 74.094771 
L 166.870002 74.343699 
L 167.520612 65.69707 
L 168.171222 64.83952 
L 168.821833 65.100362 
L 169.472443 65.185989 
L 170.123053 95.821457 
L 172.725495 95.537239 
L 173.376105 96.035561 
L 174.026715 95.040549 
L 174.677326 94.95499 
L 175.327936 94.310378 
L 175.978546 96.468862 
L 176.629156 65.174886 
L 177.279767 65.131417 
L 177.930377 64.568794 
L 178.580987 65.551103 
L 179.231598 65.713468 
L 179.882208 65.582813 
L 180.532818 66.192481 
L 181.183429 66.45191 
L 181.834039 66.164519 
L 182.484649 64.277487 
L 183.78587 64.546322 
L 184.43648 65.272287 
L 185.087091 64.335067 
L 185.737701 64.799755 
L 186.388311 64.101798 
L 187.038921 63.998732 
L 187.689532 64.083043 
L 188.340142 64.399915 
L 188.990752 63.805097 
L 189.641363 64.436145 
L 190.291973 63.932053 
L 190.942583 63.161968 
L 191.593194 63.411746 
L 192.243804 62.65017 
L 192.894414 62.581243 
L 193.545025 62.29562 
L 194.846245 62.323585 
L 195.496856 62.159535 
L 196.798076 62.289819 
L 197.448686 62.398923 
L 198.099297 62.197781 
L 198.749907 62.509189 
L 199.400517 62.425773 
L 200.051128 62.654776 
L 200.701738 62.1218 
L 201.352348 61.978096 
L 202.002959 61.951559 
L 203.304179 61.642725 
L 203.95479 62.116599 
L 204.6054 63.056652 
L 206.557231 62.322212 
L 207.207841 62.52119 
L 208.509062 63.655107 
L 209.159672 63.479169 
L 209.810282 63.920071 
L 210.460893 63.200892 
L 211.111503 62.260843 
L 212.412724 62.536312 
L 213.063334 62.537214 
L 213.713944 62.74971 
L 214.364555 61.679734 
L 215.015165 60.999022 
L 215.665775 60.915637 
L 216.316385 60.471747 
L 216.966996 60.585393 
L 217.617606 60.535194 
L 219.569437 59.389361 
L 220.220047 59.107115 
L 220.870658 59.562425 
L 222.171878 59.96208 
L 222.822489 60.132866 
L 223.473099 60.069745 
L 224.123709 59.631925 
L 224.77432 60.028586 
L 225.42493 60.174663 
L 226.07554 60.574677 
L 226.72615 60.549298 
L 227.376761 60.330956 
L 228.027371 60.400028 
L 228.677981 59.940813 
L 229.328592 59.796843 
L 229.979202 60.011309 
L 230.629812 60.082314 
L 231.280423 59.973037 
L 231.931033 60.591507 
L 232.581643 60.026409 
L 233.882864 59.637907 
L 234.533474 59.866022 
L 235.184085 59.92594 
L 236.485305 59.599933 
L 237.135915 60.01952 
L 237.786526 59.996875 
L 238.437136 59.575509 
L 239.087746 60.268604 
L 239.738357 60.744319 
L 240.388967 60.922707 
L 241.039577 60.540837 
L 241.690188 60.494241 
L 242.340798 60.649981 
L 243.642019 60.099927 
L 244.292629 59.983906 
L 244.943239 60.211622 
L 245.59385 59.984999 
L 246.24446 59.394342 
L 246.89507 59.311444 
L 247.54568 59.114182 
L 248.196291 59.292747 
L 248.846901 59.051062 
L 249.497511 59.138359 
L 250.148122 59.417732 
L 250.798732 58.954522 
L 252.099953 58.551871 
L 254.051784 58.605927 
L 254.702394 58.299745 
L 255.353004 58.550843 
L 256.003615 58.516614 
L 256.654225 58.320019 
L 257.304835 59.112069 
L 258.606056 58.813749 
L 259.256666 59.109764 
L 259.907276 58.889113 
L 261.208497 58.771327 
L 261.859107 58.479804 
L 263.160328 58.534546 
L 263.810938 58.123393 
L 264.461549 58.057201 
L 265.112159 58.142778 
L 265.762769 57.978317 
L 266.413379 58.096292 
L 267.06399 58.068149 
L 268.36521 58.69674 
L 269.015821 58.659431 
L 270.317041 58.789475 
L 270.967652 58.79841 
L 272.919483 58.06235 
L 273.570093 58.061297 
L 274.871314 57.565892 
L 275.521924 57.619607 
L 276.172534 57.534956 
L 276.823144 57.68216 
L 278.124365 57.844644 
L 278.774975 58.089945 
L 279.425586 58.551374 
L 280.726806 58.948875 
L 281.377417 58.816847 
L 282.028027 58.923667 
L 282.678637 58.646499 
L 284.630468 58.594291 
L 286.582299 57.705163 
L 287.232909 57.59046 
L 287.88352 57.902876 
L 288.53413 57.739965 
L 289.18474 57.838411 
L 289.835351 57.618333 
L 291.136571 57.509584 
L 291.787182 57.839924 
L 293.739013 57.886464 
L 294.389623 57.384157 
L 295.040233 57.24662 
L 297.642674 57.775801 
L 298.293285 57.429211 
L 299.594505 57.6065 
L 300.245116 57.563588 
L 300.895726 57.866975 
L 302.196947 57.856284 
L 303.498167 57.411641 
L 304.148778 57.16012 
L 304.799388 57.031364 
L 305.449998 57.208265 
L 307.401829 56.725311 
L 308.70305 57.127264 
L 310.00427 57.082795 
L 310.654881 57.241147 
L 311.305491 57.262214 
L 311.956101 57.006785 
L 312.606712 56.926122 
L 313.257322 57.050173 
L 315.209153 56.612842 
L 316.510373 56.919846 
L 317.160984 56.746988 
L 317.811594 57.06441 
L 319.112815 56.825009 
L 321.715256 56.538018 
L 323.016477 56.14575 
L 323.667087 56.133102 
L 324.317697 55.780083 
L 324.968308 55.95946 
L 325.618918 55.95614 
L 326.920138 55.792306 
L 327.570749 55.825986 
L 328.221359 55.516115 
L 328.871969 55.720633 
L 330.17319 55.684542 
L 330.8238 55.830795 
L 331.474411 55.731001 
L 333.426242 56.184625 
L 334.076852 56.090475 
L 334.727462 56.248516 
L 335.378073 56.090415 
L 336.028683 56.135078 
L 337.329903 55.850945 
L 339.932345 55.717994 
L 340.582955 55.905416 
L 341.233565 55.671544 
L 343.836007 56.370058 
L 344.486617 56.214388 
L 346.438448 56.076623 
L 347.739668 55.92082 
L 348.390279 55.654414 
L 349.691499 55.379362 
L 350.99272 55.628474 
L 351.64333 55.52759 
L 352.944551 55.77622 
L 355.546992 55.909217 
L 358.149433 55.757817 
L 358.800044 55.549811 
L 359.450654 55.717926 
L 360.101264 55.58878 
L 361.402485 55.834997 
L 362.053095 55.658388 
L 362.703706 55.762403 
L 363.354316 55.719904 
L 364.655537 55.9291 
L 365.306147 55.801959 
L 365.956757 55.402665 
L 367.257978 55.474201 
L 367.908588 55.392258 
L 368.559198 55.572091 
L 371.16164 55.109002 
L 371.81225 55.057622 
L 373.113471 55.210694 
L 375.715912 55.183546 
L 377.017132 55.226604 
L 381.571405 55.217657 
L 382.872625 55.045841 
L 383.523236 55.184597 
L 384.173846 55.046545 
L 384.824456 55.13244 
L 389.378728 54.960509 
L 390.679949 55.110233 
L 392.63178 54.964549 
L 395.884831 55.304816 
L 396.535442 55.072794 
L 398.487273 55.060842 
L 398.487273 55.060842 
" style="fill:none;stroke:#ff7f0e;stroke-linecap:square;stroke-width:1.5;"/>
   </g>
   <g id="patch_3">
    <path d="M 57.6 307.584 
L 57.6 41.472 
" style="fill:none;stroke:#000000;stroke-linecap:square;stroke-linejoin:miter;stroke-width:0.8;"/>
   </g>
   <g id="patch_4">
    <path d="M 414.72 307.584 
L 414.72 41.472 
" style="fill:none;stroke:#000000;stroke-linecap:square;stroke-linejoin:miter;stroke-width:0.8;"/>
   </g>
   <g id="patch_5">
    <path d="M 57.6 307.584 
L 414.72 307.584 
" style="fill:none;stroke:#000000;stroke-linecap:square;stroke-linejoin:miter;stroke-width:0.8;"/>
   </g>
   <g id="patch_6">
    <path d="M 57.6 41.472 
L 414.72 41.472 
" style="fill:none;stroke:#000000;stroke-linecap:square;stroke-linejoin:miter;stroke-width:0.8;"/>
   </g>
   <g id="legend_1">
    <g id="patch_7">
     <path d="M 332.584063 302.584 
L 407.72 302.584 
Q 409.72 302.584 409.72 300.584 
L 409.72 272.22775 
Q 409.72 270.22775 407.72 270.22775 
L 332.584063 270.22775 
Q 330.584063 270.22775 330.584063 272.22775 
L 330.584063 300.584 
Q 330.584063 302.584 332.584063 302.584 
z
" style="fill:#ffffff;opacity:0.8;stroke:#cccccc;stroke-linejoin:miter;"/>
    </g>
    <g id="line2d_16">
     <path d="M 334.584063 278.326187 
L 354.584063 278.326187 
" style="fill:none;stroke:#1f77b4;stroke-linecap:square;stroke-width:1.5;"/>
    </g>
    <g id="line2d_17"/>
    <g id="text_16">
     <!-- r&lt;=0.02 -->
     <defs>
      <path d="M 73.1875 49.21875 
L 22.796875 31.296875 
L 73.1875 13.484375 
L 73.1875 4.59375 
L 10.59375 27.296875 
L 10.59375 35.40625 
L 73.1875 58.109375 
z
" id="DejaVuSans-3c"/>
      <path d="M 10.59375 45.40625 
L 73.1875 45.40625 
L 73.1875 37.203125 
L 10.59375 37.203125 
z
M 10.59375 25.484375 
L 73.1875 25.484375 
L 73.1875 17.1875 
L 10.59375 17.1875 
z
" id="DejaVuSans-3d"/>
      <path d="M 10.6875 12.40625 
L 21 12.40625 
L 21 0 
L 10.6875 0 
z
" id="DejaVuSans-2e"/>
     </defs>
     <g transform="translate(362.584063 281.826187)scale(0.1 -0.1)">
      <use xlink:href="#DejaVuSans-72"/>
      <use x="41.113281" xlink:href="#DejaVuSans-3c"/>
      <use x="124.902344" xlink:href="#DejaVuSans-3d"/>
      <use x="208.691406" xlink:href="#DejaVuSans-30"/>
      <use x="272.314453" xlink:href="#DejaVuSans-2e"/>
      <use x="304.101562" xlink:href="#DejaVuSans-30"/>
      <use x="367.724609" xlink:href="#DejaVuSans-32"/>
     </g>
    </g>
    <g id="line2d_18">
     <path d="M 334.584063 293.004312 
L 354.584063 293.004312 
" style="fill:none;stroke:#ff7f0e;stroke-linecap:square;stroke-width:1.5;"/>
    </g>
    <g id="line2d_19"/>
    <g id="text_17">
     <!-- r&lt;=0.01 -->
     <g transform="translate(362.584063 296.504312)scale(0.1 -0.1)">
      <use xlink:href="#DejaVuSans-72"/>
      <use x="41.113281" xlink:href="#DejaVuSans-3c"/>
      <use x="124.902344" xlink:href="#DejaVuSans-3d"/>
      <use x="208.691406" xlink:href="#DejaVuSans-30"/>
      <use x="272.314453" xlink:href="#DejaVuSans-2e"/>
      <use x="304.101562" xlink:href="#DejaVuSans-30"/>
      <use x="367.724609" xlink:href="#DejaVuSans-31"/>
     </g>
    </g>
   </g>
  </g>
 </g>
 <defs>
  <clipPath id="p85e07291ac">
   <rect height="266.112" width="357.12" x="57.6" y="41.472"/>
  </clipPath>
 </defs>
</svg>
