<?xml version="1.0" encoding="utf-8" standalone="no"?>
<!DOCTYPE svg PUBLIC "-//W3C//DTD SVG 1.1//EN"
  "http://www.w3.org/Graphics/SVG/1.1/DTD/svg11.dtd">
<!-- Created with matplotlib (http://matplotlib.org/) -->
<svg height="345pt" version="1.1" viewBox="0 0 460 345" width="460pt" xmlns="http://www.w3.org/2000/svg" xmlns:xlink="http://www.w3.org/1999/xlink">
 <defs>
  <style type="text/css">
*{stroke-linecap:butt;stroke-linejoin:round;}
  </style>
 </defs>
 <g id="figure_1">
  <g id="patch_1">
   <path d="M 0 345.6 
L 460.8 345.6 
L 460.8 0 
L 0 0 
z
" style="fill:#ffffff;"/>
  </g>
  <g id="axes_1">
   <g id="patch_2">
    <path d="M 57.6 307.584 
L 414.72 307.584 
L 414.72 41.472 
L 57.6 41.472 
z
" style="fill:#ffffff;"/>
   </g>
   <g id="matplotlib.axis_1">
    <g id="xtick_1">
     <g id="line2d_1">
      <defs>
       <path d="M 0 0 
L 0 3.5 
" id="m31142f907f" style="stroke:#000000;stroke-width:0.8;"/>
      </defs>
      <g>
       <use style="stroke:#000000;stroke-width:0.8;" x="73.832727" xlink:href="#m31142f907f" y="307.584"/>
      </g>
     </g>
     <g id="text_1">
      <!-- 0 -->
      <defs>
       <path d="M 31.78125 66.40625 
Q 24.171875 66.40625 20.328125 58.90625 
Q 16.5 51.421875 16.5 36.375 
Q 16.5 21.390625 20.328125 13.890625 
Q 24.171875 6.390625 31.78125 6.390625 
Q 39.453125 6.390625 43.28125 13.890625 
Q 47.125 21.390625 47.125 36.375 
Q 47.125 51.421875 43.28125 58.90625 
Q 39.453125 66.40625 31.78125 66.40625 
z
M 31.78125 74.21875 
Q 44.046875 74.21875 50.515625 64.515625 
Q 56.984375 54.828125 56.984375 36.375 
Q 56.984375 17.96875 50.515625 8.265625 
Q 44.046875 -1.421875 31.78125 -1.421875 
Q 19.53125 -1.421875 13.0625 8.265625 
Q 6.59375 17.96875 6.59375 36.375 
Q 6.59375 54.828125 13.0625 64.515625 
Q 19.53125 74.21875 31.78125 74.21875 
z
" id="DejaVuSans-30"/>
      </defs>
      <g transform="translate(70.651477 322.182437)scale(0.1 -0.1)">
       <use xlink:href="#DejaVuSans-30"/>
      </g>
     </g>
    </g>
    <g id="xtick_2">
     <g id="line2d_2">
      <g>
       <use style="stroke:#000000;stroke-width:0.8;" x="138.893758" xlink:href="#m31142f907f" y="307.584"/>
      </g>
     </g>
     <g id="text_2">
      <!-- 100 -->
      <defs>
       <path d="M 12.40625 8.296875 
L 28.515625 8.296875 
L 28.515625 63.921875 
L 10.984375 60.40625 
L 10.984375 69.390625 
L 28.421875 72.90625 
L 38.28125 72.90625 
L 38.28125 8.296875 
L 54.390625 8.296875 
L 54.390625 0 
L 12.40625 0 
z
" id="DejaVuSans-31"/>
      </defs>
      <g transform="translate(129.350008 322.182437)scale(0.1 -0.1)">
       <use xlink:href="#DejaVuSans-31"/>
       <use x="63.623047" xlink:href="#DejaVuSans-30"/>
       <use x="127.246094" xlink:href="#DejaVuSans-30"/>
      </g>
     </g>
    </g>
    <g id="xtick_3">
     <g id="line2d_3">
      <g>
       <use style="stroke:#000000;stroke-width:0.8;" x="203.95479" xlink:href="#m31142f907f" y="307.584"/>
      </g>
     </g>
     <g id="text_3">
      <!-- 200 -->
      <defs>
       <path d="M 19.1875 8.296875 
L 53.609375 8.296875 
L 53.609375 0 
L 7.328125 0 
L 7.328125 8.296875 
Q 12.9375 14.109375 22.625 23.890625 
Q 32.328125 33.6875 34.8125 36.53125 
Q 39.546875 41.84375 41.421875 45.53125 
Q 43.3125 49.21875 43.3125 52.78125 
Q 43.3125 58.59375 39.234375 62.25 
Q 35.15625 65.921875 28.609375 65.921875 
Q 23.96875 65.921875 18.8125 64.3125 
Q 13.671875 62.703125 7.8125 59.421875 
L 7.8125 69.390625 
Q 13.765625 71.78125 18.9375 73 
Q 24.125 74.21875 28.421875 74.21875 
Q 39.75 74.21875 46.484375 68.546875 
Q 53.21875 62.890625 53.21875 53.421875 
Q 53.21875 48.921875 51.53125 44.890625 
Q 49.859375 40.875 45.40625 35.40625 
Q 44.1875 33.984375 37.640625 27.21875 
Q 31.109375 20.453125 19.1875 8.296875 
z
" id="DejaVuSans-32"/>
      </defs>
      <g transform="translate(194.41104 322.182437)scale(0.1 -0.1)">
       <use xlink:href="#DejaVuSans-32"/>
       <use x="63.623047" xlink:href="#DejaVuSans-30"/>
       <use x="127.246094" xlink:href="#DejaVuSans-30"/>
      </g>
     </g>
    </g>
    <g id="xtick_4">
     <g id="line2d_4">
      <g>
       <use style="stroke:#000000;stroke-width:0.8;" x="269.015821" xlink:href="#m31142f907f" y="307.584"/>
      </g>
     </g>
     <g id="text_4">
      <!-- 300 -->
      <defs>
       <path d="M 40.578125 39.3125 
Q 47.65625 37.796875 51.625 33 
Q 55.609375 28.21875 55.609375 21.1875 
Q 55.609375 10.40625 48.1875 4.484375 
Q 40.765625 -1.421875 27.09375 -1.421875 
Q 22.515625 -1.421875 17.65625 -0.515625 
Q 12.796875 0.390625 7.625 2.203125 
L 7.625 11.71875 
Q 11.71875 9.328125 16.59375 8.109375 
Q 21.484375 6.890625 26.8125 6.890625 
Q 36.078125 6.890625 40.9375 10.546875 
Q 45.796875 14.203125 45.796875 21.1875 
Q 45.796875 27.640625 41.28125 31.265625 
Q 36.765625 34.90625 28.71875 34.90625 
L 20.21875 34.90625 
L 20.21875 43.015625 
L 29.109375 43.015625 
Q 36.375 43.015625 40.234375 45.921875 
Q 44.09375 48.828125 44.09375 54.296875 
Q 44.09375 59.90625 40.109375 62.90625 
Q 36.140625 65.921875 28.71875 65.921875 
Q 24.65625 65.921875 20.015625 65.03125 
Q 15.375 64.15625 9.8125 62.3125 
L 9.8125 71.09375 
Q 15.4375 72.65625 20.34375 73.4375 
Q 25.25 74.21875 29.59375 74.21875 
Q 40.828125 74.21875 47.359375 69.109375 
Q 53.90625 64.015625 53.90625 55.328125 
Q 53.90625 49.265625 50.4375 45.09375 
Q 46.96875 40.921875 40.578125 39.3125 
z
" id="DejaVuSans-33"/>
      </defs>
      <g transform="translate(259.472071 322.182437)scale(0.1 -0.1)">
       <use xlink:href="#DejaVuSans-33"/>
       <use x="63.623047" xlink:href="#DejaVuSans-30"/>
       <use x="127.246094" xlink:href="#DejaVuSans-30"/>
      </g>
     </g>
    </g>
    <g id="xtick_5">
     <g id="line2d_5">
      <g>
       <use style="stroke:#000000;stroke-width:0.8;" x="334.076852" xlink:href="#m31142f907f" y="307.584"/>
      </g>
     </g>
     <g id="text_5">
      <!-- 400 -->
      <defs>
       <path d="M 37.796875 64.3125 
L 12.890625 25.390625 
L 37.796875 25.390625 
z
M 35.203125 72.90625 
L 47.609375 72.90625 
L 47.609375 25.390625 
L 58.015625 25.390625 
L 58.015625 17.1875 
L 47.609375 17.1875 
L 47.609375 0 
L 37.796875 0 
L 37.796875 17.1875 
L 4.890625 17.1875 
L 4.890625 26.703125 
z
" id="DejaVuSans-34"/>
      </defs>
      <g transform="translate(324.533102 322.182437)scale(0.1 -0.1)">
       <use xlink:href="#DejaVuSans-34"/>
       <use x="63.623047" xlink:href="#DejaVuSans-30"/>
       <use x="127.246094" xlink:href="#DejaVuSans-30"/>
      </g>
     </g>
    </g>
    <g id="xtick_6">
     <g id="line2d_6">
      <g>
       <use style="stroke:#000000;stroke-width:0.8;" x="399.137883" xlink:href="#m31142f907f" y="307.584"/>
      </g>
     </g>
     <g id="text_6">
      <!-- 500 -->
      <defs>
       <path d="M 10.796875 72.90625 
L 49.515625 72.90625 
L 49.515625 64.59375 
L 19.828125 64.59375 
L 19.828125 46.734375 
Q 21.96875 47.46875 24.109375 47.828125 
Q 26.265625 48.1875 28.421875 48.1875 
Q 40.625 48.1875 47.75 41.5 
Q 54.890625 34.8125 54.890625 23.390625 
Q 54.890625 11.625 47.5625 5.09375 
Q 40.234375 -1.421875 26.90625 -1.421875 
Q 22.3125 -1.421875 17.546875 -0.640625 
Q 12.796875 0.140625 7.71875 1.703125 
L 7.71875 11.625 
Q 12.109375 9.234375 16.796875 8.0625 
Q 21.484375 6.890625 26.703125 6.890625 
Q 35.15625 6.890625 40.078125 11.328125 
Q 45.015625 15.765625 45.015625 23.390625 
Q 45.015625 31 40.078125 35.4375 
Q 35.15625 39.890625 26.703125 39.890625 
Q 22.75 39.890625 18.8125 39.015625 
Q 14.890625 38.140625 10.796875 36.28125 
z
" id="DejaVuSans-35"/>
      </defs>
      <g transform="translate(389.594133 322.182437)scale(0.1 -0.1)">
       <use xlink:href="#DejaVuSans-35"/>
       <use x="63.623047" xlink:href="#DejaVuSans-30"/>
       <use x="127.246094" xlink:href="#DejaVuSans-30"/>
      </g>
     </g>
    </g>
    <g id="text_7">
     <!-- episodes -->
     <defs>
      <path d="M 56.203125 29.59375 
L 56.203125 25.203125 
L 14.890625 25.203125 
Q 15.484375 15.921875 20.484375 11.0625 
Q 25.484375 6.203125 34.421875 6.203125 
Q 39.59375 6.203125 44.453125 7.46875 
Q 49.3125 8.734375 54.109375 11.28125 
L 54.109375 2.78125 
Q 49.265625 0.734375 44.1875 -0.34375 
Q 39.109375 -1.421875 33.890625 -1.421875 
Q 20.796875 -1.421875 13.15625 6.1875 
Q 5.515625 13.8125 5.515625 26.8125 
Q 5.515625 40.234375 12.765625 48.109375 
Q 20.015625 56 32.328125 56 
Q 43.359375 56 49.78125 48.890625 
Q 56.203125 41.796875 56.203125 29.59375 
z
M 47.21875 32.234375 
Q 47.125 39.59375 43.09375 43.984375 
Q 39.0625 48.390625 32.421875 48.390625 
Q 24.90625 48.390625 20.390625 44.140625 
Q 15.875 39.890625 15.1875 32.171875 
z
" id="DejaVuSans-65"/>
      <path d="M 18.109375 8.203125 
L 18.109375 -20.796875 
L 9.078125 -20.796875 
L 9.078125 54.6875 
L 18.109375 54.6875 
L 18.109375 46.390625 
Q 20.953125 51.265625 25.265625 53.625 
Q 29.59375 56 35.59375 56 
Q 45.5625 56 51.78125 48.09375 
Q 58.015625 40.1875 58.015625 27.296875 
Q 58.015625 14.40625 51.78125 6.484375 
Q 45.5625 -1.421875 35.59375 -1.421875 
Q 29.59375 -1.421875 25.265625 0.953125 
Q 20.953125 3.328125 18.109375 8.203125 
z
M 48.6875 27.296875 
Q 48.6875 37.203125 44.609375 42.84375 
Q 40.53125 48.484375 33.40625 48.484375 
Q 26.265625 48.484375 22.1875 42.84375 
Q 18.109375 37.203125 18.109375 27.296875 
Q 18.109375 17.390625 22.1875 11.75 
Q 26.265625 6.109375 33.40625 6.109375 
Q 40.53125 6.109375 44.609375 11.75 
Q 48.6875 17.390625 48.6875 27.296875 
z
" id="DejaVuSans-70"/>
      <path d="M 9.421875 54.6875 
L 18.40625 54.6875 
L 18.40625 0 
L 9.421875 0 
z
M 9.421875 75.984375 
L 18.40625 75.984375 
L 18.40625 64.59375 
L 9.421875 64.59375 
z
" id="DejaVuSans-69"/>
      <path d="M 44.28125 53.078125 
L 44.28125 44.578125 
Q 40.484375 46.53125 36.375 47.5 
Q 32.28125 48.484375 27.875 48.484375 
Q 21.1875 48.484375 17.84375 46.4375 
Q 14.5 44.390625 14.5 40.28125 
Q 14.5 37.15625 16.890625 35.375 
Q 19.28125 33.59375 26.515625 31.984375 
L 29.59375 31.296875 
Q 39.15625 29.25 43.1875 25.515625 
Q 47.21875 21.78125 47.21875 15.09375 
Q 47.21875 7.46875 41.1875 3.015625 
Q 35.15625 -1.421875 24.609375 -1.421875 
Q 20.21875 -1.421875 15.453125 -0.5625 
Q 10.6875 0.296875 5.421875 2 
L 5.421875 11.28125 
Q 10.40625 8.6875 15.234375 7.390625 
Q 20.0625 6.109375 24.8125 6.109375 
Q 31.15625 6.109375 34.5625 8.28125 
Q 37.984375 10.453125 37.984375 14.40625 
Q 37.984375 18.0625 35.515625 20.015625 
Q 33.0625 21.96875 24.703125 23.78125 
L 21.578125 24.515625 
Q 13.234375 26.265625 9.515625 29.90625 
Q 5.8125 33.546875 5.8125 39.890625 
Q 5.8125 47.609375 11.28125 51.796875 
Q 16.75 56 26.8125 56 
Q 31.78125 56 36.171875 55.265625 
Q 40.578125 54.546875 44.28125 53.078125 
z
" id="DejaVuSans-73"/>
      <path d="M 30.609375 48.390625 
Q 23.390625 48.390625 19.1875 42.75 
Q 14.984375 37.109375 14.984375 27.296875 
Q 14.984375 17.484375 19.15625 11.84375 
Q 23.34375 6.203125 30.609375 6.203125 
Q 37.796875 6.203125 41.984375 11.859375 
Q 46.1875 17.53125 46.1875 27.296875 
Q 46.1875 37.015625 41.984375 42.703125 
Q 37.796875 48.390625 30.609375 48.390625 
z
M 30.609375 56 
Q 42.328125 56 49.015625 48.375 
Q 55.71875 40.765625 55.71875 27.296875 
Q 55.71875 13.875 49.015625 6.21875 
Q 42.328125 -1.421875 30.609375 -1.421875 
Q 18.84375 -1.421875 12.171875 6.21875 
Q 5.515625 13.875 5.515625 27.296875 
Q 5.515625 40.765625 12.171875 48.375 
Q 18.84375 56 30.609375 56 
z
" id="DejaVuSans-6f"/>
      <path d="M 45.40625 46.390625 
L 45.40625 75.984375 
L 54.390625 75.984375 
L 54.390625 0 
L 45.40625 0 
L 45.40625 8.203125 
Q 42.578125 3.328125 38.25 0.953125 
Q 33.9375 -1.421875 27.875 -1.421875 
Q 17.96875 -1.421875 11.734375 6.484375 
Q 5.515625 14.40625 5.515625 27.296875 
Q 5.515625 40.1875 11.734375 48.09375 
Q 17.96875 56 27.875 56 
Q 33.9375 56 38.25 53.625 
Q 42.578125 51.265625 45.40625 46.390625 
z
M 14.796875 27.296875 
Q 14.796875 17.390625 18.875 11.75 
Q 22.953125 6.109375 30.078125 6.109375 
Q 37.203125 6.109375 41.296875 11.75 
Q 45.40625 17.390625 45.40625 27.296875 
Q 45.40625 37.203125 41.296875 42.84375 
Q 37.203125 48.484375 30.078125 48.484375 
Q 22.953125 48.484375 18.875 42.84375 
Q 14.796875 37.203125 14.796875 27.296875 
z
" id="DejaVuSans-64"/>
     </defs>
     <g transform="translate(214.000625 335.860562)scale(0.1 -0.1)">
      <use xlink:href="#DejaVuSans-65"/>
      <use x="61.523438" xlink:href="#DejaVuSans-70"/>
      <use x="125" xlink:href="#DejaVuSans-69"/>
      <use x="152.783203" xlink:href="#DejaVuSans-73"/>
      <use x="204.882812" xlink:href="#DejaVuSans-6f"/>
      <use x="266.064453" xlink:href="#DejaVuSans-64"/>
      <use x="329.541016" xlink:href="#DejaVuSans-65"/>
      <use x="391.064453" xlink:href="#DejaVuSans-73"/>
     </g>
    </g>
   </g>
   <g id="matplotlib.axis_2">
    <g id="ytick_1">
     <g id="line2d_7">
      <defs>
       <path d="M 0 0 
L -3.5 0 
" id="md1f1f4bc42" style="stroke:#000000;stroke-width:0.8;"/>
      </defs>
      <g>
       <use style="stroke:#000000;stroke-width:0.8;" x="57.6" xlink:href="#md1f1f4bc42" y="274.171832"/>
      </g>
     </g>
     <g id="text_8">
      <!-- −50 -->
      <defs>
       <path d="M 10.59375 35.5 
L 73.1875 35.5 
L 73.1875 27.203125 
L 10.59375 27.203125 
z
" id="DejaVuSans-2212"/>
      </defs>
      <g transform="translate(29.495313 277.971051)scale(0.1 -0.1)">
       <use xlink:href="#DejaVuSans-2212"/>
       <use x="83.789062" xlink:href="#DejaVuSans-35"/>
       <use x="147.412109" xlink:href="#DejaVuSans-30"/>
      </g>
     </g>
    </g>
    <g id="ytick_2">
     <g id="line2d_8">
      <g>
       <use style="stroke:#000000;stroke-width:0.8;" x="57.6" xlink:href="#md1f1f4bc42" y="229.329039"/>
      </g>
     </g>
     <g id="text_9">
      <!-- −40 -->
      <g transform="translate(29.495313 233.128257)scale(0.1 -0.1)">
       <use xlink:href="#DejaVuSans-2212"/>
       <use x="83.789062" xlink:href="#DejaVuSans-34"/>
       <use x="147.412109" xlink:href="#DejaVuSans-30"/>
      </g>
     </g>
    </g>
    <g id="ytick_3">
     <g id="line2d_9">
      <g>
       <use style="stroke:#000000;stroke-width:0.8;" x="57.6" xlink:href="#md1f1f4bc42" y="184.486245"/>
      </g>
     </g>
     <g id="text_10">
      <!-- −30 -->
      <g transform="translate(29.495313 188.285464)scale(0.1 -0.1)">
       <use xlink:href="#DejaVuSans-2212"/>
       <use x="83.789062" xlink:href="#DejaVuSans-33"/>
       <use x="147.412109" xlink:href="#DejaVuSans-30"/>
      </g>
     </g>
    </g>
    <g id="ytick_4">
     <g id="line2d_10">
      <g>
       <use style="stroke:#000000;stroke-width:0.8;" x="57.6" xlink:href="#md1f1f4bc42" y="139.643451"/>
      </g>
     </g>
     <g id="text_11">
      <!-- −20 -->
      <g transform="translate(29.495313 143.44267)scale(0.1 -0.1)">
       <use xlink:href="#DejaVuSans-2212"/>
       <use x="83.789062" xlink:href="#DejaVuSans-32"/>
       <use x="147.412109" xlink:href="#DejaVuSans-30"/>
      </g>
     </g>
    </g>
    <g id="ytick_5">
     <g id="line2d_11">
      <g>
       <use style="stroke:#000000;stroke-width:0.8;" x="57.6" xlink:href="#md1f1f4bc42" y="94.800658"/>
      </g>
     </g>
     <g id="text_12">
      <!-- −10 -->
      <g transform="translate(29.495313 98.599876)scale(0.1 -0.1)">
       <use xlink:href="#DejaVuSans-2212"/>
       <use x="83.789062" xlink:href="#DejaVuSans-31"/>
       <use x="147.412109" xlink:href="#DejaVuSans-30"/>
      </g>
     </g>
    </g>
    <g id="ytick_6">
     <g id="line2d_12">
      <g>
       <use style="stroke:#000000;stroke-width:0.8;" x="57.6" xlink:href="#md1f1f4bc42" y="49.957864"/>
      </g>
     </g>
     <g id="text_13">
      <!-- 0 -->
      <g transform="translate(44.2375 53.757083)scale(0.1 -0.1)">
       <use xlink:href="#DejaVuSans-30"/>
      </g>
     </g>
    </g>
    <g id="text_14">
     <!-- mean rewards -->
     <defs>
      <path d="M 52 44.1875 
Q 55.375 50.25 60.0625 53.125 
Q 64.75 56 71.09375 56 
Q 79.640625 56 84.28125 50.015625 
Q 88.921875 44.046875 88.921875 33.015625 
L 88.921875 0 
L 79.890625 0 
L 79.890625 32.71875 
Q 79.890625 40.578125 77.09375 44.375 
Q 74.3125 48.1875 68.609375 48.1875 
Q 61.625 48.1875 57.5625 43.546875 
Q 53.515625 38.921875 53.515625 30.90625 
L 53.515625 0 
L 44.484375 0 
L 44.484375 32.71875 
Q 44.484375 40.625 41.703125 44.40625 
Q 38.921875 48.1875 33.109375 48.1875 
Q 26.21875 48.1875 22.15625 43.53125 
Q 18.109375 38.875 18.109375 30.90625 
L 18.109375 0 
L 9.078125 0 
L 9.078125 54.6875 
L 18.109375 54.6875 
L 18.109375 46.1875 
Q 21.1875 51.21875 25.484375 53.609375 
Q 29.78125 56 35.6875 56 
Q 41.65625 56 45.828125 52.96875 
Q 50 49.953125 52 44.1875 
z
" id="DejaVuSans-6d"/>
      <path d="M 34.28125 27.484375 
Q 23.390625 27.484375 19.1875 25 
Q 14.984375 22.515625 14.984375 16.5 
Q 14.984375 11.71875 18.140625 8.90625 
Q 21.296875 6.109375 26.703125 6.109375 
Q 34.1875 6.109375 38.703125 11.40625 
Q 43.21875 16.703125 43.21875 25.484375 
L 43.21875 27.484375 
z
M 52.203125 31.203125 
L 52.203125 0 
L 43.21875 0 
L 43.21875 8.296875 
Q 40.140625 3.328125 35.546875 0.953125 
Q 30.953125 -1.421875 24.3125 -1.421875 
Q 15.921875 -1.421875 10.953125 3.296875 
Q 6 8.015625 6 15.921875 
Q 6 25.140625 12.171875 29.828125 
Q 18.359375 34.515625 30.609375 34.515625 
L 43.21875 34.515625 
L 43.21875 35.40625 
Q 43.21875 41.609375 39.140625 45 
Q 35.0625 48.390625 27.6875 48.390625 
Q 23 48.390625 18.546875 47.265625 
Q 14.109375 46.140625 10.015625 43.890625 
L 10.015625 52.203125 
Q 14.9375 54.109375 19.578125 55.046875 
Q 24.21875 56 28.609375 56 
Q 40.484375 56 46.34375 49.84375 
Q 52.203125 43.703125 52.203125 31.203125 
z
" id="DejaVuSans-61"/>
      <path d="M 54.890625 33.015625 
L 54.890625 0 
L 45.90625 0 
L 45.90625 32.71875 
Q 45.90625 40.484375 42.875 44.328125 
Q 39.84375 48.1875 33.796875 48.1875 
Q 26.515625 48.1875 22.3125 43.546875 
Q 18.109375 38.921875 18.109375 30.90625 
L 18.109375 0 
L 9.078125 0 
L 9.078125 54.6875 
L 18.109375 54.6875 
L 18.109375 46.1875 
Q 21.34375 51.125 25.703125 53.5625 
Q 30.078125 56 35.796875 56 
Q 45.21875 56 50.046875 50.171875 
Q 54.890625 44.34375 54.890625 33.015625 
z
" id="DejaVuSans-6e"/>
      <path id="DejaVuSans-20"/>
      <path d="M 41.109375 46.296875 
Q 39.59375 47.171875 37.8125 47.578125 
Q 36.03125 48 33.890625 48 
Q 26.265625 48 22.1875 43.046875 
Q 18.109375 38.09375 18.109375 28.8125 
L 18.109375 0 
L 9.078125 0 
L 9.078125 54.6875 
L 18.109375 54.6875 
L 18.109375 46.1875 
Q 20.953125 51.171875 25.484375 53.578125 
Q 30.03125 56 36.53125 56 
Q 37.453125 56 38.578125 55.875 
Q 39.703125 55.765625 41.0625 55.515625 
z
" id="DejaVuSans-72"/>
      <path d="M 4.203125 54.6875 
L 13.1875 54.6875 
L 24.421875 12.015625 
L 35.59375 54.6875 
L 46.1875 54.6875 
L 57.421875 12.015625 
L 68.609375 54.6875 
L 77.59375 54.6875 
L 63.28125 0 
L 52.6875 0 
L 40.921875 44.828125 
L 29.109375 0 
L 18.5 0 
z
" id="DejaVuSans-77"/>
     </defs>
     <g transform="translate(23.415625 210.413938)rotate(-90)scale(0.1 -0.1)">
      <use xlink:href="#DejaVuSans-6d"/>
      <use x="97.412109" xlink:href="#DejaVuSans-65"/>
      <use x="158.935547" xlink:href="#DejaVuSans-61"/>
      <use x="220.214844" xlink:href="#DejaVuSans-6e"/>
      <use x="283.59375" xlink:href="#DejaVuSans-20"/>
      <use x="315.380859" xlink:href="#DejaVuSans-72"/>
      <use x="356.462891" xlink:href="#DejaVuSans-65"/>
      <use x="417.986328" xlink:href="#DejaVuSans-77"/>
      <use x="499.773438" xlink:href="#DejaVuSans-61"/>
      <use x="561.052734" xlink:href="#DejaVuSans-72"/>
      <use x="602.150391" xlink:href="#DejaVuSans-64"/>
      <use x="665.626953" xlink:href="#DejaVuSans-73"/>
     </g>
    </g>
   </g>
   <g id="line2d_13">
    <path clip-path="url(#p7accbbca24)" d="M 73.832727 251.850336 
L 74.483338 295.488 
L 75.133948 278.548188 
L 76.435169 239.434146 
L 77.085779 240.043002 
L 77.736389 235.448765 
L 78.386999 244.529201 
L 79.03761 237.183861 
L 79.68822 235.149934 
L 80.33883 239.074768 
L 80.989441 223.143348 
L 81.640051 213.585044 
L 82.290661 211.772212 
L 82.941272 211.389568 
L 83.591882 202.090358 
L 84.242492 195.493407 
L 84.893103 177.706315 
L 85.543713 173.015531 
L 86.194323 184.387128 
L 86.844934 164.866848 
L 87.495544 174.84293 
L 88.146154 195.437102 
L 88.796764 194.613489 
L 89.447375 204.605752 
L 90.097985 204.26131 
L 90.748595 205.627923 
L 91.399206 224.110471 
L 92.049816 230.027315 
L 92.700426 212.473074 
L 93.351037 242.194649 
L 94.001647 223.152284 
L 94.652257 197.201464 
L 95.302868 203.478816 
L 95.953478 188.091921 
L 96.604088 208.881839 
L 97.254698 209.145285 
L 97.905309 189.830105 
L 98.555919 183.496094 
L 99.206529 205.649504 
L 99.85714 178.567791 
L 100.50775 203.603514 
L 101.15836 208.457022 
L 101.808971 199.129397 
L 102.459581 204.017798 
L 103.110191 183.092088 
L 103.760802 198.38525 
L 104.411412 198.348737 
L 105.062022 200.173804 
L 105.712633 193.981137 
L 106.363243 198.434595 
L 107.013853 188.464049 
L 107.664463 188.532381 
L 108.315074 204.050438 
L 108.965684 206.862844 
L 109.616294 208.467259 
L 110.266905 189.61104 
L 110.917515 189.996991 
L 111.568125 213.289103 
L 112.218736 193.918959 
L 112.869346 195.912002 
L 113.519956 182.275919 
L 114.170567 176.907952 
L 114.821177 156.081936 
L 115.471787 155.906035 
L 116.122398 155.159195 
L 116.773008 158.437417 
L 117.423618 164.701115 
L 118.074228 137.44906 
L 118.724839 137.986971 
L 119.375449 134.113864 
L 120.026059 138.154766 
L 121.32728 141.244047 
L 121.97789 135.678853 
L 123.279111 128.253706 
L 123.929721 119.177288 
L 124.580332 119.653312 
L 125.230942 116.042743 
L 125.881552 117.98148 
L 126.532163 117.43159 
L 127.182773 119.100226 
L 127.833383 117.183464 
L 128.483993 112.637202 
L 129.134604 117.260124 
L 129.785214 129.607687 
L 130.435824 129.93301 
L 131.086435 134.755155 
L 131.737045 140.53909 
L 132.387655 132.386862 
L 133.038266 132.17862 
L 133.688876 134.42511 
L 134.339486 141.550509 
L 134.990097 147.014194 
L 135.640707 150.066751 
L 136.291317 141.02661 
L 136.941927 151.663193 
L 137.592538 149.245883 
L 138.243148 150.159335 
L 138.893758 155.260924 
L 139.544369 157.993827 
L 140.194979 157.319741 
L 140.845589 158.438564 
L 141.4962 158.477676 
L 142.14681 153.008413 
L 142.79742 164.648647 
L 143.448031 158.576607 
L 144.098641 161.54644 
L 144.749251 162.579127 
L 145.399862 158.876276 
L 146.050472 159.548566 
L 146.701082 163.07176 
L 147.351692 164.347195 
L 148.002303 159.375694 
L 148.652913 163.690515 
L 149.303523 156.298452 
L 149.954134 151.129476 
L 150.604744 151.029382 
L 151.255354 142.865963 
L 151.905965 149.000269 
L 152.556575 146.49041 
L 153.207185 148.369813 
L 153.857796 144.524865 
L 154.508406 154.112547 
L 155.159016 144.026436 
L 155.809627 137.444567 
L 156.460237 146.451225 
L 157.110847 139.01084 
L 157.761457 143.308458 
L 158.412068 140.888921 
L 159.062678 144.184647 
L 159.713288 139.779185 
L 160.363899 137.397248 
L 161.014509 138.661193 
L 161.665119 140.348747 
L 162.31573 136.136744 
L 162.96634 152.899171 
L 163.61695 151.366415 
L 164.267561 147.863047 
L 164.918171 150.021653 
L 165.568781 148.692226 
L 166.219392 146.874106 
L 166.870002 154.556125 
L 167.520612 146.448479 
L 168.171222 144.437501 
L 168.821833 143.85695 
L 169.472443 116.20244 
L 170.123053 125.796662 
L 170.773664 125.630375 
L 171.424274 117.410449 
L 172.074884 116.650684 
L 172.725495 118.826208 
L 173.376105 108.466745 
L 174.026715 105.838397 
L 174.677326 110.965584 
L 175.327936 119.284156 
L 175.978546 132.445734 
L 176.629156 129.312005 
L 177.279767 137.982842 
L 177.930377 137.74222 
L 179.231598 124.013783 
L 179.882208 122.201367 
L 180.532818 120.909079 
L 181.183429 130.386182 
L 182.484649 115.306521 
L 183.13526 108.286174 
L 183.78587 97.083108 
L 184.43648 97.847836 
L 185.087091 98.099612 
L 185.737701 99.670723 
L 186.388311 100.852083 
L 187.038921 111.573622 
L 187.689532 96.075304 
L 188.340142 95.411328 
L 188.990752 88.734271 
L 189.641363 89.476086 
L 190.291973 89.339088 
L 190.942583 99.226212 
L 191.593194 96.782601 
L 192.243804 108.352968 
L 192.894414 107.859094 
L 193.545025 96.742794 
L 194.195635 98.83404 
L 195.496856 99.299384 
L 196.147466 109.281281 
L 196.798076 110.096582 
L 197.448686 113.691041 
L 198.099297 115.928395 
L 198.749907 101.794109 
L 199.400517 100.400244 
L 200.051128 100.324392 
L 200.701738 99.276225 
L 201.352348 99.179978 
L 202.002959 100.511094 
L 202.653569 91.169039 
L 203.304179 92.18938 
L 203.95479 77.640298 
L 204.6054 87.812068 
L 205.25601 87.894874 
L 205.906621 88.722562 
L 206.557231 90.152322 
L 207.207841 89.241097 
L 207.858451 89.292472 
L 208.509062 87.543214 
L 209.159672 87.401785 
L 210.460893 110.382309 
L 211.111503 97.880895 
L 211.762113 97.320097 
L 212.412724 96.938739 
L 213.063334 94.861987 
L 213.713944 94.628643 
L 214.364555 103.489501 
L 215.015165 103.296049 
L 215.665775 101.950435 
L 216.316385 103.076537 
L 216.966996 91.413927 
L 217.617606 91.380043 
L 218.268216 91.604918 
L 219.569437 92.642154 
L 220.220047 92.378553 
L 220.870658 83.519997 
L 221.521268 99.729196 
L 222.171878 99.917237 
L 222.822489 85.687935 
L 223.473099 85.357607 
L 224.123709 85.577572 
L 224.77432 86.374854 
L 226.07554 109.072536 
L 227.376761 137.700121 
L 228.027371 122.791586 
L 228.677981 123.41274 
L 229.328592 125.100439 
L 229.979202 135.578001 
L 230.629812 135.565419 
L 231.280423 148.824441 
L 231.931033 151.787892 
L 232.581643 140.196815 
L 233.882864 111.265497 
L 235.184085 111.741225 
L 235.834695 111.423156 
L 236.485305 100.989662 
L 237.135915 101.675771 
L 238.437136 74.00145 
L 239.087746 75.456936 
L 239.738357 92.371238 
L 241.039577 116.441256 
L 242.340798 133.647798 
L 243.642019 155.660669 
L 244.292629 157.908194 
L 244.943239 158.352993 
L 245.59385 165.792786 
L 246.24446 149.694519 
L 246.89507 139.761662 
L 247.54568 127.49228 
L 248.196291 119.870087 
L 249.497511 99.184819 
L 250.148122 94.078184 
L 250.798732 93.094582 
L 251.449342 92.391351 
L 252.099953 82.305394 
L 252.750563 82.931552 
L 253.401173 82.366824 
L 254.051784 82.370895 
L 254.702394 81.308691 
L 255.353004 82.339363 
L 256.003615 90.536961 
L 256.654225 84.112349 
L 257.304835 83.937143 
L 257.955445 86.412377 
L 258.606056 97.492363 
L 259.256666 96.336438 
L 259.907276 94.831931 
L 260.557887 93.750159 
L 261.208497 96.907169 
L 261.859107 103.312434 
L 262.509718 95.371189 
L 263.160328 94.405671 
L 263.810938 94.012076 
L 264.461549 91.516635 
L 265.112159 81.857915 
L 265.762769 87.681904 
L 266.413379 87.48966 
L 267.06399 87.679017 
L 267.7146 84.553775 
L 268.36521 88.798656 
L 269.015821 88.803005 
L 269.666431 88.645134 
L 270.967652 87.898846 
L 271.618262 88.060888 
L 272.268872 83.494118 
L 272.919483 84.309894 
L 273.570093 84.278017 
L 274.220703 92.622151 
L 274.871314 83.046653 
L 276.172534 85.67509 
L 276.823144 88.35974 
L 278.124365 103.285645 
L 278.774975 102.018465 
L 279.425586 114.241273 
L 280.076196 117.853373 
L 280.726806 119.41341 
L 281.377417 131.069746 
L 282.028027 130.727455 
L 283.329248 146.810518 
L 283.979858 143.694136 
L 284.630468 142.586436 
L 285.281079 145.473748 
L 285.931689 133.135382 
L 286.582299 129.868535 
L 287.88352 119.485857 
L 288.53413 118.857469 
L 289.18474 111.236887 
L 289.835351 105.163512 
L 290.485961 101.673825 
L 291.136571 95.877707 
L 291.787182 93.20008 
L 292.437792 104.123178 
L 293.088402 111.589478 
L 293.739013 106.249707 
L 294.389623 98.683657 
L 295.040233 99.08112 
L 295.690844 99.132636 
L 296.341454 95.879882 
L 296.992064 104.450494 
L 297.642674 102.912932 
L 298.293285 111.248983 
L 298.943895 99.083093 
L 299.594505 103.156015 
L 300.245116 104.81298 
L 300.895726 105.207772 
L 301.546336 104.677419 
L 302.196947 117.442911 
L 302.847557 116.500783 
L 303.498167 113.386287 
L 304.148778 113.756237 
L 304.799388 105.525126 
L 305.449998 111.972272 
L 306.100608 106.613088 
L 307.401829 123.31451 
L 308.052439 133.253316 
L 308.70305 119.655076 
L 309.35366 129.092917 
L 310.00427 123.306331 
L 310.654881 129.362121 
L 311.305491 128.818448 
L 311.956101 133.449985 
L 312.606712 132.713944 
L 313.257322 123.209855 
L 314.558543 115.187539 
L 315.209153 119.452332 
L 315.859763 109.502192 
L 317.160984 110.540536 
L 317.811594 118.230578 
L 318.462204 109.043961 
L 319.112815 102.841584 
L 319.763425 108.828299 
L 321.064646 114.086929 
L 321.715256 113.858641 
L 322.365866 114.020415 
L 323.016477 122.404504 
L 324.317697 108.667154 
L 324.968308 112.706107 
L 325.618918 113.619697 
L 326.269528 116.048633 
L 326.920138 117.165662 
L 327.570749 113.96674 
L 328.221359 116.700367 
L 328.871969 121.515246 
L 329.52258 121.022748 
L 330.17319 120.97522 
L 330.8238 125.854536 
L 331.474411 120.984973 
L 332.125021 127.092982 
L 332.775631 125.922961 
L 334.076852 132.879289 
L 334.727462 131.403597 
L 335.378073 132.594471 
L 336.028683 130.917106 
L 336.679293 131.520143 
L 337.329903 126.631639 
L 337.980514 133.618596 
L 338.631124 133.150417 
L 339.281734 126.93172 
L 340.582955 105.250043 
L 341.884176 93.392175 
L 342.534786 92.188109 
L 343.185396 99.432802 
L 343.836007 102.589786 
L 344.486617 95.341243 
L 345.137227 96.523858 
L 345.787837 105.516245 
L 346.438448 106.507587 
L 347.089058 112.76436 
L 348.390279 127.767762 
L 349.040889 126.217058 
L 349.691499 120.059652 
L 350.34211 125.841813 
L 350.99272 136.631765 
L 351.64333 139.89583 
L 352.293941 139.414175 
L 352.944551 148.551305 
L 353.595161 156.054804 
L 354.245772 157.223289 
L 354.896382 157.658081 
L 355.546992 152.735579 
L 356.197602 156.763942 
L 356.848213 153.342913 
L 357.498823 151.165736 
L 358.149433 144.543163 
L 358.800044 144.126641 
L 359.450654 142.553795 
L 360.101264 133.902558 
L 360.751875 133.546495 
L 361.402485 131.732006 
L 362.053095 140.259808 
L 362.703706 143.726229 
L 363.354316 138.572626 
L 364.004926 138.374719 
L 364.655537 135.436132 
L 365.306147 133.765974 
L 365.956757 130.621432 
L 366.607367 131.885081 
L 367.257978 137.209435 
L 367.908588 136.075228 
L 368.559198 129.040541 
L 369.209809 132.639202 
L 369.860419 137.194336 
L 370.511029 130.381419 
L 371.16164 135.62649 
L 371.81225 129.568765 
L 373.113471 132.799204 
L 373.764081 119.508926 
L 374.414691 121.605369 
L 375.065302 128.311232 
L 375.715912 123.441989 
L 376.366522 133.945677 
L 377.017132 132.431448 
L 377.667743 126.565014 
L 378.318353 132.025724 
L 378.968963 134.093689 
L 379.619574 130.757524 
L 380.270184 135.735717 
L 380.920794 134.410957 
L 381.571405 136.785223 
L 382.222015 133.656784 
L 382.872625 123.521293 
L 383.523236 129.450842 
L 384.173846 136.63028 
L 384.824456 129.09859 
L 385.475066 123.4362 
L 386.125677 120.441061 
L 387.426897 125.801009 
L 388.077508 115.718067 
L 389.378728 123.025183 
L 390.029339 119.793377 
L 390.679949 123.205943 
L 391.330559 147.642978 
L 391.98117 148.319498 
L 392.63178 146.623143 
L 393.28239 140.701156 
L 393.933001 132.886119 
L 394.583611 152.094342 
L 395.234221 143.682602 
L 395.884831 141.300964 
L 396.535442 139.370541 
L 397.186052 127.98445 
L 397.836662 110.618205 
L 398.487273 116.838987 
L 398.487273 116.838987 
" style="fill:none;stroke:#1f77b4;stroke-linecap:square;stroke-width:1.5;"/>
   </g>
   <g id="line2d_14">
    <path clip-path="url(#p7accbbca24)" d="M 73.832727 128.956651 
L 74.483338 155.187397 
L 75.133948 143.506483 
L 75.784558 125.84076 
L 76.435169 112.977714 
L 77.085779 122.547861 
L 77.736389 126.643298 
L 78.386999 118.319244 
L 79.03761 122.559831 
L 79.68822 122.531983 
L 80.33883 132.962808 
L 80.989441 129.673787 
L 81.640051 124.255927 
L 82.290661 123.601052 
L 82.941272 125.10958 
L 83.591882 124.333748 
L 84.242492 127.783209 
L 84.893103 127.666712 
L 85.543713 118.414564 
L 86.194323 126.073262 
L 86.844934 113.414588 
L 87.495544 106.188311 
L 88.146154 121.256385 
L 88.796764 120.415117 
L 89.447375 130.441231 
L 90.097985 120.440539 
L 90.748595 108.094398 
L 91.399206 108.52002 
L 92.049816 109.18122 
L 92.700426 95.356064 
L 93.351037 90.744742 
L 94.001647 90.330019 
L 94.652257 76.113697 
L 95.302868 77.042739 
L 95.953478 75.559775 
L 96.604088 75.755634 
L 97.254698 75.632181 
L 97.905309 75.770506 
L 98.555919 75.467205 
L 99.206529 91.235846 
L 99.85714 92.716324 
L 100.50775 92.293251 
L 101.15836 90.538709 
L 101.808971 90.937241 
L 102.459581 80.819275 
L 103.110191 80.471626 
L 103.760802 81.855819 
L 104.411412 81.361811 
L 105.062022 80.712112 
L 105.712633 64.995372 
L 106.363243 64.22253 
L 107.013853 77.022491 
L 107.664463 77.559239 
L 108.315074 77.725519 
L 108.965684 77.358503 
L 109.616294 77.84269 
L 110.266905 76.202894 
L 110.917515 76.603817 
L 111.568125 76.320695 
L 112.218736 76.278146 
L 112.869346 76.442796 
L 113.519956 62.540751 
L 114.170567 62.455826 
L 114.821177 61.431697 
L 115.471787 61.511449 
L 116.122398 60.858449 
L 116.773008 61.388091 
L 117.423618 73.330348 
L 118.074228 73.724004 
L 118.724839 73.449232 
L 119.375449 72.122331 
L 120.026059 72.663124 
L 120.67667 72.61097 
L 121.32728 72.109733 
L 121.97789 72.83155 
L 122.628501 72.628224 
L 123.279111 71.952923 
L 123.929721 59.162155 
L 124.580332 58.65139 
L 125.230942 58.649463 
L 125.881552 58.932926 
L 126.532163 59.853213 
L 127.182773 59.318624 
L 127.833383 59.21808 
L 128.483993 58.445649 
L 129.134604 58.936755 
L 129.785214 58.936111 
L 130.435824 59.459784 
L 131.737045 59.466252 
L 132.387655 59.328793 
L 133.038266 57.722891 
L 134.990097 57.760974 
L 135.640707 57.383867 
L 136.291317 57.609101 
L 138.243148 58.618163 
L 138.893758 58.574379 
L 139.544369 58.743956 
L 141.4962 58.770639 
L 142.14681 59.085451 
L 142.79742 58.925477 
L 143.448031 58.128791 
L 144.098641 57.801552 
L 144.749251 57.249834 
L 145.399862 57.755826 
L 146.050472 57.625499 
L 147.351692 57.825109 
L 149.303523 57.205962 
L 149.954134 57.336106 
L 150.604744 57.23712 
L 151.255354 57.301148 
L 151.905965 56.956745 
L 153.207185 56.918574 
L 153.857796 56.713423 
L 154.508406 56.851205 
L 155.159016 56.68726 
L 156.460237 56.574518 
L 157.110847 56.445776 
L 157.761457 56.497412 
L 159.062678 56.226553 
L 160.363899 56.343433 
L 161.014509 56.061694 
L 161.665119 56.150645 
L 162.31573 56.117948 
L 163.61695 56.429053 
L 164.918171 56.163796 
L 165.568781 56.524485 
L 166.219392 56.352423 
L 166.870002 56.438983 
L 167.520612 56.638387 
L 168.171222 56.338481 
L 170.123053 56.02167 
L 171.424274 56.243795 
L 172.074884 55.972807 
L 174.026715 56.056623 
L 174.677326 56.783381 
L 175.327936 56.940246 
L 175.978546 56.698418 
L 176.629156 56.836484 
L 179.231598 56.690308 
L 179.882208 56.492346 
L 180.532818 56.491004 
L 181.183429 55.919483 
L 181.834039 55.884784 
L 182.484649 56.136988 
L 183.78587 56.21587 
L 184.43648 56.063147 
L 187.038921 56.240618 
L 189.641363 56.158118 
L 190.291973 56.005319 
L 190.942583 56.273316 
L 194.846245 55.87354 
L 195.496856 55.567454 
L 196.798076 55.515574 
L 197.448686 55.133074 
L 198.749907 55.208753 
L 199.400517 55.122941 
L 200.051128 55.159812 
L 200.701738 55.03247 
L 205.25601 55.491494 
L 206.557231 55.35072 
L 207.207841 55.623213 
L 207.858451 55.688048 
L 208.509062 55.557148 
L 209.159672 55.688698 
L 209.810282 55.559701 
L 213.063334 55.601086 
L 213.713944 55.324242 
L 215.015165 55.100623 
L 218.268216 55.350978 
L 219.569437 55.198764 
L 220.870658 55.385121 
L 222.822489 55.18756 
L 223.473099 55.145992 
L 224.123709 55.253513 
L 224.77432 55.131572 
L 226.72615 55.038386 
L 227.376761 54.986983 
L 228.027371 55.208759 
L 228.677981 54.962258 
L 229.328592 54.973912 
L 229.979202 54.75989 
L 231.280423 54.735946 
L 233.232254 54.871153 
L 235.834695 54.644751 
L 236.485305 54.793546 
L 237.135915 54.711088 
L 237.786526 54.757236 
L 239.738357 54.653617 
L 241.039577 54.592907 
L 241.690188 54.7643 
L 243.642019 54.768369 
L 244.292629 54.706273 
L 245.59385 54.867157 
L 246.24446 54.817166 
L 247.54568 54.918957 
L 248.846901 54.634554 
L 250.148122 54.729887 
L 250.798732 54.783521 
L 252.750563 54.45572 
L 254.702394 54.550493 
L 255.353004 54.686185 
L 256.654225 54.554591 
L 257.304835 54.545512 
L 257.955445 54.681215 
L 261.859107 54.589289 
L 262.509718 54.477219 
L 270.317041 54.735658 
L 271.618262 54.583967 
L 273.570093 54.455811 
L 276.823144 54.27033 
L 277.473755 54.391771 
L 279.425586 54.205628 
L 283.329248 54.432311 
L 283.979858 54.327291 
L 287.88352 54.412957 
L 288.53413 54.345775 
L 290.485961 54.407666 
L 291.787182 54.288353 
L 293.088402 54.22791 
L 293.739013 54.296634 
L 297.642674 53.998871 
L 299.594505 54.105952 
L 302.196947 54.095685 
L 303.498167 54.138896 
L 304.148778 54.286651 
L 304.799388 54.24803 
L 305.449998 54.343249 
L 308.052439 54.183762 
L 311.956101 53.998415 
L 312.606712 53.879131 
L 315.859763 54.054291 
L 318.462204 54.033013 
L 319.763425 54.096219 
L 322.365866 53.89749 
L 324.317697 53.897796 
L 326.920138 53.867906 
L 330.17319 53.981868 
L 332.775631 53.950271 
L 334.076852 53.896436 
L 335.378073 53.724979 
L 339.932345 53.688106 
L 341.884176 53.810764 
L 344.486617 53.905297 
L 348.390279 54.117283 
L 349.691499 54.097786 
L 355.546992 53.777201 
L 357.498823 53.822681 
L 360.751875 53.944251 
L 362.053095 54.003968 
L 366.607367 53.762829 
L 371.81225 53.705158 
L 373.113471 53.683324 
L 380.270184 53.769759 
L 384.173846 53.783748 
L 388.728118 53.586295 
L 391.330559 53.627539 
L 392.63178 53.619742 
L 394.583611 53.692792 
L 398.487273 53.761798 
L 398.487273 53.761798 
" style="fill:none;stroke:#ff7f0e;stroke-linecap:square;stroke-width:1.5;"/>
   </g>
   <g id="patch_3">
    <path d="M 57.6 307.584 
L 57.6 41.472 
" style="fill:none;stroke:#000000;stroke-linecap:square;stroke-linejoin:miter;stroke-width:0.8;"/>
   </g>
   <g id="patch_4">
    <path d="M 414.72 307.584 
L 414.72 41.472 
" style="fill:none;stroke:#000000;stroke-linecap:square;stroke-linejoin:miter;stroke-width:0.8;"/>
   </g>
   <g id="patch_5">
    <path d="M 57.6 307.584 
L 414.72 307.584 
" style="fill:none;stroke:#000000;stroke-linecap:square;stroke-linejoin:miter;stroke-width:0.8;"/>
   </g>
   <g id="patch_6">
    <path d="M 57.6 41.472 
L 414.72 41.472 
" style="fill:none;stroke:#000000;stroke-linecap:square;stroke-linejoin:miter;stroke-width:0.8;"/>
   </g>
   <g id="legend_1">
    <g id="patch_7">
     <path d="M 332.584063 302.584 
L 407.72 302.584 
Q 409.72 302.584 409.72 300.584 
L 409.72 272.22775 
Q 409.72 270.22775 407.72 270.22775 
L 332.584063 270.22775 
Q 330.584063 270.22775 330.584063 272.22775 
L 330.584063 300.584 
Q 330.584063 302.584 332.584063 302.584 
z
" style="fill:#ffffff;opacity:0.8;stroke:#cccccc;stroke-linejoin:miter;"/>
    </g>
    <g id="line2d_15">
     <path d="M 334.584063 278.326187 
L 354.584063 278.326187 
" style="fill:none;stroke:#1f77b4;stroke-linecap:square;stroke-width:1.5;"/>
    </g>
    <g id="line2d_16"/>
    <g id="text_15">
     <!-- r&lt;=0.02 -->
     <defs>
      <path d="M 73.1875 49.21875 
L 22.796875 31.296875 
L 73.1875 13.484375 
L 73.1875 4.59375 
L 10.59375 27.296875 
L 10.59375 35.40625 
L 73.1875 58.109375 
z
" id="DejaVuSans-3c"/>
      <path d="M 10.59375 45.40625 
L 73.1875 45.40625 
L 73.1875 37.203125 
L 10.59375 37.203125 
z
M 10.59375 25.484375 
L 73.1875 25.484375 
L 73.1875 17.1875 
L 10.59375 17.1875 
z
" id="DejaVuSans-3d"/>
      <path d="M 10.6875 12.40625 
L 21 12.40625 
L 21 0 
L 10.6875 0 
z
" id="DejaVuSans-2e"/>
     </defs>
     <g transform="translate(362.584063 281.826187)scale(0.1 -0.1)">
      <use xlink:href="#DejaVuSans-72"/>
      <use x="41.113281" xlink:href="#DejaVuSans-3c"/>
      <use x="124.902344" xlink:href="#DejaVuSans-3d"/>
      <use x="208.691406" xlink:href="#DejaVuSans-30"/>
      <use x="272.314453" xlink:href="#DejaVuSans-2e"/>
      <use x="304.101562" xlink:href="#DejaVuSans-30"/>
      <use x="367.724609" xlink:href="#DejaVuSans-32"/>
     </g>
    </g>
    <g id="line2d_17">
     <path d="M 334.584063 293.004312 
L 354.584063 293.004312 
" style="fill:none;stroke:#ff7f0e;stroke-linecap:square;stroke-width:1.5;"/>
    </g>
    <g id="line2d_18"/>
    <g id="text_16">
     <!-- r&lt;=0.01 -->
     <g transform="translate(362.584063 296.504312)scale(0.1 -0.1)">
      <use xlink:href="#DejaVuSans-72"/>
      <use x="41.113281" xlink:href="#DejaVuSans-3c"/>
      <use x="124.902344" xlink:href="#DejaVuSans-3d"/>
      <use x="208.691406" xlink:href="#DejaVuSans-30"/>
      <use x="272.314453" xlink:href="#DejaVuSans-2e"/>
      <use x="304.101562" xlink:href="#DejaVuSans-30"/>
      <use x="367.724609" xlink:href="#DejaVuSans-31"/>
     </g>
    </g>
   </g>
  </g>
 </g>
 <defs>
  <clipPath id="p7accbbca24">
   <rect height="266.112" width="357.12" x="57.6" y="41.472"/>
  </clipPath>
 </defs>
</svg>
