<?xml version="1.0" encoding="utf-8" standalone="no"?>
<!DOCTYPE svg PUBLIC "-//W3C//DTD SVG 1.1//EN"
  "http://www.w3.org/Graphics/SVG/1.1/DTD/svg11.dtd">
<!-- Created with matplotlib (http://matplotlib.org/) -->
<svg height="345pt" version="1.1" viewBox="0 0 460 345" width="460pt" xmlns="http://www.w3.org/2000/svg" xmlns:xlink="http://www.w3.org/1999/xlink">
 <defs>
  <style type="text/css">
*{stroke-linecap:butt;stroke-linejoin:round;}
  </style>
 </defs>
 <g id="figure_1">
  <g id="patch_1">
   <path d="M 0 345.6 
L 460.8 345.6 
L 460.8 0 
L 0 0 
z
" style="fill:#ffffff;"/>
  </g>
  <g id="axes_1">
   <g id="patch_2">
    <path d="M 57.6 307.584 
L 414.72 307.584 
L 414.72 41.472 
L 57.6 41.472 
z
" style="fill:#ffffff;"/>
   </g>
   <g id="matplotlib.axis_1">
    <g id="xtick_1">
     <g id="line2d_1">
      <defs>
       <path d="M 0 0 
L 0 3.5 
" id="mb057053751" style="stroke:#000000;stroke-width:0.8;"/>
      </defs>
      <g>
       <use style="stroke:#000000;stroke-width:0.8;" x="73.832727" xlink:href="#mb057053751" y="307.584"/>
      </g>
     </g>
     <g id="text_1">
      <!-- 0 -->
      <defs>
       <path d="M 31.78125 66.40625 
Q 24.171875 66.40625 20.328125 58.90625 
Q 16.5 51.421875 16.5 36.375 
Q 16.5 21.390625 20.328125 13.890625 
Q 24.171875 6.390625 31.78125 6.390625 
Q 39.453125 6.390625 43.28125 13.890625 
Q 47.125 21.390625 47.125 36.375 
Q 47.125 51.421875 43.28125 58.90625 
Q 39.453125 66.40625 31.78125 66.40625 
z
M 31.78125 74.21875 
Q 44.046875 74.21875 50.515625 64.515625 
Q 56.984375 54.828125 56.984375 36.375 
Q 56.984375 17.96875 50.515625 8.265625 
Q 44.046875 -1.421875 31.78125 -1.421875 
Q 19.53125 -1.421875 13.0625 8.265625 
Q 6.59375 17.96875 6.59375 36.375 
Q 6.59375 54.828125 13.0625 64.515625 
Q 19.53125 74.21875 31.78125 74.21875 
z
" id="DejaVuSans-30"/>
      </defs>
      <g transform="translate(70.651477 322.182437)scale(0.1 -0.1)">
       <use xlink:href="#DejaVuSans-30"/>
      </g>
     </g>
    </g>
    <g id="xtick_2">
     <g id="line2d_2">
      <g>
       <use style="stroke:#000000;stroke-width:0.8;" x="138.893758" xlink:href="#mb057053751" y="307.584"/>
      </g>
     </g>
     <g id="text_2">
      <!-- 100 -->
      <defs>
       <path d="M 12.40625 8.296875 
L 28.515625 8.296875 
L 28.515625 63.921875 
L 10.984375 60.40625 
L 10.984375 69.390625 
L 28.421875 72.90625 
L 38.28125 72.90625 
L 38.28125 8.296875 
L 54.390625 8.296875 
L 54.390625 0 
L 12.40625 0 
z
" id="DejaVuSans-31"/>
      </defs>
      <g transform="translate(129.350008 322.182437)scale(0.1 -0.1)">
       <use xlink:href="#DejaVuSans-31"/>
       <use x="63.623047" xlink:href="#DejaVuSans-30"/>
       <use x="127.246094" xlink:href="#DejaVuSans-30"/>
      </g>
     </g>
    </g>
    <g id="xtick_3">
     <g id="line2d_3">
      <g>
       <use style="stroke:#000000;stroke-width:0.8;" x="203.95479" xlink:href="#mb057053751" y="307.584"/>
      </g>
     </g>
     <g id="text_3">
      <!-- 200 -->
      <defs>
       <path d="M 19.1875 8.296875 
L 53.609375 8.296875 
L 53.609375 0 
L 7.328125 0 
L 7.328125 8.296875 
Q 12.9375 14.109375 22.625 23.890625 
Q 32.328125 33.6875 34.8125 36.53125 
Q 39.546875 41.84375 41.421875 45.53125 
Q 43.3125 49.21875 43.3125 52.78125 
Q 43.3125 58.59375 39.234375 62.25 
Q 35.15625 65.921875 28.609375 65.921875 
Q 23.96875 65.921875 18.8125 64.3125 
Q 13.671875 62.703125 7.8125 59.421875 
L 7.8125 69.390625 
Q 13.765625 71.78125 18.9375 73 
Q 24.125 74.21875 28.421875 74.21875 
Q 39.75 74.21875 46.484375 68.546875 
Q 53.21875 62.890625 53.21875 53.421875 
Q 53.21875 48.921875 51.53125 44.890625 
Q 49.859375 40.875 45.40625 35.40625 
Q 44.1875 33.984375 37.640625 27.21875 
Q 31.109375 20.453125 19.1875 8.296875 
z
" id="DejaVuSans-32"/>
      </defs>
      <g transform="translate(194.41104 322.182437)scale(0.1 -0.1)">
       <use xlink:href="#DejaVuSans-32"/>
       <use x="63.623047" xlink:href="#DejaVuSans-30"/>
       <use x="127.246094" xlink:href="#DejaVuSans-30"/>
      </g>
     </g>
    </g>
    <g id="xtick_4">
     <g id="line2d_4">
      <g>
       <use style="stroke:#000000;stroke-width:0.8;" x="269.015821" xlink:href="#mb057053751" y="307.584"/>
      </g>
     </g>
     <g id="text_4">
      <!-- 300 -->
      <defs>
       <path d="M 40.578125 39.3125 
Q 47.65625 37.796875 51.625 33 
Q 55.609375 28.21875 55.609375 21.1875 
Q 55.609375 10.40625 48.1875 4.484375 
Q 40.765625 -1.421875 27.09375 -1.421875 
Q 22.515625 -1.421875 17.65625 -0.515625 
Q 12.796875 0.390625 7.625 2.203125 
L 7.625 11.71875 
Q 11.71875 9.328125 16.59375 8.109375 
Q 21.484375 6.890625 26.8125 6.890625 
Q 36.078125 6.890625 40.9375 10.546875 
Q 45.796875 14.203125 45.796875 21.1875 
Q 45.796875 27.640625 41.28125 31.265625 
Q 36.765625 34.90625 28.71875 34.90625 
L 20.21875 34.90625 
L 20.21875 43.015625 
L 29.109375 43.015625 
Q 36.375 43.015625 40.234375 45.921875 
Q 44.09375 48.828125 44.09375 54.296875 
Q 44.09375 59.90625 40.109375 62.90625 
Q 36.140625 65.921875 28.71875 65.921875 
Q 24.65625 65.921875 20.015625 65.03125 
Q 15.375 64.15625 9.8125 62.3125 
L 9.8125 71.09375 
Q 15.4375 72.65625 20.34375 73.4375 
Q 25.25 74.21875 29.59375 74.21875 
Q 40.828125 74.21875 47.359375 69.109375 
Q 53.90625 64.015625 53.90625 55.328125 
Q 53.90625 49.265625 50.4375 45.09375 
Q 46.96875 40.921875 40.578125 39.3125 
z
" id="DejaVuSans-33"/>
      </defs>
      <g transform="translate(259.472071 322.182437)scale(0.1 -0.1)">
       <use xlink:href="#DejaVuSans-33"/>
       <use x="63.623047" xlink:href="#DejaVuSans-30"/>
       <use x="127.246094" xlink:href="#DejaVuSans-30"/>
      </g>
     </g>
    </g>
    <g id="xtick_5">
     <g id="line2d_5">
      <g>
       <use style="stroke:#000000;stroke-width:0.8;" x="334.076852" xlink:href="#mb057053751" y="307.584"/>
      </g>
     </g>
     <g id="text_5">
      <!-- 400 -->
      <defs>
       <path d="M 37.796875 64.3125 
L 12.890625 25.390625 
L 37.796875 25.390625 
z
M 35.203125 72.90625 
L 47.609375 72.90625 
L 47.609375 25.390625 
L 58.015625 25.390625 
L 58.015625 17.1875 
L 47.609375 17.1875 
L 47.609375 0 
L 37.796875 0 
L 37.796875 17.1875 
L 4.890625 17.1875 
L 4.890625 26.703125 
z
" id="DejaVuSans-34"/>
      </defs>
      <g transform="translate(324.533102 322.182437)scale(0.1 -0.1)">
       <use xlink:href="#DejaVuSans-34"/>
       <use x="63.623047" xlink:href="#DejaVuSans-30"/>
       <use x="127.246094" xlink:href="#DejaVuSans-30"/>
      </g>
     </g>
    </g>
    <g id="xtick_6">
     <g id="line2d_6">
      <g>
       <use style="stroke:#000000;stroke-width:0.8;" x="399.137883" xlink:href="#mb057053751" y="307.584"/>
      </g>
     </g>
     <g id="text_6">
      <!-- 500 -->
      <defs>
       <path d="M 10.796875 72.90625 
L 49.515625 72.90625 
L 49.515625 64.59375 
L 19.828125 64.59375 
L 19.828125 46.734375 
Q 21.96875 47.46875 24.109375 47.828125 
Q 26.265625 48.1875 28.421875 48.1875 
Q 40.625 48.1875 47.75 41.5 
Q 54.890625 34.8125 54.890625 23.390625 
Q 54.890625 11.625 47.5625 5.09375 
Q 40.234375 -1.421875 26.90625 -1.421875 
Q 22.3125 -1.421875 17.546875 -0.640625 
Q 12.796875 0.140625 7.71875 1.703125 
L 7.71875 11.625 
Q 12.109375 9.234375 16.796875 8.0625 
Q 21.484375 6.890625 26.703125 6.890625 
Q 35.15625 6.890625 40.078125 11.328125 
Q 45.015625 15.765625 45.015625 23.390625 
Q 45.015625 31 40.078125 35.4375 
Q 35.15625 39.890625 26.703125 39.890625 
Q 22.75 39.890625 18.8125 39.015625 
Q 14.890625 38.140625 10.796875 36.28125 
z
" id="DejaVuSans-35"/>
      </defs>
      <g transform="translate(389.594133 322.182437)scale(0.1 -0.1)">
       <use xlink:href="#DejaVuSans-35"/>
       <use x="63.623047" xlink:href="#DejaVuSans-30"/>
       <use x="127.246094" xlink:href="#DejaVuSans-30"/>
      </g>
     </g>
    </g>
    <g id="text_7">
     <!-- episodes -->
     <defs>
      <path d="M 56.203125 29.59375 
L 56.203125 25.203125 
L 14.890625 25.203125 
Q 15.484375 15.921875 20.484375 11.0625 
Q 25.484375 6.203125 34.421875 6.203125 
Q 39.59375 6.203125 44.453125 7.46875 
Q 49.3125 8.734375 54.109375 11.28125 
L 54.109375 2.78125 
Q 49.265625 0.734375 44.1875 -0.34375 
Q 39.109375 -1.421875 33.890625 -1.421875 
Q 20.796875 -1.421875 13.15625 6.1875 
Q 5.515625 13.8125 5.515625 26.8125 
Q 5.515625 40.234375 12.765625 48.109375 
Q 20.015625 56 32.328125 56 
Q 43.359375 56 49.78125 48.890625 
Q 56.203125 41.796875 56.203125 29.59375 
z
M 47.21875 32.234375 
Q 47.125 39.59375 43.09375 43.984375 
Q 39.0625 48.390625 32.421875 48.390625 
Q 24.90625 48.390625 20.390625 44.140625 
Q 15.875 39.890625 15.1875 32.171875 
z
" id="DejaVuSans-65"/>
      <path d="M 18.109375 8.203125 
L 18.109375 -20.796875 
L 9.078125 -20.796875 
L 9.078125 54.6875 
L 18.109375 54.6875 
L 18.109375 46.390625 
Q 20.953125 51.265625 25.265625 53.625 
Q 29.59375 56 35.59375 56 
Q 45.5625 56 51.78125 48.09375 
Q 58.015625 40.1875 58.015625 27.296875 
Q 58.015625 14.40625 51.78125 6.484375 
Q 45.5625 -1.421875 35.59375 -1.421875 
Q 29.59375 -1.421875 25.265625 0.953125 
Q 20.953125 3.328125 18.109375 8.203125 
z
M 48.6875 27.296875 
Q 48.6875 37.203125 44.609375 42.84375 
Q 40.53125 48.484375 33.40625 48.484375 
Q 26.265625 48.484375 22.1875 42.84375 
Q 18.109375 37.203125 18.109375 27.296875 
Q 18.109375 17.390625 22.1875 11.75 
Q 26.265625 6.109375 33.40625 6.109375 
Q 40.53125 6.109375 44.609375 11.75 
Q 48.6875 17.390625 48.6875 27.296875 
z
" id="DejaVuSans-70"/>
      <path d="M 9.421875 54.6875 
L 18.40625 54.6875 
L 18.40625 0 
L 9.421875 0 
z
M 9.421875 75.984375 
L 18.40625 75.984375 
L 18.40625 64.59375 
L 9.421875 64.59375 
z
" id="DejaVuSans-69"/>
      <path d="M 44.28125 53.078125 
L 44.28125 44.578125 
Q 40.484375 46.53125 36.375 47.5 
Q 32.28125 48.484375 27.875 48.484375 
Q 21.1875 48.484375 17.84375 46.4375 
Q 14.5 44.390625 14.5 40.28125 
Q 14.5 37.15625 16.890625 35.375 
Q 19.28125 33.59375 26.515625 31.984375 
L 29.59375 31.296875 
Q 39.15625 29.25 43.1875 25.515625 
Q 47.21875 21.78125 47.21875 15.09375 
Q 47.21875 7.46875 41.1875 3.015625 
Q 35.15625 -1.421875 24.609375 -1.421875 
Q 20.21875 -1.421875 15.453125 -0.5625 
Q 10.6875 0.296875 5.421875 2 
L 5.421875 11.28125 
Q 10.40625 8.6875 15.234375 7.390625 
Q 20.0625 6.109375 24.8125 6.109375 
Q 31.15625 6.109375 34.5625 8.28125 
Q 37.984375 10.453125 37.984375 14.40625 
Q 37.984375 18.0625 35.515625 20.015625 
Q 33.0625 21.96875 24.703125 23.78125 
L 21.578125 24.515625 
Q 13.234375 26.265625 9.515625 29.90625 
Q 5.8125 33.546875 5.8125 39.890625 
Q 5.8125 47.609375 11.28125 51.796875 
Q 16.75 56 26.8125 56 
Q 31.78125 56 36.171875 55.265625 
Q 40.578125 54.546875 44.28125 53.078125 
z
" id="DejaVuSans-73"/>
      <path d="M 30.609375 48.390625 
Q 23.390625 48.390625 19.1875 42.75 
Q 14.984375 37.109375 14.984375 27.296875 
Q 14.984375 17.484375 19.15625 11.84375 
Q 23.34375 6.203125 30.609375 6.203125 
Q 37.796875 6.203125 41.984375 11.859375 
Q 46.1875 17.53125 46.1875 27.296875 
Q 46.1875 37.015625 41.984375 42.703125 
Q 37.796875 48.390625 30.609375 48.390625 
z
M 30.609375 56 
Q 42.328125 56 49.015625 48.375 
Q 55.71875 40.765625 55.71875 27.296875 
Q 55.71875 13.875 49.015625 6.21875 
Q 42.328125 -1.421875 30.609375 -1.421875 
Q 18.84375 -1.421875 12.171875 6.21875 
Q 5.515625 13.875 5.515625 27.296875 
Q 5.515625 40.765625 12.171875 48.375 
Q 18.84375 56 30.609375 56 
z
" id="DejaVuSans-6f"/>
      <path d="M 45.40625 46.390625 
L 45.40625 75.984375 
L 54.390625 75.984375 
L 54.390625 0 
L 45.40625 0 
L 45.40625 8.203125 
Q 42.578125 3.328125 38.25 0.953125 
Q 33.9375 -1.421875 27.875 -1.421875 
Q 17.96875 -1.421875 11.734375 6.484375 
Q 5.515625 14.40625 5.515625 27.296875 
Q 5.515625 40.1875 11.734375 48.09375 
Q 17.96875 56 27.875 56 
Q 33.9375 56 38.25 53.625 
Q 42.578125 51.265625 45.40625 46.390625 
z
M 14.796875 27.296875 
Q 14.796875 17.390625 18.875 11.75 
Q 22.953125 6.109375 30.078125 6.109375 
Q 37.203125 6.109375 41.296875 11.75 
Q 45.40625 17.390625 45.40625 27.296875 
Q 45.40625 37.203125 41.296875 42.84375 
Q 37.203125 48.484375 30.078125 48.484375 
Q 22.953125 48.484375 18.875 42.84375 
Q 14.796875 37.203125 14.796875 27.296875 
z
" id="DejaVuSans-64"/>
     </defs>
     <g transform="translate(214.000625 335.860562)scale(0.1 -0.1)">
      <use xlink:href="#DejaVuSans-65"/>
      <use x="61.523438" xlink:href="#DejaVuSans-70"/>
      <use x="125" xlink:href="#DejaVuSans-69"/>
      <use x="152.783203" xlink:href="#DejaVuSans-73"/>
      <use x="204.882812" xlink:href="#DejaVuSans-6f"/>
      <use x="266.064453" xlink:href="#DejaVuSans-64"/>
      <use x="329.541016" xlink:href="#DejaVuSans-65"/>
      <use x="391.064453" xlink:href="#DejaVuSans-73"/>
     </g>
    </g>
   </g>
   <g id="matplotlib.axis_2">
    <g id="ytick_1">
     <g id="line2d_7">
      <defs>
       <path d="M 0 0 
L -3.5 0 
" id="mfa47f1de83" style="stroke:#000000;stroke-width:0.8;"/>
      </defs>
      <g>
       <use style="stroke:#000000;stroke-width:0.8;" x="57.6" xlink:href="#mfa47f1de83" y="274.186977"/>
      </g>
     </g>
     <g id="text_8">
      <!-- −50 -->
      <defs>
       <path d="M 10.59375 35.5 
L 73.1875 35.5 
L 73.1875 27.203125 
L 10.59375 27.203125 
z
" id="DejaVuSans-2212"/>
      </defs>
      <g transform="translate(29.495313 277.986196)scale(0.1 -0.1)">
       <use xlink:href="#DejaVuSans-2212"/>
       <use x="83.789062" xlink:href="#DejaVuSans-35"/>
       <use x="147.412109" xlink:href="#DejaVuSans-30"/>
      </g>
     </g>
    </g>
    <g id="ytick_2">
     <g id="line2d_8">
      <g>
       <use style="stroke:#000000;stroke-width:0.8;" x="57.6" xlink:href="#mfa47f1de83" y="229.376043"/>
      </g>
     </g>
     <g id="text_9">
      <!-- −40 -->
      <g transform="translate(29.495313 233.175262)scale(0.1 -0.1)">
       <use xlink:href="#DejaVuSans-2212"/>
       <use x="83.789062" xlink:href="#DejaVuSans-34"/>
       <use x="147.412109" xlink:href="#DejaVuSans-30"/>
      </g>
     </g>
    </g>
    <g id="ytick_3">
     <g id="line2d_9">
      <g>
       <use style="stroke:#000000;stroke-width:0.8;" x="57.6" xlink:href="#mfa47f1de83" y="184.565109"/>
      </g>
     </g>
     <g id="text_10">
      <!-- −30 -->
      <g transform="translate(29.495313 188.364328)scale(0.1 -0.1)">
       <use xlink:href="#DejaVuSans-2212"/>
       <use x="83.789062" xlink:href="#DejaVuSans-33"/>
       <use x="147.412109" xlink:href="#DejaVuSans-30"/>
      </g>
     </g>
    </g>
    <g id="ytick_4">
     <g id="line2d_10">
      <g>
       <use style="stroke:#000000;stroke-width:0.8;" x="57.6" xlink:href="#mfa47f1de83" y="139.754175"/>
      </g>
     </g>
     <g id="text_11">
      <!-- −20 -->
      <g transform="translate(29.495313 143.553394)scale(0.1 -0.1)">
       <use xlink:href="#DejaVuSans-2212"/>
       <use x="83.789062" xlink:href="#DejaVuSans-32"/>
       <use x="147.412109" xlink:href="#DejaVuSans-30"/>
      </g>
     </g>
    </g>
    <g id="ytick_5">
     <g id="line2d_11">
      <g>
       <use style="stroke:#000000;stroke-width:0.8;" x="57.6" xlink:href="#mfa47f1de83" y="94.943242"/>
      </g>
     </g>
     <g id="text_12">
      <!-- −10 -->
      <g transform="translate(29.495313 98.74246)scale(0.1 -0.1)">
       <use xlink:href="#DejaVuSans-2212"/>
       <use x="83.789062" xlink:href="#DejaVuSans-31"/>
       <use x="147.412109" xlink:href="#DejaVuSans-30"/>
      </g>
     </g>
    </g>
    <g id="ytick_6">
     <g id="line2d_12">
      <g>
       <use style="stroke:#000000;stroke-width:0.8;" x="57.6" xlink:href="#mfa47f1de83" y="50.132308"/>
      </g>
     </g>
     <g id="text_13">
      <!-- 0 -->
      <g transform="translate(44.2375 53.931526)scale(0.1 -0.1)">
       <use xlink:href="#DejaVuSans-30"/>
      </g>
     </g>
    </g>
    <g id="text_14">
     <!-- mean rewards -->
     <defs>
      <path d="M 52 44.1875 
Q 55.375 50.25 60.0625 53.125 
Q 64.75 56 71.09375 56 
Q 79.640625 56 84.28125 50.015625 
Q 88.921875 44.046875 88.921875 33.015625 
L 88.921875 0 
L 79.890625 0 
L 79.890625 32.71875 
Q 79.890625 40.578125 77.09375 44.375 
Q 74.3125 48.1875 68.609375 48.1875 
Q 61.625 48.1875 57.5625 43.546875 
Q 53.515625 38.921875 53.515625 30.90625 
L 53.515625 0 
L 44.484375 0 
L 44.484375 32.71875 
Q 44.484375 40.625 41.703125 44.40625 
Q 38.921875 48.1875 33.109375 48.1875 
Q 26.21875 48.1875 22.15625 43.53125 
Q 18.109375 38.875 18.109375 30.90625 
L 18.109375 0 
L 9.078125 0 
L 9.078125 54.6875 
L 18.109375 54.6875 
L 18.109375 46.1875 
Q 21.1875 51.21875 25.484375 53.609375 
Q 29.78125 56 35.6875 56 
Q 41.65625 56 45.828125 52.96875 
Q 50 49.953125 52 44.1875 
z
" id="DejaVuSans-6d"/>
      <path d="M 34.28125 27.484375 
Q 23.390625 27.484375 19.1875 25 
Q 14.984375 22.515625 14.984375 16.5 
Q 14.984375 11.71875 18.140625 8.90625 
Q 21.296875 6.109375 26.703125 6.109375 
Q 34.1875 6.109375 38.703125 11.40625 
Q 43.21875 16.703125 43.21875 25.484375 
L 43.21875 27.484375 
z
M 52.203125 31.203125 
L 52.203125 0 
L 43.21875 0 
L 43.21875 8.296875 
Q 40.140625 3.328125 35.546875 0.953125 
Q 30.953125 -1.421875 24.3125 -1.421875 
Q 15.921875 -1.421875 10.953125 3.296875 
Q 6 8.015625 6 15.921875 
Q 6 25.140625 12.171875 29.828125 
Q 18.359375 34.515625 30.609375 34.515625 
L 43.21875 34.515625 
L 43.21875 35.40625 
Q 43.21875 41.609375 39.140625 45 
Q 35.0625 48.390625 27.6875 48.390625 
Q 23 48.390625 18.546875 47.265625 
Q 14.109375 46.140625 10.015625 43.890625 
L 10.015625 52.203125 
Q 14.9375 54.109375 19.578125 55.046875 
Q 24.21875 56 28.609375 56 
Q 40.484375 56 46.34375 49.84375 
Q 52.203125 43.703125 52.203125 31.203125 
z
" id="DejaVuSans-61"/>
      <path d="M 54.890625 33.015625 
L 54.890625 0 
L 45.90625 0 
L 45.90625 32.71875 
Q 45.90625 40.484375 42.875 44.328125 
Q 39.84375 48.1875 33.796875 48.1875 
Q 26.515625 48.1875 22.3125 43.546875 
Q 18.109375 38.921875 18.109375 30.90625 
L 18.109375 0 
L 9.078125 0 
L 9.078125 54.6875 
L 18.109375 54.6875 
L 18.109375 46.1875 
Q 21.34375 51.125 25.703125 53.5625 
Q 30.078125 56 35.796875 56 
Q 45.21875 56 50.046875 50.171875 
Q 54.890625 44.34375 54.890625 33.015625 
z
" id="DejaVuSans-6e"/>
      <path id="DejaVuSans-20"/>
      <path d="M 41.109375 46.296875 
Q 39.59375 47.171875 37.8125 47.578125 
Q 36.03125 48 33.890625 48 
Q 26.265625 48 22.1875 43.046875 
Q 18.109375 38.09375 18.109375 28.8125 
L 18.109375 0 
L 9.078125 0 
L 9.078125 54.6875 
L 18.109375 54.6875 
L 18.109375 46.1875 
Q 20.953125 51.171875 25.484375 53.578125 
Q 30.03125 56 36.53125 56 
Q 37.453125 56 38.578125 55.875 
Q 39.703125 55.765625 41.0625 55.515625 
z
" id="DejaVuSans-72"/>
      <path d="M 4.203125 54.6875 
L 13.1875 54.6875 
L 24.421875 12.015625 
L 35.59375 54.6875 
L 46.1875 54.6875 
L 57.421875 12.015625 
L 68.609375 54.6875 
L 77.59375 54.6875 
L 63.28125 0 
L 52.6875 0 
L 40.921875 44.828125 
L 29.109375 0 
L 18.5 0 
z
" id="DejaVuSans-77"/>
     </defs>
     <g transform="translate(23.415625 210.413938)rotate(-90)scale(0.1 -0.1)">
      <use xlink:href="#DejaVuSans-6d"/>
      <use x="97.412109" xlink:href="#DejaVuSans-65"/>
      <use x="158.935547" xlink:href="#DejaVuSans-61"/>
      <use x="220.214844" xlink:href="#DejaVuSans-6e"/>
      <use x="283.59375" xlink:href="#DejaVuSans-20"/>
      <use x="315.380859" xlink:href="#DejaVuSans-72"/>
      <use x="356.462891" xlink:href="#DejaVuSans-65"/>
      <use x="417.986328" xlink:href="#DejaVuSans-77"/>
      <use x="499.773438" xlink:href="#DejaVuSans-61"/>
      <use x="561.052734" xlink:href="#DejaVuSans-72"/>
      <use x="602.150391" xlink:href="#DejaVuSans-64"/>
      <use x="665.626953" xlink:href="#DejaVuSans-73"/>
     </g>
    </g>
   </g>
   <g id="line2d_13">
    <path clip-path="url(#pbd79ac14b3)" d="M 73.832727 210.06295 
L 74.483338 209.509029 
L 75.133948 203.546074 
L 75.784558 203.63593 
L 76.435169 199.626345 
L 77.085779 183.335824 
L 77.736389 190.646993 
L 78.386999 189.979273 
L 79.03761 177.749074 
L 79.68822 184.50366 
L 80.33883 181.289647 
L 80.989441 171.371119 
L 81.640051 171.378672 
L 82.941272 157.434771 
L 83.591882 158.188704 
L 84.242492 141.592889 
L 84.893103 136.071991 
L 85.543713 145.233717 
L 86.194323 131.301258 
L 86.844934 139.36764 
L 87.495544 137.898391 
L 88.146154 128.942059 
L 88.796764 127.203298 
L 90.097985 117.921145 
L 90.748595 121.061733 
L 91.399206 123.029661 
L 92.049816 120.796934 
L 92.700426 121.405015 
L 93.351037 102.653439 
L 94.001647 99.176173 
L 94.652257 99.788651 
L 95.302868 100.682064 
L 95.953478 100.014687 
L 96.604088 99.880673 
L 97.905309 94.604567 
L 98.555919 85.81893 
L 99.206529 81.736787 
L 99.85714 80.369832 
L 100.50775 80.04715 
L 101.15836 82.242428 
L 101.808971 76.959153 
L 102.459581 85.189344 
L 103.760802 84.144853 
L 104.411412 84.097782 
L 105.062022 89.1927 
L 105.712633 87.803948 
L 106.363243 98.793628 
L 107.013853 99.500885 
L 107.664463 92.69529 
L 108.315074 91.57069 
L 108.965684 83.542327 
L 109.616294 83.636336 
L 110.266905 82.785853 
L 110.917515 76.755014 
L 111.568125 86.405072 
L 112.869346 88.093843 
L 113.519956 87.737669 
L 114.170567 87.092351 
L 114.821177 87.100068 
L 115.471787 86.647579 
L 116.122398 90.373998 
L 117.423618 89.979934 
L 118.074228 83.273088 
L 118.724839 82.676987 
L 119.375449 72.404253 
L 121.32728 72.298759 
L 121.97789 73.310924 
L 122.628501 84.951648 
L 123.279111 85.294507 
L 123.929721 85.164719 
L 124.580332 76.844418 
L 125.230942 76.952802 
L 125.881552 75.589078 
L 126.532163 75.908875 
L 127.182773 75.909092 
L 127.833383 83.040792 
L 128.483993 103.149645 
L 129.134604 87.19944 
L 129.785214 87.00975 
L 130.435824 86.446171 
L 131.086435 86.621145 
L 131.737045 86.957117 
L 133.038266 86.11229 
L 133.688876 86.530984 
L 134.339486 80.102719 
L 134.990097 58.941144 
L 135.640707 58.997004 
L 136.291317 59.181557 
L 137.592538 59.227594 
L 138.243148 59.030125 
L 138.893758 59.616398 
L 139.544369 67.220742 
L 140.194979 67.724311 
L 140.845589 79.352381 
L 141.4962 85.931489 
L 142.14681 86.0861 
L 142.79742 85.76671 
L 143.448031 85.982941 
L 144.098641 86.419237 
L 144.749251 86.139183 
L 145.399862 86.044912 
L 146.050472 78.127094 
L 146.701082 83.130533 
L 147.351692 70.735697 
L 148.002303 64.605867 
L 148.652913 65.391224 
L 149.303523 66.621564 
L 149.954134 66.724531 
L 150.604744 66.140939 
L 151.255354 66.141897 
L 151.905965 65.861453 
L 152.556575 74.361804 
L 153.207185 68.859329 
L 154.508406 68.453312 
L 155.159016 67.801842 
L 155.809627 66.832025 
L 156.460237 66.765102 
L 157.110847 67.032808 
L 157.761457 66.561208 
L 158.412068 66.767363 
L 159.062678 58.231205 
L 159.713288 57.99335 
L 160.363899 58.175623 
L 161.014509 57.7642 
L 161.665119 57.564702 
L 162.31573 58.225223 
L 162.96634 58.018375 
L 163.61695 57.419168 
L 164.267561 57.846633 
L 164.918171 57.666473 
L 165.568781 57.737071 
L 166.219392 57.46605 
L 166.870002 67.347234 
L 167.520612 67.455183 
L 168.171222 67.680715 
L 168.821833 66.793761 
L 169.472443 66.975059 
L 170.123053 67.573667 
L 171.424274 67.404028 
L 172.725495 67.423184 
L 173.376105 57.288667 
L 174.026715 57.281608 
L 174.677326 64.328604 
L 175.327936 64.280661 
L 175.978546 63.892415 
L 176.629156 63.268012 
L 177.279767 70.829922 
L 177.930377 70.9493 
L 179.231598 70.747442 
L 180.532818 71.139643 
L 181.183429 64.134104 
L 183.13526 64.116902 
L 183.78587 56.639374 
L 184.43648 56.250957 
L 185.737701 56.770722 
L 186.388311 56.568999 
L 187.689532 55.918259 
L 188.340142 55.772587 
L 189.641363 56.035434 
L 190.291973 55.948619 
L 191.593194 56.605602 
L 192.243804 56.477266 
L 193.545025 56.986469 
L 194.195635 56.865437 
L 194.846245 65.511586 
L 195.496856 65.315632 
L 197.448686 65.457192 
L 198.099297 64.955189 
L 199.400517 64.532029 
L 200.051128 69.59142 
L 200.701738 69.498807 
L 201.352348 60.963981 
L 202.653569 60.811413 
L 203.95479 60.298633 
L 205.906621 60.410716 
L 206.557231 55.367987 
L 207.207841 55.466195 
L 207.858451 55.231127 
L 208.509062 55.379352 
L 209.810282 55.334324 
L 210.460893 57.151914 
L 211.762113 56.997426 
L 212.412724 57.184658 
L 213.063334 56.918505 
L 214.364555 57.340239 
L 215.015165 57.112188 
L 215.665775 57.192913 
L 216.316385 57.097694 
L 216.966996 55.226496 
L 218.268216 55.217607 
L 218.918827 54.973977 
L 219.569437 55.148787 
L 220.870658 54.786416 
L 222.171878 55.015077 
L 223.473099 55.103452 
L 224.123709 54.974216 
L 224.77432 75.551406 
L 225.42493 75.665676 
L 226.07554 75.410888 
L 226.72615 75.303117 
L 228.677981 75.542359 
L 229.328592 75.68129 
L 229.979202 75.568152 
L 230.629812 97.827715 
L 231.280423 77.455429 
L 233.232254 77.739698 
L 233.882864 84.354814 
L 234.533474 84.370233 
L 235.184085 84.622538 
L 235.834695 84.47054 
L 236.485305 84.617225 
L 237.135915 62.269075 
L 237.786526 62.238403 
L 238.437136 61.943113 
L 239.738357 61.963754 
L 240.388967 55.382799 
L 241.039577 55.334086 
L 241.690188 54.722397 
L 242.340798 61.502236 
L 242.991408 61.68514 
L 244.292629 61.75182 
L 244.943239 61.984549 
L 245.59385 62.031113 
L 246.89507 61.853419 
L 248.196291 61.932134 
L 248.846901 55.177263 
L 250.148122 55.206714 
L 251.449342 55.063149 
L 252.750563 55.016893 
L 253.401173 55.029668 
L 254.051784 54.858313 
L 255.353004 54.677309 
L 256.003615 54.353167 
L 257.304835 54.370896 
L 257.955445 54.175881 
L 259.907276 54.277885 
L 260.557887 54.471813 
L 261.208497 54.942651 
L 266.413379 54.849132 
L 267.06399 54.70831 
L 267.7146 54.165393 
L 269.015821 54.253321 
L 269.666431 54.503895 
L 272.268872 54.563753 
L 272.919483 54.45719 
L 275.521924 54.98608 
L 276.172534 68.049458 
L 280.076196 67.65878 
L 282.028027 67.48816 
L 282.678637 54.221177 
L 283.979858 54.306084 
L 287.232909 54.503334 
L 287.88352 54.357402 
L 288.53413 54.444207 
L 290.485961 54.221526 
L 293.088402 54.357569 
L 294.389623 54.187813 
L 298.943895 54.380065 
L 299.594505 54.265697 
L 300.895726 54.332444 
L 301.546336 54.180745 
L 304.799388 54.062241 
L 305.449998 53.891744 
L 306.100608 54.034422 
L 308.052439 53.914817 
L 308.70305 53.896129 
L 310.00427 54.080848 
L 311.305491 54.115524 
L 311.956101 54.536908 
L 312.606712 54.438587 
L 314.558543 54.668833 
L 315.859763 54.589112 
L 316.510373 54.455213 
L 317.811594 54.411344 
L 318.462204 54.073379 
L 323.016477 54.012804 
L 324.317697 54.033946 
L 326.920138 54.060839 
L 328.221359 54.122615 
L 328.871969 54.182199 
L 330.8238 54.024726 
L 332.775631 54.159998 
L 334.076852 54.097233 
L 334.727462 54.171982 
L 336.679293 54.064845 
L 337.980514 54.034495 
L 339.281734 53.995655 
L 339.932345 54.051411 
L 341.884176 53.911869 
L 345.137227 53.861378 
L 349.040889 53.886219 
L 350.99272 53.837856 
L 358.800044 53.827956 
L 360.101264 53.751188 
L 360.751875 53.83399 
L 361.402485 53.760762 
L 362.703706 53.812971 
L 367.908588 53.774327 
L 369.209809 53.694156 
L 373.764081 53.724689 
L 377.017132 53.651497 
L 378.318353 53.730786 
L 383.523236 53.854396 
L 384.173846 53.761028 
L 384.824456 53.824105 
L 385.475066 53.715297 
L 388.077508 53.721379 
L 388.728118 53.602372 
L 390.029339 53.627271 
L 391.330559 53.568 
L 395.234221 53.766292 
L 397.186052 53.95816 
L 397.836662 53.908924 
L 398.487273 54.019906 
L 398.487273 54.019906 
" style="fill:none;stroke:#1f77b4;stroke-linecap:square;stroke-width:1.5;"/>
   </g>
   <g id="line2d_14">
    <path clip-path="url(#pbd79ac14b3)" d="M 73.832727 251.88134 
L 74.483338 295.488 
L 75.133948 278.560224 
L 76.435169 239.473971 
L 77.085779 240.082395 
L 77.736389 235.491422 
L 78.386999 244.565406 
L 79.03761 237.225284 
L 79.68822 235.192803 
L 80.33883 239.114848 
L 80.989441 223.194747 
L 81.640051 213.643234 
L 82.290661 211.83169 
L 82.941272 211.449318 
L 83.591882 202.156715 
L 84.242492 195.564451 
L 84.893103 177.789996 
L 85.543713 173.102544 
L 86.194323 184.466063 
L 86.844934 164.959651 
L 87.495544 174.928645 
L 88.146154 195.508186 
L 88.796764 194.685158 
L 89.447375 204.670322 
L 90.097985 204.326124 
L 90.748595 205.691767 
L 91.399206 224.161183 
L 92.049816 230.073823 
L 92.700426 212.532055 
L 93.351037 242.232512 
L 94.001647 223.203677 
L 94.652257 197.271295 
L 95.302868 203.544187 
L 95.953478 188.168223 
L 96.604088 208.943371 
L 97.254698 209.20663 
L 97.905309 189.905172 
L 98.555919 183.575662 
L 99.206529 205.713332 
L 99.85714 178.650861 
L 100.50775 203.668796 
L 101.15836 208.518856 
L 101.808971 199.197857 
L 102.459581 204.082786 
L 103.110191 183.171942 
L 103.760802 198.45424 
L 104.411412 198.417752 
L 105.062022 200.241523 
L 105.712633 194.053255 
L 106.363243 198.50355 
L 107.013853 188.540087 
L 107.664463 188.608371 
L 108.315074 204.115402 
L 108.965684 206.92581 
L 109.616294 208.529086 
L 110.266905 189.686264 
L 110.917515 190.07194 
L 111.568125 213.347503 
L 112.218736 193.991122 
L 112.869346 195.982749 
L 113.519956 182.356353 
L 114.170567 176.992201 
L 114.821177 156.180981 
L 115.471787 156.005205 
L 116.122398 155.258895 
L 116.773008 158.534789 
L 117.423618 164.794037 
L 118.074228 137.561343 
L 118.724839 138.098872 
L 119.375449 134.228517 
L 120.026059 138.266548 
L 121.32728 141.353634 
L 121.97789 135.792394 
L 123.279111 128.372522 
L 123.929721 119.302553 
L 124.580332 119.778239 
L 125.230942 116.170235 
L 125.881552 118.107594 
L 126.532163 117.558095 
L 127.182773 119.225545 
L 127.833383 117.310145 
L 128.483993 112.767113 
L 129.134604 117.386751 
L 129.785214 129.725541 
L 130.435824 130.050633 
L 131.086435 134.869352 
L 131.737045 140.649178 
L 132.387655 132.502742 
L 133.038266 132.294648 
L 133.688876 134.539542 
L 134.339486 141.659878 
L 134.990097 147.119681 
L 135.640707 150.17007 
L 136.291317 141.136351 
L 136.941927 151.765378 
L 137.592538 149.349785 
L 138.243148 150.262588 
L 138.893758 155.360552 
L 139.544369 158.091513 
L 140.194979 157.417907 
L 140.845589 158.535935 
L 141.4962 158.575018 
L 142.14681 153.109641 
L 142.79742 164.741606 
L 143.448031 158.673879 
L 144.098641 161.641602 
L 144.749251 162.673556 
L 145.399862 158.973336 
L 146.050472 159.645147 
L 146.701082 163.165839 
L 147.351692 164.440367 
L 148.002303 159.472399 
L 148.652913 163.784155 
L 149.303523 156.397343 
L 149.954134 151.232039 
L 150.604744 151.132016 
L 151.255354 142.974397 
L 151.905965 149.104345 
L 152.556575 146.59627 
L 153.207185 148.474337 
L 153.857796 144.632121 
L 154.508406 154.212991 
L 155.159016 144.134046 
L 155.809627 137.556853 
L 156.460237 146.557113 
L 157.110847 139.122014 
L 157.761457 143.416579 
L 158.412068 140.99876 
L 159.062678 144.292145 
L 159.713288 139.889813 
L 160.363899 137.509568 
L 161.014509 138.772615 
L 161.665119 140.45897 
L 162.31573 136.24996 
L 162.96634 153.000477 
L 163.61695 151.46881 
L 164.267561 147.967931 
L 164.918171 150.125003 
L 165.568781 148.796521 
L 166.219392 146.979693 
L 166.870002 154.656254 
L 167.520612 146.554368 
L 168.171222 144.544819 
L 168.821833 143.96468 
L 169.472443 116.329818 
L 170.123053 125.917224 
L 170.773664 125.751056 
L 171.424274 117.536969 
L 172.074884 116.777743 
L 172.725495 118.951722 
L 173.376105 108.599619 
L 174.026715 105.973139 
L 174.677326 111.096683 
L 175.327936 119.409345 
L 175.978546 132.561572 
L 176.629156 129.430069 
L 177.279767 138.094746 
L 177.930377 137.854294 
L 179.231598 124.135612 
L 179.882208 122.324483 
L 180.532818 121.033113 
L 181.183429 130.503483 
L 182.484649 115.434536 
L 183.13526 108.419176 
L 183.78587 97.22407 
L 184.43648 97.988255 
L 185.087091 98.239852 
L 185.737701 99.809846 
L 186.388311 100.990367 
L 187.038921 111.704289 
L 187.689532 96.216982 
L 188.340142 95.553478 
L 188.990752 88.881165 
L 189.641363 89.622453 
L 190.291973 89.485552 
L 190.942583 99.365652 
L 191.593194 96.923777 
L 192.243804 108.485924 
L 192.894414 107.992401 
L 193.545025 96.883998 
L 194.195635 98.973758 
L 195.496856 99.438771 
L 196.147466 109.413576 
L 196.798076 110.228298 
L 197.448686 113.820204 
L 198.099297 116.055968 
L 198.749907 101.931724 
L 199.400517 100.538849 
L 200.051128 100.463051 
L 200.701738 99.415629 
L 201.352348 99.31945 
L 202.002959 100.64962 
L 202.653569 91.314203 
L 203.304179 92.33382 
L 203.95479 77.795073 
L 204.6054 87.959617 
L 205.25601 88.042364 
L 205.906621 88.869464 
L 206.557231 90.298208 
L 207.207841 89.387631 
L 207.858451 89.438969 
L 208.509062 87.690955 
L 209.159672 87.549625 
L 210.460893 110.513823 
L 211.111503 98.021291 
L 211.762113 97.46089 
L 212.412724 97.079804 
L 213.063334 95.004528 
L 213.713944 94.771349 
L 214.364555 103.625911 
L 215.015165 103.432597 
L 215.665775 102.087939 
L 216.316385 103.213241 
L 216.966996 91.558917 
L 217.617606 91.525057 
L 218.268216 91.749773 
L 219.569437 92.786271 
L 220.220047 92.522858 
L 220.870658 83.670596 
L 221.521268 99.868278 
L 222.171878 100.056186 
L 222.822489 85.836993 
L 223.473099 85.5069 
L 224.123709 85.726708 
L 224.77432 86.523424 
L 226.07554 109.20498 
L 227.376761 137.812225 
L 228.027371 122.914283 
L 228.677981 123.534995 
L 229.328592 125.221496 
L 229.979202 135.691613 
L 230.629812 135.67904 
L 231.280423 148.928642 
L 231.931033 151.889987 
L 232.581643 140.307146 
L 233.882864 111.396383 
L 235.184085 111.871773 
L 235.834695 111.55393 
L 236.485305 101.127848 
L 237.135915 101.81347 
L 238.437136 74.158812 
L 239.087746 75.613263 
L 239.738357 92.515548 
L 241.039577 116.568465 
L 242.340798 133.762782 
L 243.642019 155.760013 
L 244.292629 158.005942 
L 244.943239 158.450425 
L 245.59385 165.884932 
L 246.24446 149.798102 
L 246.89507 139.872302 
L 247.54568 127.611637 
L 248.196291 119.99486 
L 249.497511 99.324288 
L 250.148122 94.221281 
L 250.798732 93.238378 
L 251.449342 92.535646 
L 252.099953 82.456855 
L 252.750563 83.082569 
L 253.401173 82.518242 
L 254.051784 82.52231 
L 254.702394 81.460861 
L 255.353004 82.490801 
L 256.003615 90.682574 
L 256.654225 84.262526 
L 257.304835 84.087445 
L 257.955445 86.560921 
L 258.606056 97.633035 
L 259.256666 96.477931 
L 259.907276 94.974493 
L 260.557887 93.893489 
L 261.208497 97.048256 
L 261.859107 103.44897 
L 262.509718 95.513367 
L 263.160328 94.548535 
L 263.810938 94.15522 
L 264.461549 91.661552 
L 265.112159 82.009694 
L 265.762769 87.829545 
L 266.413379 87.637438 
L 267.06399 87.826661 
L 267.7146 84.703639 
L 268.36521 88.945504 
L 269.015821 88.94985 
L 269.666431 88.792092 
L 270.967652 88.046334 
L 271.618262 88.208261 
L 272.268872 83.644735 
L 272.919483 84.459932 
L 273.570093 84.428077 
L 274.220703 92.766283 
L 274.871314 83.197588 
L 276.172534 85.824157 
L 276.823144 88.5069 
L 278.124365 103.4222 
L 278.774975 102.15592 
L 279.425586 114.370045 
L 280.076196 117.979578 
L 280.726806 119.538507 
L 281.377417 131.186562 
L 282.028027 130.844514 
L 283.329248 146.916151 
L 283.979858 143.801982 
L 284.630468 142.695069 
L 285.281079 145.58033 
L 285.931689 133.25073 
L 286.582299 129.986204 
L 287.88352 119.610903 
L 288.53413 118.982962 
L 289.18474 111.367793 
L 289.835351 105.298733 
L 290.485961 101.811525 
L 291.136571 96.019525 
L 291.787182 93.343801 
L 292.437792 104.259139 
L 293.088402 111.720134 
L 293.739013 106.384156 
L 294.389623 98.823482 
L 295.040233 99.220662 
L 295.690844 99.272143 
L 296.341454 96.021699 
L 296.992064 104.586222 
L 297.642674 103.049752 
L 298.293285 111.379881 
L 298.943895 99.222634 
L 299.594505 103.292662 
L 300.245116 104.948451 
L 300.895726 105.342962 
L 301.546336 104.812986 
L 302.196947 117.569408 
L 302.847557 116.62795 
L 303.498167 113.515667 
L 304.148778 113.885353 
L 304.799388 105.660091 
L 305.449998 112.102655 
L 306.100608 106.74728 
L 307.401829 123.436835 
L 308.052439 133.36858 
L 308.70305 119.780002 
L 309.35366 129.211137 
L 310.00427 123.428662 
L 310.654881 129.480149 
L 311.305491 128.936863 
L 311.956101 133.56511 
L 312.606712 132.829592 
L 313.257322 123.332255 
L 314.558543 115.315639 
L 315.209153 119.577402 
L 315.859763 109.634331 
L 317.160984 110.671937 
L 317.811594 118.356516 
L 318.462204 109.176426 
L 319.112815 102.978455 
L 319.763425 108.960916 
L 321.064646 114.21581 
L 321.715256 113.987685 
L 322.365866 114.149344 
L 323.016477 122.527476 
L 324.317697 108.799887 
L 324.968308 112.83597 
L 325.618918 113.74891 
L 326.269528 116.176121 
L 326.920138 117.292356 
L 327.570749 114.095706 
L 328.221359 116.827392 
L 328.871969 121.63885 
L 329.52258 121.146701 
L 330.17319 121.099207 
L 330.8238 125.975057 
L 331.474411 121.108953 
L 332.125021 127.212623 
L 332.775631 126.043433 
L 334.076852 132.994819 
L 334.727462 131.520175 
L 335.378073 132.710204 
L 336.028683 131.03403 
L 336.679293 131.636639 
L 337.329903 126.751607 
L 337.980514 133.733601 
L 338.631124 133.265754 
L 339.281734 127.051475 
L 340.582955 105.385203 
L 341.884176 93.53576 
L 342.534786 92.332549 
L 343.185396 99.572095 
L 343.836007 102.726836 
L 344.486617 95.483442 
L 345.137227 96.665217 
L 345.787837 105.651215 
L 346.438448 106.641853 
L 347.089058 112.894181 
L 348.390279 127.886923 
L 349.040889 126.337322 
L 349.691499 120.18429 
L 350.34211 125.962343 
L 350.99272 136.744629 
L 351.64333 140.006375 
L 352.293941 139.525062 
L 352.944551 148.6557 
L 353.595161 156.153868 
L 354.245772 157.321523 
L 354.896382 157.756006 
L 355.546992 152.837002 
L 356.197602 156.862503 
L 356.848213 153.443904 
L 357.498823 151.268274 
L 358.149433 144.650406 
L 358.800044 144.234179 
L 359.450654 142.662451 
L 360.101264 134.017361 
L 360.751875 133.66155 
L 361.402485 131.848351 
L 362.053095 140.370094 
L 362.703706 143.834052 
L 363.354316 138.684111 
L 364.004926 138.486344 
L 364.655537 135.549845 
L 365.306147 133.880874 
L 365.956757 130.738566 
L 366.607367 132.001317 
L 367.257978 137.321888 
L 367.908588 136.188487 
L 368.559198 129.158798 
L 369.209809 132.754902 
L 369.860419 137.3068 
L 370.511029 130.498724 
L 371.16164 135.740068 
L 371.81225 129.686647 
L 373.113471 132.914791 
L 373.764081 119.633955 
L 374.414691 121.728908 
L 375.065302 128.430008 
L 375.715912 123.564224 
L 376.366522 134.060449 
L 377.017132 132.547296 
L 377.667743 126.68503 
L 378.318353 132.14186 
L 378.968963 134.208356 
L 379.619574 130.874561 
L 380.270184 135.849217 
L 380.920794 134.525399 
L 381.571405 136.897978 
L 382.222015 133.771761 
L 382.872625 123.643471 
L 383.523236 129.568808 
L 384.173846 136.743145 
L 384.824456 129.216806 
L 385.475066 123.558439 
L 386.125677 120.565428 
L 387.426897 125.921568 
L 388.077508 115.845789 
L 389.378728 123.147714 
L 390.029339 119.918204 
L 390.679949 123.328346 
L 391.330559 147.748019 
L 391.98117 148.424058 
L 392.63178 146.728908 
L 393.28239 140.811129 
L 393.933001 133.001644 
L 394.583611 152.19622 
L 395.234221 143.790457 
L 395.884831 141.41051 
L 396.535442 139.481459 
L 397.186052 128.103458 
L 397.836662 110.74955 
L 398.487273 116.965913 
L 398.487273 116.965913 
" style="fill:none;stroke:#ff7f0e;stroke-linecap:square;stroke-width:1.5;"/>
   </g>
   <g id="patch_3">
    <path d="M 57.6 307.584 
L 57.6 41.472 
" style="fill:none;stroke:#000000;stroke-linecap:square;stroke-linejoin:miter;stroke-width:0.8;"/>
   </g>
   <g id="patch_4">
    <path d="M 414.72 307.584 
L 414.72 41.472 
" style="fill:none;stroke:#000000;stroke-linecap:square;stroke-linejoin:miter;stroke-width:0.8;"/>
   </g>
   <g id="patch_5">
    <path d="M 57.6 307.584 
L 414.72 307.584 
" style="fill:none;stroke:#000000;stroke-linecap:square;stroke-linejoin:miter;stroke-width:0.8;"/>
   </g>
   <g id="patch_6">
    <path d="M 57.6 41.472 
L 414.72 41.472 
" style="fill:none;stroke:#000000;stroke-linecap:square;stroke-linejoin:miter;stroke-width:0.8;"/>
   </g>
   <g id="legend_1">
    <g id="patch_7">
     <path d="M 327.759063 302.584 
L 407.72 302.584 
Q 409.72 302.584 409.72 300.584 
L 409.72 272.22775 
Q 409.72 270.22775 407.72 270.22775 
L 327.759063 270.22775 
Q 325.759063 270.22775 325.759063 272.22775 
L 325.759063 300.584 
Q 325.759063 302.584 327.759063 302.584 
z
" style="fill:#ffffff;opacity:0.8;stroke:#cccccc;stroke-linejoin:miter;"/>
    </g>
    <g id="line2d_15">
     <path d="M 329.759063 278.326187 
L 349.759063 278.326187 
" style="fill:none;stroke:#1f77b4;stroke-linecap:square;stroke-width:1.5;"/>
    </g>
    <g id="line2d_16"/>
    <g id="text_15">
     <!-- easy goal -->
     <defs>
      <path d="M 32.171875 -5.078125 
Q 28.375 -14.84375 24.75 -17.8125 
Q 21.140625 -20.796875 15.09375 -20.796875 
L 7.90625 -20.796875 
L 7.90625 -13.28125 
L 13.1875 -13.28125 
Q 16.890625 -13.28125 18.9375 -11.515625 
Q 21 -9.765625 23.484375 -3.21875 
L 25.09375 0.875 
L 2.984375 54.6875 
L 12.5 54.6875 
L 29.59375 11.921875 
L 46.6875 54.6875 
L 56.203125 54.6875 
z
" id="DejaVuSans-79"/>
      <path d="M 45.40625 27.984375 
Q 45.40625 37.75 41.375 43.109375 
Q 37.359375 48.484375 30.078125 48.484375 
Q 22.859375 48.484375 18.828125 43.109375 
Q 14.796875 37.75 14.796875 27.984375 
Q 14.796875 18.265625 18.828125 12.890625 
Q 22.859375 7.515625 30.078125 7.515625 
Q 37.359375 7.515625 41.375 12.890625 
Q 45.40625 18.265625 45.40625 27.984375 
z
M 54.390625 6.78125 
Q 54.390625 -7.171875 48.1875 -13.984375 
Q 42 -20.796875 29.203125 -20.796875 
Q 24.46875 -20.796875 20.265625 -20.09375 
Q 16.0625 -19.390625 12.109375 -17.921875 
L 12.109375 -9.1875 
Q 16.0625 -11.328125 19.921875 -12.34375 
Q 23.78125 -13.375 27.78125 -13.375 
Q 36.625 -13.375 41.015625 -8.765625 
Q 45.40625 -4.15625 45.40625 5.171875 
L 45.40625 9.625 
Q 42.625 4.78125 38.28125 2.390625 
Q 33.9375 0 27.875 0 
Q 17.828125 0 11.671875 7.65625 
Q 5.515625 15.328125 5.515625 27.984375 
Q 5.515625 40.671875 11.671875 48.328125 
Q 17.828125 56 27.875 56 
Q 33.9375 56 38.28125 53.609375 
Q 42.625 51.21875 45.40625 46.390625 
L 45.40625 54.6875 
L 54.390625 54.6875 
z
" id="DejaVuSans-67"/>
      <path d="M 9.421875 75.984375 
L 18.40625 75.984375 
L 18.40625 0 
L 9.421875 0 
z
" id="DejaVuSans-6c"/>
     </defs>
     <g transform="translate(357.759063 281.826187)scale(0.1 -0.1)">
      <use xlink:href="#DejaVuSans-65"/>
      <use x="61.523438" xlink:href="#DejaVuSans-61"/>
      <use x="122.802734" xlink:href="#DejaVuSans-73"/>
      <use x="174.902344" xlink:href="#DejaVuSans-79"/>
      <use x="234.082031" xlink:href="#DejaVuSans-20"/>
      <use x="265.869141" xlink:href="#DejaVuSans-67"/>
      <use x="329.345703" xlink:href="#DejaVuSans-6f"/>
      <use x="390.527344" xlink:href="#DejaVuSans-61"/>
      <use x="451.806641" xlink:href="#DejaVuSans-6c"/>
     </g>
    </g>
    <g id="line2d_17">
     <path d="M 329.759063 293.004312 
L 349.759063 293.004312 
" style="fill:none;stroke:#ff7f0e;stroke-linecap:square;stroke-width:1.5;"/>
    </g>
    <g id="line2d_18"/>
    <g id="text_16">
     <!-- hard goal -->
     <defs>
      <path d="M 54.890625 33.015625 
L 54.890625 0 
L 45.90625 0 
L 45.90625 32.71875 
Q 45.90625 40.484375 42.875 44.328125 
Q 39.84375 48.1875 33.796875 48.1875 
Q 26.515625 48.1875 22.3125 43.546875 
Q 18.109375 38.921875 18.109375 30.90625 
L 18.109375 0 
L 9.078125 0 
L 9.078125 75.984375 
L 18.109375 75.984375 
L 18.109375 46.1875 
Q 21.34375 51.125 25.703125 53.5625 
Q 30.078125 56 35.796875 56 
Q 45.21875 56 50.046875 50.171875 
Q 54.890625 44.34375 54.890625 33.015625 
z
" id="DejaVuSans-68"/>
     </defs>
     <g transform="translate(357.759063 296.504312)scale(0.1 -0.1)">
      <use xlink:href="#DejaVuSans-68"/>
      <use x="63.378906" xlink:href="#DejaVuSans-61"/>
      <use x="124.658203" xlink:href="#DejaVuSans-72"/>
      <use x="165.755859" xlink:href="#DejaVuSans-64"/>
      <use x="229.232422" xlink:href="#DejaVuSans-20"/>
      <use x="261.019531" xlink:href="#DejaVuSans-67"/>
      <use x="324.496094" xlink:href="#DejaVuSans-6f"/>
      <use x="385.677734" xlink:href="#DejaVuSans-61"/>
      <use x="446.957031" xlink:href="#DejaVuSans-6c"/>
     </g>
    </g>
   </g>
  </g>
 </g>
 <defs>
  <clipPath id="pbd79ac14b3">
   <rect height="266.112" width="357.12" x="57.6" y="41.472"/>
  </clipPath>
 </defs>
</svg>
